<svg xmlns="http://www.w3.org/2000/svg" xmlns:xlink="http://www.w3.org/1999/xlink" width="512" height="512"><defs><linearGradient id="h"><stop offset="0" stop-color="#fff"/><stop offset="1" stop-color="#b0b0b0"/></linearGradient><linearGradient id="a"><stop offset="0" stop-color="#fff"/><stop offset="1" stop-color="#fff" stop-opacity="0"/></linearGradient><linearGradient id="b"><stop offset="0" stop-color="#ff7004"/><stop offset="1" stop-color="#ba4704"/></linearGradient><linearGradient id="c"><stop offset="0" stop-color="#d70016"/><stop offset="1" stop-color="#8d0016"/></linearGradient><linearGradient id="d"><stop offset="0" stop-color="#d000d0"/><stop offset="1" stop-color="#760076"/></linearGradient><linearGradient id="e"><stop offset="0" stop-color="#1476e6"/><stop offset="1" stop-color="#143e9a"/></linearGradient><linearGradient id="f"><stop offset="0" stop-color="#17b414"/><stop offset="1" stop-color="#176314"/></linearGradient><linearGradient id="g"><stop offset="0" stop-color="#f7f10e"/><stop offset="1" stop-color="#c58907"/></linearGradient><linearGradient id="y" x1="372.859" x2="318.297" y1="593.388" y2="726.388" gradientTransform="translate(1.875 -533.766)" gradientUnits="userSpaceOnUse" xlink:href="#b"/><linearGradient id="x" x1="179.047" x2="180.172" y1="580.06" y2="752.06" gradientTransform="translate(1.875 -533.766)" gradientUnits="userSpaceOnUse" xlink:href="#c"/><linearGradient id="w" x1="108.797" x2="54.765" y1="721.607" y2="857.607" gradientTransform="translate(1.875 -533.766)" gradientUnits="userSpaceOnUse" xlink:href="#d"/><linearGradient id="v" x1="186.765" x2="170.547" y1="873.544" y2="997.544" gradientTransform="translate(1.875 -533.766)" gradientUnits="userSpaceOnUse" xlink:href="#e"/><linearGradient id="u" x1="317.074" x2="343.89" y1="815.922" y2="1000.923" gradientTransform="translate(1.875 -533.766)" gradientUnits="userSpaceOnUse" xlink:href="#f"/><linearGradient id="t" x1="393.14" x2="444.453" y1="738.919" y2="904.919" gradientTransform="translate(1.875 -533.766)" gradientUnits="userSpaceOnUse" xlink:href="#g"/><linearGradient id="F" x1="277.627" x2="454.048" y1="637.059" y2="683.489" gradientTransform="rotate(60 717.317 524.507)" gradientUnits="userSpaceOnUse" xlink:href="#g"/><linearGradient id="G" x1="253.838" x2="401.186" y1="725.269" y2="612.484" gradientTransform="rotate(120 409.147 523.424)" gradientUnits="userSpaceOnUse" xlink:href="#f"/><linearGradient id="H" x1="326.125" x2="342.125" y1="701.766" y2="581.766" gradientTransform="rotate(180 255.062 522.883)" gradientUnits="userSpaceOnUse" xlink:href="#e"/><linearGradient id="I" x1="456.976" x2="273.627" y1="694.418" y2="643.987" gradientTransform="rotate(-120 100.977 522.342)" gradientUnits="userSpaceOnUse" xlink:href="#d"/><linearGradient id="J" x1="432.115" x2="263.694" y1="650.053" y2="710.341" gradientTransform="rotate(-60 -207.193 521.26)" gradientUnits="userSpaceOnUse" xlink:href="#c"/><linearGradient id="z" x1="393.14" x2="444.453" y1="738.919" y2="904.919" gradientTransform="translate(518.203 -554.747)" gradientUnits="userSpaceOnUse" xlink:href="#g"/><linearGradient id="A" x1="317.074" x2="343.89" y1="815.922" y2="1000.923" gradientTransform="translate(518.203 -554.747)" gradientUnits="userSpaceOnUse" xlink:href="#f"/><linearGradient id="B" x1="186.765" x2="170.547" y1="873.544" y2="997.544" gradientTransform="translate(518.203 -554.747)" gradientUnits="userSpaceOnUse" xlink:href="#e"/><linearGradient id="C" x1="108.797" x2="54.765" y1="721.607" y2="857.607" gradientTransform="translate(518.203 -554.747)" gradientUnits="userSpaceOnUse" xlink:href="#d"/><linearGradient id="D" x1="179.047" x2="180.172" y1="580.06" y2="752.06" gradientTransform="translate(518.203 -554.747)" gradientUnits="userSpaceOnUse" xlink:href="#c"/><linearGradient id="E" x1="372.859" x2="318.297" y1="593.388" y2="726.388" gradientTransform="translate(518.203 -554.747)" gradientUnits="userSpaceOnUse" xlink:href="#b"/><linearGradient id="K" x1="256" x2="256" y1="224" y2="288" gradientUnits="userSpaceOnUse" xlink:href="#h"/><filter id="l" color-interpolation-filters="sRGB"><feGaussianBlur stdDeviation="11.392"/></filter><filter id="i" color-interpolation-filters="sRGB"><feGaussianBlur stdDeviation="9"/></filter><filter id="j"><feGaussianBlur stdDeviation="9"/></filter><filter id="M"><feGaussianBlur stdDeviation="4.822"/></filter><filter id="L"><feGaussianBlur stdDeviation="4.612"/></filter><filter id="N"><feGaussianBlur stdDeviation="4.717"/></filter><filter id="O"><feGaussianBlur stdDeviation="5.065"/></filter><filter id="P"><feGaussianBlur stdDeviation="4.766"/></filter><filter id="Q"><feGaussianBlur stdDeviation="4.72"/></filter><filter id="Y" width="1.6" height="1.6" x="-.3" y="-.3"><feGaussianBlur stdDeviation="25.864"/></filter><filter id="Z" width="2.2" height="2.2" x="-.6" y="-.6"><feGaussianBlur stdDeviation="12"/></filter><filter id="m" width="1.204" height="1.282" x="-.102" y="-.141"><feGaussianBlur stdDeviation="9.267"/></filter><filter id="o" width="1.239" height="1.214" x="-.119" y="-.107"><feGaussianBlur stdDeviation="9.267"/></filter><filter id="p" width="1.204" height="1.282" x="-.102" y="-.141"><feGaussianBlur stdDeviation="9.267"/></filter><filter id="q" width="1.251" height="1.221" x="-.125" y="-.11"><feGaussianBlur stdDeviation="9.267"/></filter><filter id="r" width="1.239" height="1.214" x="-.119" y="-.107"><feGaussianBlur stdDeviation="9.267"/></filter><filter id="n" width="1.251" height="1.221" x="-.126" y="-.111"><feGaussianBlur stdDeviation="9.291"/></filter><filter id="s" width="1.235" height="1.235" x="-.118" y="-.118"><feGaussianBlur stdDeviation="3.136"/></filter><filter id="V"><feGaussianBlur stdDeviation="4.831"/></filter><filter id="R"><feGaussianBlur stdDeviation="4.819"/></filter><filter id="S"><feGaussianBlur stdDeviation="4.825"/></filter><filter id="W"><feGaussianBlur stdDeviation="5.057"/></filter><filter id="T"><feGaussianBlur stdDeviation="5.057"/></filter><filter id="U"><feGaussianBlur stdDeviation="4.822"/></filter><filter id="X" width="1.192" height="1.192" x="-.096" y="-.096" color-interpolation-filters="sRGB"><feGaussianBlur stdDeviation="1.758"/></filter><radialGradient id="k" cx="385.346" cy="495.543" r="205.641" fx="385.346" fy="495.543" gradientTransform="matrix(-1.7175 -.22708 .17382 -1.31464 961.041 1140.425)" gradientUnits="userSpaceOnUse" xlink:href="#a"/></defs><g fill="#1a1a1a"><path d="M510 287a225 225 0 11-.431-13.92" filter="url(#i)" opacity=".95" transform="matrix(.95556 0 0 .95556 -17.333 -17.244)"/><path d="M510 287a225 225 0 11-.431-13.92" filter="url(#j)" opacity=".95" transform="matrix(.95556 0 0 .95556 -17.333 -17.244)"/><path d="M470 257a215 215 0 11-.412-13.301" opacity=".95"/></g><path d="M303.203 32.669l-55.469 157.906 218.438-36.75C433.818 91.69 374.213 46.032 303.203 32.669z" filter="url(#m)"/><path d="M473.012 185.213L308.527 216.13l141.045 170.798c37.633-59.087 47.373-133.536 23.44-201.714z" filter="url(#n)"/><path d="M425.809 408.545l-109.016-126.99L239.4 489.101c69.988 3.047 139.331-25.742 186.409-80.557z" filter="url(#o)"/><path d="M208.797 479.331l55.469-157.906-218.438 36.75c32.354 62.135 91.959 107.793 162.969 121.156z" filter="url(#p)"/><path d="M38.988 326.787l164.485-30.916L62.428 125.073C24.795 184.16 15.055 258.61 38.988 326.787z" filter="url(#q)"/><path d="M86.191 103.455l109.016 126.99L272.6 22.899C202.612 19.851 133.269 48.64 86.19 103.455z" filter="url(#r)"/><path d="M288 256a32 32 0 11-64 0 32 32 0 1164 0z" filter="url(#s)"/><g><path fill="url(#y)" d="M303.203 32.669l-55.469 157.906 218.438-36.75C433.818 91.69 374.213 46.032 303.203 32.669z"/><path fill="url(#F)" d="M473.012 185.213L308.527 216.13l141.045 170.798c37.633-59.087 47.373-133.536 23.44-201.714z"/><path fill="url(#G)" d="M425.809 408.545l-109.016-126.99L239.4 489.101c69.988 3.047 139.331-25.742 186.409-80.557z"/><path fill="url(#H)" d="M208.797 479.331l55.469-157.906-218.438 36.75c32.354 62.135 91.959 107.793 162.969 121.156z"/><path fill="url(#I)" d="M38.988 326.787l164.485-30.916L62.428 125.073C24.795 184.16 15.055 258.61 38.988 326.787z"/><path fill="url(#J)" d="M86.191 103.455l109.016 126.99L272.6 22.899C202.612 19.851 133.269 48.64 86.19 103.455z"/><path fill="url(#K)" d="M288 256a32 32 0 11-64 0 32 32 0 1164 0z"/></g><g fill="#fff" opacity=".5"><path d="M262.75 177.906c62.523-10.733 125.195-20.603 187.625-31.875C419.72 95.155 367.864 57.206 309.656 44.25L262.75 177.906z" filter="url(#R)" opacity=".15"/><path d="M327.031 222.844c40.524 48.788 80.415 98.102 121.406 146.5 28.721-51.924 35.594-115.91 17.782-172.719L327.03 222.844z" filter="url(#S)" opacity=".25"/><path d="M253.688 479.313c59.785-1.051 118.43-27.006 158.75-70.875l-92.22-107.5-66.53 178.375z" filter="url(#T)" opacity=".15"/><path d="M61.438 365.688c30.573 50.936 82.515 89.038 140.906 102.062l46.906-133.656-187.813 31.594z" filter="url(#U)" opacity=".15"/><path d="M63.25 143.219c-28.513 51.852-35.189 115.62-17.469 172.156l139.25-26.219L63.72 142.344l-.469.875z" filter="url(#V)" opacity=".25"/><path d="M257.719 32.719C198.32 33.77 139.789 59.879 99.53 103.53l92.25 107.531 66.531-178.375-.593.032z" filter="url(#W)" opacity=".15"/><path d="M254.781 234.031c-17.879-.186-28.234 25.63-14.562 37.5 10.37 10.67 31.406 7.507 36.219-7.156 5.241-12.604-3.314-29.036-17.282-30.156a21.476 21.476 0 00-4.375-.188z" filter="url(#X)" opacity=".15"/></g></svg>
