<svg xmlns="http://www.w3.org/2000/svg" xmlns:xlink="http://www.w3.org/1999/xlink" height="40" width="40"><path d="M5.183 5.183h29.633v29.633H5.183z" fill="#f33" stroke="#f33" stroke-width="10.367" stroke-linejoin="round"/><path d="M0 9.37h40V30.63H0z" fill="#fcc"/><path d="M20 27.422q-1.707-3.088-6.903-6.214-2.417-1.46-2.417-3.76 0-.97.336-1.86.35-.89 1.034-1.59.66-.672 1.52-1.06.8-.362 1.77-.362.96 0 1.77.362.847.375 1.52 1.06.66.672 1.01 1.563.36.878.36 1.886 0-1.008.35-1.886.36-.89 1.022-1.563.673-.685 1.52-1.06.8-.362 1.77-.362.96 0 1.77.362.86.388 1.52 1.06.685.698 1.022 1.59.35.89.35 1.86 0 2.325-2.417 3.76-5.196 3.126-6.903 6.214z" fill="#f33"/><g fill="#fff" fill-opacity=".94"><path d="M5.198 3.84q.24-.654.595-.95.36-.295.86-.295.407 0 .687.17.285.17.463.464.178.295.254.696.08.4.08.865V8.4h-1.17V5.2q0-.332-.04-.607-.04-.28-.137-.475-.097-.2-.254-.3-.153-.1-.37-.1-.214 0-.387.12-.173.116-.3.338-.122.216-.193.522-.066.3-.066.665v3.055H4.043V.58h1.175v2.137q0 .17-.005.343-.005.17-.01.322-.005.148-.01.27-.005.12-.01.2zm5.185-1.14v3.202q0 .332.04.612.04.274.137.475.097.195.25.306.153.1.37.1.214 0 .387-.116.173-.12.295-.338.127-.222.193-.522.07-.306.07-.67V2.7H13.3v4.432q0 .18 0 .38.005.195.01.375.005.174.01.317.005.137.01.206H12.2q-.005-.063-.015-.2-.005-.142-.015-.3-.005-.17-.01-.338-.005-.17-.005-.285h-.02q-.234.65-.595.944-.36.295-.86.295-.407 0-.692-.17-.28-.17-.458-.46-.178-.295-.26-.696-.076-.4-.076-.865V2.7zm6.783 5.708V5.206q0-.332-.036-.607-.036-.28-.117-.475-.08-.2-.214-.3-.132-.1-.32-.1-.178 0-.326.12-.148.116-.254.338-.102.216-.163.522-.056.3-.056.665v3.06h-1.175V3.977q0-.185-.005-.38 0-.195-.005-.37-.005-.18-.01-.317-.005-.142-.01-.2h1.114q.01.063.015.206.01.137.02.306.01.17.015.338.005.17.005.285h.015q.22-.654.54-.95.326-.295.78-.295.52 0 .83.322.315.317.422.923h.025q.122-.353.26-.6.142-.237.3-.38.168-.148.366-.2.198-.063.433-.063.37 0 .626.17.26.17.417.464.163.295.234.696.076.4.076.865V8.41h-1.165V5.206q0-.332-.036-.607-.036-.28-.117-.475-.08-.2-.214-.3-.127-.1-.315-.1-.173 0-.32.116-.142.1-.25.322-.107.206-.168.496-.056.3-.066.644v3.13zm5.974.106q-.326 0-.585-.1-.254-.116-.433-.332-.178-.222-.275-.543-.097-.322-.097-.733 0-.506.137-.85.142-.348.382-.56.244-.216.57-.3.326-.1.692-.106l.972-.02v-.3q0-.3-.046-.517-.04-.2-.127-.343-.08-.132-.204-.185-.122-.058-.28-.058-.148 0-.265.037-.112.037-.198.132-.08.1-.132.248-.05.153-.07.4L21.955 4.3q.05-.375.183-.68.137-.3.37-.538.234-.227.58-.348.346-.127.8-.127.422 0 .748.132.33.132.56.396.23.26.35.638.122.38.122.88v2.08q0 .2.015.36.015.158.05.27.04.106.112.164.076.053.193.053.132 0 .26-.032v.802q0 0-.188.058-.087.026-.168.042-.08.016-.178.026-.092.01-.22.01-.443 0-.656-.274-.2-.274-.25-.807h-.025q-.234.533-.6.828-.366.295-.885.295zm1.364-2.75l-.6.01q-.188.01-.356.042-.168.026-.295.12-.127.1-.204.264-.076.174-.076.475 0 .406.148.607.153.195.397.195.224 0 .407-.12.188-.12.315-.317.127-.2.193-.46.07-.26.07-.528zm5.28 2.644V5.206q0-.332-.04-.607-.04-.28-.137-.475-.097-.2-.254-.3-.153-.1-.37-.1-.214 0-.387.12-.173.116-.3.338-.122.216-.193.522-.066.3-.066.665v3.06H26.86V3.977q0-.185-.005-.38 0-.195-.005-.37-.005-.18-.01-.317-.005-.142-.01-.2h1.12q.01.063.015.206.005.137.015.306.01.17.015.338.005.17.005.285h.015q.24-.654.595-.95.36-.295.86-.295.407 0 .687.17.285.17.463.464.178.295.254.696.08.4.08.865V8.41z"/><use xlink:href="#B"/></g><g fill="#fff"><path d="M13.166 39.213q-.52 0-.8-.353-.275-.36-.275-1.082v-3.366h-.575V33.4h.63l.366-1.34h.738v1.34h.855v1.002h-.855v2.965q0 .417.122.617.127.195.387.195.107 0 .193-.02.092-.02.204-.053v.918q-.22.1-.463.132-.24.047-.53.047z" fill-opacity=".94"/><use xlink:href="#B" x="-17.229" y="30.71" fill-opacity=".94"/><path d="M21.506 39.224q-.54 0-.94-.2-.402-.2-.672-.596-.265-.385-.397-.923-.132-.543-.132-1.198 0-.712.142-1.266.148-.56.422-.94.275-.385.677-.586.407-.2.916-.2.438 0 .78.148.34.148.585.406.25.253.402.6.153.348.2.75l-1.18.074q-.05-.438-.25-.696-.198-.264-.57-.264-.473 0-.687.5-.214.5-.214 1.424 0 1.973.92 1.973.336 0 .56-.264.224-.27.28-.797l1.175.07q-.04.396-.193.76-.148.36-.402.638-.25.274-.6.443-.356.164-.82.164zm4.034-4.674q.24-.654.595-.95.36-.295.86-.295.407 0 .687.17.285.17.463.464.178.295.254.696.08.4.08.865v3.62h-1.17v-3.2q0-.332-.04-.607-.04-.28-.137-.475-.097-.2-.254-.3-.153-.1-.37-.1-.214 0-.387.12-.173.116-.3.338-.122.216-.193.522-.066.3-.066.665v3.055h-1.175v-7.83h1.175v2.137q0 .17-.005.343-.005.17-.01.322-.005.148-.01.27-.005.12-.01.2z" fill-opacity=".94"/></g><defs ><path id="B" d="M33.942 8.514q-.488 0-.88-.18-.392-.185-.667-.554-.275-.375-.422-.934-.142-.565-.142-1.32 0-.818.173-1.377.173-.56.463-.902.295-.348.677-.5.387-.153.814-.153.534 0 .91.237.377.232.616.654.244.422.356 1.013.117.586.117 1.298v.042h-2.895q0 .36.046.67.05.306.163.533.112.222.3.353.183.127.438.127.3 0 .504-.164.198-.17.28-.517l1.104.12q-.076.243-.214.517-.132.274-.356.506-.224.227-.56.38-.336.148-.814.148zm0-4.986q-.178 0-.336.08-.158.074-.275.243-.112.164-.183.427-.07.264-.08.633h1.756q-.036-.69-.265-1.034-.23-.348-.616-.348z"/></defs></svg>