<svg xmlns="http://www.w3.org/2000/svg" width="200" height="200"><path d="M0 0h200v200H0z"/><path d="M75.9 72.438c1.597-.98 10.207-5.556 24.098.178 14.3 5.897 23.154.776 24.253.08-3.454-5.678-7.562-10.62-12.104-13.943l.94-.263c6.023-1.742 7.553-6.842 7.875-11.2.364-4.954.616-5.03 1.692-9.487 1.032-4.28-.12-5.137-1.18-4.273-.572.465-5.552 1.616-8.505 3.92-4.768 3.72-7.707 10.794-9.04 14.706-.025.06-.205.604-.265.792-.62 1.498-1.857 1.494-1.857 1.494h0a16.77 16.77 0 0 0-1.809-.1c-.54 0-1.08.03-1.616.08-.012.002-.02 0-.03.001-1.58.233-2.45-1.697-2.632-2.157-1.85-5.314-6.82-15.773-17.987-18.586 0 0-2.028-1.554-1.4 1.074.588 2.5 1.804 5.05 1.534 8.74-.124 1.704-1.18 10.442 6.85 15 .763.432 1.44.795 2.05 1.1-4.042 3.235-7.716 7.74-10.86 12.853zm52.726 79.915c-9.842-6.098-13.153-8.242-12.946-10.575 0 0 .002-.38.1-.957.24-1.236.995-3.348 3.407-4.552a1.42 1.42 0 0 0 .208-.129c7.668-4.45 13.27-11.614 15.246-20.56-2 4.94-16.735 8.78-34.645 8.78-17.903 0-32.65-3.84-34.64-8.78.442 2.008 1.073 3.923 1.864 5.742.666 3.745 1.562 12.563-2.673 20.282-3.73 6.8-22.15 16.07-49.485 10.748 0 0-1.096-.766-1.428-.136-.5.932 1.517 1.685 3.583 2.23 19.03 5.04 47.756 3 56.777-4.443 4.116-3.388 5.704-7.953 6.107-12.865l.003.008s.1-1.287 1.72-.32c.46.277 2.125 1.36 2.4 2.585.232 1.743.248 3.883-.652 5.382-1.287 2.144-1.3 2.452.393 3.662 1.04.742 5.287 3.864 11.198 7.415.015.01.023.02.038.027 1.25.753 2.987 2.597 2.987 2.597h0c2.662 3.08 8.452 9.275 10.972 8.108 1.2-.55-.05-3.032-.05-3.032s1.98 2.57 3.043 1.694c.8-.668-.473-3.23-.473-3.23s1.73 1.5 2.757.944c1.258-.68-.187-4.614-10.08-10.627s-12.578-6.94-12.814-9.626c0 0-.004-.135.004-.366.077-.593.414-1.847 1.852-1.712 2.14.346 4.348.53 6.608.53 2.587 0 5.107-.237 7.536-.7v.003l.164-.03c.284-.036.838-.018.84.67-.1.873-.33 1.75-.845 2.52-1.447 2.168-.972 2.466.54 3.86.933.86 5.2 4.622 11.07 8.264.012.01.017.016.03.023 1.25.752 3.4 2.816 3.4 2.816v-.001c2.428 2.466 6.894 6.596 9.327 6.347 1.646-.168.306-3.002.306-3.002s2.078 2.006 3.1 1.416c1.142-.66-.474-2.755-.474-2.755s1.338.708 2.283.473 1.185-2.644-8.656-8.737zm-10.996-68.9c-1.18 0-2.16.355-2.912 1.057-.76.7-1.144 1.53-1.144 2.438v16.056c0 2.154-.382 3.742-1.135 4.72-.728.946-1.892 1.406-3.556 1.406-1.703 0-2.863-.457-3.55-1.396-.716-.98-1.078-2.57-1.078-4.73v-16.12c0-1.098-.5-1.996-1.448-2.596-1.3-.812-2.57-1.105-4.13-.587-.476.16-.924.366-1.333.615-.435.265-.802.597-1.093.985-.322.432-.486.9-.486 1.396v16.307c0 2.158-.363 3.75-1.08 4.73-.688.94-1.85 1.396-3.548 1.396-1.705 0-2.877-.46-3.584-1.4-.734-.98-1.107-2.57-1.107-4.726V86.947c0-.908-.384-1.728-1.145-2.438-.75-.702-1.75-1.057-2.973-1.057-1.258 0-2.296.352-3.085 1.045-.8.7-1.222 1.535-1.222 2.45v15.806c0 1.988.194 3.87.575 5.588.393 1.758 1.077 3.3 2.035 4.586.968 1.3 2.282 2.323 3.906 3.05 1.607.716 3.617 1.08 5.975 1.08 2.457 0 4.515-.455 6.115-1.354 1.342-.754 2.473-1.744 3.37-2.95.866 1.207 1.97 2.197 3.294 2.95 1.58.9 3.67 1.354 6.2 1.354 2.357 0 4.36-.364 5.947-1.08 1.6-.726 2.902-1.75 3.872-3.048.96-1.3 1.645-2.833 2.034-4.586.38-1.72.575-3.6.575-5.588V86.947c0-.9-.398-1.733-1.184-2.445-.767-.697-1.818-1.05-3.12-1.05z" fill="#fff"/></svg>
