<svg xmlns="http://www.w3.org/2000/svg" width="62.5" height="62.5" viewBox="0 0 60.819 60.819"><g fill="none" stroke-width="1.825" stroke-linecap="round" stroke-linejoin="round"><path d="M29.936 16.74l2.297 22.733m13.72 9.37l-13.767-9.37-18 8.57" stroke="#0e300b"/><path d="M29.838 16.444L13.688 48.17l15.82 9.288.265-41.1 16.18 32.495-16.445 8.427m-4.86-29.202l5.378 3.103 5.444-3.35m-16.057 9.945L30.025 44.1l10.755-5.75M21.554 9.1c1.2-9.975 14.393-11.893 16.665-.27" stroke="#185014"/></g><path d="M30.877 9.52a1.12 1.12 0 0 1-.544.965c-.337.2-.75.2-1.088 0a1.12 1.12 0 0 1-.544-.965 1.12 1.12 0 0 1 .544-.965c.337-.2.75-.2 1.088 0a1.12 1.12 0 0 1 .544.965z" fill="#b3b3b3" stroke="#185014" stroke-linejoin="round" stroke-width="2.436"/></svg>