<svg xmlns="http://www.w3.org/2000/svg" xmlns:xlink="http://www.w3.org/1999/xlink" width="322" height="321"><defs><radialGradient id="a" cx=".468" cy=".448" r=".683" fx=".468" fy=".448" gradientTransform="matrix(.7973 -.43216 .97559 .92271 -.343 .237)"><stop offset="0%" stop-color="#D2D3E0" stop-opacity="0"/><stop offset="42.689%" stop-color="#E2E3EC" stop-opacity=".245"/><stop offset="58.698%" stop-color="#E7E7EF" stop-opacity=".362"/><stop offset="100%" stop-color="#FFF"/></radialGradient><radialGradient id="d" cx="267.914" cy="94.874" r="144.51" fx="267.914" fy="94.874" gradientTransform="scale(.84617 1.1818)" gradientUnits="userSpaceOnUse" xlink:href="#a"/><radialGradient id="g" cx="184.006" cy="124.49" r="144.51" fx="184.006" fy="124.49" gradientTransform="scale(.84617 1.1818)" gradientUnits="userSpaceOnUse" xlink:href="#a"/><radialGradient id="j" cx="98.917" cy="154.952" r="144.51" fx="98.917" fy="154.952" gradientTransform="scale(.84617 1.1818)" gradientUnits="userSpaceOnUse" xlink:href="#a"/><linearGradient id="c" x1="287.554" x2="266.794" y1="32.87" y2="180.473" gradientTransform="scale(.84617 1.1818)" gradientUnits="userSpaceOnUse"><stop offset="0%" stop-color="#7E56F7"/><stop offset="38.85%" stop-color="#677CF6"/><stop offset="100%" stop-color="#3DB0F0"/></linearGradient><linearGradient id="f" x1="203.646" x2="182.886" y1="62.485" y2="210.089" gradientTransform="scale(.84617 1.1818)" gradientUnits="userSpaceOnUse"><stop offset="0%" stop-color="#5EE2E7"/><stop offset="27.398%" stop-color="#99E7C4"/><stop offset="100%" stop-color="#E6ED43"/></linearGradient><linearGradient id="i" x1="113.811" x2="94.816" y1="89.149" y2="296.044" gradientTransform="scale(.84617 1.1818)" gradientUnits="userSpaceOnUse"><stop offset="0%" stop-color="#F66B9F"/><stop offset="24.829%" stop-color="#ED5F72"/><stop offset="48.969%" stop-color="#E86B74"/><stop offset="72.293%" stop-color="#EB8970"/><stop offset="100%" stop-color="#F7C662"/></linearGradient><path id="b" d="M143 14.885c0-6.387 2.539-11.245 7.057-13.503 4.519-2.259 10.648-1.733 17.038 1.462l130.81 65.38c6.392 3.194 12.52 8.794 17.038 15.57 4.52 6.776 7.057 14.172 7.057 20.56v130.76c0 6.388-2.538 11.246-7.057 13.504-4.518 2.259-10.646 1.733-17.038-1.461l-130.81-65.38c-6.39-3.195-12.519-8.795-17.038-15.571-4.518-6.775-7.057-14.17-7.057-20.559z"/><path id="e" d="M72 49.885c0-6.387 2.539-11.245 7.057-13.503 4.519-2.259 10.648-1.733 17.038 1.462l130.81 65.38c6.392 3.194 12.52 8.794 17.038 15.57 4.52 6.776 7.057 14.172 7.057 20.56v130.76c0 6.388-2.538 11.246-7.057 13.504-4.518 2.259-10.646 1.733-17.038-1.461l-130.81-65.38c-6.39-3.195-12.519-8.795-17.038-15.571C74.54 194.431 72 187.036 72 180.647z"/><path id="h" d="M0 85.885c0-6.387 2.539-11.245 7.057-13.503 4.519-2.259 10.648-1.733 17.038 1.462l130.81 65.38c6.392 3.194 12.52 8.794 17.038 15.57 4.52 6.776 7.057 14.172 7.057 20.56v130.76c0 6.388-2.538 11.246-7.057 13.504-4.518 2.259-10.646 1.733-17.038-1.461l-130.81-65.38c-6.39-3.195-12.519-8.795-17.038-15.571C2.54 230.431 0 223.036 0 216.647z"/></defs><g fill="none" fill-rule="evenodd"><g opacity=".95"><use width="100%" height="100%" fill="url(#c)" xlink:href="#b"/><use width="100%" height="100%" fill="url(#d)" fill-opacity=".6" xlink:href="#b"/></g><path fill="#000" d="M270 107.11c0-11.71 5.462-18.497 12.751-16.871-1.061 2.669-1.658 6.001-1.658 9.871 0 13.49 7.247 28.406 16.187 33.316 1.179.647 2.328 1.088 3.435 1.335-2.64 6.633-8.153 9.166-14.528 5.665C277.247 135.516 270 120.6 270 107.11z" opacity=".796"/><g opacity=".95"><use width="100%" height="100%" fill="url(#f)" xlink:href="#e"/><use width="100%" height="100%" fill="url(#g)" fill-opacity=".6" xlink:href="#e"/></g><path fill="#000" d="M212.757 183.5a16 16 0 0112.547 6.072L251 222.044v48.07c0 6.388-2.538 11.246-7.057 13.504-4.518 2.259-10.646 1.733-17.038-1.461l-130.81-65.38c-6.39-3.195-12.519-8.795-17.038-15.571-3.86-5.788-6.275-12.028-6.897-17.706z" opacity=".796"/><g opacity=".95"><use width="100%" height="100%" fill="url(#i)" xlink:href="#h"/><use width="100%" height="100%" fill="url(#j)" fill-opacity=".6" xlink:href="#h"/></g><path fill="#000" d="M60.683 185.578l80.759 125.85-117.347-58.651c-6.39-3.195-12.519-8.795-17.038-15.571C2.54 230.431 0 223.036 0 216.647V181.97l45.933-3.7a16 16 0 0114.75 7.308z" opacity=".796"/></g></svg>
