<?xml version="1.0" encoding="UTF-8" standalone="no"?>
<svg
   xmlns:dc="http://purl.org/dc/elements/1.1/"
   xmlns:cc="http://creativecommons.org/ns#"
   xmlns:rdf="http://www.w3.org/1999/02/22-rdf-syntax-ns#"
   xmlns:svg="http://www.w3.org/2000/svg"
   xmlns="http://www.w3.org/2000/svg"
   xmlns:xlink="http://www.w3.org/1999/xlink"
   xmlns:sodipodi="http://sodipodi.sourceforge.net/DTD/sodipodi-0.dtd"
   xmlns:inkscape="http://www.inkscape.org/namespaces/inkscape"
   width="322"
   height="321"
   viewBox="0 0 322 321"
   version="1.1"
   id="svg71"
   sodipodi:docname="icon.svg"
   inkscape:version="0.92.4 (unknown)">
  <metadata
     id="metadata75">
    <rdf:RDF>
      <cc:Work
         rdf:about="">
        <dc:format>image/svg+xml</dc:format>
        <dc:type
           rdf:resource="http://purl.org/dc/dcmitype/StillImage" />
        <dc:title>logo_hex_full_invert</dc:title>
      </cc:Work>
    </rdf:RDF>
  </metadata>
  <sodipodi:namedview
     pagecolor="#ffffff"
     bordercolor="#666666"
     borderopacity="1"
     objecttolerance="10"
     gridtolerance="10"
     guidetolerance="10"
     inkscape:pageopacity="0"
     inkscape:pageshadow="2"
     inkscape:window-width="1920"
     inkscape:window-height="1016"
     id="namedview73"
     showgrid="false"
     fit-margin-top="0"
     fit-margin-left="0"
     fit-margin-right="0"
     fit-margin-bottom="0"
     inkscape:zoom="0.42053571"
     inkscape:cx="470.75584"
     inkscape:cy="161"
     inkscape:window-x="0"
     inkscape:window-y="27"
     inkscape:window-maximized="1"
     inkscape:current-layer="logo" />
  <!-- Generator: Sketch 57.1 (83088) - https://sketch.com -->
  <title
     id="title2">logo_hex_full_invert</title>
  <desc
     id="desc4">Created with Sketch.</desc>
  <defs
     id="defs43">
    <linearGradient
       x1="287.55396"
       y1="32.869511"
       x2="266.79373"
       y2="180.4733"
       id="linearGradient-1"
       gradientTransform="scale(0.84616783,1.1817986)"
       gradientUnits="userSpaceOnUse">
      <stop
         stop-color="#7E56F7"
         offset="0%"
         id="stop6" />
      <stop
         stop-color="#677CF6"
         offset="38.8503051%"
         id="stop8" />
      <stop
         stop-color="#3DB0F0"
         offset="100%"
         id="stop10" />
    </linearGradient>
    <radialGradient
       cx="0.4675985"
       cy="0.44848675"
       fx="0.4675985"
       fy="0.44848675"
       r="0.68312645"
       gradientTransform="translate(0.467598,0.448487),scale(1.000000,0.716000),rotate(-37.126745),scale(1.000000,1.616335),translate(-0.467598,-0.448487)"
       id="radialGradient-2">
      <stop
         stop-color="#D2D3E0"
         stop-opacity="0"
         offset="0%"
         id="stop13" />
      <stop
         stop-color="#E2E3EC"
         stop-opacity="0.245350346"
         offset="42.6885382%"
         id="stop15" />
      <stop
         stop-color="#E7E7EF"
         stop-opacity="0.362185169"
         offset="58.698425%"
         id="stop17" />
      <stop
         stop-color="#FFFFFF"
         offset="100%"
         id="stop19" />
    </radialGradient>
    <path
       d="m 143,14.885348 c 0,-6.3877064 2.53863,-11.245004 7.05733,-13.5036073 4.51871,-2.25860337 10.64744,-1.73246282 17.03775,1.4623906 34.23199,17.1085707 96.57745,48.2708947 130.80944,65.3794647 6.39211,3.194854 12.52004,8.794349 17.03895,15.57016 C 319.46237,90.569566 322,97.965541 322,104.35325 v 130.76053 c 0,6.3881 -2.53763,11.2458 -7.05653,13.5042 -4.51891,2.25861 -10.64684,1.73307 -17.03895,-1.46099 -34.23199,-17.10957 -96.57745,-48.27109 -130.80944,-65.38046 -6.39031,-3.19405 -12.51904,-8.79495 -17.03775,-15.57056 C 145.53863,159.43056 143,152.03538 143,145.64728 Z"
       id="path-3"
       inkscape:connector-curvature="0" />
    <linearGradient
       x1="203.64625"
       y1="62.485386"
       x2="182.88602"
       y2="210.08918"
       id="linearGradient-4"
       gradientTransform="scale(0.84616783,1.1817986)"
       gradientUnits="userSpaceOnUse">
      <stop
         stop-color="#5EE2E7"
         offset="0%"
         id="stop23" />
      <stop
         stop-color="#99E7C4"
         offset="27.3977292%"
         id="stop25" />
      <stop
         stop-color="#E6ED43"
         offset="100%"
         id="stop27" />
    </linearGradient>
    <path
       d="m 72,49.885348 c 0,-6.387706 2.538631,-11.245004 7.057334,-13.503607 4.518703,-2.258604 10.647441,-1.732463 17.037746,1.46239 34.23199,17.108571 96.57745,48.270895 130.80944,65.379469 6.39211,3.19485 12.52004,8.79435 17.03895,15.57016 4.5189,6.77581 7.05653,14.17178 7.05653,20.55949 v 130.76053 c 0,6.38811 -2.53763,11.2458 -7.05653,13.5042 -4.51891,2.25861 -10.64684,1.73307 -17.03895,-1.46099 C 192.67253,265.04742 130.32707,233.8859 96.09508,216.77653 89.704775,213.58248 83.576037,207.98158 79.057334,201.20597 74.538631,194.43056 72,187.03538 72,180.64728 Z"
       id="path-5"
       inkscape:connector-curvature="0" />
    <linearGradient
       x1="113.811"
       y1="89.149421"
       x2="94.815839"
       y2="296.04351"
       id="linearGradient-6"
       gradientTransform="scale(0.84616783,1.1817986)"
       gradientUnits="userSpaceOnUse">
      <stop
         stop-color="#F66B9F"
         offset="0%"
         id="stop31" />
      <stop
         stop-color="#ED5F72"
         offset="24.8291603%"
         id="stop33" />
      <stop
         stop-color="#E86B74"
         offset="48.9694012%"
         id="stop35" />
      <stop
         stop-color="#EB8970"
         offset="72.2933319%"
         id="stop37" />
      <stop
         stop-color="#F7C662"
         offset="100%"
         id="stop39" />
    </linearGradient>
    <path
       d="m 0,85.885348 c 0,-6.387706 2.538631,-11.245004 7.057334,-13.503607 4.518703,-2.258604 10.647441,-1.732463 17.037746,1.46239 34.231993,17.108571 96.57745,48.270899 130.80944,65.379469 6.39211,3.19485 12.52004,8.79435 17.03895,15.57016 4.5189,6.77581 7.05653,14.17178 7.05653,20.55949 v 130.76053 c 0,6.38811 -2.53763,11.2458 -7.05653,13.5042 -4.51891,2.25861 -10.64684,1.73307 -17.03895,-1.46099 C 120.67253,301.04742 58.327073,269.8859 24.09508,252.77653 17.704775,249.58248 11.576037,243.98158 7.057334,237.20597 2.538631,230.43056 0,223.03538 0,216.64728 Z"
       id="path-7"
       inkscape:connector-curvature="0" />
    <radialGradient
       inkscape:collect="always"
       xlink:href="#radialGradient-2"
       id="radialGradient1136"
       gradientTransform="scale(0.84616783,1.1817986)"
       cx="267.91391"
       cy="94.873764"
       fx="267.91391"
       fy="94.873764"
       r="144.50991"
       gradientUnits="userSpaceOnUse" />
    <radialGradient
       inkscape:collect="always"
       xlink:href="#radialGradient-2"
       id="radialGradient1138"
       gradientTransform="scale(0.84616783,1.1817986)"
       cx="184.0062"
       cy="124.48964"
       fx="184.0062"
       fy="124.48964"
       r="144.50991"
       gradientUnits="userSpaceOnUse" />
    <radialGradient
       inkscape:collect="always"
       xlink:href="#radialGradient-2"
       id="radialGradient1140"
       gradientTransform="scale(0.84616783,1.1817986)"
       cx="98.916702"
       cy="154.95168"
       fx="98.916702"
       fy="154.95168"
       r="144.50991"
       gradientUnits="userSpaceOnUse" />
  </defs>
  <g
     id="Page-1"
     style="fill:none;fill-rule:evenodd;stroke:none;stroke-width:1"
     transform="translate(-94,-96)">
    <g
       id="logo_hex_full_invert">
      <g
         id="logo"
         transform="translate(22,8)">
        <g
           id="_logo_src"
           transform="translate(72,88)">
          <g
             id="root">
            <g
               id="frame_back"
               style="opacity:0.95">
              <use
                 xlink:href="#path-3"
                 id="use47"
                 style="fill:url(#linearGradient-1)"
                 x="0"
                 y="0"
                 width="100%"
                 height="100%" />
              <use
                 xlink:href="#path-3"
                 id="use49"
                 style="fill:url(#radialGradient1136);fill-opacity:0.6"
                 x="0"
                 y="0"
                 width="100%"
                 height="100%" />
            </g>
            <g
               id="pic/moon"
               transform="translate(270,90)"
               style="opacity:0.79594493;fill:#000000">
              <path
                 d="M 0,17.110352 C 0,5.3993418 5.4617672,-1.3871131 12.751199,0.23898357 11.689806,2.9078808 11.093323,6.2402085 11.093323,10.11035 c 0,13.489851 7.247007,28.405571 16.186645,33.315194 1.178536,0.647249 2.327655,1.088281 3.434629,1.335311 -2.638852,6.633117 -8.153033,9.165779 -14.527952,5.664691 C 7.2470079,45.515923 0,30.600202 0,17.110352 Z"
                 id="moon"
                 inkscape:connector-curvature="0" />
            </g>
            <g
               id="frame_mid"
               style="opacity:0.95">
              <use
                 xlink:href="#path-5"
                 id="use54"
                 style="fill:url(#linearGradient-4)"
                 x="0"
                 y="0"
                 width="100%"
                 height="100%" />
              <use
                 xlink:href="#path-5"
                 id="use56"
                 style="fill:url(#radialGradient1138);fill-opacity:0.6"
                 x="0"
                 y="0"
                 width="100%"
                 height="100%" />
            </g>
            <path
               d="m 212.7575,183.5 c 4.89042,0 9.5123,2.23656 12.54694,6.07155 l 25.69554,32.47242 2e-5,48.06981 c 0,6.38811 -2.53763,11.2458 -7.05653,13.5042 -4.51891,2.25861 -10.64684,1.73307 -17.03895,-1.46099 -34.23199,-17.10957 -96.57745,-48.27109 -130.80944,-65.38046 -6.390305,-3.19405 -12.519043,-8.79495 -17.037746,-15.57056 -3.860095,-5.78788 -6.275251,-12.02803 -6.897275,-17.70632 z"
               id="picture_mid"
               inkscape:connector-curvature="0"
               style="opacity:0.79594493;fill:#000000" />
            <g
               id="frame_front"
               style="opacity:0.95">
              <use
                 xlink:href="#path-7"
                 id="use60"
                 style="fill:url(#linearGradient-6)"
                 x="0"
                 y="0"
                 width="100%"
                 height="100%" />
              <use
                 xlink:href="#path-7"
                 id="use62"
                 style="fill:url(#radialGradient1140);fill-opacity:0.6"
                 x="0"
                 y="0"
                 width="100%"
                 height="100%" />
            </g>
            <path
               d="M 60.683486,185.57782 141.44177,311.42813 C 106.09303,293.7603 54.213015,267.82967 24.09508,252.77653 17.704775,249.58248 11.576037,243.98158 7.057334,237.20597 2.538631,230.43056 0,223.03538 0,216.64728 v -34.67771 l 45.933077,-3.69908 c 5.888815,-0.47427 11.559771,2.33511 14.750409,7.30733 z"
               id="picture_front"
               inkscape:connector-curvature="0"
               style="opacity:0.79594493;fill:#000000" />
          </g>
        </g>
      </g>
    </g>
  </g>
</svg>
