<svg xmlns="http://www.w3.org/2000/svg" width="256" height="256" viewBox="0 0 67.733 67.733"><defs><filter id="A" color-interpolation-filters="sRGB"><feColorMatrix values="0 0 0 0 0 0 0 0 0 0.54 0 0 0 0 0.8 0 0 0 1 0 "/></filter></defs><g transform="translate(0 -229.267)" filter="url(#A)"><path d="M33.867 235.142S22.248 244.42 8.1 244.42c0 28.23 10.406 34.364 25.768 45.77 21.118-14.693 25.768-17.538 25.768-45.77-13.82 0-25.768-9.278-25.768-9.278z" fill="none" stroke="#000" stroke-width="4"/><g transform="matrix(.205174 0 0 .205174 22.83912 256.04857)"><g transform="translate(-70.799 -116.993)" stroke="#000" stroke-width="1.013" stroke-miterlimit="0"><path d="M82.585 120.106l90.168-.76s10.924-1.71 11.6 9.605c.655 10.99-8.477 9.127-8.477 9.127l-93.507.787s-11.61 1.39-11.914-9.28c-1.657-10.982 12.13-9.48 12.13-9.48z"/><path d="M137.636 108.476s5.993-23.636 41.05-24.108c42.42-.57 45.4 32.93 45.76 44.57 1.227 9.37-6.41 45.733-39.87 45.52-26.546-2.068-42.93-24.452-42.93-24.452L159.47 150s5.814 6.603 23.867 6.775c16.05.188 24.43-10.555 24.037-28.34-1.118-18.75-7.947-27.024-26.41-28.24-22.04.185-23.066 7.79-23.066 7.79z"/><path d="M109.76 109.6s-6.005-23.917-41.083-23.816c-38.772.112-41.133 33.01-40.715 45.62.925 15.516 14.496 42.857 47.558 42.58 36.936-1.377 36.818-24.652 36.818-24.652l-17.048.63s-4.615 7.76-22.63 8.236c-17.11-1.15-27.21-13.678-27.392-27.907-1.118-18.75 10.652-28.474 23.016-28.655 22.04-.185 23.546 7.63 23.546 7.63z"/></g></g></g></svg>
