<svg xmlns="http://www.w3.org/2000/svg" xmlns:xlink="http://www.w3.org/1999/xlink" viewBox="0 0 675.452 660.067"><defs><linearGradient id="A" gradientUnits="userSpaceOnUse"><stop offset="0" stop-color="#66b8ff"/><stop offset="1" stop-color="#00507a"/></linearGradient><linearGradient id="B" x1="447.389" x2="495.907" y1="246.617" y2="271.889" gradientUnits="userSpaceOnUse"><stop offset="0" stop-color="#fff2bc"/><stop offset="1" stop-color="#83560b"/></linearGradient><linearGradient id="C" x1="547.22" x2="642.753" y1="206.605" y2="249.126" gradientUnits="userSpaceOnUse"><stop offset="0" stop-color="#fff9db" stop-opacity=".732"/><stop offset="1" stop-color="#2c2c2c"/></linearGradient><linearGradient id="D" x1="164.653" x2="263.529" y1="225.598" y2="355.003" gradientUnits="userSpaceOnUse"><stop offset="0" stop-color="#b9e5ff" stop-opacity=".42"/><stop offset="1" stop-color="#fff"/></linearGradient><linearGradient id="E" x1="68.819" x2="317.083" y1="46.72" y2="614.505" xlink:href="#A" /><linearGradient id="F" x1="55.021" x2="315.126" y1="36.097" y2="634.286" xlink:href="#A" /></defs><g fill-rule="evenodd"><ellipse cx="322.628" cy="330.033" fill="url(#F)" stroke="#000" stroke-width="13.263" rx="316.071" ry="323.326"/><ellipse cx="324.243" cy="325.718" fill="url(#E)" rx="307.943" ry="313.262"/><ellipse cx="459.111" cy="-324.751" fill="#060000" stroke="#000" stroke-width=".937" rx="95.98" ry="56.154" transform="matrix(.7652 .6438 -.73696 .67593 0 0)"/><path fill="url(#D)" fill-opacity=".75" stroke="#f6f7f7" stroke-opacity=".393" stroke-width="1.304" d="M282.602 574.44s-86.24-136.49-19.304-274.4c53.2-110.856 69.7-212.924 26.44-285.14-76.845 9.58-143.74 48.852-176.886 82.39-50.206 48.927-74.23 100.22-85.107 136.077C42.25 410.177 283.8 578.15 282.602 574.44z"/><path fill="url(#B)" stroke="#323232" stroke-width="5.635" d="M304.666 581.206c-2.3-2.14 112.722-172.667 253.3-195.823.432-183.818 84.95-251.437 90.3-262.946-11.295-61.066-44.462-84.13-74.397-88.99-50.737-6.466-41.214 16.297-47.448 22.358-34.333 77.532-106.235 186.98-116.384 206.552-28.556 39.57-89.028 234.862-113.216 318.46z"/><g fill="#665123"><ellipse cx="509.632" cy="12.95" rx="8.691" ry="24.934" transform="matrix(.83114 .55607 -.51486 .85728 0 0)"/><path stroke="#665123" stroke-width="1.739" d="M406.495 314.567l-2.252-1.69c-2.59-1.946-89.455 226.063-102.86 266.913 13.32-43.074 91.705-247.25 105.112-265.222z"/></g><path fill="url(#C)" d="M455.224 391.416c30.497-23.977 43.938-43.5 74.133-49.436C524.14 267 581.762 176.482 628.6 91.832l-8.435-15.22c-19.375 29.345-134.52 240.195-164.942 314.804z"/></g></svg>
