<svg xmlns="http://www.w3.org/2000/svg" width="608" height="608"><path d="M304 4C138.315 4 4 138.315 4 304s134.315 300 300 300 300-134.315 300-300S469.685 4 304 4zm0 25c125.967 0 232.154 84.7 264.72 200.25-28.048 57.852-67.96 109.94-116.562 152.03-23.35 20.22-48.84 38.246-77 50.938s-59.132 19.893-89.97 18.125c-23.168-1.33-46.055-7.782-66.344-19.03 53.77-29.136 102.286-67.983 142-114.5 26.068-30.533 48.875-65.232 57.656-104.406 4.39-19.587 5.135-40.1 1.03-59.75s-13.19-38.374-26.937-53c-13.432-14.288-31.065-24.4-49.97-29.625s-39.022-5.62-58.312-2.094c-38.582 7.05-73.028 29.474-100.656 57.313-48.698 49.07-78.804 118.307-73.28 187.22 2.76 34.456 14.308 68.313 34.094 96.656 4.417 6.327 9.272 12.353 14.47 18.063C130.114 437.275 100.27 444.456 70 448.5 44.012 406.507 29 357.013 29 304 29 152.122 152.122 29 304 29zm1.75 55.563c19.33.026 38.794 5.88 54.22 17.53 13.897 10.5 24.194 25.434 30.03 41.844s7.335 34.23 5.344 51.53c-3.983 34.605-21.44 66.34-42.53 94.063-37.344 49.086-86.982 88.373-142.187 115.875-5.65 2.815-11.39 5.49-17.156 8.063-12.012-10.512-22.308-22.98-30.156-36.875-16.4-29.035-21.807-63.525-18.625-96.72s14.573-65.185 29.875-94.813c17.742-34.352 41.926-66.9 75.78-85.562 16.927-9.336 36.075-14.964 55.406-14.937zm270.78 182.625c1.61 12.042 2.47 24.33 2.47 36.813 0 151.878-123.122 275-275 275-85.296 0-161.528-38.83-211.97-99.78 31.134-7.07 61.563-17.228 90.75-30.156 12.764 9.72 26.86 17.693 41.844 23.438 43.15 16.543 92.142 14.15 135.813-.97s82.397-42.253 116.156-73.812c40.216-37.595 74.124-81.907 99.938-130.53z"/></svg>
