<svg xmlns="http://www.w3.org/2000/svg" viewBox="0 0 117.3 117.3"><linearGradient id="A" gradientUnits="userSpaceOnUse" x1="58.666" y1="117.332" x2="58.666" y2="0"><stop offset="0" stop-color="#0882c8"/><stop offset="1" stop-color="#26b6db"/></linearGradient><circle fill="url(#A)" cx="58.7" cy="58.7" r="58.7"/><circle fill="none" stroke="#fff" stroke-width="6" cx="58.7" cy="58.5" r="43.7"/><path fill="#fff" d="M94.7 47.8c4.7 1.6 9.8-.9 11.4-5.6s-.9-9.8-5.6-11.4-9.8.9-11.4 5.6.9 9.8 5.6 11.4z"/><path fill="none" stroke="#fff" stroke-width="6" stroke-miterlimit="10" d="M97.6 39.4l-30.1 25"/><path fill="#fff" d="M77.6 91c-.4 4.9 3.2 9.3 8.2 9.8 5 .4 9.3-3.2 9.8-8.2.4-4.9-3.2-9.3-8.2-9.8-5-.4-9.4 3.2-9.8 8.2z"/><path fill="none" stroke="#fff" stroke-width="6" stroke-miterlimit="10" d="M86.5 91.8l-19-27.4"/><path d="M60 69.3c2.7 4.2 8.3 5.4 12.4 2.7 4.2-2.7 5.4-8.3 2.7-12.4-2.7-4.2-8.3-5.4-12.4-2.7-4.2 2.6-5.4 8.2-2.7 12.4zm-38.8-7.9c-4.3-2.5-9.8-1.1-12.3 3.1-2.5 4.3-1.1 9.8 3.1 12.3 4.3 2.5 9.8 1.1 12.3-3.1s1.1-9.7-3.1-12.3z" fill="#fff"/><path fill="none" stroke="#fff" stroke-width="6" stroke-miterlimit="10" d="M16.6 69.1l50.9-4.7"/></svg>
