<svg xmlns="http://www.w3.org/2000/svg" viewBox="55 15 328.085 326.869" width="328.085" height="326.869"><g fill="none" stroke="#d3ccb0" stroke-miterlimit="10"><path d="M55.428 256.58h327.657M55 340.68h327.657" stroke-width="2.377"/><path d="M81.543 115l150-82.6m.2-5.8l123.7 74.3" stroke-width="5"/></g><path d="M352.943 220.9l-258.1 19.4c-14.8 1.1-27.8-10.1-28.9-24.9l-5.7-76.5c-1.1-14.8 10.1-27.8 24.9-28.9l258.1-19.4c14.8-1.1 27.8 10.1 28.9 24.9l5.7 76.5c1.1 14.8-10.1 27.8-24.9 28.9z" fill="#518abe"/><path d="M110.243 135.2c7.5-.6 14.1.5 19.8 3.1 5.6 2.7 10.1 6.7 13.3 12.1s5.1 12 5.7 19.6c.4 5.6 0 10.8-1.1 15.5-1.2 4.7-3.2 8.9-6 12.5s-6.3 6.5-10.6 8.6-9.3 3.4-15 3.8-10.9-.1-15.5-1.6-8.6-3.8-11.9-6.9-5.8-7-7.7-11.6-3-9.6-3.5-15.1c-.4-5.6 0-10.8 1.3-15.6s3.3-8.9 6.1-12.4 6.3-6.3 10.6-8.4 8.9-3.2 14.5-3.6zm23.8 35.9c-.4-5.3-1.6-9.9-3.6-13.7s-4.7-6.5-8-8.3-7.1-2.5-11.2-2.2c-2.9.2-5.6 1-8 2.3s-4.4 3.1-6.1 5.3c-1.6 2.3-2.9 5.1-3.7 8.4-.8 3.4-1 7.1-.7 11.2s1.1 7.8 2.4 11.1 3 5.9 5 8a18.41 18.41 0 0 0 6.9 4.4c2.5.9 5.3 1.3 8.2 1 3.8-.3 7.2-1.5 10.2-3.6s5.3-5.2 6.9-9.3c1.5-4 2.1-8.9 1.7-14.6zm56.4 4l-13.5 1 1.5 20.6c.2 2.9-.3 5.2-1.6 6.9-1.3 1.6-3 2.5-5.1 2.7-2.2.2-4.1-.5-5.5-1.9-1.5-1.4-2.3-3.6-2.5-6.5l-4.2-56.1c-.2-3.2.3-5.6 1.7-7.1s3.7-2.4 6.9-2.6l18.9-1.4c5.6-.4 9.9-.3 13 .3 3 .6 5.7 1.8 8 3.5 2.3 1.8 4.1 4 5.5 6.7 1.3 2.7 2.1 5.8 2.4 9.3.6 7.4-1.3 13.2-5.6 17.4-4.2 4.1-10.9 6.5-19.9 7.2zm-6.1-33.1l-9.9.7 1.7 22.3 9.9-.7c3.5-.3 6.4-.8 8.6-1.7 2.3-.9 4-2.2 5.1-4 1.1-1.7 1.5-4 1.3-6.6-.2-3.2-1.4-5.8-3.4-7.6-2.3-2.1-6.7-2.9-13.3-2.4zm91.2-6.5l-33.2 2.5 1.3 17.9 30.6-2.3c2.3-.2 4 .2 5.2 1.1s1.8 2.2 2 3.9c.1 1.7-.3 3-1.3 4.2s-2.7 1.8-4.9 1.9l-30.6 2.3 1.6 20.7 34.4-2.6c2.3-.2 4.1.2 5.4 1.2s2 2.4 2.1 4.2c.1 1.7-.4 3.2-1.4 4.3-1.1 1.2-2.8 1.8-5.1 2l-40.1 3c-3.2.2-5.6-.3-7.1-1.6s-2.4-3.6-2.6-6.7l-4.1-54.7c-.2-2.1 0-3.9.6-5.3.5-1.4 1.4-2.4 2.7-3.2s3-1.1 5.1-1.3l38.9-2.9c2.3-.2 4.1.2 5.4 1.2 1.2 1 1.9 2.3 2 4s-.3 3.1-1.4 4.3c-1.5 1-3.2 1.7-5.5 1.9zm38.8-6.7l31.6 40.8-3.2-43.3c-.2-2.8.2-5 1.3-6.5s2.7-2.3 4.7-2.5c2.1-.2 3.8.4 5.2 1.7 1.3 1.3 2.1 3.4 2.3 6.2l4.3 57.3c.5 6.4-1.9 9.8-7.2 10.2-1.3.1-2.5 0-3.6-.3s-2.1-.8-3.1-1.6-1.9-1.7-2.8-2.7a40.31 40.31 0 0 1-2.6-3.2l-31-40.4 3.2 42.7c.2 2.8-.3 4.9-1.5 6.5-1.2 1.5-2.8 2.4-4.8 2.5-2.1.2-3.8-.4-5.2-1.8-1.4-1.3-2.2-3.4-2.4-6.1l-4.2-56.2c-.2-2.4-.1-4.3.4-5.7.5-1.5 1.5-2.8 2.9-3.9s2.9-1.6 4.6-1.8c1.3-.1 2.5 0 3.5.4a8.69 8.69 0 0 1 2.6 1.6c.8.7 1.6 1.6 2.4 2.7.8 1 1.7 2.2 2.6 3.4z" fill="#fff"/><circle cx="234.643" cy="27.3" r="12.3"/><path d="M69.3 303.55c0 10.602.285 15.26 1.57 16.545 1.14 1.14 3.043 1.664 8.653 1.664 3.85 0 6.99-.095 8.748-2.187.95-1.14 1.664-2.948 1.854-4.326.095-.57.238-.95.666-.95.38 0 .428.285.428 1.093s-.523 5.135-1.093 7.226c-.523 1.664-.713 1.95-4.564 1.95-5.182 0-8.938-.143-11.98-.238l-7.37-.238c-.285 0-1.52.095-2.948.095a68.09 68.09 0 0 1-4.136.143c-.808 0-1.14-.143-1.14-.57 0-.238.143-.428.57-.428.666 0 1.52-.143 2.187-.285 1.426-.285 1.807-1.854 2.092-3.994.38-3.043.38-8.748.38-15.69v-12.694l-.143-15.594c-.143-2.472-.713-3.613-3.1-4.136-.57-.143-1.807-.238-2.472-.238-.285 0-.57-.143-.57-.428 0-.428.38-.57 1.14-.57 3.233 0 7.797.238 8.177.238s5.6-.238 7.797-.238c.808 0 1.14.143 1.14.57 0 .285-.285.428-.57.428-.523 0-1.52.095-2.377.238-2.092.38-2.662 1.57-2.805 4.136-.143 2.33-.143 4.326-.143 15.594zm42.74-.143c0 6.94 0 12.646.38 15.69.238 2.092.666 3.66 2.805 3.994.998.143 2.615.285 3.233.285.428 0 .57.238.57.428 0 .38-.38.57-1.14.57-3.994 0-8.5-.238-8.9-.238s-4.897.238-7.084.238c-.808 0-1.14-.143-1.14-.57 0-.238.143-.428.57-.428.666 0 1.52-.143 2.187-.285 1.426-.285 1.807-1.854 2.092-3.994.38-3.043.38-8.748.38-15.69v-12.694l-.143-15.594c-.143-2.472-.856-3.66-2.472-4.04-.808-.238-1.712-.285-2.234-.285-.285 0-.57-.143-.57-.428 0-.428.38-.57 1.14-.57 2.377 0 6.94.238 7.274.238.38 0 4.897-.238 7.084-.238.808 0 1.14.143 1.14.57 0 .285-.285.428-.57.428-.523 0-.95.095-1.807.238-1.95.38-2.52 1.57-2.662 4.136-.143 2.33-.143 4.326-.143 15.594zm25.72-12.694l-.143-15.594c-.143-2.472-.713-3.613-3.1-4.136-.57-.143-1.807-.238-2.472-.238-.285 0-.57-.143-.57-.428 0-.428.38-.57 1.14-.57 3.233 0 7.797.238 8.177.238 1.712 0 4.564-.238 7.892-.238 11.838 0 14.453 7.226 14.453 10.84 0 5.943-3.375 9.46-6.798 12.98 5.325 1.664 12.503 6.798 12.503 15.26 0 7.75-6.085 15.736-18.4 15.736-.808 0-3.1-.143-5.182-.238l-4.42-.238c-.143 0-1.38 0-2.9.095-1.426 0-3.1.143-4.184.143-.808 0-1.14-.143-1.14-.57 0-.238.143-.428.57-.428.666 0 1.52-.143 2.187-.285 1.426-.285 1.807-1.854 2.092-3.994.38-3.043.38-8.748.38-15.69v-12.646zm5.753 1.57c0 .523.143.666.523.808.428.095 1.712.285 4.42.285 4.04 0 5.04-.143 6.56-1.854s2.615-4.326 2.615-7.274c0-6-2.662-12.408-9.746-12.408-.808 0-2.33.095-3.47.38-.666.143-.856.38-.856.808v19.254zm0 7.654l.095 15.594c.238 3.518.238 4.564 2.472 5.6 1.95.95 5.04 1.093 6.37 1.093 3.898 0 10.174-2.092 10.174-10.27 0-4.326-1.426-10.602-6.99-14.453-2.472-1.664-4.28-1.902-6-2.092-.95-.143-4.564-.143-5.6-.143-.285 0-.428.143-.428.523v4.136zm42.788-9.223l-.143-15.594c-.143-2.472-.713-3.613-3.1-4.136-.57-.143-1.807-.238-2.472-.238-.285 0-.57-.143-.57-.428 0-.428.38-.57 1.14-.57 3.233 0 7.797.238 8.177.238.808 0 6.276-.238 8.5-.238 4.564 0 9.366.428 13.217 3.185 1.807 1.284 4.992 4.85 4.992 9.84 0 5.325-2.234 10.697-8.748 16.687 5.943 7.607 10.84 14.025 15.023 18.494 3.898 4.136 6.99 4.897 8.795 5.182 1.38.238 2.377.238 2.805.238.38 0 .666.238.666.428 0 .428-.428.57-1.712.57h-5.135c-4.04 0-5.848-.38-7.75-1.38-3.1-1.664-5.6-5.182-9.746-10.602-3.043-3.994-6.418-8.795-7.892-10.697-.285-.285-.523-.428-.95-.428l-8.9-.143c-.38 0-.523.238-.523.57v1.712c0 6.94 0 12.646.38 15.69.238 2.092.666 3.66 2.805 3.994.998.143 2.615.285 3.233.285.428 0 .57.238.57.428 0 .38-.38.57-1.14.57-3.994 0-8.5-.238-8.9-.238-.095 0-4.612.238-6.798.238-.808 0-1.14-.143-1.14-.57 0-.238.143-.428.57-.428.666 0 1.52-.143 2.187-.285 1.426-.285 1.807-1.854 2.092-3.994.38-3.043.38-8.748.38-15.69v-12.694zm5.753 6.276c0 .38.143.666.523.856 1.093.666 4.42 1.14 7.607 1.14 1.712 0 3.756-.238 5.42-1.38 2.52-1.712 4.42-5.6 4.42-11.125 0-9.033-4.754-14.453-12.503-14.453-2.187 0-4.136.238-4.85.428-.38.143-.57.428-.57.856v23.676z"/><path d="M251.5 271.555c.856-2.377 1.14-2.805 1.57-2.805s.713.38 1.57 2.615l16.83 43.548c2.615 6.418 4.707 7.607 6.228 8.035 1.093.38 2.187.428 2.9.428.428 0 .713.095.713.428 0 .428-.666.57-1.426.57-1.093 0-6.37 0-11.362-.143-1.38-.095-2.187-.095-2.187-.523 0-.285.238-.428.523-.523.428-.143.856-.808.428-1.95l-6.703-17.78c-.143-.285-.285-.428-.666-.428H244.36c-.38 0-.57.238-.713.57l-4.326 12.79c-.666 1.807-.998 3.518-.998 4.85 0 1.426 1.52 2.092 2.757 2.092h.713c.523 0 .713.143.713.428 0 .428-.428.57-1.093.57-1.712 0-4.85-.238-5.6-.238s-4.754.238-8.177.238c-.95 0-1.38-.143-1.38-.57 0-.285.285-.428.666-.428.523 0 1.52-.095 2.092-.143 3.328-.428 4.754-3.185 6.085-6.798zm7.512 28.905c.38 0 .38-.238.285-.523l-6.846-19.492c-.38-1.093-.713-1.093-1.093 0l-6.37 19.492c-.143.38 0 .523.238.523zm32.66-9.746l-.143-15.594c-.143-2.472-.713-3.613-3.1-4.136-.57-.143-1.807-.238-2.472-.238-.285 0-.57-.143-.57-.428 0-.428.38-.57 1.14-.57 3.233 0 7.797.238 8.177.238.808 0 6.276-.238 8.5-.238 4.564 0 9.366.428 13.217 3.185 1.807 1.284 4.992 4.85 4.992 9.84 0 5.325-2.234 10.697-8.748 16.687 5.943 7.607 10.84 14.025 15.023 18.494 3.898 4.136 6.99 4.897 8.795 5.182 1.38.238 2.377.238 2.805.238.38 0 .666.238.666.428 0 .428-.428.57-1.712.57h-5.135c-4.04 0-5.848-.38-7.75-1.38-3.1-1.664-5.6-5.182-9.746-10.602-3.043-3.994-6.418-8.795-7.892-10.697-.285-.285-.523-.428-.95-.428l-8.9-.143c-.38 0-.523.238-.523.57v1.712c0 6.94 0 12.646.38 15.69.238 2.092.666 3.66 2.805 3.994.998.143 2.615.285 3.233.285.428 0 .57.238.57.428 0 .38-.38.57-1.14.57-3.994 0-8.5-.238-8.9-.238-.095 0-4.612.238-6.798.238-.808 0-1.14-.143-1.14-.57 0-.238.143-.428.57-.428.666 0 1.52-.143 2.187-.285 1.426-.285 1.807-1.854 2.092-3.994.38-3.043.38-8.748.38-15.69v-12.694zm5.8 6.276c0 .38.143.666.523.856 1.093.666 4.42 1.14 7.607 1.14 1.712 0 3.756-.238 5.42-1.38 2.52-1.712 4.42-5.6 4.42-11.125 0-9.033-4.754-14.453-12.503-14.453-2.187 0-4.136.238-4.85.428-.38.143-.57.428-.57.856v23.676zm55.243 8.653c0-3.898-.713-5.467-1.664-7.607-.523-1.14-10.174-17.067-12.694-20.823-1.807-2.662-3.613-4.47-4.897-5.325-1.093-.713-2.472-1.14-3.1-1.14-.38 0-.713-.143-.713-.523 0-.285.285-.523.95-.523 1.38 0 6.798.238 7.13.238.523 0 3.233-.238 6.085-.238.808 0 .95.238.95.523s-.428.38-1.093.666c-.57.285-.95.713-.95 1.284 0 .856.38 1.712.95 2.805 1.14 2.092 11.98 20.728 13.312 22.82 1.38-3.043 10.554-18.874 11.98-21.25.95-1.52 1.236-2.757 1.236-3.66 0-.998-.285-1.807-1.14-2.044-.666-.238-1.093-.38-1.093-.713 0-.285.428-.428 1.14-.428 1.854 0 4.184.238 4.754.238.428 0 5.6-.238 6.99-.238.523 0 .95.143.95.428 0 .38-.38.57-.95.57-.808 0-2.187.285-3.328.998-1.426.856-2.234 1.712-3.85 3.66-2.377 2.9-12.503 19.872-13.787 22.963-1.093 2.615-1.093 4.85-1.093 7.226v6.228c0 1.14 0 4.184.238 7.226.143 2.092.808 3.66 2.948 3.994.998.143 2.615.285 3.233.285.428 0 .57.238.57.428 0 .38-.38.57-1.14.57-3.994 0-8.5-.238-8.9-.238s-4.897.238-7.084.238c-.808 0-1.14-.143-1.14-.57 0-.238.143-.428.57-.428.666 0 1.52-.143 2.187-.285 1.426-.285 2.092-1.854 2.234-3.994.238-3.043.238-6.085.238-7.226v-6.133z"/></svg>
