<?xml version="1.0" encoding="UTF-8" standalone="no"?>
<svg
   xmlns:dc="http://purl.org/dc/elements/1.1/"
   xmlns:cc="http://creativecommons.org/ns#"
   xmlns:rdf="http://www.w3.org/1999/02/22-rdf-syntax-ns#"
   xmlns:svg="http://www.w3.org/2000/svg"
   xmlns="http://www.w3.org/2000/svg"
   xmlns:sodipodi="http://sodipodi.sourceforge.net/DTD/sodipodi-0.dtd"
   xmlns:inkscape="http://www.inkscape.org/namespaces/inkscape"
   viewBox="55 15 328.08528 326.8688"
   version="1.1"
   id="svg23"
   sodipodi:docname="openlibrary-logo-tighter.svg"
   width="328.08527"
   height="326.8688"
   inkscape:version="0.92.4 (unknown)">
  <metadata
     id="metadata29">
    <rdf:RDF>
      <cc:Work
         rdf:about="">
        <dc:format>image/svg+xml</dc:format>
        <dc:type
           rdf:resource="http://purl.org/dc/dcmitype/StillImage" />
        <dc:title></dc:title>
      </cc:Work>
    </rdf:RDF>
  </metadata>
  <defs
     id="defs27" />
  <sodipodi:namedview
     pagecolor="#ffffff"
     bordercolor="#666666"
     borderopacity="1"
     objecttolerance="10"
     gridtolerance="10"
     guidetolerance="10"
     inkscape:pageopacity="0"
     inkscape:pageshadow="2"
     inkscape:window-width="1920"
     inkscape:window-height="1016"
     id="namedview25"
     showgrid="false"
     fit-margin-top="0"
     fit-margin-left="0"
     fit-margin-right="0"
     fit-margin-bottom="0"
     inkscape:zoom="1.2745783"
     inkscape:cx="307.9647"
     inkscape:cy="91.224432"
     inkscape:window-x="0"
     inkscape:window-y="27"
     inkscape:window-maximized="1"
     inkscape:current-layer="Layer_2_copy" />
  <style
     id="style2">.st0{fill:none;stroke:#d3ccb0;stroke-width:5;stroke-miterlimit:10}.st2{fill:#fff}</style>
  <g
     id="Layer_2_copy"
     transform="translate(-1.438233,-2.1999998)">
    <path
       class="st0"
       d="M 56.866108,258.77898 H 384.52349 M 56.438233,342.88025 H 384.09561"
       id="path4"
       inkscape:connector-curvature="0"
       style="fill:none;stroke:#d3ccb0;stroke-width:2.37708497;stroke-miterlimit:10" />
    <g
       id="g14"
       transform="translate(-3.3191339)">
      <path
         class="st0"
         d="m 86.3,117.2 150,-82.6 m 0.2,-5.8 123.7,74.3"
         id="path6"
         inkscape:connector-curvature="0"
         style="fill:none;stroke:#d3ccb0;stroke-width:5;stroke-miterlimit:10" />
      <path
         d="M 357.7,223.1 99.6,242.5 C 84.8,243.6 71.8,232.4 70.7,217.6 L 65,141.1 C 63.9,126.3 75.1,113.3 89.9,112.2 L 348,92.8 c 14.8,-1.1 27.8,10.1 28.9,24.9 l 5.7,76.5 c 1.1,14.8 -10.1,27.8 -24.9,28.9 z"
         id="path8"
         inkscape:connector-curvature="0"
         style="fill:#518abe" />
      <path
         class="st2"
         d="m 115,137.4 c 7.5,-0.6 14.1,0.5 19.8,3.1 5.6,2.7 10.1,6.7 13.3,12.1 3.2,5.4 5.1,12 5.7,19.6 0.4,5.6 0,10.8 -1.1,15.5 -1.2,4.7 -3.2,8.9 -6,12.5 -2.8,3.6 -6.3,6.5 -10.6,8.6 -4.3,2.1 -9.3,3.4 -15,3.8 -5.7,0.4 -10.9,-0.1 -15.5,-1.6 -4.6,-1.5 -8.6,-3.8 -11.9,-6.9 -3.3,-3.1 -5.8,-7 -7.7,-11.6 -1.9,-4.6 -3,-9.6 -3.5,-15.1 -0.4,-5.6 0,-10.8 1.3,-15.6 1.3,-4.8 3.3,-8.9 6.1,-12.4 2.8,-3.5 6.3,-6.3 10.6,-8.4 4.3,-2.1 8.9,-3.2 14.5,-3.6 z m 23.8,35.9 c -0.4,-5.3 -1.6,-9.9 -3.6,-13.7 -2,-3.8 -4.7,-6.5 -8,-8.3 -3.3,-1.8 -7.1,-2.5 -11.2,-2.2 -2.9,0.2 -5.6,1 -8,2.3 -2.4,1.3 -4.4,3.1 -6.1,5.3 -1.6,2.3 -2.9,5.1 -3.7,8.4 -0.8,3.4 -1,7.1 -0.7,11.2 0.3,4.1 1.1,7.8 2.4,11.1 1.3,3.3 3,5.9 5,8 2.1,2.1 4.4,3.5 6.9,4.4 2.5,0.9 5.3,1.3 8.2,1 3.8,-0.3 7.2,-1.5 10.2,-3.6 3,-2.1 5.3,-5.2 6.9,-9.3 1.5,-4 2.1,-8.9 1.7,-14.6 z m 56.4,4 -13.5,1 1.5,20.6 c 0.2,2.9 -0.3,5.2 -1.6,6.9 -1.3,1.6 -3,2.5 -5.1,2.7 -2.2,0.2 -4.1,-0.5 -5.5,-1.9 -1.5,-1.4 -2.3,-3.6 -2.5,-6.5 L 164.3,144 c -0.2,-3.2 0.3,-5.6 1.7,-7.1 1.4,-1.5 3.7,-2.4 6.9,-2.6 l 18.9,-1.4 c 5.6,-0.4 9.9,-0.3 13,0.3 3,0.6 5.7,1.8 8,3.5 2.3,1.8 4.1,4 5.5,6.7 1.3,2.7 2.1,5.8 2.4,9.3 0.6,7.4 -1.3,13.2 -5.6,17.4 -4.2,4.1 -10.9,6.5 -19.9,7.2 z m -6.1,-33.1 -9.9,0.7 1.7,22.3 9.9,-0.7 c 3.5,-0.3 6.4,-0.8 8.6,-1.7 2.3,-0.9 4,-2.2 5.1,-4 1.1,-1.7 1.5,-4 1.3,-6.6 -0.2,-3.2 -1.4,-5.8 -3.4,-7.6 -2.3,-2.1 -6.7,-2.9 -13.3,-2.4 z m 91.2,-6.5 -33.2,2.5 1.3,17.9 30.6,-2.3 c 2.3,-0.2 4,0.2 5.2,1.1 1.2,0.9 1.8,2.2 2,3.9 0.1,1.7 -0.3,3 -1.3,4.2 -1,1.2 -2.7,1.8 -4.9,1.9 l -30.6,2.3 1.6,20.7 34.4,-2.6 c 2.3,-0.2 4.1,0.2 5.4,1.2 1.3,1 2,2.4 2.1,4.2 0.1,1.7 -0.4,3.2 -1.4,4.3 -1.1,1.2 -2.8,1.8 -5.1,2 l -40.1,3 c -3.2,0.2 -5.6,-0.3 -7.1,-1.6 -1.5,-1.3 -2.4,-3.6 -2.6,-6.7 L 232.5,139 c -0.2,-2.1 0,-3.9 0.6,-5.3 0.5,-1.4 1.4,-2.4 2.7,-3.2 1.3,-0.8 3,-1.1 5.1,-1.3 l 38.9,-2.9 c 2.3,-0.2 4.1,0.2 5.4,1.2 1.2,1 1.9,2.3 2,4 0.1,1.7 -0.3,3.1 -1.4,4.3 -1.5,1 -3.2,1.7 -5.5,1.9 z m 38.8,-6.7 31.6,40.8 -3.2,-43.3 c -0.2,-2.8 0.2,-5 1.3,-6.5 1.1,-1.5 2.7,-2.3 4.7,-2.5 2.1,-0.2 3.8,0.4 5.2,1.7 1.3,1.3 2.1,3.4 2.3,6.2 l 4.3,57.3 c 0.5,6.4 -1.9,9.8 -7.2,10.2 -1.3,0.1 -2.5,0 -3.6,-0.3 -1.1,-0.3 -2.1,-0.8 -3.1,-1.6 -1,-0.8 -1.9,-1.7 -2.8,-2.7 -0.9,-1 -1.8,-2.1 -2.6,-3.2 l -31,-40.4 3.2,42.7 c 0.2,2.8 -0.3,4.9 -1.5,6.5 -1.2,1.5 -2.8,2.4 -4.8,2.5 -2.1,0.2 -3.8,-0.4 -5.2,-1.8 -1.4,-1.3 -2.2,-3.4 -2.4,-6.1 l -4.2,-56.2 c -0.2,-2.4 -0.1,-4.3 0.4,-5.7 0.5,-1.5 1.5,-2.8 2.9,-3.9 1.4,-1.1 2.9,-1.6 4.6,-1.8 1.3,-0.1 2.5,0 3.5,0.4 1,0.4 1.8,0.9 2.6,1.6 0.8,0.7 1.6,1.6 2.4,2.7 0.8,1 1.7,2.2 2.6,3.4 z"
         id="path10"
         inkscape:connector-curvature="0"
         style="fill:#ffffff" />
      <circle
         cx="239.39999"
         cy="29.5"
         r="12.3"
         id="circle12" />
    </g>
    <g
       id="g20"
       transform="matrix(0.47541698,0,0,0.47541698,-133.91873,217.41771)">
      <path
         d="m 430.5,185.8 c 0,22.3 0.6,32.1 3.3,34.8 2.4,2.4 6.4,3.5 18.2,3.5 8.1,0 14.7,-0.2 18.4,-4.6 2,-2.4 3.5,-6.2 3.9,-9.1 0.2,-1.2 0.5,-2 1.4,-2 0.8,0 0.9,0.6 0.9,2.3 0,1.7 -1.1,10.8 -2.3,15.2 -1.1,3.5 -1.5,4.1 -9.6,4.1 -10.9,0 -18.8,-0.3 -25.2,-0.5 -6.4,-0.3 -11.1,-0.5 -15.5,-0.5 -0.6,0 -3.2,0.2 -6.2,0.2 -3,0.2 -6.4,0.3 -8.7,0.3 -1.7,0 -2.4,-0.3 -2.4,-1.2 0,-0.5 0.3,-0.9 1.2,-0.9 1.4,0 3.2,-0.3 4.6,-0.6 3,-0.6 3.8,-3.9 4.4,-8.4 0.8,-6.4 0.8,-18.4 0.8,-33 v -26.7 c 0,-23.7 0,-28 -0.3,-32.8 -0.3,-5.2 -1.5,-7.6 -6.5,-8.7 -1.2,-0.3 -3.8,-0.5 -5.2,-0.5 -0.6,0 -1.2,-0.3 -1.2,-0.9 0,-0.9 0.8,-1.2 2.4,-1.2 6.8,0 16.4,0.5 17.2,0.5 0.8,0 11.8,-0.5 16.4,-0.5 1.7,0 2.4,0.3 2.4,1.2 0,0.6 -0.6,0.9 -1.2,0.9 -1.1,0 -3.2,0.2 -5,0.5 -4.4,0.8 -5.6,3.3 -5.9,8.7 -0.3,4.9 -0.3,9.1 -0.3,32.8 z m 89.9,-0.3 c 0,14.6 0,26.6 0.8,33 0.5,4.4 1.4,7.7 5.9,8.4 2.1,0.3 5.5,0.6 6.8,0.6 0.9,0 1.2,0.5 1.2,0.9 0,0.8 -0.8,1.2 -2.4,1.2 -8.4,0 -17.9,-0.5 -18.7,-0.5 -0.8,0 -10.3,0.5 -14.9,0.5 -1.7,0 -2.4,-0.3 -2.4,-1.2 0,-0.5 0.3,-0.9 1.2,-0.9 1.4,0 3.2,-0.3 4.6,-0.6 3,-0.6 3.8,-3.9 4.4,-8.4 0.8,-6.4 0.8,-18.4 0.8,-33 v -26.7 c 0,-23.7 0,-28 -0.3,-32.8 -0.3,-5.2 -1.8,-7.7 -5.2,-8.5 -1.7,-0.5 -3.6,-0.6 -4.7,-0.6 -0.6,0 -1.2,-0.3 -1.2,-0.9 0,-0.9 0.8,-1.2 2.4,-1.2 5,0 14.6,0.5 15.3,0.5 0.8,0 10.3,-0.5 14.9,-0.5 1.7,0 2.4,0.3 2.4,1.2 0,0.6 -0.6,0.9 -1.2,0.9 -1.1,0 -2,0.2 -3.8,0.5 -4.1,0.8 -5.3,3.3 -5.6,8.7 -0.3,4.9 -0.3,9.1 -0.3,32.8 z m 54.1,-26.7 c 0,-23.7 0,-28 -0.3,-32.8 -0.3,-5.2 -1.5,-7.6 -6.5,-8.7 -1.2,-0.3 -3.8,-0.5 -5.2,-0.5 -0.6,0 -1.2,-0.3 -1.2,-0.9 0,-0.9 0.8,-1.2 2.4,-1.2 6.8,0 16.4,0.5 17.2,0.5 3.6,0 9.6,-0.5 16.6,-0.5 24.9,0 30.4,15.2 30.4,22.8 0,12.5 -7.1,19.9 -14.3,27.3 11.2,3.5 26.3,14.3 26.3,32.1 0,16.3 -12.8,33.1 -38.7,33.1 -1.7,0 -6.5,-0.3 -10.9,-0.5 -4.4,-0.3 -8.7,-0.5 -9.3,-0.5 -0.3,0 -2.9,0 -6.1,0.2 -3,0 -6.5,0.3 -8.8,0.3 -1.7,0 -2.4,-0.3 -2.4,-1.2 0,-0.5 0.3,-0.9 1.2,-0.9 1.4,0 3.2,-0.3 4.6,-0.6 3,-0.6 3.8,-3.9 4.4,-8.4 0.8,-6.4 0.8,-18.4 0.8,-33 v -26.6 z m 12.1,3.3 c 0,1.1 0.3,1.4 1.1,1.7 0.9,0.2 3.6,0.6 9.3,0.6 8.5,0 10.6,-0.3 13.8,-3.9 3.2,-3.6 5.5,-9.1 5.5,-15.3 0,-12.6 -5.6,-26.1 -20.5,-26.1 -1.7,0 -4.9,0.2 -7.3,0.8 -1.4,0.3 -1.8,0.8 -1.8,1.7 v 40.5 z m 0,16.1 c 0,11.7 0,30.5 0.2,32.8 0.5,7.4 0.5,9.6 5.2,11.8 4.1,2 10.6,2.3 13.4,2.3 8.2,0 21.4,-4.4 21.4,-21.6 0,-9.1 -3,-22.3 -14.7,-30.4 -5.2,-3.5 -9,-4 -12.6,-4.4 -2,-0.3 -9.6,-0.3 -11.8,-0.3 -0.6,0 -0.9,0.3 -0.9,1.1 v 8.7 z m 90,-19.4 c 0,-23.7 0,-28 -0.3,-32.8 -0.3,-5.2 -1.5,-7.6 -6.5,-8.7 -1.2,-0.3 -3.8,-0.5 -5.2,-0.5 -0.6,0 -1.2,-0.3 -1.2,-0.9 0,-0.9 0.8,-1.2 2.4,-1.2 6.8,0 16.4,0.5 17.2,0.5 1.7,0 13.2,-0.5 17.9,-0.5 9.6,0 19.7,0.9 27.8,6.7 3.8,2.7 10.5,10.2 10.5,20.7 0,11.2 -4.7,22.5 -18.4,35.1 12.5,16 22.8,29.5 31.6,38.9 8.2,8.7 14.7,10.3 18.5,10.9 2.9,0.5 5,0.5 5.9,0.5 0.8,0 1.4,0.5 1.4,0.9 0,0.9 -0.9,1.2 -3.6,1.2 h -10.8 c -8.5,0 -12.3,-0.8 -16.3,-2.9 -6.5,-3.5 -11.8,-10.9 -20.5,-22.3 -6.4,-8.4 -13.5,-18.5 -16.6,-22.5 -0.6,-0.6 -1.1,-0.9 -2,-0.9 l -18.7,-0.3 c -0.8,0 -1.1,0.5 -1.1,1.2 v 3.6 c 0,14.6 0,26.6 0.8,33 0.5,4.4 1.4,7.7 5.9,8.4 2.1,0.3 5.5,0.6 6.8,0.6 0.9,0 1.2,0.5 1.2,0.9 0,0.8 -0.8,1.2 -2.4,1.2 -8.4,0 -17.9,-0.5 -18.7,-0.5 -0.2,0 -9.7,0.5 -14.3,0.5 -1.7,0 -2.4,-0.3 -2.4,-1.2 0,-0.5 0.3,-0.9 1.2,-0.9 1.4,0 3.2,-0.3 4.6,-0.6 3,-0.6 3.8,-3.9 4.4,-8.4 0.8,-6.4 0.8,-18.4 0.8,-33 v -26.7 z m 12.1,13.2 c 0,0.8 0.3,1.4 1.1,1.8 2.3,1.4 9.3,2.4 16,2.4 3.6,0 7.9,-0.5 11.4,-2.9 5.3,-3.6 9.3,-11.8 9.3,-23.4 0,-19 -10,-30.4 -26.3,-30.4 -4.6,0 -8.7,0.5 -10.2,0.9 -0.8,0.3 -1.2,0.9 -1.2,1.8 V 172 Z"
         id="path16"
         inkscape:connector-curvature="0" />
      <path
         d="m 813.7,118.5 c 1.8,-5 2.4,-5.9 3.3,-5.9 0.9,0 1.5,0.8 3.3,5.5 2.3,5.8 26.1,68.5 35.4,91.6 5.5,13.5 9.9,16 13.1,16.9 2.3,0.8 4.6,0.9 6.1,0.9 0.9,0 1.5,0.2 1.5,0.9 0,0.9 -1.4,1.2 -3,1.2 -2.3,0 -13.4,0 -23.9,-0.3 -2.9,-0.2 -4.6,-0.2 -4.6,-1.1 0,-0.6 0.5,-0.9 1.1,-1.1 0.9,-0.3 1.8,-1.7 0.9,-4.1 l -14.1,-37.4 c -0.3,-0.6 -0.6,-0.9 -1.4,-0.9 h -32.7 c -0.8,0 -1.2,0.5 -1.5,1.2 l -9.1,26.9 c -1.4,3.8 -2.1,7.4 -2.1,10.2 0,3 3.2,4.4 5.8,4.4 h 1.5 c 1.1,0 1.5,0.3 1.5,0.9 0,0.9 -0.9,1.2 -2.3,1.2 -3.6,0 -10.2,-0.5 -11.8,-0.5 -1.6,0 -10,0.5 -17.2,0.5 -2,0 -2.9,-0.3 -2.9,-1.2 0,-0.6 0.6,-0.9 1.4,-0.9 1.1,0 3.2,-0.2 4.4,-0.3 7,-0.9 10,-6.7 12.8,-14.3 z m 15.8,60.8 c 0.8,0 0.8,-0.5 0.6,-1.1 l -14.4,-41 c -0.8,-2.3 -1.5,-2.3 -2.3,0 l -13.4,41 c -0.3,0.8 0,1.1 0.5,1.1 z m 68.7,-20.5 c 0,-23.7 0,-28 -0.3,-32.8 -0.3,-5.2 -1.5,-7.6 -6.5,-8.7 -1.2,-0.3 -3.8,-0.5 -5.2,-0.5 -0.6,0 -1.2,-0.3 -1.2,-0.9 0,-0.9 0.8,-1.2 2.4,-1.2 6.8,0 16.4,0.5 17.2,0.5 1.7,0 13.2,-0.5 17.9,-0.5 9.6,0 19.7,0.9 27.8,6.7 3.8,2.7 10.5,10.2 10.5,20.7 0,11.2 -4.7,22.5 -18.4,35.1 12.5,16 22.8,29.5 31.6,38.9 8.2,8.7 14.7,10.3 18.5,10.9 2.9,0.5 5,0.5 5.9,0.5 0.8,0 1.4,0.5 1.4,0.9 0,0.9 -0.9,1.2 -3.6,1.2 h -10.8 c -8.5,0 -12.3,-0.8 -16.3,-2.9 -6.5,-3.5 -11.8,-10.9 -20.5,-22.3 -6.4,-8.4 -13.5,-18.5 -16.6,-22.5 -0.6,-0.6 -1.1,-0.9 -2,-0.9 l -18.7,-0.3 c -0.8,0 -1.1,0.5 -1.1,1.2 v 3.6 c 0,14.6 0,26.6 0.8,33 0.5,4.4 1.4,7.7 5.9,8.4 2.1,0.3 5.5,0.6 6.8,0.6 0.9,0 1.2,0.5 1.2,0.9 0,0.8 -0.8,1.2 -2.4,1.2 -8.4,0 -17.9,-0.5 -18.7,-0.5 -0.2,0 -9.7,0.5 -14.3,0.5 -1.7,0 -2.4,-0.3 -2.4,-1.2 0,-0.5 0.3,-0.9 1.2,-0.9 1.4,0 3.2,-0.3 4.6,-0.6 3,-0.6 3.8,-3.9 4.4,-8.4 0.8,-6.4 0.8,-18.4 0.8,-33 v -26.7 z m 12.2,13.2 c 0,0.8 0.3,1.4 1.1,1.8 2.3,1.4 9.3,2.4 16,2.4 3.6,0 7.9,-0.5 11.4,-2.9 5.3,-3.6 9.3,-11.8 9.3,-23.4 0,-19 -10,-30.4 -26.3,-30.4 -4.6,0 -8.7,0.5 -10.2,0.9 -0.8,0.3 -1.2,0.9 -1.2,1.8 V 172 Z m 116.2,18.2 c 0,-8.2 -1.5,-11.5 -3.5,-16 -1.1,-2.4 -21.4,-35.9 -26.7,-43.8 -3.8,-5.6 -7.6,-9.4 -10.3,-11.2 -2.3,-1.5 -5.2,-2.4 -6.5,-2.4 -0.8,0 -1.5,-0.3 -1.5,-1.1 0,-0.6 0.6,-1.1 2,-1.1 2.9,0 14.3,0.5 15,0.5 1.1,0 6.8,-0.5 12.8,-0.5 1.7,0 2,0.5 2,1.1 0,0.6 -0.9,0.8 -2.3,1.4 -1.2,0.6 -2,1.5 -2,2.7 0,1.8 0.8,3.6 2,5.9 2.4,4.4 25.2,43.6 28,48 2.9,-6.4 22.2,-39.7 25.2,-44.7 2,-3.2 2.6,-5.8 2.6,-7.7 0,-2.1 -0.6,-3.8 -2.4,-4.3 -1.4,-0.5 -2.3,-0.8 -2.3,-1.5 0,-0.6 0.9,-0.9 2.4,-0.9 3.9,0 8.8,0.5 10,0.5 0.9,0 11.8,-0.5 14.7,-0.5 1.1,0 2,0.3 2,0.9 0,0.8 -0.8,1.2 -2,1.2 -1.7,0 -4.6,0.6 -7,2.1 -3,1.8 -4.7,3.6 -8.1,7.7 -5,6.1 -26.3,41.8 -29,48.3 -2.3,5.5 -2.3,10.2 -2.3,15.2 v 13.1 c 0,2.4 0,8.8 0.5,15.2 0.3,4.4 1.7,7.7 6.2,8.4 2.1,0.3 5.5,0.6 6.8,0.6 0.9,0 1.2,0.5 1.2,0.9 0,0.8 -0.8,1.2 -2.4,1.2 -8.4,0 -17.9,-0.5 -18.7,-0.5 -0.8,0 -10.3,0.5 -14.9,0.5 -1.7,0 -2.4,-0.3 -2.4,-1.2 0,-0.5 0.3,-0.9 1.2,-0.9 1.4,0 3.2,-0.3 4.6,-0.6 3,-0.6 4.4,-3.9 4.7,-8.4 0.5,-6.4 0.5,-12.8 0.5,-15.2 v -12.9 z"
         id="path18"
         inkscape:connector-curvature="0" />
    </g>
  </g>
</svg>
