<svg xmlns="http://www.w3.org/2000/svg" xmlns:xlink="http://www.w3.org/1999/xlink" viewBox="0 0 75 75"><g fill-rule="evenodd" fill="#e6e7e8"><path d="M6.4 40.9c0 .2 9.1-11.6 18.9-13.2 5.1-.8 11.3.6 14.6 9 9.7 24.6-19.3 3.4-19.3 3.4l-14.2.8"/><path d="M68.9 18.6S33.1 13.1 39 39.5C45 66 58.8 31 58.8 31l10.1-12.4z"/></g><defs><path id="A" d="M39.3 38.7l2.3 12.9c1.8-.4 3.8-.7 5.8-.7 2.9 0 5.7.5 8.3 1.4 2.2-12.6 8.3-24 15.7-34.6-14.3.7-27.1 7.5-32.1 21"/></defs><clipPath id="B"><use xlink:href="#A"/></clipPath><linearGradient id="C" x1="35.451" x2="77.442" y1="34.848" y2="35.127" gradientUnits="userSpaceOnUse"><stop offset="0" stop-color="#b3d891"/><stop offset=".75" stop-color="#9dcf76"/></linearGradient><path fill="url(#C)" d="M77.3 51.4l-36.2 5.3-5.5-38.1 36.2-5.3z" clip-path="url(#B)"/><defs><path id="D" d="M29.1 58.9c-5.4-8.1-12.4-12.7-24.5-17.3 0 0 7-8.9 20.6-8.6 9.1.2 12.8 3.5 14.3 5.6 0 .1 0 .1-.1.2l2.3 12.8c-4.8 1.1-9.2 3.7-12.6 7.3"/></defs><clipPath id="E"><use xlink:href="#D"/></clipPath><linearGradient id="F" x1="3.006" x2="43.674" y1="49.714" y2="41.267" gradientUnits="userSpaceOnUse"><stop offset="0" stop-color="#0666b0"/><stop offset=".279" stop-color="#0c68b1"/><stop offset=".493" stop-color="#186db4"/><stop offset=".686" stop-color="#2776ba"/><stop offset=".865" stop-color="#3883c2"/><stop offset="1" stop-color="#4692cc"/></linearGradient><g fill-rule="evenodd"><path fill="url(#F)" d="M47 57.5L6.4 66-.4 33.5 40.3 25z" clip-path="url(#E)"/><path fill="#1c75aa" d="M37.5 36.4l3.1-.7 2.3 15.6c-.6.1-1.2.2-1.8.4l-3.6-15.3z"/></g></svg>
