<?xml version="1.0" encoding="UTF-8" standalone="no"?>
<svg xmlns:dc="http://purl.org/dc/elements/1.1/" xmlns:cc="http://creativecommons.org/ns#" xmlns:rdf="http://www.w3.org/1999/02/22-rdf-syntax-ns#" xmlns:svg="http://www.w3.org/2000/svg" xmlns="http://www.w3.org/2000/svg" xmlns:xlink="http://www.w3.org/1999/xlink" xmlns:sodipodi="http://sodipodi.sourceforge.net/DTD/sodipodi-0.dtd" xmlns:inkscape="http://www.inkscape.org/namespaces/inkscape" inkscape:version="1.0beta2 (unknown)" sodipodi:docname="icon2.svg" id="svg290" xml:space="preserve" style="enable-background:new 0 0 75 75;" viewBox="0 0 75 75" y="0px" x="0px" version="1.1"><metadata id="metadata296"><rdf:RDF><cc:Work rdf:about=""><dc:format>image/svg+xml</dc:format><dc:type rdf:resource="http://purl.org/dc/dcmitype/StillImage" /><dc:title></dc:title></cc:Work></rdf:RDF></metadata><defs id="defs294" /><sodipodi:namedview inkscape:current-layer="svg290" inkscape:cy="37.5" inkscape:cx="37.5" inkscape:zoom="8.96" showgrid="false" id="namedview292" inkscape:window-height="480" inkscape:window-width="640" inkscape:pageshadow="2" inkscape:pageopacity="0" guidetolerance="10" gridtolerance="10" objecttolerance="10" borderopacity="1" inkscape:document-rotation="0" bordercolor="#666666" pagecolor="#ffffff" /><style id="style2" type="text/css">
	.st0{fill:none;}
	.st1{fill:#F7BC60;}
	.st2{fill:#FFFFFF;}
	.st3{fill-rule:evenodd;clip-rule:evenodd;fill:#E6E7E8;}
	.st4{clip-path:url(#SVGID_2_);fill:url(#SVGID_3_);}
	.st5{clip-path:url(#SVGID_5_);fill-rule:evenodd;clip-rule:evenodd;fill:url(#SVGID_6_);}
	.st6{fill-rule:evenodd;clip-rule:evenodd;fill:#1C75AA;}
</style><g id="Layer_2"><g id="g287"><g id="g285"><g id="g283"><path id="path239" d="M6.4,40.9c0,0.2,9.1-11.6,18.9-13.2c5.1-0.8,11.3,0.6,14.6,9c9.7,24.6-19.3,3.4-19.3,3.4S6.4,40.7,6.4,40.9      " class="st3" /><path id="path241" d="M68.9,18.6c0,0-35.8-5.5-29.9,20.9C45,66,58.8,31,58.8,31L68.9,18.6z" class="st3" /><g id="g256"><defs id="defs244"><path d="M39.3,38.7l2.3,12.9c1.8-0.4,3.8-0.7,5.8-0.7c2.9,0,5.7,0.5,8.3,1.4c2.2-12.6,8.3-24,15.7-34.6        C57.1,18.4,44.3,25.2,39.3,38.7" id="SVGID_1_" /></defs><clipPath id="SVGID_2_"><use id="use246" style="overflow:visible;" xlink:href="#SVGID_1_" /></clipPath><linearGradient gradientTransform="matrix(0.8489 1.830000e-02 -5.900000e-03 0.8884 -2.1031 1.3611)" y2="36.4249" x2="93.9569" y1="36.4249" x1="44.4911" gradientUnits="userSpaceOnUse" id="SVGID_3_"><stop id="stop249" style="stop-color:#B3D891" offset="0" /><stop id="stop251" style="stop-color:#9DCF76" offset="0.75" /></linearGradient><polygon id="polygon254" clip-path="url(#SVGID_2_)" points="77.3,51.4 41.1,56.7 35.6,18.6 71.8,13.3      " class="st4" /></g><g id="g279"><defs id="defs259"><path d="M29.1,58.9c-5.4-8.1-12.4-12.7-24.5-17.3c0,0,7-8.9,20.6-8.6c9.1,0.2,12.8,3.5,14.3,5.6        c0,0.1,0,0.1-0.1,0.2l2.3,12.8C36.9,52.7,32.5,55.3,29.1,58.9" id="SVGID_4_" /></defs><clipPath id="SVGID_5_"><use id="use261" style="overflow:visible;" xlink:href="#SVGID_4_" /></clipPath><linearGradient gradientTransform="matrix(0.8238 -0.1711 0.1769 0.8517 32.2955 -2.5602)" y2="51.991" x2="2.6487" y1="51.991" x1="-46.7175" gradientUnits="userSpaceOnUse" id="SVGID_6_"><stop id="stop264" style="stop-color:#0666B0" offset="0" /><stop id="stop266" style="stop-color:#0C68B1" offset="0.279" /><stop id="stop268" style="stop-color:#186DB4" offset="0.4932" /><stop id="stop270" style="stop-color:#2776BA" offset="0.6858" /><stop id="stop272" style="stop-color:#3883C2" offset="0.8647" /><stop id="stop274" style="stop-color:#4692CC" offset="1" /></linearGradient><polygon id="polygon277" clip-path="url(#SVGID_5_)" points="47,57.5 6.4,66 -0.4,33.5 40.3,25      " class="st5" /></g><path id="path281" d="M37.5,36.4l3.1-0.7l2.3,15.6c-0.6,0.1-1.2,0.2-1.8,0.4L37.5,36.4z" class="st6" /></g></g></g></g></svg>
