<svg xmlns="http://www.w3.org/2000/svg" height="512" width="512"><defs><linearGradient id="A" y2="771.51" gradientUnits="userSpaceOnUse" y1="771.51" x2="527.72" x1="84.315"><stop stop-color="#4a9ea1" offset="0"/></linearGradient><linearGradient id="B" y2="771.48" gradientUnits="userSpaceOnUse" y1="771.48" x2="512.36" x1="99.675"><stop stop-color="#63d3d7" offset="0"/></linearGradient></defs><g transform="translate(-50.017 -515.51)"><path fill="url(#A)" d="M84.315 899.5l221.7 128 221.7-128v-256l-221.7-128-221.7 128z"/><path fill="url(#B)" d="M283.13 546.35L122.4 639.156c.32 2.854.32 5.735 0 8.59l160.75 92.806a38.4 38.4 0 0 1 45.597 0l160.75-92.807c-.32-2.854-.323-5.734-.001-8.588l-160.74-92.806c-13.554 10-32.044 10-45.6 0zm221.8 127.03L344 767.22c1.884 16.74-7.36 32.75-22.8 39.49l.18 184.58c2.632 1.15 5.127 2.59 7.438 4.294l160.75-92.805c-1.884-16.74 7.36-32.752 22.8-39.5v-185.6c-2.632-1.15-5.128-2.59-7.44-4.294zm-397.8 1.032c-2.31 1.705-4.805 3.146-7.438 4.295v185.6c15.438 6.738 24.683 22.75 22.8 39.49l160.74 92.806a38.4 38.4 0 0 1 7.439-4.295v-185.6c-15.438-6.738-24.683-22.75-22.8-39.49l-160.74-92.8z"/></g><path fill-opacity=".25" d="M256 512l221.7-128V128L256 256v256z"/><path fill-opacity=".04" d="M256 512V256L34.3 128v256L256 512z"/><path fill-opacity=".13" d="M34.298 128l221.7 128 221.7-128-221.7-128-221.7 128z"/><path d="M103.1 186H73.9v141.2h29.2V186zm50.87 141.2v-51.8c7.2.6 14.4.6 20.4.6 41.6 0 53.6-20.6 53.6-46 0-30.8-22-44-56-44h-47.2v141.2h29.2zm15.8-71.8c-5.4 0-13.4 0-15.8-.2v-48h18.2c17.6 0 27.6 8.4 27.6 23.8v.4c0 12-4.4 24-30 24zM327.95 186h-88.6v141.2h29.2V265h55.4v-21.2h-55.6v-36.4h57.6l2-21.4zm95.55 27.6l7.6-19.6c-11.4-8.2-26.8-11.2-46.2-11.2-28.2 0-51.4 13.2-51.4 40.2 0 24.2 17.8 33.8 35.6 39.6l17.8 6c12.2 4.2 22.2 8.2 22.2 21.4 0 12-10.4 16.8-26.2 16.8-16 0-33.2-4.8-43-11l-7.6 21.2c12.8 8.2 29 12.2 50.8 12.2 31 0 55-13.6 55-42.6 0-27-20.6-35.6-41.4-42.6l-19.4-6.4c-8.4-2.8-14.8-6.6-14.8-17.4 0-11 9-15.4 22.4-15.4 16.4 0 29.2 3 38.6 8.8z" fill="#fff"/></svg>