<svg xmlns="http://www.w3.org/2000/svg" height="297.521" width="297.521"><g fill="#3e5b58"><path d="M148.76 0a148.76 148.76 0 0 0-25.283 2.164 148.76 148.76 0 0 0-28.621 7.945 148.76 148.76 0 0 0-26.471 13.473 148.76 148.76 0 0 0-23.268 18.465 148.76 148.76 0 0 0-19.135 22.717 148.76 148.76 0 0 0-14.24 26.066 148.76 148.76 0 0 0-8.777 28.377A148.76 148.76 0 0 0 0 148.76a148.76 148.76 0 0 0 2.164 25.285 148.76 148.76 0 0 0 7.945 28.619 148.76 148.76 0 0 0 13.473 26.473 148.76 148.76 0 0 0 18.465 23.266 148.76 148.76 0 0 0 22.717 19.135 148.76 148.76 0 0 0 26.066 14.24 148.76 148.76 0 0 0 28.377 8.777 148.76 148.76 0 0 0 29.553 2.967 148.76 148.76 0 0 0 25.285-2.166 148.76 148.76 0 0 0 28.619-7.945 148.76 148.76 0 0 0 26.473-13.473 148.76 148.76 0 0 0 23.266-18.463 148.76 148.76 0 0 0 19.135-22.717 148.76 148.76 0 0 0 14.24-26.066 148.76 148.76 0 0 0 8.777-28.377 148.76 148.76 0 0 0 2.967-29.555 148.76 148.76 0 0 0-2.166-25.283 148.76 148.76 0 0 0-7.945-28.621 148.76 148.76 0 0 0-13.473-26.471 148.76 148.76 0 0 0-18.463-23.268 148.76 148.76 0 0 0-22.717-19.135 148.76 148.76 0 0 0-26.066-14.24 148.76 148.76 0 0 0-28.377-8.777A148.76 148.76 0 0 0 148.76 0z"/><circle cx="148.76" cy="148.76" r="147.76" paint-order="stroke fill markers"/></g><path d="M51.618 161.58l3.33 9.294 14.2 40.693 10.882 31.4h18.44l13.63-38.937 14.328-40.734c.654-1.657.045-1.778-7.648-1.507l-8.36.292-8.73 25.28-10.042 30.394c-.72 2.813-1.564 5.1-1.874 5.08S84.7 209.035 79.19 192.2l-10.02-30.6h-8.778zm102.902 20.64c-7.793.025-9.75.397-14.157 2.692-5.966 3.108-10.893 8.364-13.87 14.8-1.705 3.685-2.116 6.522-2.116 14.62 0 5.892.563 11.642 1.362 13.902 2.395 6.775 8.44 12.317 16.214 14.858 4.888 1.598 19.25.42 23.844-1.96 10.338-5.35 15.54-14.16 16.172-27.388.715-14.964-3.643-24.3-13.633-29.2-3.95-1.94-6.335-2.34-13.816-2.316zm41.627.46c-4.935 0-8.972.307-8.972.683s4.07 6.875 9.043 14.444 9.043 14.252 9.043 14.854-4.495 7.668-10 15.7l-10 14.604h18.867l5.328-9.522c2.93-5.238 5.623-9.533 5.985-9.545s3.075 4.272 6.03 9.522l5.37 9.545h9.855l4.72-.06c3.767-.125 4.814-.468 4.368-1.197-.422-.7-4.55-7.066-9.174-14.17s-8.63-13.502-8.906-14.22 3.296-7.34 7.936-14.716l9.17-14.67c.565-.964-1.254-1.256-7.83-1.256h-8.568l-5.626 9.563c-3.095 5.26-5.986 9.34-6.423 9.07s-3.15-4.572-6.03-9.56l-5.236-9.072zm-42.683 12.432c1.925 0 3.836.442 5.577 1.336 4.917 2.526 7.03 7.276 7.03 15.807.002 8.253-2.465 14.3-6.914 16.918-6.528 3.856-14.675.97-17.55-6.215-3.482-8.703-1.075-21.904 4.682-25.676 2.198-1.44 4.697-2.17 7.173-2.17zM110.192 62.75c-3.17.1-6.477 2.112-7.65 5.422-.915 2.583 1.116 7.4 3.627 8.623 3.335 1.6 5.2 1.4 8.1-.88 3.137-2.468 3.643-8.2.983-11.15-1.3-1.446-3.16-2.074-5.06-2.013zm138.658 0c-3.17.1-6.477 2.112-7.65 5.422-.915 2.583 1.116 7.4 3.627 8.623 3.335 1.6 5.2 1.4 8.1-.88 3.137-2.468 3.643-8.2.983-11.15-1.3-1.446-3.16-2.074-5.06-2.013zM42.564 64.935v38.603c0 21.23-.275 39.317-.6 40.2-.547 1.425 2.16 1.588 26.124 1.588h26.734v-9.043H54.62V64.935H48.6zm88.67 0l.285 31.6c.28 31.193.32 31.68 2.77 37.03 2.784 6.08 7.456 10.2 14 12.334 2.58.84 7.14 1.27 11.398 1.07 12.892-.604 22.598-8.2 26.167-20.478 2.16-7.425 1.535-20.117-1.3-26.47-7.005-15.688-27.208-19.797-39.853-8.105l-2.863 2.647.732-29.64h-5.67zm105.25 20.095l-3.768.006c-7.144.01-11.565 1.94-16.58 7.237l-4.773 5.043V87.04h-9.545v58.276h11.335l-1.06-37.68 3.448-4.516c4.882-6.4 10.15-9.235 16.168-8.735l4.773.396v-9.75zm-132.127 2v58.276H115.4V87.04h-5.526zm138.658 0v58.276h11.052V87.04h-5.526zm-82.936 6.195c9.72.43 17.082 10.35 15.856 25.618-.73 9.086-4.058 15.273-9.775 18.174-2.45 1.243-5.846 2.26-7.546 2.26s-5.1-1.017-7.575-2.26c-6.793-3.426-8.392-7.485-8.84-22.444l-.363-12.146 4.1-3.517c4.807-4.114 9.7-5.88 14.13-5.685z" fill="#d4ee78"/></svg>