<svg xmlns="http://www.w3.org/2000/svg" height="682.667" width="682.667"><defs><linearGradient id="A" spreadMethod="pad" gradientUnits="userSpaceOnUse" y2="4753.96" x2="366.04" y1="366.05" x1="4753.95"><stop offset="0" stop-color="#004caf"/><stop offset="1" stop-color="#1f95f8"/></linearGradient></defs><g transform="matrix(.133333 0 0 -.133333 0 682.66667)"><g clip-path="url(#clipPath20)"><path d="M3873.9 0H1246.1C560.754 0 0 560.75 0 1246.1v2627.77C0 4559.25 560.754 5120 1246.1 5120H3873.9c685.36 0 1246.1-560.75 1246.1-1246.12V1246.1C5120 560.75 4559.25 0 3873.9 0" fill="url(#A)"/></g><path d="M3961.6 4435.23h-1391.4c-13.15 0-23.78-10.64-23.78-23.77v-441.84c0-14.87 12.04-26.92 26.92-26.92h190.77c77.16 0 139.73-59.35 146.43-134.77l-.05-2090.57c.48-16.84-.2-33.4-1.83-49.7-.18-2.38-.5-4.73-.8-7.1-1.1-9.53-2.32-19-4.17-28.3-1-5.3-2.44-10.44-3.7-15.65-1.7-6.93-3.1-13.97-5.22-20.75-12.58-40.27-32.47-77.62-59.98-110.5-1-1.17-2.26-2.25-3.26-3.4-8.4-9.72-17.2-19.2-26.95-28.06-9.84-8.95-20.26-17.27-31.2-25-77.84-55.14-182.6-79.4-299.67-68.2-149.26 14.03-297.34 81.72-417.03 190.62-119.67 108.9-194.08 243.62-209.48 379.4-13.85 121.48 22.55 228.38 102.42 301.05.2.16.4.3.56.48 3.1 2.77 6.5 5.2 9.67 7.87 57.16 47.9 131.67 76.9 216.7 84.9.96.1 1.88.24 2.8.32 8.95.8 18.07 1.15 27.27 1.5 4.8.16 9.56.5 14.44.54 1.62.02 3.16.2 4.78.2 2.9 0 5.9-.38 8.8-.42 13.4-.2 26.9-.76 40.67-1.94 1.74-.14 3.4-.08 5.2-.24 1.27-.13 2.53-.4 3.8-.54 78-7.82 155.23-31.1 228.52-66.4 1.53-.07 3.3-.54 5.5-1.76 22.34-12.34 26.62.9 27.28 9.65V2931c0 19.05-13.25 35.9-31.83 40-394.76 86.88-782.08-3.55-1055.38-252.34-238.75-217.18-354.24-530.58-316.82-859.8 33.4-293.23 183.9-574.94 423.88-793.33 233.9-212.8 531.7-345.86 838.88-374.8 42.33-3.918 84.86-5.938 126.36-5.938 293.38 0 565.6 100.598 766.54 283.38 190.34 173.3 304.35 411.27 321.08 670.16l1.78 2159.8c1.72 80.12 67.05 144.58 147.6 144.58h190.77c14.86 0 26.92 12.05 26.92 26.92v441.84c0 13.13-10.63 23.77-23.78 23.77" fill="#fff"/></g></svg>