<?xml version="1.0" encoding="UTF-8" standalone="no"?>
<!-- Created with Inkscape (http://www.inkscape.org/) -->

<svg
   xmlns:dc="http://purl.org/dc/elements/1.1/"
   xmlns:cc="http://creativecommons.org/ns#"
   xmlns:rdf="http://www.w3.org/1999/02/22-rdf-syntax-ns#"
   xmlns:svg="http://www.w3.org/2000/svg"
   xmlns="http://www.w3.org/2000/svg"
   xmlns:xlink="http://www.w3.org/1999/xlink"
   xmlns:sodipodi="http://sodipodi.sourceforge.net/DTD/sodipodi-0.dtd"
   xmlns:inkscape="http://www.inkscape.org/namespaces/inkscape"
   width="967.70447"
   height="885.74146"
   id="svg2"
   version="1.1"
   inkscape:version="0.92.4 (unknown)"
   sodipodi:docname="clueless-robot.svg">
  <defs
     id="defs4">
    <linearGradient
       inkscape:collect="always"
       id="linearGradient4039">
      <stop
         style="stop-color:#e6e6e6;stop-opacity:1"
         offset="0"
         id="stop4041" />
      <stop
         style="stop-color:#c0c0b6;stop-opacity:1"
         offset="1"
         id="stop4043" />
    </linearGradient>
    <clipPath
       id="p.0">
      <path
         inkscape:connector-curvature="0"
         d="M 0,0 H 522 V 473 H 0 Z"
         id="path5"
         style="clip-rule:nonzero" />
    </clipPath>
    <linearGradient
       inkscape:collect="always"
       xlink:href="#linearGradient3976-9"
       id="linearGradient3989-2"
       gradientUnits="userSpaceOnUse"
       gradientTransform="matrix(1.2543512,0,0,1.1826741,-3041.3416,2820.104)"
       x1="-1794.2856"
       y1="860.93359"
       x2="-1367.3071"
       y2="866.04596" />
    <linearGradient
       inkscape:collect="always"
       id="linearGradient3976-9">
      <stop
         style="stop-color:#0c1914;stop-opacity:0.15909091"
         offset="0"
         id="stop3978-1" />
      <stop
         style="stop-color:#0c1914;stop-opacity:0;"
         offset="1"
         id="stop3980-2" />
    </linearGradient>
    <linearGradient
       inkscape:collect="always"
       xlink:href="#linearGradient3976-93"
       id="linearGradient3989-0"
       gradientUnits="userSpaceOnUse"
       gradientTransform="matrix(1.2543512,0,0,1.1826741,-3041.3416,2820.104)"
       x1="-1794.2856"
       y1="860.93359"
       x2="-1367.3071"
       y2="866.04596" />
    <linearGradient
       inkscape:collect="always"
       id="linearGradient3976-93">
      <stop
         style="stop-color:#0c1914;stop-opacity:0.15909091"
         offset="0"
         id="stop3978-6" />
      <stop
         style="stop-color:#0c1914;stop-opacity:0;"
         offset="1"
         id="stop3980-0" />
    </linearGradient>
    <linearGradient
       y2="869.09845"
       x2="-1549.9656"
       y1="860.93359"
       x1="-1794.2856"
       gradientTransform="matrix(4.2677775,0,0,2.9782087,3809.1923,985.66808)"
       gradientUnits="userSpaceOnUse"
       id="linearGradient4006-6"
       xlink:href="#linearGradient3976-93"
       inkscape:collect="always" />
    <linearGradient
       y2="866.04596"
       x2="-1367.3071"
       y1="860.93359"
       x1="-1794.2856"
       gradientTransform="matrix(3.1587058,0,0,2.9782087,521.46622,1272.0317)"
       gradientUnits="userSpaceOnUse"
       id="linearGradient4006-6-6"
       xlink:href="#linearGradient3976-93-1"
       inkscape:collect="always" />
    <linearGradient
       inkscape:collect="always"
       id="linearGradient3976-93-1">
      <stop
         style="stop-color:#0c1914;stop-opacity:0.15909091"
         offset="0"
         id="stop3978-6-8" />
      <stop
         style="stop-color:#0c1914;stop-opacity:0;"
         offset="1"
         id="stop3980-0-7" />
    </linearGradient>
    <linearGradient
       y2="940.23212"
       x2="-1655.2913"
       y1="667.31036"
       x1="-1723.9609"
       gradientTransform="matrix(1.3921403,2.8353779,2.6733566,-1.3125896,-3603.3993,8466.9356)"
       gradientUnits="userSpaceOnUse"
       id="linearGradient4057-3"
       xlink:href="#linearGradient3976-93-1-6"
       inkscape:collect="always" />
    <linearGradient
       inkscape:collect="always"
       id="linearGradient3976-93-1-6">
      <stop
         style="stop-color:#0c1914;stop-opacity:0.15909091"
         offset="0"
         id="stop3978-6-8-7" />
      <stop
         style="stop-color:#0c1914;stop-opacity:0;"
         offset="1"
         id="stop3980-0-7-5" />
    </linearGradient>
    <radialGradient
       inkscape:collect="always"
       xlink:href="#linearGradient4039"
       id="radialGradient4045"
       cx="-4612.4043"
       cy="3685.3054"
       fx="-4612.4043"
       fy="3685.3054"
       r="1388.6364"
       gradientTransform="matrix(0.842792,-0.4622274,0.5981238,1.0905756,-2714.6995,-2412.242)"
       gradientUnits="userSpaceOnUse" />
  </defs>
  <sodipodi:namedview
     id="base"
     pagecolor="#ffffff"
     bordercolor="#666666"
     borderopacity="1.0"
     inkscape:pageopacity="0.0"
     inkscape:pageshadow="2"
     inkscape:zoom="0.44"
     inkscape:cx="-398.83501"
     inkscape:cy="250.64102"
     inkscape:document-units="px"
     inkscape:current-layer="g3867"
     showgrid="false"
     fit-margin-top="0"
     fit-margin-left="0"
     fit-margin-right="0"
     fit-margin-bottom="0"
     showguides="true"
     inkscape:guide-bbox="true"
     inkscape:window-width="1920"
     inkscape:window-height="1016"
     inkscape:window-x="0"
     inkscape:window-y="27"
     inkscape:window-maximized="1" />
  <metadata
     id="metadata7">
    <rdf:RDF>
      <cc:Work
         rdf:about="">
        <dc:format>image/svg+xml</dc:format>
        <dc:type
           rdf:resource="http://purl.org/dc/dcmitype/StillImage" />
        <dc:title></dc:title>
      </cc:Work>
    </rdf:RDF>
  </metadata>
  <g
     inkscape:label="Layer 1"
     inkscape:groupmode="layer"
     id="layer1"
     transform="translate(3560.7317,-2879.4186)">
    <g
       id="g3867">
      <path
         id="path4092"
         d="m -3163.9493,3526.0662 c -0.443,23.512 -2.2147,117.5604 -2.6577,141.0726"
         inkscape:connector-curvature="0"
         style="fill:#000000;fill-opacity:0;fill-rule:nonzero;stroke:none" />
      <path
         inkscape:connector-curvature="0"
         id="path4092-9-2-1"
         d="m -2721.9593,3470.7765 c -96.7717,7.9626 -193.535,15.9276 -290.3068,23.8903 -11.8098,0.5158 -21.9405,6.1755 -25.1239,10.5536 -5.1261,17.886 -55.3954,45.1354 -27.0076,55.9488 49.7662,-4.2232 99.2857,-8.1 149.0027,-12.2525 -17.6976,5.7222 -30.4744,18.2893 -31.3485,25.5529 h -97.2398 c -9.849,6.8778 -19.6976,13.7596 -29.5465,20.6374 -18.3081,-2.8946 -53.1203,-0.4572 -65.3386,-5.7829 -29.2199,0.7209 -40.9574,-6.1668 -40.8698,-16.1557 34.2277,-6.8195 76.2519,-23.4677 62.9633,-33.5042 -5.2692,-1.6853 -13.7451,-1.6761 -22.155,-1.2287 -6.1667,21.5243 -89.719,28.7785 -77.4602,10.156 -59.9365,9.1317 -30.5687,32.9851 9.6033,28.4082 -3.4185,14.1425 17.8396,22.8364 51.3739,23.2395 20.8788,0.7373 43.0881,5.8397 64.7651,6.8311 -37.9465,26.4991 -75.8992,52.9781 -113.8457,79.4775 h 66.649 c -17.7996,10.6985 -40.3162,25.4653 -35.4643,32.0585 -31.929,10.1016 -93.5356,26.0258 -92.7557,36.9738 30.6198,2.7158 77.6861,4.4808 111.8597,-2.9276 10.781,-13.5905 -5.1689,-22.1567 -12.3266,-31.9862 24.8628,-8.9712 37.5128,-23.3359 46.1731,-34.1185 h 96.7282 c -13.0095,9.9788 -30.5081,21.7492 -23.6703,25.2999 -27.4996,12.1542 -86.0306,33.3264 -76.7844,42.2505 36.1668,-1.6603 89.9383,-6.1504 122.4456,-16.4808 1.8096,-12.5667 -23.1001,-17.486 -38.4332,-24.7216 1.599,-0.011 3.3937,-0.1038 5.508,-0.2893 14.4995,-7.3086 26.6013,-17.5233 33.396,-26.0587 h 61.5302 l 79.6715,-82.7665 c 29.7042,-0.1375 61.8052,-2.1384 91.8136,-2.3855 24.5929,0.8412 66.064,-9.6314 83.2959,-21.2157 0.187,0.015 0.3647,0.059 0.5529,0.073 23.839,8.1152 121.8431,-17.8536 81.76,-27.4685 -32.3371,18.6225 -98.4729,11.3682 -53.0938,-10.156 -7.3387,-0.4474 -15.7776,-0.4564 -25.0829,1.2288 -35.7163,9.6044 -35.2599,25.2216 -19.4725,32.5284 -29.7561,15.5095 -78.4119,16.0809 -109.546,16.3726 -7.0331,-0.6472 -23.757,-1.0614 -39.2521,-0.3614 l 17.2611,-17.9268 h -90.6057 c 6.7065,-4.81 9.4188,-9.4808 11.7737,-14.1317 5.6306,-4.364 10.3618,-8.7071 14.1283,-13.0114 17.3571,-1.4786 34.7501,-2.9874 52.1929,-4.5901 30.1678,-2.9293 75.0263,-0.3188 97.8542,-17.8905 2.386,-17.0876 53.5263,-43.8327 24.4277,-54.0694 z"
         style="fill:#1a1a1a;fill-opacity:0.11363639;fill-rule:nonzero;stroke:none;stroke-width:0.99999988" />
      <g
         style="fill:#90a598;fill-opacity:1;stroke:none"
         transform="matrix(0.92857786,0,0,0.92857786,-366.24988,219.1199)"
         id="g4586">
        <path
           style="color:#000000;display:inline;overflow:visible;visibility:visible;fill:#90a598;fill-opacity:1;fill-rule:nonzero;stroke:none;stroke-width:1.40343666;marker:none;enable-background:accumulate"
           d="m -3027.126,3818.786 c -26.4571,-0.1604 -53.1085,0 -79.323,-2.7133 -3.2439,-0.6998 -7.9912,-0.5686 -9.7592,-3.0743 -0.6051,-4.2712 2.6399,-8.3099 4.4957,-12.2536 14.2593,-23.9869 31.9141,-46.8342 49.8087,-69.4515 11.2784,-13.6851 22.2473,-27.6723 36.0048,-40.0549 2.1455,-1.575 5.0945,-4.7799 8.5687,-3.2419 7.5491,4.2164 12.4126,10.5272 18.0764,16.0699 23.3199,25.4468 44.2738,52.0037 63.5224,79.2578 5.5728,8.4707 12.0086,16.8158 15.1282,25.9985 0.8898,1.9005 -0.6007,3.9006 -3.3011,4.2841 -13.2015,2.8921 -27.194,3.0159 -40.8532,3.8641 -20.7686,0.8944 -41.5714,1.2588 -62.3684,1.3151 z"
           id="use4468"
           inkscape:connector-curvature="0" />
        <path
           style="color:#000000;display:inline;overflow:visible;visibility:visible;fill:#90a598;fill-opacity:1;fill-rule:nonzero;stroke:none;stroke-width:1.40343678;marker:none;enable-background:accumulate"
           d="m -2813.9486,3795.0561 c -25.5276,6.9531 -51.1555,14.2698 -77.1359,18.6962 -3.3126,0.1975 -7.8502,1.5991 -10.2264,-0.3395 -1.7303,-3.9516 0.3105,-8.7136 1.0385,-13.0109 7.2911,-26.9358 18.1591,-53.6861 29.3198,-80.2793 7.1874,-16.2119 13.9954,-32.6317 23.9207,-48.255 1.6435,-2.0935 3.6231,-5.9727 7.3827,-5.4246 8.4044,2.0333 14.7844,6.8056 21.729,10.623 29.2989,18.2464 56.6169,38.1979 82.4796,59.2791 7.6436,6.6622 16.0847,12.9715 21.5566,20.9786 1.3675,1.5916 0.4691,3.9186 -2.0289,5.0135 -11.9392,6.3322 -25.3841,10.2105 -38.3134,14.6971 -19.7648,6.4409 -39.7049,12.3804 -59.7223,18.0218 z"
           id="use4470"
           inkscape:connector-curvature="0" />
      </g>
      <g
         style="stroke:none"
         transform="matrix(0.92857786,0,0,0.92857786,-369.96408,200.5483)"
         id="g4580">
        <path
           sodipodi:nodetypes="cccccccc"
           style="color:#000000;display:inline;overflow:visible;visibility:visible;fill:#a2ddc3;fill-opacity:1;fill-rule:nonzero;stroke:none;stroke-width:2.15374064;marker:none;enable-background:accumulate"
           d="m -3090.875,3223.9688 c -13.4394,122.0738 -26.9469,244.1404 -40.3438,366.2187 l 4.8878,13.2167 403.7685,-13.2167 c -13.4871,-122.6712 -27.0271,-245.3376 -40.5937,-368 -109.1667,0 -218.3334,0 -327.5,0 l -0.1219,0.9925 z"
           id="use4472"
           inkscape:connector-curvature="0" />
        <path
           style="color:#000000;display:inline;overflow:visible;visibility:visible;fill:#a2ddc3;fill-opacity:1;fill-rule:nonzero;stroke:none;stroke-width:1.79582787;marker:none;enable-background:accumulate"
           d="m -3188.0423,2963.4099 c -15.119,3.268 -24.5786,20.391 -19.9293,35.0681 10.9174,55.3098 21.1768,110.8156 32.4974,166.0055 4.3116,14.4912 21.2725,22.3845 35.4298,17.6944 132.737,-25.8876 265.5674,-51.3677 398.2463,-77.5094 14.4149,-3.949 23.008,-20.5108 18.5667,-34.708 -10.9192,-55.3098 -21.1742,-110.8131 -32.4974,-166.0055 -4.3059,-14.4577 -21.2802,-22.4102 -35.424,-17.6637 -132.2942,25.7164 -264.6064,51.3513 -396.8895,77.1186 z"
           id="rect4488"
           inkscape:connector-curvature="0" />
        <path
           sodipodi:nodetypes="ccccccccccccc"
           style="color:#000000;font-style:normal;font-variant:normal;font-weight:normal;font-stretch:normal;font-size:medium;line-height:normal;font-family:Sans;-inkscape-font-specification:Sans;text-indent:0;text-align:start;text-decoration:none;text-decoration-line:none;letter-spacing:normal;word-spacing:normal;text-transform:none;writing-mode:lr-tb;direction:ltr;baseline-shift:baseline;text-anchor:start;display:inline;overflow:visible;visibility:visible;fill:#a2ddc3;fill-opacity:1;fill-rule:nonzero;stroke:none;stroke-width:2.15374064;marker:none;enable-background:accumulate"
           d="m -3301.5938,3106.875 c -2.434,17.2722 2.9849,35.9773 -4,52.3438 -14.3963,11.2778 -31.9891,19.2055 -50.2812,20.1874 -13.5894,-9.2009 -23.192,-22.3066 -32.6562,-35.4687 -3.6824,-4.6348 -7.4732,-9.0976 -11.875,-13.0625 -11.9134,12.3673 -23.8564,24.7062 -35.7813,37.0625 l 3.689,17.9564 c 13.3553,16.425 21.8486,22.0427 38.2299,35.5579 20.8205,16.7305 50.6685,16.4131 74.6436,7.142 24.6689,-8.9416 50.9132,-21.3726 64.4062,-45.0313 11.7191,-21.7176 7.8473,-47.5043 8.3438,-71.2813 -17.9925,-1.081 -36.3104,-5.1176 -54.4375,-7.4062 -0.094,0.6667 -0.1875,1.3333 -0.2813,2 z"
           id="use4476"
           inkscape:connector-curvature="0" />
        <path
           sodipodi:nodetypes="cccccccccccccc"
           style="color:#000000;font-style:normal;font-variant:normal;font-weight:normal;font-stretch:normal;font-size:medium;line-height:normal;font-family:Sans;-inkscape-font-specification:Sans;text-indent:0;text-align:start;text-decoration:none;text-decoration-line:none;letter-spacing:normal;word-spacing:normal;text-transform:none;writing-mode:lr-tb;direction:ltr;baseline-shift:baseline;text-anchor:start;display:inline;overflow:visible;visibility:visible;fill:#a2ddc3;fill-opacity:1;fill-rule:nonzero;stroke:none;stroke-width:22;marker:none;enable-background:accumulate"
           d="m -2554.6562,3118.8125 -52.5,9.8437 c 0.3207,24.0787 -3.2278,50.7398 10.375,71.9688 16.4071,24.1305 44.8625,36.1563 71.8697,44.5489 24.1892,7.3193 52.7608,3.3265 71.0187,-15.0738 13.7729,-13.8959 27.011,-13.5649 38.8718,-29.1964 l 0.055,-14.2996 c -9.6051,-9.9833 -29.0592,-32.1484 -38.6276,-42.1666 -15.7531,14.4979 -24.6496,35.3427 -42.9478,47.2986 -3.8071,3.171 -9.5458,-0.3619 -13.9896,-0.4549 -14.0641,-3.1009 -27.2683,-9.9298 -38.4688,-19.0312 -6.0784,-17.4034 -0.859,-36.0006 -3.6875,-53.75 l 1.1662,21.6951 z"
           id="use4478"
           inkscape:connector-curvature="0" />
      </g>
      <path
         transform="matrix(0.54082421,-0.00374996,-0.0027782,-0.40067438,-1886.7938,3487.6024)"
         sodipodi:type="star"
         style="color:#000000;display:inline;overflow:visible;visibility:visible;fill:#80d0ad;fill-opacity:1;fill-rule:nonzero;stroke:none;stroke-width:2.79947662;marker:none;enable-background:accumulate"
         id="path4102"
         sodipodi:sides="3"
         sodipodi:cx="-2374.2856"
         sodipodi:cy="-550.49493"
         sodipodi:r1="191.42857"
         sodipodi:r2="95.714287"
         sodipodi:arg1="1.5707963"
         sodipodi:arg2="2.6179939"
         inkscape:flatsided="true"
         inkscape:rounded="0.06"
         inkscape:randomized="0"
         d="m -2374.2856,-359.06636 c -19.8939,0 -175.729,-269.91428 -165.7821,-287.14286 9.947,-17.22857 321.6171,-17.22858 331.5641,-1e-5 9.9469,17.22858 -145.8882,287.14287 -165.782,287.14287 z"
         inkscape:transform-center-y="-48.817403"
         inkscape:transform-center-x="-0.64490447" />
      <path
         id="path4094"
         d="m -3020.4529,3526.0662 c 2.2579,23.512 11.2899,117.5604 13.5478,141.0726"
         inkscape:connector-curvature="0"
         style="fill:#000000;fill-opacity:0;fill-rule:nonzero;stroke:none" />
      <path
         id="path4096"
         d="m -3081.4328,3227.9493 c 2.2181,-14.6398 15.9708,-59.0019 13.3087,-87.8373 -2.6619,-28.8348 -24.4006,-70.9782 -29.2806,-85.1738"
         inkscape:connector-curvature="0"
         style="fill:#000000;fill-opacity:0;fill-rule:nonzero;stroke:none" />
      <path
         id="path4098"
         d="m -2943.0234,3291.8308 c 23.9562,-6.6543 109.1328,-8.8734 143.7356,-39.9267 34.6029,-31.0535 53.2349,-121.9943 63.8817,-146.3931"
         inkscape:connector-curvature="0"
         style="fill:#000000;fill-opacity:0;fill-rule:nonzero;stroke:none" />
      <path
         transform="matrix(0.51993553,-0.14890254,-0.11031576,-0.38519883,-1809.8446,3128.9786)"
         sodipodi:type="star"
         style="color:#000000;display:inline;overflow:visible;visibility:visible;fill:#80d0ad;fill-opacity:1;fill-rule:nonzero;stroke:none;stroke-width:2.79947662;marker:none;enable-background:accumulate"
         id="path4104"
         sodipodi:sides="3"
         sodipodi:cx="-2374.2856"
         sodipodi:cy="-550.49493"
         sodipodi:r1="191.42857"
         sodipodi:r2="95.714287"
         sodipodi:arg1="1.5707963"
         sodipodi:arg2="2.6179939"
         inkscape:flatsided="true"
         inkscape:rounded="0.06"
         inkscape:randomized="0"
         d="m -2374.2856,-359.06636 c -19.8939,0 -175.729,-269.91428 -165.7821,-287.14286 9.947,-17.22857 321.6171,-17.22858 331.5641,-1e-5 9.9469,17.22858 -145.8882,287.14287 -165.782,287.14287 z"
         inkscape:transform-center-y="-22.806799"
         inkscape:transform-center-x="-25.317784" />
      <path
         sodipodi:nodetypes="cccccc"
         inkscape:connector-curvature="0"
         id="path3865"
         d="m -3087.1031,3088.2477 c -10.0442,5.7417 -19.5718,12.7484 -29.7696,18.47 7.2713,28.3608 24.3588,66.971 20.3216,96.3479 l 28.1357,-0.9136 5.9068,-9.2267 c 0.5394,-32.5395 -18.6916,-73.2956 -24.5945,-104.6776 z"
         style="color:#000000;font-style:normal;font-variant:normal;font-weight:normal;font-stretch:normal;font-size:medium;line-height:normal;font-family:Sans;-inkscape-font-specification:Sans;text-indent:0;text-align:start;text-decoration:none;text-decoration-line:none;letter-spacing:normal;word-spacing:normal;text-transform:none;writing-mode:lr-tb;direction:ltr;baseline-shift:baseline;text-anchor:start;display:inline;overflow:visible;visibility:visible;fill:#747474;fill-opacity:1;fill-rule:nonzero;stroke:none;stroke-width:22;marker:none;enable-background:accumulate" />
      <path
         id="path3863"
         d="m -3470.006,3183.3618 c 10.2097,32.2556 20.4499,71.5422 54.6131,86.1927 65.9218,20.8506 134.8579,30.0654 202.807,42.9518 -1.1711,-10.2121 16.2846,-32.3658 0.2174,-33.0286 -61.4532,-11.3253 -123.8572,-18.2289 -183.3957,-36.0988 l -24.7996,-19.4678 c -8.2719,-15.3829 -13.7849,-38.7712 -19.5281,-55.1083 -9.9714,4.8532 -19.9428,9.706 -29.9141,14.559 z"
         style="color:#000000;font-style:normal;font-variant:normal;font-weight:normal;font-stretch:normal;font-size:medium;line-height:normal;font-family:Sans;-inkscape-font-specification:Sans;text-indent:0;text-align:start;text-decoration:none;text-decoration-line:none;letter-spacing:normal;word-spacing:normal;text-transform:none;writing-mode:lr-tb;direction:ltr;baseline-shift:baseline;text-anchor:start;display:inline;overflow:visible;visibility:visible;fill:#747474;fill-opacity:1;fill-rule:nonzero;stroke:none;stroke-width:22;marker:none;enable-background:accumulate"
         inkscape:connector-curvature="0"
         sodipodi:nodetypes="cccccccc" />
      <path
         id="path3861"
         d="m -2740.6245,3195.3127 c -6.8619,19.2659 -10.8571,43.6873 -28.031,56.7138 -57.3338,12.4151 -116.8943,10.1875 -175.3484,13.9326 -7.2993,1.8431 -22.4295,-1.9221 -24.9236,3.7404 2.6121,9.8766 4.1862,20.1298 8.1123,29.6244 69.3351,-5.202 140.2241,-1.0398 208.0222,-17.6733 27.1675,-15.1131 33.5718,-48.7965 43.169,-75.763 -9.1296,-1.7787 -25.4243,-16.7945 -31.0005,-10.5749 z"
         style="color:#000000;font-style:normal;font-variant:normal;font-weight:normal;font-stretch:normal;font-size:medium;line-height:normal;font-family:Sans;-inkscape-font-specification:Sans;text-indent:0;text-align:start;text-decoration:none;text-decoration-line:none;letter-spacing:normal;word-spacing:normal;text-transform:none;writing-mode:lr-tb;direction:ltr;baseline-shift:baseline;text-anchor:start;display:inline;overflow:visible;visibility:visible;fill:#747474;fill-opacity:1;fill-rule:nonzero;stroke:none;stroke-width:22;marker:none;enable-background:accumulate"
         inkscape:connector-curvature="0" />
      <path
         id="path3859"
         d="m -3017.746,3512.4163 c 1.7349,40.7769 2.3461,82.7182 4.7804,122.7705 10.6097,-0.7558 21.5577,1.2859 31.942,-1.521 -1.4485,-40.8029 -2.8971,-81.6055 -4.3458,-122.4084 -10.7921,0.3862 -21.5845,0.7723 -32.3766,1.1589 z"
         style="color:#000000;font-style:normal;font-variant:normal;font-weight:normal;font-stretch:normal;font-size:medium;line-height:normal;font-family:Sans;-inkscape-font-specification:Sans;text-indent:0;text-align:start;text-decoration:none;text-decoration-line:none;letter-spacing:normal;word-spacing:normal;text-transform:none;writing-mode:lr-tb;direction:ltr;baseline-shift:baseline;text-anchor:start;display:inline;overflow:visible;visibility:visible;fill:#747474;fill-opacity:1;fill-rule:nonzero;stroke:none;stroke-width:22;marker:none;enable-background:accumulate"
         inkscape:connector-curvature="0" />
      <path
         id="path4100"
         d="m -3173.4007,3530.2342 c -12.5545,-2.2203 -5.1518,14.4842 -7.3499,21.7257 -0.6406,33.6574 -1.2809,67.3149 -1.9213,100.9727 10.425,-3.3406 36.3027,9.3872 32.6252,-8.6176 0.2712,-37.4436 2.3267,-76.6382 1.4902,-112.9941 -8.2909,-0.077 -16.5513,-1.3377 -24.8442,-1.0867 z"
         style="color:#000000;font-style:normal;font-variant:normal;font-weight:normal;font-stretch:normal;font-size:medium;line-height:normal;font-family:Sans;-inkscape-font-specification:Sans;text-indent:0;text-align:start;text-decoration:none;text-decoration-line:none;letter-spacing:normal;word-spacing:normal;text-transform:none;writing-mode:lr-tb;direction:ltr;baseline-shift:baseline;text-anchor:start;display:inline;overflow:visible;visibility:visible;fill:#747474;fill-opacity:1;fill-rule:nonzero;stroke:none;stroke-width:22;marker:none;enable-background:accumulate"
         inkscape:connector-curvature="0" />
      <path
         id="path4106"
         d="m -3187.9045,3289.1681 c -34.6019,-8.8718 -160.5878,-17.2971 -207.6121,-53.2306 -47.0242,-35.9332 -62.1112,-135.3085 -74.5332,-162.3701"
         inkscape:connector-curvature="0"
         style="fill:#000000;fill-opacity:0;fill-rule:nonzero;stroke:none" />
      <path
         id="path4112"
         d="m -3271.768,3547.3271 37.2661,-338.0124 H -2933.7 l 37.2657,338.0124 z"
         inkscape:connector-curvature="0"
         style="color:#000000;display:inline;overflow:visible;visibility:visible;fill:#80d0ad;fill-opacity:1;fill-rule:nonzero;stroke:none;stroke-width:0.99999994;marker:none;enable-background:accumulate" />
      <path
         id="path4114"
         d="m -2960.5628,3344.525 c -4.0081,-5.0778 -8.4743,-10.1288 -13.6467,-15.0896 -1.0725,-1.0285 -0.5451,-2.6443 -2.4787,-2.0109 -3.242,1.0626 -0.3884,1.7793 -1.7707,3.4037 -2.7013,3.1738 -6.4899,6.1475 -8.9038,9.3712 -0.4398,0.5871 0.1798,2.2067 -1.1512,1.7887 -9.3274,-2.9293 -8.8796,-8.6596 -11.6863,-13.1101 -4.5228,-7.1723 -7.1559,-14.4305 -9.5994,-21.659 -1.4503,-4.2909 -0.545,-8.7057 -4.4138,-12.8717 -0.664,-0.715 -0.3466,0.6994 -0.6072,1.4089 -1.9277,5.2512 -2.1581,5.2276 -3.7688,10.5118 -1.9757,6.4801 -1.5837,6.5173 -3.4021,13.013 -2.9942,10.6942 -5.9391,21.3929 -8.7396,32.1053 -0.712,2.7239 -0.025,5.7416 -3.0987,8.0737 -1.7785,1.3495 -4.7206,-2.9059 -5.9697,-4.4969 -0.9628,-1.2267 -7.8323,-12.8792 -8.5115,-13.9488 -2.8028,-4.4122 -3.0658,-4.3988 -5.7041,-8.819 -2.4397,-4.0874 -0.7088,-4.965 -1.7961,-4.6548 -6.9653,1.9881 -8.9033,5.8862 -13.0395,8.9114 -1.9961,1.46 -2.5097,2.8729 -3.2883,2.6909 -7.3132,-1.7093 -7.3834,-6.1027 -9.8397,-9.2786 -0.6032,-0.7798 -0.2168,-2.0801 -1.4672,-1.5359 -15.0563,6.5563 -17.7342,16.6799 -24.9789,25.3273 -2.7345,3.2637 -5.6234,6.5045 -7.8921,9.846 -0.4772,0.7028 -0.1436,2.0699 -1.1256,1.3775 -6.0321,-4.255 -4.7804,-9.3214 -5.3879,-13.9644 -1.5772,-12.0591 -0.605,-24.0294 -2.4663,-36.0965 -0.933,-6.0509 -2.7597,-12.1311 -3.0479,-18.1592 -0.036,-0.762 1.5297,-2.1789 -0.3794,-2.2957 -6.3389,-0.388 -6.2495,4.0848 -8.7142,6.2841 -8.755,7.8117 -13.0575,16.5487 -16.6441,25.2176 -1.3498,3.2626 -3.6503,6.4059 -5.7928,9.5614 -0.3338,0.4923 0.3304,1.4255 -0.5815,0.9971 -5.3326,-2.5039 -2.8201,-6.2063 -3.5917,-9.3092 -0.347,-1.3947 0.6302,-5.3708 -0.7846,-4.1798 -4.7654,4.013 -7.2087,8.5 -10.6741,12.7749 -0.3694,0.4555 -6.2809,8.4208 -6.7411,8.0572 -9.7918,-7.7301 -13.8018,-16.1905 -19.8442,-24.3516"
         inkscape:connector-curvature="0"
         style="fill:#000000;fill-opacity:0;fill-rule:evenodd;stroke:none" />
      <path
         id="path4116"
         d="m -3214.6308,3387.9458 11.9615,-118.1283 h 238.6236 l 11.9617,118.1283 z"
         inkscape:connector-curvature="0"
         style="fill:#000000;fill-opacity:0;fill-rule:nonzero;stroke:none" />
      <path
         id="path4118"
         d="m -3205.239,3492.674 v 0 c 0,-10.3922 8.6481,-18.8166 19.316,-18.8166 v 0 c 5.123,0 10.036,1.9823 13.6585,5.5111 3.6224,3.5291 5.6575,8.3149 5.6575,13.3055 v 0 c 0,10.3921 -8.6478,18.8166 -19.316,18.8166 v 0 c -10.6679,0 -19.316,-8.4245 -19.316,-18.8166 z"
         inkscape:connector-curvature="0"
         style="fill:#666666;fill-rule:nonzero;stroke:none" />
      <path
         id="path4120"
         d="m -3148.2532,3492.674 v 0 c 0,-10.3922 8.6479,-18.8166 19.3156,-18.8166 v 0 c 5.1232,0 10.0362,1.9823 13.6587,5.5111 3.6222,3.5291 5.6575,8.3149 5.6575,13.3055 v 0 c 0,10.3921 -8.6482,18.8166 -19.3162,18.8166 v 0 c -10.6677,0 -19.3156,-8.4245 -19.3156,-18.8166 z"
         inkscape:connector-curvature="0"
         style="fill:#666666;fill-rule:nonzero;stroke:none" />
      <path
         id="path4122"
         d="m -3239.0053,3397.4204 14.1202,-139.4462 h 281.6873 l 14.1204,139.4462 z"
         inkscape:connector-curvature="0"
         style="color:#000000;display:inline;overflow:visible;visibility:visible;fill:#b2fff3;fill-opacity:1;fill-rule:nonzero;stroke:none;stroke-width:1;marker:none;enable-background:accumulate" />
      <path
         style="color:#000000;font-style:normal;font-variant:normal;font-weight:normal;font-stretch:normal;font-size:medium;line-height:normal;font-family:Sans;-inkscape-font-specification:Sans;text-indent:0;text-align:start;text-decoration:none;text-decoration-line:none;letter-spacing:normal;word-spacing:normal;text-transform:none;writing-mode:lr-tb;direction:ltr;baseline-shift:baseline;text-anchor:start;display:inline;overflow:visible;visibility:visible;fill:#e65342;fill-opacity:1;fill-rule:nonzero;stroke:none;stroke-width:1;marker:none;enable-background:accumulate"
         d="m -3006.1447,3285.3341 c -0.5228,-0.01 -1.0834,0.097 -1.5512,0.3954 -0.9349,0.5961 -1.1053,1.2775 -1.2165,1.6421 -0.1112,0.365 -0.1324,0.5708 -0.1518,0.7606 -0.078,0.7589 -0.2002,1.2519 -0.031,0.7905 -2.2377,6.0964 -2.5581,6.226 -4.4704,12.4997 -2.3489,7.7053 -1.9075,7.8027 -4.0144,15.3282 -3.5171,12.5612 -6.9862,25.1449 -10.2798,37.7424 -0.5332,2.0403 -0.5172,3.761 -0.7904,5.018 -0.2198,1.0097 -0.59,1.6971 -1.3385,2.4331 -0.221,-0.1528 -0.3912,-0.2454 -0.7298,-0.578 -1.0538,-1.0348 -2.2221,-2.6361 -3.0415,-3.6799 0.037,0.047 -0.8467,-1.2493 -1.7637,-2.7371 -0.9172,-1.4877 -2.0371,-3.3568 -3.1629,-5.2311 -2.2521,-3.7483 -4.357,-7.2835 -4.9272,-8.1811 -3.3318,-5.246 -3.6048,-5.1604 -6.6605,-10.2794 -1.2441,-2.0849 -1.2419,-2.9262 -1.2465,-3.315 0,-0.097 -0.01,-0.1818 0,-0.3346 0.01,-0.1528 0.1378,-0.308 -0.092,-1.1254 -0.1144,-0.4083 -0.4494,-1.0839 -1.0338,-1.5207 -0.5844,-0.4364 -1.2305,-0.533 -1.6119,-0.5474 -0.7628,-0.028 -0.9258,0.087 -1.1556,0.1522 -8.9454,2.5531 -11.8917,7.7517 -16.1797,10.8878 -1.2609,0.9223 -2.0191,1.7585 -2.5545,2.3419 -2.931,-0.8652 -4.4166,-1.9583 -5.4441,-3.3761 -1.1542,-1.5923 -1.8772,-3.843 -3.6801,-6.1735 0.2608,0.337 0.2034,0.2216 -0.1824,-0.7908 -0.1928,-0.5064 -0.7411,-1.5233 -1.9159,-1.9769 -1.175,-0.4536 -2.1475,-0.1444 -2.8285,0.152 -18.4998,8.0558 -22.2728,20.8667 -30.3217,30.4737 -2.9465,3.5175 -6.0726,7.1171 -8.759,10.9181 -1.428,-1.4925 -2.3159,-2.9648 -2.6763,-4.6224 -0.501,-2.3065 -0.326,-5.064 -0.7298,-8.1508 -1.8033,-13.7866 -0.6416,-27.8547 -2.8891,-42.4258 -1.1181,-7.2497 -3.165,-14.177 -3.528,-20.7112 0.103,-0.2058 0.2832,-0.4627 0.4562,-1.0039 0.1985,-0.6214 0.4425,-1.9777 -0.4562,-3.1629 -0.899,-1.1851 -2.0959,-1.3429 -3.0109,-1.3989 -4.3514,-0.2664 -7.4489,1.4769 -9.0936,3.5278 -1.6443,2.0509 -2.3455,3.8569 -3.1017,4.5316 -10.6959,9.5434 -15.9681,20.2762 -20.2247,30.5649 -1.2698,3.0685 -3.5379,6.3048 -5.8392,9.6714 -0.4152,-0.4797 -0.5198,-0.9707 -0.578,-1.6729 -0.106,-1.2779 0.4968,-3.4121 -0.1824,-6.1433 0.042,0.1704 -0.021,-0.342 0,-0.9122 0.021,-0.5704 0.074,-1.2675 0.091,-1.9771 0.017,-0.7094 0.2484,-1.2574 -0.4257,-2.6153 -0.337,-0.679 -1.572,-1.7309 -2.7675,-1.7031 -1.1958,0.028 -1.7274,0.5181 -2.1593,0.8817 -6.0052,5.0566 -9.0181,10.5764 -12.8951,15.3588 -0.3136,0.3866 -0.684,0.8857 -1.3991,1.8247 -0.7152,0.9388 -1.6422,2.1289 -2.5549,3.2847 -0.7018,0.8887 -1.3264,1.6479 -1.9159,2.3415 -9.6616,-8.2739 -14.2275,-17.2389 -21.0762,-26.4895 l -4.3488,3.2238 c 6.9019,9.3227 11.8483,19.6594 23.8132,29.1052 0.7628,0.6022 1.7217,0.6366 2.2201,0.5472 0.4984,-0.089 0.744,-0.2228 0.9426,-0.3344 0.3982,-0.223 0.5626,-0.4012 0.7606,-0.578 0.3963,-0.3531 0.7539,-0.7341 1.1555,-1.1861 0.8036,-0.9036 1.7629,-2.0887 2.7067,-3.2845 0.9444,-1.1955 1.8605,-2.3939 2.5853,-3.3452 0.7246,-0.9516 1.4045,-1.8224 1.3077,-1.7032 3.2135,-3.9634 5.5458,-7.7992 8.7287,-11.3137 0.015,0.072 -0.019,0.1076 0,0.1824 0.2266,0.9114 -0.1804,2.7515 0.03,5.2918 0.2108,2.5405 1.9159,5.6641 5.6569,7.4209 0.2476,0.1162 0.4992,0.2184 0.9124,0.304 0.413,0.086 1.0921,0.192 1.9161,-0.2126 0.8238,-0.4048 1.3785,-1.3006 1.5203,-1.8248 0.1248,-0.4615 0.1006,-0.6893 0.091,-0.8821 2.3901,-3.4939 5.0084,-7.1255 6.6908,-11.1919 4.1636,-10.0636 8.9664,-19.8214 18.8256,-28.6186 2.1369,-1.907 2.8544,-4.0341 3.741,-5.1398 0.591,-0.7372 1.3126,-1.1568 2.4631,-1.3684 0.369,7.5113 2.5355,14.7026 3.5889,21.5323 2.1223,13.7598 0.9895,27.7791 2.889,42.3042 0.3094,2.3635 0.1088,5.328 0.8214,8.6069 0.7126,3.2784 2.6051,6.8323 6.6299,9.6712 0.5712,0.4028 1.6099,1.0619 3.1021,0.5172 1.4925,-0.5452 1.7817,-1.7246 1.9161,-2.1899 0.2684,-0.9306 0.4322,-1.1408 0.091,-0.6386 2.5207,-3.7127 5.8476,-7.4695 9.0934,-11.3439 8.6499,-10.3248 11.4321,-20.8724 26.7633,-28.1929 0.048,0.067 0.038,0.1138 0.091,0.1824 1.0807,1.3976 1.8349,3.6019 3.5888,6.0218 1.7538,2.4201 4.6988,4.7196 9.4886,5.8395 1.0468,0.2444 2.2127,-0.1762 2.7979,-0.5779 0.5854,-0.4022 0.883,-0.7372 1.1862,-1.0646 0.6067,-0.6548 1.1427,-1.2997 2.0681,-1.9769 4.718,-3.4505 6.7673,-6.8019 12.0433,-9.0326 0.31,0.9525 0.7206,2.0155 1.4599,3.2544 3.1391,5.2588 3.5043,5.2884 6.7517,10.401 0.2278,0.3584 2.5737,4.2944 4.8356,8.0597 1.1312,1.8823 2.2557,3.801 3.1935,5.3219 0.9376,1.5212 1.4963,2.4573 2.0985,3.2239 0.6468,0.824 1.9359,2.6635 3.4977,4.197 0.7803,0.7668 1.6223,1.5028 2.7976,2.0073 1.1758,0.5044 3.1189,0.5996 4.4709,-0.4258 2.3281,-1.7665 3.4282,-4.1454 3.8622,-6.1435 0.4344,-1.9979 0.458,-3.648 0.7606,-4.8054 3.282,-12.5525 6.7363,-25.1049 10.2489,-37.6508 2.1627,-7.7249 1.6952,-7.6975 3.9841,-15.2068 1.3015,-4.2688 2.0849,-6.0377 3.0414,-8.4848 0.1714,0.5678 0.3918,1.1163 0.5168,1.7333 0.4664,2.2973 0.6162,4.992 1.6121,7.9379 2.8815,8.5234 6.0306,17.2883 11.5266,26.0029 1.3339,2.1151 2.0365,5.0886 3.9536,8.3026 1.9171,3.2143 5.2862,6.338 11.2527,8.2117 0.8088,0.254 2.1473,0.3838 3.2237,-0.426 1.0765,-0.8094 1.2273,-1.8249 1.3079,-2.3417 0.048,-0.3104 0.051,-0.386 0.061,-0.5474 2.5299,-3.2542 6.7215,-6.6839 10.0666,-10.6139 0.4118,-0.4842 0.7244,-1.0644 0.9126,-1.6727 0.076,0.082 0.067,0.1621 0.152,0.2429 5.9711,5.7272 11.1435,11.548 15.7843,17.4269 l 4.2272,-3.3455 c -4.7702,-6.0429 -10.0988,-12.0544 -16.2709,-17.974 0.04,0.038 0.029,-0.12 -0.5778,-1.2469 -0.3032,-0.5636 -1.0355,-1.4968 -2.1291,-1.8554 -1.0929,-0.3584 -2.0639,-0.1588 -2.9195,0.1218 -1.1481,0.3762 -2.0371,0.6908 -2.8892,1.6728 -0.852,0.9817 -0.8982,2.6744 -0.7298,3.3148 0.038,0.1458 0.01,0.03 0.03,0.1218 -2.9053,3.3163 -7.1729,6.7189 -10.2492,10.8268 -0.1536,0.2054 -0.089,0.2727 -0.1826,0.4563 -3.573,-1.4383 -5.2299,-3.1498 -6.4169,-5.1395 -1.3809,-2.3153 -2.0539,-5.3154 -4.0144,-8.4247 -5.1236,-8.1238 -8.1541,-16.3997 -11.0096,-24.8471 -0.7067,-2.091 -0.8661,-4.4927 -1.4293,-7.2687 -0.5636,-2.7761 -1.6529,-5.9492 -4.3186,-8.8199 -0.2122,-0.2284 -0.4474,-0.4753 -1.0038,-0.7601 -0.2782,-0.1426 -0.7546,-0.2644 -1.2773,-0.2738 z"
         id="path4124"
         inkscape:connector-curvature="0" />
      <g
         style="stroke:none"
         id="g4126"
         transform="matrix(0.70128399,-0.13620838,0.13620838,0.70128399,-2736.2711,2238.2747)">
        <rect
           rx="33.352722"
           ry="33.352722"
           y="846.56482"
           x="-1037.226"
           height="285.88046"
           width="595.58429"
           id="rect4128"
           style="color:#000000;display:inline;overflow:visible;visibility:visible;fill:#80d0ad;fill-opacity:1;fill-rule:nonzero;stroke:none;stroke-width:2.33425426;marker:none;enable-background:accumulate" />
        <g
           style="fill:#666666;stroke:none"
           id="g4130">
          <circle
             style="color:#000000;display:inline;overflow:visible;visibility:visible;fill:#666666;fill-opacity:1;fill-rule:nonzero;stroke:none;stroke-width:6.50715923;marker:none;enable-background:accumulate"
             id="path4132"
             transform="matrix(0.76838447,0,0,0.76838447,164.13102,671.11871)"
             cx="-1351.4286"
             cy="418.07648"
             r="122.85714" />
          <circle
             transform="matrix(0.76838447,0,0,0.76838447,424.13102,671.11871)"
             id="path4134"
             style="color:#000000;display:inline;overflow:visible;visibility:visible;fill:#666666;fill-opacity:1;fill-rule:nonzero;stroke:none;stroke-width:6.50715923;marker:none;enable-background:accumulate"
             cx="-1351.4286"
             cy="418.07648"
             r="122.85714" />
        </g>
      </g>
      <path
         style="color:#000000;font-style:normal;font-variant:normal;font-weight:normal;font-stretch:normal;font-size:medium;line-height:normal;font-family:Sans;-inkscape-font-specification:Sans;text-indent:0;text-align:start;text-decoration:none;text-decoration-line:none;letter-spacing:normal;word-spacing:normal;text-transform:none;writing-mode:lr-tb;direction:ltr;baseline-shift:baseline;text-anchor:start;display:inline;overflow:visible;visibility:visible;fill:#80d0ad;fill-opacity:1;fill-rule:nonzero;stroke:none;stroke-width:0.99999994;marker:none;enable-background:accumulate"
         d="m -3430.2111,3100.6452 c -1.0106,6.8111 -0.5392,10.7728 -0.4018,15.8952 0.1374,5.1224 0.2748,10.5573 0.1116,15.6717 -0.3266,10.2294 -3.719,18.0263 -2.8129,17.0337 -2.3289,2.5501 -13.432,10.292 -24.6909,14.846 -11.2592,4.554 -23.7706,5.8397 -25.5396,5.5141 2.0349,0.3744 -8.5052,-5.6763 -16.8551,-15.5379 -8.35,-9.8616 -13.4832,-19.2902 -23.3292,-28.7988 l -33.0404,34.2238 c -1.1105,-1.0724 9.5842,12.9102 20.0698,25.2937 10.4853,12.3837 21.7763,27.399 44.5597,31.5895 18.9798,3.4908 35.7377,-1.6582 51.9498,-8.2155 16.2119,-6.5573 30.7965,-14.5968 41.9926,-26.8565 14.431,-15.8023 14.798,-33.4835 15.2476,-47.574 0.2252,-7.0451 -2e-4,-13.48 -0.134,-18.4624 -0.1334,-4.9826 0.1654,-9.3516 -0.089,-7.6351 z"
         id="path4136"
         inkscape:connector-curvature="0" />
      <path
         style="color:#000000;font-style:normal;font-variant:normal;font-weight:normal;font-stretch:normal;font-size:medium;line-height:normal;font-family:Sans;-inkscape-font-specification:Sans;text-indent:0;text-align:start;text-decoration:none;text-decoration-line:none;letter-spacing:normal;word-spacing:normal;text-transform:none;writing-mode:lr-tb;direction:ltr;baseline-shift:baseline;text-anchor:start;display:inline;overflow:visible;visibility:visible;fill:#80d0ad;fill-opacity:1;fill-rule:nonzero;stroke:none;stroke-width:22;marker:none;enable-background:accumulate"
         d="m -2738.1926,3113.2825 c 1.0102,6.8111 0.539,10.7726 0.4018,15.8949 -0.1376,5.1224 -0.275,10.5574 -0.1118,15.672 0.3266,10.2291 3.719,18.0262 2.8129,17.0337 2.3287,2.5501 13.4322,10.2919 24.6911,14.8459 11.259,4.5538 23.7702,5.8394 25.5396,5.514 -2.0351,0.3746 8.505,-5.6764 16.8549,-15.5375 8.3502,-9.8618 13.4834,-19.2908 23.3294,-28.799 l 33.0404,34.2235 c 1.1103,-1.0723 -9.5844,12.9105 -20.0698,25.294 -10.4855,12.3834 -21.7764,27.399 -44.5601,31.5894 -18.9796,3.4909 -35.7375,-1.6581 -51.9494,-8.2156 -16.2121,-6.5571 -30.7967,-14.5968 -41.9928,-26.8565 -14.431,-15.8021 -14.798,-33.4834 -15.2476,-47.5738 -0.225,-7.0453 2e-4,-13.48 0.1338,-18.4626 0.1336,-4.9826 -0.1654,-9.3512 0.089,-7.6351 z"
         id="path4138"
         inkscape:connector-curvature="0" />
    </g>
  </g>
</svg>
