<svg xmlns="http://www.w3.org/2000/svg" width="967.704" height="885.741"><path d="M396.783 646.647l-2.658 141.073" fill-opacity="0"/><path d="M390.865 760.956c-10.76.075-94.3 108.807-88.86 115.672s173.986 5.697 179.318-1.243-79.698-114.504-90.457-114.43zM556.022 741.4c-10.344 2.962-61.592 130.137-54.52 135.293s169.12-41.253 172.392-49.37-107.53-88.884-117.872-85.922z" fill="#80d0ad"/><path d="M473.63 208.83c-10.044 5.742-19.572 12.748-29.77 18.47 7.27 28.36 24.36 66.97 20.322 96.348l28.136-.914 5.907-9.227c.54-32.54-18.692-73.296-24.594-104.678zM90.726 303.943c10.2 32.256 20.45 71.542 54.613 86.193 65.922 20.85 134.858 30.065 202.807 42.952-1.17-10.212 16.285-32.366.217-33.03-61.453-11.325-123.857-18.23-183.396-36.1l-24.8-19.468c-8.272-15.383-13.785-38.77-19.528-55.108l-29.914 14.56zm729.382 11.95c-6.862 19.266-10.857 43.687-28.03 56.714-57.334 12.415-116.894 10.188-175.348 13.933-7.3 1.843-22.43-1.922-24.924 3.74 2.612 9.877 4.186 20.13 8.112 29.624 69.335-5.202 140.224-1.04 208.022-17.673 27.168-15.113 33.572-48.796 43.17-75.763-9.13-1.78-25.424-16.794-31-10.575zM542.986 632.997l4.78 122.77c10.6-.756 21.558 1.286 31.942-1.52l-4.346-122.408-32.377 1.16zM387.33 650.815c-12.554-2.22-5.152 14.484-7.35 21.726l-1.92 100.973c10.425-3.34 36.303 9.387 32.625-8.618.27-37.444 2.327-76.638 1.5-112.994-8.3-.077-16.55-1.338-24.844-1.087z" fill="#747474"/><path d="M288.964 667.908l37.266-338.012h300.802l37.266 338.012z" fill="#80d0ad"/><path d="M600.17 465.106c-4.008-5.078-8.474-10.13-13.647-15.1-1.073-1.028-.545-2.644-2.48-2.01-3.242 1.063-.388 1.78-1.77 3.404-2.7 3.174-6.5 6.148-8.904 9.37-.44.587.18 2.207-1.15 1.79-9.327-2.93-8.88-8.66-11.686-13.1-4.523-7.172-7.156-14.43-9.6-21.66-1.45-4.29-.545-8.706-4.414-12.872-.664-.715-.347.7-.607 1.41-1.928 5.25-2.158 5.228-3.77 10.512-1.976 6.48-1.584 6.517-3.402 13.013L530 471.967c-.712 2.724-.025 5.742-3.1 8.074-1.778 1.35-4.72-2.906-5.97-4.497-.963-1.227-7.832-12.88-8.512-13.95-2.803-4.412-3.066-4.4-5.704-8.82-2.44-4.087-.71-4.965-1.796-4.655-6.965 1.988-8.903 5.886-13.04 8.91-1.996 1.46-2.5 2.873-3.288 2.69-7.313-1.71-7.383-6.103-9.84-9.28-.603-.78-.217-2.08-1.467-1.536-15.056 6.556-17.734 16.68-24.98 25.327-2.735 3.264-5.623 6.505-7.892 9.846-.477.703-.144 2.07-1.126 1.378-6.032-4.255-4.78-9.32-5.388-13.964-1.577-12.06-.605-24.03-2.466-36.096-.933-6.05-2.76-12.13-3.048-18.16-.036-.762 1.53-2.18-.38-2.296-6.34-.388-6.25 4.085-8.714 6.284-8.755 7.812-13.057 16.55-16.644 25.218-1.35 3.263-3.65 6.406-5.793 9.56-.334.492.33 1.426-.58.997-5.333-2.504-2.82-6.206-3.592-9.31-.347-1.395.63-5.37-.785-4.18-4.765 4.013-7.21 8.5-10.674 12.775-.37.456-6.28 8.42-6.74 8.057-9.792-7.73-13.802-16.2-19.844-24.352" fill-opacity="0" fill-rule="evenodd"/><path d="M355.493 613.255h0c0-10.392 8.648-18.817 19.316-18.817h0c5.123 0 10.036 1.982 13.658 5.5s5.658 8.315 5.658 13.305h0c0 10.392-8.648 18.817-19.316 18.817h0c-10.668 0-19.316-8.425-19.316-18.817zm56.987 0h0c0-10.392 8.648-18.817 19.316-18.817h0c5.123 0 10.036 1.982 13.66 5.5s5.657 8.315 5.657 13.305h0c0 10.392-8.648 18.817-19.316 18.817h0c-10.668 0-19.316-8.425-19.316-18.817z" fill="#666"/><path d="M321.727 518l14.12-139.446h281.687L631.655 518z" fill="#b2fff3"/><path d="M554.587 405.915c-.523-.01-1.083.097-1.55.395-.935.596-1.105 1.278-1.216 1.642s-.132.57-.152.76c-.078.76-.2 1.252-.03.79-2.238 6.096-2.558 6.226-4.47 12.5-2.35 7.705-1.908 7.803-4.014 15.328l-10.28 37.742c-.533 2.04-.517 3.76-.8 5.018-.22 1-.6 1.697-1.338 2.433-.22-.153-.39-.245-.73-.578-1.054-1.035-2.222-2.636-3.042-3.68.037.047-.847-1.25-1.764-2.737l-3.163-5.23-4.927-8.18c-3.332-5.246-3.605-5.16-6.66-10.28-1.244-2.085-1.242-2.926-1.246-3.315 0-.097-.01-.182 0-.335s.138-.308-.092-1.125c-.114-.408-.45-1.084-1.034-1.52s-1.23-.533-1.612-.547c-.763-.028-.926.087-1.156.152-8.945 2.553-11.892 7.752-16.18 10.888-1.26.922-2.02 1.758-2.554 2.342-2.93-.865-4.417-1.958-5.444-3.376-1.154-1.592-1.877-3.843-3.68-6.173.26.337.203.222-.182-.79-.193-.506-.74-1.523-1.916-1.977s-2.148-.144-2.83.152c-18.5 8.056-22.273 20.867-30.322 30.474-2.947 3.517-6.073 7.117-8.76 10.918-1.428-1.493-2.316-2.965-2.676-4.622-.5-2.307-.326-5.064-.73-8.15-1.803-13.787-.642-27.855-2.89-42.426-1.118-7.25-3.165-14.177-3.528-20.71.103-.206.283-.463.456-1.004.198-.62.443-1.978-.456-3.163s-2.096-1.343-3.01-1.4c-4.35-.266-7.45 1.477-9.094 3.528s-2.345 3.857-3.102 4.532c-10.696 9.543-15.968 20.276-20.225 30.565-1.27 3.068-3.538 6.305-5.84 9.67-.415-.48-.52-.97-.578-1.673-.106-1.278.497-3.412-.182-6.143.042.17-.02-.342 0-.912l.09-1.977c.017-.71.248-1.257-.426-2.615-.337-.68-1.572-1.73-2.767-1.703s-1.727.518-2.16.882c-6.005 5.057-9.018 10.576-12.895 15.36-.314.387-.684.886-1.4 1.825l-2.555 3.285c-.702.89-1.326 1.648-1.916 2.34-9.662-8.274-14.228-17.24-21.076-26.5l-4.35 3.224c6.902 9.323 11.848 19.66 23.813 29.105.763.602 1.722.637 2.22.547a2.65 2.65 0 0 0 .943-.334c.398-.223.563-.4.76-.578.396-.353.754-.734 1.155-1.186.804-.904 1.763-2.09 2.707-3.284l2.585-3.345 1.308-1.703c3.213-3.963 5.546-7.8 8.73-11.314.015.072-.02.108 0 .182.227.91-.18 2.75.03 5.292s1.916 5.664 5.657 7.42c.248.116.5.218.912.304s1.092.192 1.916-.213 1.38-1.3 1.52-1.825c.125-.46.1-.69.09-.882 2.4-3.494 5.008-7.126 6.69-11.192 4.164-10.064 8.966-19.82 18.826-28.62 2.137-1.907 2.854-4.034 3.74-5.14.59-.737 1.313-1.157 2.463-1.368.37 7.51 2.535 14.703 3.59 21.532 2.122 13.76 1 27.78 2.89 42.304.31 2.364.11 5.328.82 8.607s2.605 6.832 6.63 9.67c.57.403 1.6 1.062 3.102.517s1.782-1.725 1.916-2.2c.268-.93.432-1.14.09-.64 2.52-3.713 5.848-7.47 9.093-11.344 8.65-10.325 11.432-20.872 26.763-28.193.048.067.038.114.09.182 1.08 1.398 1.835 3.602 3.59 6.022s4.7 4.72 9.49 5.84c1.047.244 2.213-.176 2.798-.578s.883-.737 1.186-1.065c.607-.655 1.143-1.3 2.068-1.977 4.718-3.45 6.767-6.802 12.043-9.033.3.953.72 2.016 1.46 3.254 3.14 5.26 3.504 5.288 6.752 10.4.228.358 2.574 4.294 4.836 8.06l3.193 5.322c.938 1.52 1.496 2.457 2.1 3.224.647.824 1.936 2.664 3.498 4.197.78.767 1.622 1.503 2.798 2.007s3.12.6 4.47-.426c2.328-1.766 3.428-4.145 3.862-6.143s.458-3.648.76-4.805l10.25-37.65c2.163-7.725 1.695-7.698 3.984-15.207 1.302-4.27 2.085-6.038 3.04-8.485.17.568.392 1.116.517 1.733.466 2.297.616 4.992 1.612 7.938 2.88 8.523 6.03 17.288 11.527 26.003 1.334 2.115 2.036 5.09 3.954 8.303s5.286 6.338 11.253 8.212c.81.254 2.147.384 3.224-.426s1.227-1.825 1.308-2.342c.048-.3.05-.386.06-.547 2.53-3.254 6.722-6.684 10.067-10.614a4.78 4.78 0 0 0 .913-1.673c.076.082.067.162.152.243 5.97 5.727 11.143 11.548 15.784 17.427l4.227-3.345c-4.77-6.043-10.1-12.054-16.27-17.974.04.038.03-.12-.578-1.247-.303-.564-1.035-1.497-2.13-1.855s-2.064-.16-2.92.122c-1.148.376-2.037.69-2.89 1.673s-.898 2.674-.73 3.315c.038.146.01.03.03.122-2.905 3.316-7.173 6.72-10.25 10.827-.154.205-.09.273-.183.456-3.573-1.438-5.23-3.15-6.417-5.14-1.38-2.315-2.054-5.315-4.014-8.425-5.124-8.124-8.154-16.4-11-24.847-.707-2.09-.866-4.493-1.43-7.27s-1.653-5.95-4.32-8.82c-.212-.228-.447-.475-1.004-.76-.278-.143-.755-.264-1.277-.274z" fill="#e65342"/><g transform="matrix(.701284 -.136208 .136208 .701284 824.4609 -641.1443)"><rect rx="33.353" y="846.565" x="-1037.226" height="285.88" width="595.584" fill="#80d0ad"/><g fill="#666"><circle transform="matrix(.768384 0 0 .768384 164.13102 671.11871)" cx="-1351.429" cy="418.076" r="122.857"/><circle transform="matrix(.768384 0 0 .768384 424.13102 671.11871)" cx="-1351.429" cy="418.076" r="122.857"/></g></g><path d="M130.52 221.226c-1 6.8-.54 10.773-.402 15.895s.275 10.557.112 15.672c-.327 10.23-3.72 18.026-2.813 17.034-2.33 2.55-13.432 10.292-24.7 14.846s-23.77 5.84-25.54 5.514c2.035.374-8.505-5.676-16.855-15.538s-13.483-19.3-23.33-28.8l-33.04 34.224c-1.1-1.072 9.584 12.9 20.07 25.294s21.776 27.4 44.56 31.6c18.98 3.5 35.738-1.658 51.95-8.216s30.796-14.597 41.993-26.856c14.43-15.802 14.798-33.483 15.248-47.574.225-7.045 0-13.48-.134-18.462s.165-9.352-.1-7.635zm692.02 12.637c1 6.8.54 10.773.402 15.895s-.275 10.557-.112 15.672c.327 10.23 3.72 18.026 2.813 17.034 2.33 2.55 13.432 10.292 24.7 14.846s23.77 5.84 25.54 5.514c-2.035.375 8.505-5.676 16.855-15.537s13.483-19.3 23.33-28.8l33.04 34.224c1.1-1.072-9.584 12.9-20.07 25.294s-21.776 27.4-44.56 31.6c-18.98 3.5-35.737-1.658-51.95-8.216s-30.797-14.597-41.993-26.856c-14.43-15.802-14.798-33.483-15.248-47.574-.225-7.045 0-13.48.134-18.463s-.165-9.35.1-7.635z" fill="#80d0ad"/></svg>
