<svg xmlns="http://www.w3.org/2000/svg" width="192" height="192"><path fill="#f6aabe" d="M136.3 189.444H19.99C9.196 189.444.35 180.89.02 170.317v1.947c0 10.854 9 19.735 20 19.735H136.3l-.062-2.517.07-.038z"/><path fill="#ec93ab" d="M191.98 169.712c0 10.852-9 19.732-20 19.732h-35.69l-.072.04.062 2.517h36.547c8.777 0 16.205-6.174 18.445-14.508.45-1.67.71-3.415.71-5.226v-2.553z"/><path fill="#e7275a" d="M192 169.712c0 10.852-9 19.732-20 19.732H20c-11 0-20-8.88-20-19.732V19.733C0 8.88 9 0 20 0h152c11 0 20 8.88 20 19.733v149.98z"/><path fill="#c0254e" d="M192 169.602V103.16l-46.1-43.38c6.423 7.554 10.175 16.642 10.175 26.425 0 11.776-5.443 22.54-14.434 30.838h.016l-.066.043c-4.043 3.72-8.217 7.262-13.55 10.607L92.17 150.58l43.907 38.756H172c11-.001 20-8.882 20-19.733z"/><path d="M141.6 117.192l.066-.043h-.016c9-8.297 14.434-19.063 14.434-30.838 0-9.783-3.752-18.87-10.175-26.425-10.784-12.677-29.106-21.02-49.9-21.02-33.178 0-60.075 21.242-60.075 47.446 0 25.5 25.5 46.3 57.45 47.395L92.18 150.58l35.87-22.778c5.332-3.345 9.506-6.888 13.55-10.608zM117.85 86.23c.97-2.024 2.688-3.198 4.96-3.198 3.13 0 5.348 2.243 5.348 5.688v9.543h-6.234v-7.767c0-1.26-.7-2.05-1.718-2.05-1.165 0-1.912.955-1.912 2.407v7.4h-6.234v-7.767c0-1.26-.692-2.05-1.718-2.05-1.165 0-1.912.955-1.912 2.407v7.4h-6.235V83.305h6.235v2.104c1.025-1.503 2.55-2.378 4.518-2.378 2.297 0 4.098 1.203 4.902 3.198zm-30-17.54c1.436-.113 2.788.217 4.048.998a11.69 11.69 0 0 1 2.268 1.866c.72.758 1.37 1.712 1.96 2.868.56-1.305 1.228-2.353 2.004-3.146a4.85 4.85 0 0 1 2.75-1.458c1.672 0 2.95-.056 3.828-.172.588-.06 1.262-.22 2.025-.482s1.56-.648 2.38-1.17c.818-.495 1.436-.925 1.847-1.303s.677-.694.794-.956c.113-.373.324-.563.614-.563.44.085.6.33.44.737h.088a17.82 17.82 0 0 1-1.937 3.017c-.765.975-1.612 1.907-2.553 2.802-.644.754-1.5 1.343-2.533 1.765-1.038.414-2.263.6-3.674.582h-1.098c-1.06 0-1.923.164-2.598.48s-1.162.78-1.45 1.4c.058.172.17.398.33.672s.313.6.46.934a7.94 7.94 0 0 0 .44 1.261c.178.375.3.693.397.953H97.3a20.03 20.03 0 0 0-2.285-3.017c-.82-.883-1.687-1.6-2.6-2.192-.4-.314-.952-.607-1.627-.865a17.74 17.74 0 0 0-2.201-.695 22.34 22.34 0 0 0-2.07-.35c-.703-.084-1.3-.13-1.764-.13h-1c.8-2.405 2.158-3.676 4.095-3.823zm-5.68 29.57H64.34v-3.967l9.062-10.334h-8.73v-4.867h17.3v3.965L72.9 93.39h9.255v4.87zm9.533.217c-5.2 0-8.562-3.034-8.562-7.7s3.354-7.683 8.562-7.683 8.563 3.007 8.563 7.683-3.353 7.7-8.563 7.7zm.19-10.592c-1.374 0-2.252 1.14-2.252 2.874s.88 2.87 2.252 2.87 2.25-1.137 2.25-2.87-.878-2.874-2.25-2.874z" fill="#fff"/></svg>
