<svg xmlns="http://www.w3.org/2000/svg" xmlns:xlink="http://www.w3.org/1999/xlink" width="400" height="400"><style><![CDATA[.B{opacity:.967}.C{stroke-linejoin:round}.D{fill-rule:evenodd}.E{stroke-width:1.05}]]></style><defs><linearGradient id="A" xlink:href="#N"><stop offset="0" stop-color="#b3b3b3"/><stop offset="1" stop-color="#b3b3b3" stop-opacity="0"/></linearGradient><radialGradient id="B" cx="333.528" cy="217.583" fx="333.528" fy="217.583" r="29.875" gradientTransform="matrix(-0.95122439,-0.37973408,-0.79004638,1.9790465,561.77552,-104.77634)" xlink:href="#N"><stop offset="0" stop-color="#e6e6e6"/><stop offset="1" stop-color="#e6e6e6" stop-opacity="0"/></radialGradient><radialGradient id="C" cx="172.614" cy="303.206" fx="172.614" fy="303.206" r="22.63" gradientTransform="matrix(1,0,0,0.63328545,0,119.49923)" xlink:href="#N"><stop offset="0" stop-color="#999"/><stop offset="1" stop-color="#999" stop-opacity="0"/></radialGradient><radialGradient id="D" cx="335.086" cy="219.037" fx="335.086" fy="219.037" r="29.875" gradientTransform="matrix(0.54659184,-0.27740671,0.6404924,1.2620022,11.607646,18.444794)" xlink:href="#N"><stop offset="0" stop-color="#969696"/><stop offset="1" stop-color="#e6e6e6" stop-opacity="0"/></radialGradient><radialGradient r="38.625" fy="25.979" fx="250.46" cy="25.979" cx="250.46" gradientTransform="matrix(-1.1864466,0.79500993,0.21180507,0.31609089,435.38812,-174.97097)" id="E" xlink:href="#N"><stop offset="0" stop-color="#afafaf"/><stop offset="1" stop-color="#e6e6e6" stop-opacity="0"/></radialGradient><radialGradient r="103.516" fy="230.123" fx="458.028" cy="230.123" cx="458.028" gradientTransform="matrix(0.41734111,-0.01064379,0.00887794,0.34810258,9.439031,55.321448)" id="F" xlink:href="#N"><stop offset="0" stop-color="#bebebe"/><stop offset="1" stop-color="#b3b3b3" stop-opacity="0"/></radialGradient><radialGradient r="38.625" fy="25.979" fx="250.46" cy="25.979" cx="250.46" gradientTransform="matrix(1.1864466,0.79500993,-0.21180507,0.31609089,-32.887133,-175.8174)" id="G" xlink:href="#N"><stop offset="0" stop-color="#afafaf"/><stop offset="1" stop-color="#e6e6e6" stop-opacity="0"/></radialGradient><radialGradient r="29.875" fy="219.037" fx="335.086" cy="219.037" cx="335.086" gradientTransform="matrix(-0.54659184,-0.27740671,-0.6404924,1.2620022,394.31925,17.450931999999998)" id="H" xlink:href="#N"><stop offset="0" stop-color="#969696"/><stop offset="1" stop-color="#e6e6e6" stop-opacity="0"/></radialGradient><radialGradient xlink:href="#A" id="I" cx="171.234" cy="217.677" fx="171.234" fy="217.677" r="19.572" gradientTransform="matrix(1,0,0,1.278095,0,-60.535026)"/><radialGradient xlink:href="#A" id="J" cx="212.031" cy="217.677" fx="212.031" fy="217.677" r="16.494" gradientTransform="matrix(1,0,0,1.5166132,0,-112.45505)"/><radialGradient xlink:href="#A" id="K" cx="248.859" cy="217.677" fx="248.859" fy="217.677" r="16.697" gradientTransform="matrix(1,0,0,1.4981632,0,-108.43892)"/><radialGradient id="L" cx="206.644" cy="214.435" fx="206.644" fy="214.435" r="190.25" gradientTransform="matrix(0.97267227,0.01617535,-0.01665626,0.97473856,9.2187856,2.0743911)" xlink:href="#N"><stop offset="0" stop-opacity="0"/><stop offset=".817" stop-opacity=".02"/><stop offset=".899" stop-opacity=".145"/><stop offset=".912" stop-opacity=".208"/><stop offset=".956" stop-opacity=".25"/><stop offset="1" stop-opacity=".333"/></radialGradient><path id="M" d="M107.27 156.262v177.844c-35.128-3.853-62.737-42.188-62.737-88.922s27.61-85.068 62.737-88.922z"/><linearGradient id="N" gradientUnits="userSpaceOnUse"/></defs><path d="M394.463 202.425c0 106.154-86.632 192.21-193.497 192.21S7.468 308.58 7.468 202.425 94.1 10.216 200.966 10.216s193.497 86.055 193.497 192.21z" fill="#1a1a1a" stroke="#000" stroke-width="5.001" class="C"/><g fill="#fff"><path d="M390.785 167.35c0 105.832-85.793 191.625-191.625 191.625S7.535 273.18 7.535 167.35 93.33-24.276 199.16-24.276 390.785 61.517 390.785 167.35z" opacity="0" class="D"/><path d="M388.19 199.72c0 102.804-83.52 186.144-186.547 186.144S15.096 302.525 15.096 199.72 98.617 13.577 201.644 13.577 388.19 96.916 388.19 199.72z" opacity=".9"/><path d="M389.56 199.6c0 103.687-85.27 187.742-190.46 187.742S8.642 303.277 8.642 199.6 93.913 11.847 199.1 11.847 389.56 95.903 389.56 199.6z" stroke="#333" stroke-width="1.514" class="C"/></g><path d="M394.313 201.655c0 106.602-86.997 193.02-194.313 193.02S5.687 308.257 5.687 201.655 92.684 8.635 200 8.635s194.313 86.418 194.313 193.02z" fill="none" stroke="#000" stroke-width="2.008" class="C"/><path d="m 385.62498,214.43469 a 178.98123,174.04742 0 1 1 -357.962459,0 178.98123,174.04742 0 1 1 357.962459,0 z" transform="matrix(1.076491 0 0 1.100935 -20.513668 -34.695518)" opacity=".75" fill="url(#L)"/><g class="D"><path d="M154.67 33.7c-25.884-.646-52.104 16.5-58.645 42.133-1.524 6.216-2.145 12.1-2.255 18.114v66.804h26.25l.18-70.426c.807-14.955 12.362-30.72 28.4-30.54l.19 71.412c1.368 19.347 19.7 35.36 39.106 33.72 12.123-.294 24.337.707 36.38-.76 18.34-3.438 31.03-22.116 29.325-40.372v-63.9c16.682-1.218 29.334 14.976 30.074 30.54l.18 70.426h26.25V89.973c-.86-7.64-2.07-16.99-6.21-24.358-10.74-21.79-35.86-33.545-59.553-31.774-6.92-.88-14.366 3.8-16.26 10.36l-.016 84.23c-.79 11.76-12.38 20.752-23.945 19.26-8.182.355-17.423.014-23.004-7.016-7.52-7.95-5-19.326-5.443-29.202l.13-68.355c-3.422-6.92-11.028-10.493-18.563-9.358l-1.247-.017-1.32-.042z" stroke="#fff" class="E"/><use xlink:href="#M" fill="url(#B)" class="B"/><g stroke="#fff"><g class="E"><path d="M299.6 329.324c-.734-.007-3.476-.604-4.137-.175 0 0-1.087 3.168-4.834 5.956-3.29 2.448-6.413 4.794-9.76 6.996-3.005 1.976-6.23 4.114-9.25 5.568-2.377 1.144-4.32 1.31-4.32 1.31h-33.83c-2.113 0-3.845 1.667-3.845 3.74v.92c0 2.074 1.732 3.773 3.845 3.773h35.573c.82 0 3.777-.86 5.536-1.633 4.386-1.924 7.244-4.374 12.295-7.38 5.37-3.435 15.3-11.43 15.3-11.43 1.764-1.143 2.234-3.453 1.07-5.184l-.502-.788c-.728-1.082-1.92-1.662-3.143-1.673z"/><path d="M297.307 156.37v177.844c35.128-3.853 62.738-42.188 62.738-88.922s-27.6-85.068-62.738-88.922zm-191.127.944v177.844c-35.128-3.853-62.738-42.188-62.738-88.922s27.6-85.068 62.738-88.922z" class="B"/></g><path d="M233.64 352.008c0 9.278-12.928 16.8-28.875 16.8s-28.875-7.522-28.875-16.8 12.928-16.8 28.875-16.8 28.875 7.522 28.875 16.8z" stroke-width="1.261" class="B"/><rect width="13.329" height="171.946" x="274.718" y="146.09" rx="3.888" ry="3.54" transform="matrix(1.043334 0 0 1.050017 -4.656294 .094873)" stroke-width="1.054" class="B"/><rect width="13.063" height="171.957" x="106.561" y="147.085" rx="3.81" ry="3.54" transform="matrix(1.043334 0 0 1.050017 -3.834759 .094873)" stroke-width="1.043" class="B"/></g><path d="M131.636 188.83H272.47v111.885H131.636z"/></g><path d="M189.844 226.693c0 2.313-.438 4.344-1.312 6.094s-2.052 3.198-3.53 4.344c-1.75 1.375-3.672 2.354-5.766 2.938s-4.755.875-7.984.875h-18.625v-46.53h16.438c3.417 0 6.005.13 7.766.39a14.93 14.93 0 0 1 4.953 1.641c1.667.896 2.91 2.094 3.734 3.594s1.234 3.23 1.234 5.188c0 2.27-.568 4.292-1.703 6.063s-2.703 3.073-4.703 3.906v.25c2.875.604 5.177 1.84 6.906 3.703s2.594 4.38 2.594 7.547zm-14.97-19.125c0-.75-.193-1.52-.578-2.312s-.984-1.365-1.797-1.72c-.77-.333-1.682-.516-2.734-.547l-4.703-.047h-.812v9.844h1.47l4.203-.062c.802-.042 1.63-.26 2.484-.656.937-.437 1.583-1.042 1.938-1.812s.53-1.667.53-2.687zm2.938 18.906c0-1.437-.292-2.562-.875-3.375s-1.458-1.427-2.625-1.844c-.708-.27-1.682-.422-2.922-.453l-4.984-.047h-2.156v11.656h.625l6.313-.062c1.167-.042 2.354-.323 3.563-.844 1.062-.458 1.84-1.13 2.328-2.016s.734-1.89.734-3.016z" transform="matrix(1.100722 0 0 2.000072 -23.811797 -190.28066)" fill="url(#I)"/><path d="M180.674 262.805c0 4.625-.482 8.688-1.445 12.188s-2.26 6.396-3.887 8.688c-1.926 2.75-4.042 4.71-6.346 5.875s-5.234 1.75-8.79 1.75h-20.5V198.24H157.8c3.76 0 6.6.26 8.548.78s3.755 1.615 5.452 3.28c1.834 1.792 3.205 4.188 4.11 7.188s1.36 6.46 1.36 10.375c0 4.542-.625 8.584-1.875 12.125s-2.975 6.146-5.177 7.813v.5c3.165 1.208 5.698 3.677 7.602 7.407s2.855 8.76 2.855 15.094zm-16.476-38.25c0-1.5-.212-3.042-.636-4.625s-1.084-2.73-1.978-3.438c-.85-.667-1.852-1.03-3-1.094s-2.884-.094-5.177-.094h-.894v19.688h1.617c2.2 0 3.744-.042 4.626-.125s1.794-.52 2.735-1.313c1.032-.875 1.743-2.083 2.133-3.625s.585-3.333.585-5.375zm3.233 37.814c0-2.875-.32-5.125-.963-6.75s-1.605-2.854-2.89-3.688c-.78-.542-1.852-.844-3.216-.906s-3.193-.094-5.486-.094h-2.373v23.313h.688c3.348 0 5.664-.042 6.948-.125s2.59-.646 3.92-1.688c1.17-.917 2.024-2.26 2.563-4.03s.808-3.78.808-6.03z" fill="#fff"/><path d="M227.563 240.943H196.5v-46.53h11.688v37.656h19.375z" transform="matrix(1.100722 0 0 2.000072 -23.811797 -190.28066)" fill="url(#J)"/><path d="M187.313 197.563v94.53h35.563v-19.25H201.5v-75.28h-14.187z" fill="#fff"/><path d="M233.125 240.943v-46.53h31.47v8.875H244.75v8.156h18.28v8.875h-18.28v11.75h19.844v8.875z" transform="matrix(1.100722 0 0 2.000072 -23.811797 -190.28066)" fill="url(#K)"/><path d="M227.813 197.5v94.53h35.563v-19.25H242V250.5h19.656v-18.656H242V216.75h21.375V197.5h-35.562z" fill="#fff"/><g class="D"><path d="M155.37 33c-25.884-.646-52.104 16.5-58.645 42.133-1.524 6.216-2.145 12.1-2.255 18.114v66.804h26.25l.18-70.426c.807-14.955 12.362-30.72 28.4-30.54l.19 71.412c1.368 19.347 19.7 35.36 39.106 33.72 12.123-.294 24.337.707 36.38-.76 18.34-3.438 31.03-22.116 29.325-40.372v-63.9c16.682-1.218 29.334 14.976 30.074 30.54l.18 70.426h26.25V89.284c-.86-7.64-2.07-16.99-6.21-24.358-10.74-21.79-35.86-33.545-59.553-31.774-6.92-.88-14.365 3.8-16.26 10.36l-.016 84.23c-.79 11.76-12.38 20.752-23.945 19.26-8.182.355-17.423.014-23.004-7.016-7.52-7.95-5-19.326-5.443-29.202l.13-68.355c-3.422-6.92-11.028-10.493-18.563-9.358l-1.247-.017-1.32-.042z" fill="url(#F)"/><path d="M154.532 34.27c-31.655 0-56.17 21.233-59.98 48.76h26.972c3.645-12.426 13.114-21.517 24.51-22.575.74-.7 1.772-1.148 2.92-1.148h26.61l.098-15.62s-2.378-3.725-4.298-5.48c-2.175-1.988-5.112-3.428-8.006-3.74-2.425-.262-5.2-.04-8.827-.197z" fill="url(#E)"/><path d="m 194.74412,325.86444 a 22.130014,13.831259 0 1 1 -44.26003,0 22.130014,13.831259 0 1 1 44.26003,0 z" transform="matrix(1.304789 0 0 1.21464 -20.43351 -43.907478)" fill="url(#C)" class="B"/><path d="M298.657 157.256V335.1c35.128-3.853 62.738-42.188 62.738-88.922s-27.61-85.068-62.738-88.922z" fill="url(#D)" class="B"/><path d="M247.97 33.422c31.655 0 56.17 21.233 59.98 48.76h-26.972c-3.645-12.426-13.114-21.517-24.51-22.575-.74-.7-1.772-1.148-2.92-1.148h-26.61l-.098-15.62s2.378-3.725 4.298-5.48c2.175-1.988 5.112-3.428 8.006-3.74 2.425-.262 5.2-.04 8.827-.197z" fill="url(#G)"/><use xlink:href="#M" x="0.652" y="-0.11" fill="url(#H)" class="B"/></g></svg>