<?xml version="1.0" encoding="UTF-8" standalone="no"?>
<svg xmlns:dc="http://purl.org/dc/elements/1.1/" xmlns:cc="http://creativecommons.org/ns#" xmlns:rdf="http://www.w3.org/1999/02/22-rdf-syntax-ns#" xmlns:svg="http://www.w3.org/2000/svg" xmlns="http://www.w3.org/2000/svg" xmlns:sodipodi="http://sodipodi.sourceforge.net/DTD/sodipodi-0.dtd" xmlns:inkscape="http://www.inkscape.org/namespaces/inkscape" inkscape:version="1.0beta2 (unknown)" sodipodi:docname="icon2.svg" id="svg2" height="360.60822" width="350.70239" version="1.2">
  <sodipodi:namedview inkscape:document-rotation="0" inkscape:current-layer="svg2" inkscape:window-maximized="1" inkscape:window-y="27" inkscape:window-x="0" inkscape:cy="338.95582" inkscape:cx="239.75855" inkscape:zoom="0.7529976" fit-margin-bottom="0" fit-margin-right="0" fit-margin-left="0" fit-margin-top="0" showgrid="false" id="namedview736" inkscape:window-height="1016" inkscape:window-width="1920" inkscape:pageshadow="2" inkscape:pageopacity="0" guidetolerance="10" gridtolerance="10" objecttolerance="10" borderopacity="1" bordercolor="#666666" pagecolor="#ffffff" />
  <defs />
  <metadata id="metadata7">
    <rdf:RDF>
      <cc:Work rdf:about="">
        <dc:format>image/svg+xml</dc:format>
        <dc:type rdf:resource="http://purl.org/dc/dcmitype/StillImage" />
        <dc:title></dc:title>
      </cc:Work>
    </rdf:RDF>
  </metadata>
  <g style="display:inline" id="layer2" transform="translate(-105.27918,54.693255)">
    <g style="display:inline" id="g7745" transform="translate(106.83936,-1175.1179)">
      <circle style="fill:#6a5687;fill-opacity:1;fill-rule:evenodd;stroke:none" id="path5965" r="37.247845" cy="1232.1194" cx="40.986065" />
      <circle style="fill:#6a5687;fill-opacity:1;fill-rule:evenodd;stroke:none" id="circle5967" r="28.762564" cy="1324.0432" cx="71.558907" />
      <g id="g6024">
        <path inkscape:connector-curvature="0" style="fill:#eb7239;fill-opacity:1;stroke:none" id="path3926-8-3" d="m 287.78154,1212.3276 c 2.76039,4.2363 4.55473,9.711 5.67187,17.3457 -9.08991,-2.179 -15.9695,-2.8324 -31.39843,-12.5879 16.0776,13.4563 25.98494,19.2954 31.91992,24.6152 5.75253,6.2066 16.11437,16.71 26.0332,32.336 0.0455,-19.5669 -7.9199,-43.4393 -18.37109,-60.3692 -0.003,0.01 -0.005,0.012 -0.008,0.018 -3.91631,-0.1069 -8.73502,-0.633 -13.84765,-1.3574 z" />
        <path inkscape:connector-curvature="0" style="fill:#000000;fill-opacity:1;stroke:#000000;stroke-width:5;stroke-linecap:round;stroke-linejoin:round;stroke-miterlimit:4;stroke-dasharray:none;stroke-opacity:1" id="path2893-7-81-6" d="m 4.9651301,1122.9389 c -3.79982,-0.1406 -5.88547001,0.8381 -1.78906,3.8106 16.7595199,7.7237 34.5063199,14.006 49.5644499,24.6719 33.69135,23.864 55.37723,58.4543 66.46875,98.4355 6.63564,40.3068 0.0317,64.2786 22.10547,108.1035 22.07382,43.825 71.71335,103.2602 134.39844,114.3594 12.58787,3.0001 63.29024,10.6743 40.60156,2.6465 -16.13898,-5.5991 -37.24591,-15.2812 -51.67578,-28.6973 -30.94439,-28.7704 -58.45315,-65.2483 -69.43555,-106.0488 -7.2155,-26.8061 -4.20256,-61.8565 4.48047,-83.1602 8.68303,-21.3036 27.82755,-56.3045 51.59375,-51.7265 11.36409,2.5628 36.39233,7.9703 50.35156,8.3515 5.66369,-12.7733 -6.6566,-30.2254 -21.41601,-42.1582 26.01765,-13.3188 50.76041,-19.3467 64.16211,-23.3359 10.52489,-3.233 -18.08078,-0.9539 -32.64844,1.4883 -19.54258,2.8312 -37.27438,4.636 -54.75781,8.7304 -33.54364,-16.6691 -67.11231,-3.7587 -90.36914,17.0254 -7.15694,6.396 -12.93752,13.4636 -17.70508,21.25 -5.03395,-7.9246 -10.69176,-15.1134 -16.81055,-21.1328 -30.81146,-30.799 -73.33032,-36.025 -115.04492,-49.7051 -2.76128,-1.5069 -8.2743899,-2.7675 -12.0742199,-2.9082 z" />
        <path inkscape:connector-curvature="0" style="fill:#ffffff;fill-rule:evenodd;stroke:none" id="path5956" d="m 147.86326,1225.4986 c 1.04993,-16.9499 7.97375,-33.4802 19.31711,-46.1187 11.34339,-12.6385 27.03191,-21.3022 43.77021,-24.1714 7.14908,-1.2254 14.47378,-1.4215 21.6782,-0.5804 1.2493,0.2197 2.41978,0.865 3.27244,1.8042 0.85268,0.9392 1.38227,2.1663 1.48067,3.431 0.13018,1.673 -0.49202,3.3576 -1.53783,4.6699 -1.04581,1.3122 -2.48997,2.2706 -4.04121,2.9104 -3.10251,1.2797 -6.54959,1.3191 -9.88565,1.6849 -6.66467,0.7307 -13.11669,2.8246 -19.28526,5.4515 -10.78592,4.5931 -20.865,10.8631 -29.68084,18.5906 -10.3202,9.0461 -18.88698,20.0852 -25.08784,32.328 v 0" />
      </g>
      <g id="g5994" transform="rotate(-17.965422,2259.0803,-460.98706)">
        <circle style="fill:#eb7239;fill-opacity:1;fill-rule:evenodd;stroke:none" id="circle5971" r="16.450064" cy="703.35065" cx="-152.42935" />
        <circle style="fill:#eb7239;fill-opacity:1;fill-rule:evenodd;stroke:none" id="circle5973" r="13.85203" cy="743.88922" cx="-180.22865" />
      </g>
      <circle style="fill:#6a5687;fill-opacity:1;fill-rule:evenodd;stroke:none" id="circle5969" r="20.887564" cy="1401.6682" cx="111.18391" />
    </g>
  </g>
</svg>
