<svg xmlns="http://www.w3.org/2000/svg" width="350.702" height="360.608" version="1.2"><g transform="translate(1.56 -1120.425)"><circle cx="40.986" cy="1232.119" r="37.248" fill="#6a5687" fill-rule="evenodd"/><circle cx="71.559" cy="1324.043" r="28.763" fill="#6a5687" fill-rule="evenodd"/><path fill="#eb7239" d="M287.782 1212.328c2.76 4.236 4.554 9.71 5.671 17.345-9.09-2.179-15.97-2.832-31.398-12.588 16.078 13.457 25.985 19.296 31.92 24.616 5.752 6.206 16.114 16.71 26.033 32.336.046-19.567-7.92-43.44-18.371-60.37-.003.01-.005.012-.008.018-3.916-.106-8.735-.633-13.848-1.357z"/><path stroke="#000" stroke-linecap="round" stroke-linejoin="round" stroke-width="5" d="M4.965 1122.939c-3.8-.14-5.885.838-1.789 3.81 16.76 7.724 34.506 14.007 49.565 24.672 33.69 23.864 55.377 58.455 66.468 98.436 6.636 40.307.032 64.279 22.106 108.103 22.074 43.825 71.713 103.26 134.398 114.36 12.588 3 63.29 10.674 40.602 2.646-16.14-5.599-37.246-15.28-51.676-28.697-30.944-28.77-58.453-65.248-69.436-106.049-7.215-26.806-4.202-61.856 4.48-83.16 8.684-21.304 27.828-56.304 51.595-51.726 11.364 2.562 36.392 7.97 50.351 8.351 5.664-12.773-6.656-30.225-21.416-42.158 26.018-13.319 50.76-19.347 64.162-23.336 10.525-3.233-18.08-.954-32.648 1.488-19.543 2.831-37.275 4.636-54.758 8.73-33.544-16.669-67.112-3.758-90.37 17.026-7.156 6.396-12.937 13.464-17.704 21.25-5.034-7.925-10.692-15.113-16.81-21.133-30.812-30.799-73.331-36.025-115.046-49.705-2.76-1.507-8.274-2.767-12.074-2.908z"/><path fill="#fff" fill-rule="evenodd" d="M147.863 1225.499c1.05-16.95 7.974-33.48 19.317-46.12 11.344-12.638 27.032-21.301 43.77-24.17a76.218 76.218 0 0121.679-.58 5.82 5.82 0 013.272 1.803 5.82 5.82 0 011.48 3.431c.131 1.673-.491 3.358-1.537 4.67-1.046 1.312-2.49 2.27-4.041 2.91-3.103 1.28-6.55 1.32-9.886 1.686-6.664.73-13.116 2.824-19.285 5.451-10.786 4.593-20.865 10.863-29.68 18.59a108.025 108.025 0 00-25.089 32.329"/><g fill="#eb7239" fill-rule="evenodd" transform="rotate(-17.965 2259.08 -460.987)"><circle cx="-152.429" cy="703.351" r="16.45"/><circle cx="-180.229" cy="743.889" r="13.852"/></g><circle cx="111.184" cy="1401.668" r="20.888" fill="#6a5687" fill-rule="evenodd"/></g></svg>
