<svg xmlns="http://www.w3.org/2000/svg" height="181.44" viewBox="0 0 176.486 181.437" width="176.49"><linearGradient id="A" y2="0" gradientUnits="userSpaceOnUse" x2="108.8" y1="125.86" x1="108.8"><stop stop-color="#1b3967" offset=".011"/><stop stop-color="#13b5ea" offset=".467"/><stop stop-color="#002b5c" offset=".995"/></linearGradient><path d="M136.3 14.19c.077 1.313-1.786.968-1.786 2.293 0 38.55-44.72 96.83-89.847 108.2v1.182c59.957-5.5 126.73-66.8 128.24-125.85l-36.6 14.19z" fill="url(#A)"/><path d="M120.23 17.96l.12 3.958c0 38.55-30.7 90.497-75.827 101.86v1.637c59.065-3.823 105.8-63.023 105.8-109.2a67.1 67.1 0 0 0-.371-7.056l-29.73 8.796z" fill="#e96d1f"/><linearGradient id="B" y2="0" gradientUnits="userSpaceOnUse" x2="65" y1="126.85" x1="65"><stop stop-color="#1b3967" offset=".011"/><stop stop-color="#13b5ea" offset=".467"/><stop stop-color="#002b5c" offset=".995"/></linearGradient><path d="M150.34 8.76l-7.833 2.625.19 3.173c0 41.22-37.272 98.205-87.274 107.12-3.243 1.09-7.538 2.077-10.93 2.932v1.64c68.344-8.66 111.18-71.72 105.84-117.5z" fill="#d9541e"/><path d="M36.6 14.19c-.077 1.313 1.787.968 1.787 2.293 0 38.55 46.558 97.366 91.688 108.73v1.64C70.12 121.33 1.514 59.05.004.001l36.6 14.19z" fill="url(#B)"/><path d="M54.73 18.932l-.12 3.957c0 38.55 30.7 90.497 75.827 101.86v1.64c-59.044-2.8-105.8-63.024-105.8-109.2a67.92 67.92 0 0 1 .371-7.056l29.73 8.798z" fill="#a0ce67"/><path d="M24.713 9.583l7.617 2.722-.066 3.225c0 41.22 37.27 98.204 87.272 107.12 3.245 1.088 7.538 2.077 10.932 2.93v1.638c-65.254-5.56-111.1-71.866-105.76-117.64z" fill="#439639"/><path d="M14.576 166.7L1.188 152.06H12.83l9.127 10.268 9.13-10.268H42.73l-13.387 14.646 14.4 14.728h-12.1l-9.697-10.67-9.693 10.67H.172l14.404-14.73zm32.52-14.64h13.836l10.183 18.905 10.183-18.905H95.13v29.374h-8.762v-21.096h-.08L74.48 181.434h-6.733L55.94 160.338h-.082v21.096h-8.764v-29.37zm54.154 0h24.546c8.56 0 10.628 4.302 10.628 10.063v2.516c0 4.38-1.908 9.4-8.275 9.4h-17.894v7.385h-9.005v-29.38zm9 14.7h13.997c2.1 0 2.924-1.377 2.924-3.123v-1.135c0-2-.976-3.127-3.694-3.127H110.25v7.38zm31.05-14.7h24.546c8.56 0 10.63 4.302 10.63 10.063v2.516c0 4.38-1.907 9.4-8.275 9.4h-17.893v7.385H141.3v-29.38zm9 14.7h13.996c2.1 0 2.922-1.377 2.922-3.123v-1.135c0-2-.974-3.127-3.693-3.127H150.32v7.38z"/></svg>
