<svg xmlns="http://www.w3.org/2000/svg" height="128" width="128"><g stroke="#fff"><path d="M64 128c56-32 56-32 56-112-24 0-32 0-56-16m0 128C8 96 8 96 8 16c24 0 32 0 56-16" stroke-width="1.011" fill="maroon" stroke-linecap="round" stroke-linejoin="round"/><circle transform="matrix(1.333334 0 0 1.333333 -60.163862 -48.433461)" cy="81.325" cx="102.123" r="12" fill="none" stroke-width="6"/></g><path d="M64 64c0 11-5 16-16 16s-16-5-16-16V40h8v24c0 7 1 8 8 8s8-1 8-8V40h8z" stroke="none" fill="#fff"/></svg>
