<svg xmlns="http://www.w3.org/2000/svg" width="245.863" height="233.961"><defs><clipPath id="a" clipPathUnits="userSpaceOnUse"><path d="M0 226.772h340.157V0H0z"/></clipPath></defs><g clip-path="url(#a)" transform="matrix(4.34856 0 0 -4.34856 -987 629.898)"><path fill="#333" fill-rule="evenodd" d="M243.818 110.312h-6.577a.931.931 0 01-.93-.935s.002 0 .002-.006h-.002v-4.693h.002l-.002-.004c0-.514.414-.937.93-.937h6.577v-3.131h-8.207v.008a2.426 2.426 0 00-2.429 2.425v7.98a2.425 2.425 0 002.429 2.418h8.207zM246.192 119.026a2.46 2.46 0 00-2.462-2.463h-10.555v3.173h8.9c.524 0 .944.428.944.95v10.487c0 .523-.42.947-.945.947H237.292a.944.944 0 01-.944-.947V126.4c0-.524.42-.949.944-.949h3.82v-3.173h-5.476a2.458 2.458 0 00-2.461 2.461v8.094a2.46 2.46 0 002.46 2.462h8.096a2.462 2.462 0 002.462-2.462zM277.298 100.614h-3.128v9.698h-2.198a.931.931 0 01-.931-.935v-8.763h-3.128v9.698h-2.199a.932.932 0 01-.932-.935v-8.771h-3.127v10.413a2.422 2.422 0 002.426 2.418h13.217zM277.307 119.026a2.46 2.46 0 00-2.461-2.463h-10.557v3.173h8.9c.526 0 .948.428.948.95v10.487a.946.946 0 01-.948.947h-4.783a.945.945 0 01-.94-.947V126.4c0-.524.423-.949.94-.949h3.82v-3.173h-5.474a2.46 2.46 0 00-2.463 2.461v8.094a2.461 2.461 0 002.463 2.462h8.094a2.463 2.463 0 002.46-2.462zM258.569 131.166V126.401a.938.938 0 00-.936-.95h-4.781a.946.946 0 00-.945.95V131.174c0 .523.42.946.945.946H257.632a.936.936 0 00.937-.946zm.72 4.129h-8.097a2.46 2.46 0 01-2.46-2.462v-8.094a2.458 2.458 0 012.46-2.461h8.098a2.462 2.462 0 012.46 2.461v8.094a2.463 2.463 0 01-2.46 2.462M256.022 109.371v-4.693a.933.933 0 00-.928-.937c-.005 0-.006.005-.011.005v-.005h-4.692v.005s-.005-.005-.01-.005a.933.933 0 00-.93.937v4.699c0 .516.414.935.93.935h4.713a.93.93 0 00.928-.935zm.703 4.066h-7.976a2.423 2.423 0 01-2.427-2.418v-7.98a2.425 2.425 0 012.427-2.425h7.976a2.425 2.425 0 012.424 2.425v7.98a2.424 2.424 0 01-2.424 2.418"/><path fill="#333" d="M282.308 95.163c0-.806-.325-1.53-.853-2.06a2.898 2.898 0 00-2.057-.85h-48.315a2.907 2.907 0 00-2.91 2.91v45.578c.002.805.325 1.528.853 2.057a2.901 2.901 0 002.057.852h48.315a2.903 2.903 0 002.057-.852 2.896 2.896 0 00.853-2.057zm-.004 48.485a4.094 4.094 0 01-2.906 1.204h-48.315a4.094 4.094 0 01-2.906-1.204 4.1 4.1 0 01-1.206-2.907V95.163a4.1 4.1 0 011.206-2.908 4.1 4.1 0 012.906-1.205h48.315a4.1 4.1 0 012.906 1.205 4.1 4.1 0 011.206 2.908v45.578a4.1 4.1 0 01-1.206 2.907"/></g></svg>
