<svg xmlns="http://www.w3.org/2000/svg" width="146.41" height="108.102" fill="#bf2026"><path d="M23.37 107.192L9.4 87.232h-.17v19.96H0v-57.38h9.24v32.92l12.8-15.12H33.1l-14.65 17.1 15.97 22.47zm10.23-19.8c0-13 6.08-20.72 17.48-20.72s17.45 7.77 17.45 20.72-6.07 20.7-17.45 20.7-17.48-7.7-17.48-20.7m17.48 14.2c6.63 0 7.63-6.8 7.63-14.2s-1-14.2-7.63-14.2-7.67 6.8-7.67 14.2 1 14.2 7.67 14.2m31.72-29.2h.16a11.54 11.54 0 0 1 10.19-5.7c9.5 0 13.64 8.07 13.64 20.72 0 11-3.83 20.7-16.72 20.7-10.4 0-16.54-5.9-16.54-17.72v-40.57h9.23v22.57zm7.35 29.22c5.92 0 6.9-7.72 6.9-14.2 0-7.16-.74-14.8-6.9-14.8-5.57 0-7.3 8.16-7.3 14.8 0 9.9 1.5 14.2 7.3 14.2m21.35-14.22c0-13 6.07-20.72 17.46-20.72s17.46 7.77 17.46 20.72-6.07 20.7-17.46 20.7-17.46-7.7-17.46-20.7m17.46 14.2c6.65 0 7.65-6.8 7.65-14.2s-1-14.2-7.65-14.2-7.65 6.8-7.65 14.2 1 14.2 7.65 14.2m-92.514-58.14l81.28-7.04H29.412zm-3.98-16.71c-3.048 0-5.286-3.008-5.286-6.798s2.237-6.798 5.286-6.798 5.176 3.002 5.176 6.798-2.15 6.798-5.176 6.798zM37.6 7.95v1.07c-1.497-1.066-3.287-1.643-5.125-1.65-6.2 0-10.888 5.642-10.888 12.573s4.7 12.56 10.888 12.56a8.9 8.9 0 0 0 5.125-1.628v1.064h5.44v-24zm43.57 0v14.08c0 2.64-1.812 4.872-4.452 4.872S72.25 24.67 72.25 22.03V7.95H66.8v14.08c0 5.752 3.95 10.474 9.732 10.474a8.33 8.33 0 0 0 4.601-1.478v.9h5.44V7.95zm50.682 23.966v-14.08c0-2.64 1.812-4.872 4.457-4.872s4.457 2.232 4.457 4.872v14.08h5.435v-14.08c0-5.752-3.95-10.474-9.726-10.474a8.36 8.36 0 0 0-4.6 1.478v-.9h-5.44v23.967z"/><path d="M5.906 7.66h3.7a4.64 4.64 0 0 1 4.156 7.006 4.64 4.64 0 0 1-4.156 2.271h-3.7zm0 24.254V22.63h4.026l6.96 9.283h7.12L15.597 20.7A10.32 10.32 0 0 0 9.615 1.979H.217v29.937zm95.354-5.64a3.26 3.26 0 0 1-1.823.575c-.886 0-2.56-.68-2.56-2.94v-10.3h4.647V7.95h-4.647V1.98H91.42v5.97h-2.876v5.67h2.876v10.353c0 5.35 4.026 8.547 8.087 8.547 1.872-.05 3.702-.57 5.32-1.513zm-44.706-7.09l9.33-11.233h-7.627l-6.522 8.35V0h-5.602v31.916h5.602V22.07l8.018 9.847h7.62zm62.02-2.342h-9.778c1.15-5.614 8.737-5.936 9.778 0zm-4.723-9.5c-6.292 0-10.813 5.533-10.813 12.596 0 7.42 5.67 12.6 11.354 12.6 2.876 0 6.545-.984 9.634-5.366l-4.803-2.772c-3.716 5.476-9.9 2.697-10.623-2.778h15.667c1.34-8.627-4.227-14.27-10.416-14.27z"/></svg>
