<?xml version="1.0" encoding="UTF-8" standalone="no"?>
<svg
   xmlns:dc="http://purl.org/dc/elements/1.1/"
   xmlns:cc="http://creativecommons.org/ns#"
   xmlns:rdf="http://www.w3.org/1999/02/22-rdf-syntax-ns#"
   xmlns:svg="http://www.w3.org/2000/svg"
   xmlns="http://www.w3.org/2000/svg"
   xmlns:sodipodi="http://sodipodi.sourceforge.net/DTD/sodipodi-0.dtd"
   xmlns:inkscape="http://www.inkscape.org/namespaces/inkscape"
   id="Layer_1"
   data-name="Layer 1"
   width="146.41"
   height="108.10208"
   viewBox="0 0 146.41001 108.10208"
   version="1.1"
   sodipodi:docname="icon.svg"
   inkscape:version="0.92.4 (unknown)">
  <metadata
     id="metadata37">
    <rdf:RDF>
      <cc:Work
         rdf:about="">
        <dc:format>image/svg+xml</dc:format>
        <dc:type
           rdf:resource="http://purl.org/dc/dcmitype/StillImage" />
        <dc:title>Rakuten-kobo-landscape</dc:title>
      </cc:Work>
    </rdf:RDF>
  </metadata>
  <sodipodi:namedview
     pagecolor="#ffffff"
     bordercolor="#666666"
     borderopacity="1"
     objecttolerance="10"
     gridtolerance="10"
     guidetolerance="10"
     inkscape:pageopacity="0"
     inkscape:pageshadow="2"
     inkscape:window-width="1920"
     inkscape:window-height="1016"
     id="namedview35"
     showgrid="false"
     inkscape:zoom="4.2164644"
     inkscape:cx="103.67841"
     inkscape:cy="48.125694"
     inkscape:window-x="0"
     inkscape:window-y="27"
     inkscape:window-maximized="1"
     inkscape:current-layer="Layer_1"
     fit-margin-top="0"
     fit-margin-left="0"
     fit-margin-right="0"
     fit-margin-bottom="0" />
  <defs
     id="defs4">
    <style
       id="style2">
      .cls-1 {
        fill: #bf2026;
      }
    </style>
  </defs>
  <title
     id="title6">Rakuten-kobo-landscape</title>
  <g
     id="g832"
     transform="translate(1.8310547e-6)">
    <polygon
       transform="translate(-269.85,48.382085)"
       class="cls-1"
       points="293.22,58.81 279.26,38.85 279.09,38.85 279.09,58.81 269.85,58.81 269.85,1.43 279.09,1.43 279.09,34.35 291.89,19.23 302.96,19.23 288.31,36.34 304.28,58.81 "
       id="polygon8"
       style="fill:#bf2026" />
    <path
       class="cls-1"
       d="m 33.599997,87.38208 c 0,-13 6.08,-20.719995 17.48,-20.719995 11.4,0 17.45,7.769995 17.45,20.719995 0,12.95 -6.07,20.7 -17.45,20.7 -11.38,0 -17.48,-7.7 -17.48,-20.7 m 17.48,14.2 c 6.63,0 7.63,-6.8 7.63,-14.2 0,-7.4 -1,-14.21 -7.63,-14.21 -6.63,0 -7.67,6.8 -7.67,14.21 0,7.41 1,14.2 7.67,14.2"
       id="path10"
       inkscape:connector-curvature="0"
       style="fill:#bf2026" />
    <path
       class="cls-1"
       d="m 82.799997,72.38208 h 0.16 a 11.54,11.54 0 0 1 10.19,-5.699995 c 9.490003,0 13.640003,8.069995 13.640003,20.719995 0,11 -3.83,20.7 -16.720003,20.7 -10.4,0 -16.54,-5.91 -16.54,-17.72 V 49.812085 h 9.23 V 72.38208 Z m 7.35,29.22 c 5.92,0 6.91,-7.72 6.91,-14.2 0,-7.16 -0.74,-14.81 -6.91,-14.81 -5.57,0 -7.31,8.16 -7.31,14.81 0,9.89 1.49,14.2 7.31,14.2"
       id="path12"
       inkscape:connector-curvature="0"
       style="fill:#bf2026" />
    <path
       class="cls-1"
       d="m 111.49,87.38208 c 0,-13 6.07,-20.719995 17.46,-20.719995 11.39,0 17.46,7.769995 17.46,20.719995 0,12.95 -6.07,20.7 -17.46,20.7 -11.39,0 -17.46,-7.7 -17.46,-20.7 m 17.46,14.2 c 6.65,0 7.65,-6.8 7.65,-14.2 0,-7.4 -1,-14.21 -7.65,-14.21 -6.65,0 -7.65,6.8 -7.65,14.21 0,7.41 1,14.2 7.65,14.2"
       id="path14"
       inkscape:connector-curvature="0"
       style="fill:#bf2026" />
  </g>
  <g
     id="g842"
     transform="translate(-0.01976317)">
    <polygon
       transform="matrix(0.5751581,0,0,0.5751581,-0.01011798,-1.9095249)"
       class="cls-1"
       points="63.42,78.85 204.74,66.61 51.19,66.61 "
       id="polygon16"
       style="fill:#bf2026;stroke-width:1.73865235" />
    <path
       class="cls-1"
       d="m 32.486316,26.733349 c -3.048338,0 -5.285704,-3.008078 -5.285704,-6.798368 0,-3.790293 2.237366,-6.79837 5.285704,-6.79837 3.048337,0 5.176422,3.002325 5.176422,6.79837 0,3.796043 -2.151091,6.798368 -5.176422,6.798368 z M 37.610974,7.9486853 V 9.0184798 A 8.9034476,8.9034476 0 0 0 32.486316,7.3677749 c -6.188702,0 -10.887744,5.6423021 -10.887744,12.5729561 0,6.930655 4.699042,12.561453 10.887744,12.561453 a 8.9034476,8.9034476 0 0 0 5.124658,-1.627697 v 1.064043 h 5.440995 V 7.9486853 Z"
       id="path18"
       inkscape:connector-curvature="0"
       style="fill:#bf2026;stroke-width:1" />
    <path
       class="cls-1"
       d="M 81.1792,7.9486853 V 22.028555 c 0,2.639976 -1.811747,4.871589 -4.451724,4.871589 -2.639974,0 -4.457475,-2.231613 -4.457475,-4.871589 V 7.9486853 H 66.829005 V 22.028555 c 0,5.751582 3.951336,10.473629 9.731676,10.473629 a 8.3282894,8.3282894 0 0 0 4.601265,-1.478155 v 0.891494 h 5.440996 V 7.9486853 Z"
       id="path20"
       inkscape:connector-curvature="0"
       style="fill:#bf2026;stroke-width:1" />
    <path
       class="cls-1"
       d="M 131.86214,31.915523 V 17.835654 c 0,-2.639977 1.81174,-4.871591 4.45747,-4.871591 2.64573,0 4.45748,2.231614 4.45748,4.871591 v 14.079869 h 5.43524 V 17.835654 c 0,-5.751582 -3.95133,-10.4736295 -9.72593,-10.4736295 a 8.3627989,8.3627989 0 0 0 -4.60126,1.4781548 v -0.891494 h -5.44099 V 31.915523 Z"
       id="path22"
       inkscape:connector-curvature="0"
       style="fill:#bf2026;stroke-width:1" />
    <path
       class="cls-1"
       d="m 5.9255138,7.6611063 h 3.7097698 a 4.641526,4.641526 0 1 1 0,9.2773007 H 5.9255138 Z m 0,24.2544167 v -9.283052 h 4.0261064 l 6.9594138,9.283052 h 7.120457 L 15.616928,20.711444 A 10.318336,10.318336 0 0 0 9.6352836,1.9785439 H 0.23720001 V 31.915523 Z"
       id="path24"
       inkscape:connector-curvature="0"
       style="fill:#bf2026;stroke-width:1" />
    <path
       class="cls-1"
       d="m 101.28098,26.273223 a 3.2611465,3.2611465 0 0 1 -1.823254,0.575158 c -0.885744,0 -2.559455,-0.678687 -2.559455,-2.939059 V 13.619744 h 4.647289 V 7.9486853 H 96.898271 V 1.9785439 h -5.458249 v 5.9701414 h -2.875791 v 5.6710587 h 2.875791 V 23.97259 c 0,5.34897 4.026106,8.54685 8.086722,8.54685 a 11.146565,11.146565 0 0 0 5.320206,-1.512667 z"
       id="path26"
       inkscape:connector-curvature="0"
       style="fill:#bf2026;stroke-width:1" />
    <polygon
       transform="matrix(0.5751581,0,0,0.5751581,-0.01011798,-1.9095249)"
       class="cls-1"
       points="98.38,36.67 114.6,17.14 101.34,17.14 90,31.66 90,3.32 80.26,3.32 80.26,58.81 90,58.81 90,41.69 103.94,58.81 117.19,58.81 "
       id="polygon28"
       style="fill:#bf2026;stroke-width:1.73865235" />
    <path
       class="cls-1"
       d="m 118.59324,16.840629 h -9.77769 c 1.15032,-5.613544 8.73664,-5.935631 9.77769,0 z M 113.8712,7.3390169 c -6.29224,0 -10.81299,5.5330211 -10.81299,12.5959641 0,7.419538 5.67107,12.59021 11.35363,12.59021 2.87579,0 6.5453,-0.98352 9.63389,-5.366226 l -4.80257,-2.77226 c -3.71552,5.475505 -9.90997,2.69749 -10.62317,-2.778015 h 15.6673 C 125.62742,12.981319 120.05989,7.3390169 113.8712,7.3390169 Z"
       id="path30"
       inkscape:connector-curvature="0"
       style="fill:#bf2026;stroke-width:1" />
  </g>
</svg>
