<svg xmlns="http://www.w3.org/2000/svg" xmlns:xlink="http://www.w3.org/1999/xlink" viewBox="0 0 744.09 1052.4"><defs><linearGradient id="A" x1="142.67" x2="172.49" y1="776.6" y2="878.61" xlink:href="#V"><stop offset="0" stop-color="#0f3060"/><stop offset=".271" stop-color="#0575ce"/><stop offset=".733" stop-color="#0575ce"/><stop offset="1" stop-color="#0f3060"/></linearGradient><linearGradient id="B" x1="85.57" x2="50.21" y1="906.09" y2="965.88" xlink:href="#V"><stop offset="0" stop-color="#092d61"/><stop offset="1" stop-color="#0575ce"/></linearGradient><linearGradient id="C" x1="118.58" x2="139.13" y1="940.96" y2="807.29" xlink:href="#V"><stop offset="0" stop-color="#0f3060"/><stop offset=".457" stop-color="#0575ce"/><stop offset=".738" stop-color="#0575ce"/><stop offset="1" stop-color="#0f3060"/></linearGradient><linearGradient id="D" x1="130.086" x2="110.28" y1="910.606" y2="826.252" xlink:href="#V"><stop offset="0" stop-color="#ff8000"/><stop offset=".663" stop-color="#fff4e1"/><stop offset=".75" stop-color="#fff4e1"/><stop offset="1" stop-color="#ff8400"/></linearGradient><linearGradient id="E" x1="231.59" x2="161.24" y1="832.58" y2="847.97" xlink:href="#F" /><linearGradient id="F" xlink:href="#V"><stop offset="0" stop-color="#fff"/><stop offset="1" stop-color="#fff" stop-opacity="0"/></linearGradient><linearGradient id="G" x1="82.805" x2="70.361" y1="895.985" y2="916.159" xlink:href="#V"><stop offset="0" stop-color="#ffc768"/><stop offset=".378" stop-color="#ff8400"/><stop offset=".774" stop-color="#ff8400"/><stop offset="1" stop-color="#ffc768"/></linearGradient><linearGradient id="H" x1="117.535" x2="127.766" y1="805.467" y2="863.487" xlink:href="#F" /><linearGradient id="I" x1="135.028" x2="149.327" y1="860.492" y2="889.163" xlink:href="#J" /><linearGradient id="J" xlink:href="#V"><stop offset="0" stop-color="#ff8000"/><stop offset=".341" stop-color="#ffc768"/><stop offset=".712" stop-color="#ffc768"/><stop offset="1" stop-color="#ff8400"/></linearGradient><linearGradient id="K" x1="162.78" x2="178.333" y1="764.492" y2="762.63" xlink:href="#V"><stop offset="0" stop-color="#ff8000"/><stop offset=".5" stop-color="#fff4e1"/><stop offset=".75" stop-color="#fff4e1"/><stop offset="1" stop-color="#ff8400"/></linearGradient><linearGradient id="L" x1="152.669" x2="133.973" y1="825.632" y2="800.885" xlink:href="#J" /><linearGradient id="M" x1="175.86" x2="160.46" y1="820.44" y2="798.46" xlink:href="#F" /><linearGradient id="N" x1="97.11" x2="149.08" y1="822.66" y2="806.24" xlink:href="#F" /><linearGradient id="O" x1="98.58" x2="72.32" y1="911.59" y2="893.03" xlink:href="#F" /><linearGradient id="P" x1="107.346" x2="110.641" y1="886.981" y2="898.459" xlink:href="#Q" /><linearGradient id="Q" xlink:href="#V"><stop offset="0" stop-color="#212a3a"/><stop offset="1" stop-color="#404e67" stop-opacity="0"/></linearGradient><linearGradient id="R" x1="154.866" x2="166.089" y1="790.214" y2="787.519" xlink:href="#Q" /><linearGradient id="S" x1="167.347" x2="161.262" y1="807.143" y2="806.276" xlink:href="#Q" /><linearGradient id="T" x1="167.07" x2="193.356" y1="811.781" y2="806.699" xlink:href="#Q" /><linearGradient id="U" x1="108.642" x2="90.969" y1="824.991" y2="833.491" xlink:href="#Q" /><linearGradient id="V" gradientUnits="userSpaceOnUse"/></defs><g transform="matrix(4.2071 0 0 4.2071 -152.93 -3059.7)"><path fill="url(#A)" d="M52.514 963.96l-1.087-2.63c0-.133-2.08-11.075-2.317-13.887-1.035-12.277-2.668-13.453-2.212-24.4.276-6.63-.644-8.892 1.313-14.314 4.03-11.167 6.987-15.56 12.225-18.174 4.25-2.12 8.237-1.832 11.98.865.986.7 4.295 2.95 7.354 4.977l8.072 5.46a53.33 53.33 0 0 0 5.12 3.13c2.53 1.315 2.624 1.335 3.137.67 1.127-1.46 3.85-5.554 5.32-7.508 7.372-9.8.43-8.702-1.306-9.213-2.728-.803-3.877-1.98-6.426-4.968-5.922-6.94-8.728-14.662-9.143-24.203-.48-11.08.633-20.015 5.498-25.1 2.085-2.18 6.5-5.346 10.535-7.556 3.418-1.87 24.38-5.782 26.218-4.97.92.407-3.638-11.638-1.015-27.298.52-3.11 4.06-12.738 4.433-13.393.923-1.618 16.135-6.824 20.462-9.366 4.835-2.84 15.3-9.678 16.078-14.766 1.73-11.18 2.038-15.956 2.76-16.375 1.073-.624 8.252 14.176 3.393 28.13-.96 2.755-5.532 9.15-7.58 11.823-1.474 1.926 1.728 2.827 3.57 5.607 1.675 2.53 2.777 8.71 2.992 11.914.22 3.27-.816 9.983-1.743 11.3-.375.532-.53 1.056-.343 1.17s1.434-.035 2.777-.33 4.253-.766 6.468-1.046c3.943-.498 4.084-.49 6.76.332 4.013 1.235 23.538 5.952 11.08 60.507-4.128 18.075-23.4 41.925-25.81 40.078l-5.965-4.547-6.873 10.2c-3.508 3.602-7.3 7.08-9.52 8.753-3.52 2.64-10.565 6.798-11.516 6.798-.245 0-1.633.57-3.084 1.265-4.195 2.012-10.48 3.66-17.134 4.098-25.77 1.67-15.94-1.442-37.28-11.775-1.683-.815-5.557 3.297-10.227 7.546-4.985 4.536-7.602 7.988-9.58 12.638l-2.316 5.365c-1.644 3.747-2.997 8.932-3.198 12.258-.098 1.627-.315 3.042-.482 3.145s-.792-.89-1.4-2.203zm28.332-45.91c3.303-.835 3.665-1.02 7.218-3.678 2.545-1.905 4.123-5.345 4.8-5.645 4.432-1.967-3.308-3.737-6.202-5.7s-6.657-3.394-9.22-5.35-4.784-3.483-4.933-3.39-.275 1.406-.28 2.92c-.01 4.413-.602 8.84-1.43 10.694-.42.943-.846 2.76-.945 4.04-.228 2.962.462 4.386 2.913 6.02 2.066 1.376 2.924 1.385 8.078.082zm119.7-83.585c-1.076-7.225-.185-17.16-5.814-20.777-12.988-8.344-14.414-.07-15.2 1.76-1.31 3.008-2.118 5.47-1.123 8.776 3.056 10.16 6.966 19.158 8.822 26.38 2.13 8.29 4.478 13.53 4.713 20.03.167 4.614.123 5.1-.556 6.165-.965 1.515-15.552 5.227-22.898 7.392-2.522.743-.288 6.12-.577 7.892s-4.237 11.667-2.967 13.657c12.53 19.634 40.235-40.206 35.6-71.274zm-26.988 48.272c1.96-.47 3.792-1.046 4.072-1.278s1-.384 1.58-.34c1.054.08 5.182-1.22 5.5-1.73.09-.145 3.772-2.066 3.035-2.554s-15.132-11.07-17.196-12.146c-23.77-12.394-36.265-13.247-44.114-11.666-13.445 2.708-25.057 9.526-26.453 11.208-.422.508 21.05-6.66 36.3.87 2.816 1.392 8.63 3.784 13 8.463 3.993 4.275 7.634 8.798 10.5 9.562 3.107.828 9.473.65 13.788-.39zM144.91 831.64c7.526-1.317 19.186-16.952 18.28-18.416-.123-.198 2.255-4.145 1.87-4.222-14.084-2.808-13.745-16.832-13.948-16.958s-20.765 9.7-25.504 11.76c-4.02 1.738.575 12.1 3 18.533 1.078 2.862 7.017 6.678 9.407 8.234 2.828 1.84 6.254 1.18 6.897 1.07zm16.22-47.717c4.064-3.203 14.888-19.234 13.74-25.74-4.68-26.505-6.696-10.096-6.996-7.73-.124.98-.48 3.15-.787 4.82-.327 1.783-.62 3.572-.875 5.366-.172 1.28-.65 3.533-1.06 5.008l-1.438 5.45c-.38 1.523-1.665 5.273-2.852 8.334l-2.16 5.728c0 .447.824.027 2.427-1.236z"/><g fill-rule="evenodd"><path fill="url(#B)" d="M53.58 963.12c6.353-26.32 12.1-29.27 27.228-39.026-3.328-1.9-11.517-8.16-11.496-11.496.057-9.742 1.668-26.722-9.076-19.664-20.385 13.392-13.01 55.968-6.655 70.186z"/><path fill="url(#C)" d="M75.933 920.72c8.982 6.786 16.92 12.786 22.554 15.968 54.94 2.778 68.66-27.594 69.658-52.493-4.9.225-13.223-.973-17.714-7.74-11.214 3.68-45.166 14.002-45.757 16.322-3.065 12.035-12.175 21.756-28.742 27.943z"/><path fill="url(#D)" d="M171.28 910.58c33.185-24.7 28.914-74.16 29.45-76.692 1.363-6.44-6.65-28.252-16.274-24.25-16.024 6.663 11.277 44.445 7.614 65.166-.763 4.32-13.99 7.503-22.98 8.9-1.037.16-.116 14.096-4.627 20.51-.645.918 6.2 6.818 6.817 6.367z"/><path fill="url(#E)" d="M175.9 907.2c42.493-41.75 20.982-116.28 6.146-94.5 20.377-4.12 23.62 64.267-6.146 94.5z"/><path fill="url(#G)" d="M95.217 907.78c.786-1.06-13.882-6.083-22.746-14.065-.983-.885-1.14 12.912-2.07 18.666-.577 3.575 5.492 7.173 6.88 7.622 1.15.372 14.7-7.87 17.936-12.223z"/><path fill="url(#H)" d="M83.585 868c-5.1-25.843 4.18-41.04 41.358-46.378.18.57 41.32-13.256 55.792-13.35-3.923 6.233.043 21.624 4.8 34.276L83.585 868z"/><path fill="url(#I)" d="M101.66 863.9c4.412-1.58 17.007-5.4 32.054-.152 10.306 3.588 16.22 12.633 20.668 16.112 10.48 8.195 29.823-.908 33.322-.853 1.438.022-25.967-24.602-46.628-25.848-27.775-1.675-45.11 12.782-39.416 10.74z"/><path fill="url(#K)" d="M169.43 741.44c-.153 8.404-2.797 28.463-11.307 42.173-3.893 6.27 14.52-8.277 16.502-20.78 1.1-6.877-5.07-28.1-5.195-21.392z"/><path fill="url(#L)" d="M141.8 833.1c9.24-4.718 17.657-10.922 22.99-22.443.903-1.95-4.4-.06-8.476-5.844-4.035-5.73-3.083-11.543-6.54-11.078-10.8 1.453-25.2 11.638-25.2 11.638s.828 11.144 3.747 15.674c6.02 9.34 13.478 12.054 13.478 12.054z"/><path fill="url(#M)" d="M156.1 803.78c2.726 9.89 17.873 8.097 14.707-11.153-1.365 1.996-4.776 12.957-14.707 11.153z" opacity=".552"/><path fill="url(#N)" d="M140.5 832.28c-5.1-3.47-9.504-7.784-12.325-12.35s-4.06-27.847.687-33.634c2.608-6.364 11.84-12.514 22.097-15.23-19.495 22.605-13.178 56.867 4.073 53.535.863-.166-12.826 7.73-14.533 7.68z"/><path fill="url(#O)" d="M72.322 893.03c3.81 2.82 20.24 15.536 23.86 13.523-8.4 20.56-30.553 3.142-23.86-13.523z"/></g></g><path fill="#2c3b54" d="M436.316 211.573c-16.606 9.68-36.572 20.504-40.536 30.292-13.304 27.95-18.3 78.11-14.24 75.227 39.48-28.073 85.2-35.856 101.82-50.893 49.287-44.554 68.42-136.664 58.063-123.008-33.527 44.2-87.975 58.4-105.106 68.383zm-258.35 618.485s-46.618-32.244-45.76-42.588c7.14-85.964-8.117-90.98-15.806-90.066-9.3 1.102-57.562 31.577-66.982 117.622-6.833 62.438 17.84 159.996 21.598 165.272 19.448-52.27 11.86-94.336 106.948-150.24zm509.312-380.835c-2.32-64.444-41.12-108.753-67.47-98.374-11.18 4.402-18.686 34.4-14.76 53.013 3.48 16.503 27.204 80.364 28.9 85.762 4.033 12.765 31.262 91 26.422 128.6-4.243 32.948-99.75 44.347-99.75 44.347s-1.605 26.818-4.898 44.94c-4.047 22.277-12.07 39.76-12.07 39.76s20.793 19.37 21.634 19.35S696.17 696.296 687.28 449.225zM587.583 648.85c6.722-1.88 46.412-12.376 44.284-13.77-14.73-9.66-31.5-21.823-59.564-43.657-155.857-121.215-297.42-19.122-294.632-20.05 25.88-8.607 53.21-13.47 91.176-10.935 30.582 2.043 78.656 17.545 120.77 67.743 15.663 18.672 33.437 31.342 97.96 20.668zM518.06 385.734c4.716-4.08 21.106-34.975 18.154-35.693-41.36-10.058-45.386-28.357-49.433-48.268-3.792-18.648-3.207-21.307-11.042-18.72-63.304 20.9-80.814 32.4-90.503 40.44-15.174 12.593-4.53 46.43 1.403 59.88 8.27 18.743 38.673 52.664 52.816 55.394 20.63 3.984 69.388-38.283 78.605-53.035zm46-114.185c-3.432-14.03-14.454-32.103-17.4-32.103-2.767 0-32.054 22.662-39.618 30.558-17.17 17.92-8.802 50.397 10.243 61.537 32.235 18.855 55.908-22.596 46.762-59.993zm-24.305-53.666c14.103-14.088 32.85-37.213 37.836-72.353 1.954-13.774 3.088-25.9-5.478-53.123-1.985-6.312-8.02-24.464-8.246-22.073-4.455 47.22-10.984 99.654-41.803 155.377-9.673 17.5-4.47 14.31 17.7-7.827zM209.007 499.12c-16.8 70.473 27.722 163.03 63.788 168.305 34.865 5.1 134.816-25.08 187.237-39.655 13.734-3.82 21.122-1.827-9.26-27.282-47.637-32.384-86.082-36.554-124.438-32.2-42.306 4.802-74.007 17.323-71.04 14.84 19.396-16.242 53.943-45.285 120.692-58.437 29.012-5.716 73.784-6.218 127.837 14.893 67.05 26.187 101.968 65.02 130.315 78.185 10.095 4.687 13.7 2.508 17.69-9.206 6.682-19.624-33.937-142.154-48.655-177.885-22.458-54.528 3.744-80.6-1.983-79.33-27.778 6.123-52.273 23.978-72.808 42.362-50.195 44.94-80.79 54.515-85.328 54.128-14.335-1.22-41.156-26.6-50.902-39.472-6.218-8.22-117.5 13.26-150.32 41.77-.75.652-26.07 16.89-32.83 48.987zM173.35 805.94c36.705-15.4 72.64-48.126 69.53-48.67-19.056-3.314-89.334-51.47-89.283-50.97 2.414 24.852-3.002 47.183-5.473 71.81-1.03 10.272 12.662 26.187 25.226 27.824zM291.8 698.215c-7.02 15.653-14.352 77.205-115.82 116.705-2.94 1.144 85.034 61.298 89.822 61.508 290.517 12.754 288.056-208.48 284.202-214.057-.558-.807-25.406.058-44.654-9.074-1.468-.697-14.523-7.426-22.308-17.562-2.64-3.438-3.05-5.306-12.834-2.463-45.28 13.16-180.464 61.664-178.407 64.94zm-90.503-107.908C149.4 409.04 331.467 400.63 360.337 393.65c22.322-5.398 17.458-7.497 12.75-28.6-6.6-29.644-4.55-55.483 1.116-83.183 5.357-26.192 8.12-39.437 19.436-52.57 9.12-10.586 60.515-34.795 73.254-40.906 54.293-26.04 75.038-54.663 81.088-77.18 4.266-15.87 10.508-55 7.702-82.95-.7-6.883 3.75 3.9 25.84 72.538 11.288 35.07 5.73 77.18-29.87 115.2-4.834 5.163-2.5 6.186 4.012 16.93 13.508 22.32 20.975 50.233 18.872 70.54-1.724 16.636-8.836 32.367 1.336 31.145 1.47-.177 46.396-6.98 77.15 12.57 20.827 13.237 50.497 38.612 42.794 144.6-16.864 232.114-130.273 282.63-131.068 282.654-1.92.065-23.137-21.964-24.393-19.37-65.03 134.337-199.2 129.51-274.042 130.925-14.962.282-77.175-52.105-82.42-48.52-66.233 45.264-84.622 56.568-110.16 172.255-.978-1.834-35.415-62.922-33.985-185.773 1.17-100.655 56.16-148.157 80.608-145.418 29.677 3.325 44.57 18.81 86.367 46.27 7.46 4.9 33.82 20.84 39.82 20.695 14.944-.352 25.138-27.807 27.578-45.584 2.46-17.93 4.838-13.596-9.155-18.41-17.642-6.072-48.074-39.1-63.683-91.193z"/><g transform="matrix(4.2071 0 0 4.2071 -152.93 -3059.7)" fill-rule="evenodd"><path fill="url(#P)" d="M106.1 892.83c6.475-3.533 43.233-15.025 43.563-15.747.24-.527-43.116 17.31-52.935 10.697-.592-.398 2.293 1.72 4.902 2.257.183.037.17 6.892-2.3 10.77-.694 1.087 5.267-7.158 6.77-7.978z"/><path fill="url(#R)" d="M166 784.2c-4.03 2.813-9.585 6.743-10.72 9.773-.67 1.788-1.123-4.99 3.452-9.03 2.577-2.275 8.093-1.318 7.27-.743z"/><path fill="url(#S)" d="M160.6 806.83c4.57 1.363 8.1-1.43 10.035-7.442.23-.71-.566 5.266-3.406 7.488-2.707 2.12-7.592-.333-6.63-.046z"/><path fill="url(#T)" d="M172.2 813.04c6.475-3.533 13.105-2.993 18.756-2.738 3.75.17-7.066-4.205-19.355-3.522-1.313 1.118-5.213 7.636-10.7 14.237-.825.992 9.805-7.157 11.31-7.977z"/><path fill="url(#U)" d="M110.56 827c3.802-.783 8.57-2.075 11.727-2.393 2.632-.265 5.93-1.747 8.463.977-1.4-1.933-4.11-5.838-4.95-8.396.766 3.005-2.654 3.43-3.504 3.564-19.117 3.02-30.617 8.17-36.42 17.742 11-8.502 23.966-11.347 24.684-11.494z"/></g></svg>