<?xml version="1.0" encoding="UTF-8"?>
<svg version="1.1" viewBox="0 0 744.09 1052.4" xmlns="http://www.w3.org/2000/svg" xmlns:cc="http://creativecommons.org/ns#" xmlns:dc="http://purl.org/dc/elements/1.1/" xmlns:rdf="http://www.w3.org/1999/02/22-rdf-syntax-ns#" xmlns:xlink="http://www.w3.org/1999/xlink">
<defs>
<linearGradient id="u" x1="439.9" x2="469.72" y1="455.74" y2="557.75" gradientTransform="translate(-297.23 320.86)" gradientUnits="userSpaceOnUse">
<stop stop-color="#0f3060" offset="0"/>
<stop stop-color="#0575ce" offset=".27115"/>
<stop stop-color="#0575ce" offset=".73275"/>
<stop stop-color="#0f3060" offset="1"/>
</linearGradient>
<linearGradient id="t" x1="382.8" x2="347.44" y1="585.23" y2="645.02" gradientTransform="translate(-297.23 320.86)" gradientUnits="userSpaceOnUse">
<stop stop-color="#092d61" offset="0"/>
<stop stop-color="#0575ce" offset="1"/>
</linearGradient>
<linearGradient id="s" x1="415.81" x2="436.36" y1="620.1" y2="486.43" gradientTransform="translate(-297.23 320.86)" gradientUnits="userSpaceOnUse">
<stop stop-color="#0f3060" offset="0"/>
<stop stop-color="#0575ce" offset=".45698"/>
<stop stop-color="#0575ce" offset=".73828"/>
<stop stop-color="#0f3060" offset="1"/>
</linearGradient>
<linearGradient id="r" x1="389.59" x2="308.99" y1="763.3" y2="420.02" gradientTransform="matrix(.24573 0 0 .24573 34.352 723.04)" gradientUnits="userSpaceOnUse">
<stop stop-color="#ff8000" offset="0"/>
<stop stop-color="#fff4e1" offset=".66272"/>
<stop stop-color="#fff4e1" offset=".75"/>
<stop stop-color="#ff8400" offset="1"/>
</linearGradient>
<linearGradient id="q" x1="528.82" x2="458.47" y1="511.72" y2="527.11" gradientTransform="translate(-297.23 320.86)" gradientUnits="userSpaceOnUse" xlink:href="#a"/>
<linearGradient id="a">
<stop stop-color="#fff" offset="0"/>
<stop stop-color="#fff" stop-opacity="0" offset="1"/>
</linearGradient>
<linearGradient id="p" x1="197.18" x2="146.54" y1="703.8" y2="785.9" gradientTransform="matrix(.24573 0 0 .24573 34.352 723.04)" gradientUnits="userSpaceOnUse">
<stop stop-color="#ffc768" offset="0"/>
<stop stop-color="#ff8400" offset=".37842"/>
<stop stop-color="#ff8400" offset=".7742"/>
<stop stop-color="#ffc768" offset="1"/>
</linearGradient>
<linearGradient id="o" x1="413.63" x2="423.53" y1="484.6" y2="541.83" gradientTransform="matrix(1.0334 0 0 1.0138 -309.91 314.18)" gradientUnits="userSpaceOnUse" xlink:href="#a"/>
<linearGradient id="n" x1="409.7" x2="467.89" y1="559.36" y2="676.04" gradientTransform="matrix(.24573 0 0 .24573 34.352 723.04)" gradientUnits="userSpaceOnUse" xlink:href="#c"/>
<linearGradient id="c">
<stop stop-color="#ff8000" offset="0"/>
<stop stop-color="#ffc768" offset=".34145"/>
<stop stop-color="#ffc768" offset=".71198"/>
<stop stop-color="#ff8400" offset="1"/>
</linearGradient>
<linearGradient id="m" x1="522.64" x2="585.93" y1="168.69" y2="161.11" gradientTransform="matrix(.24573 0 0 .24573 34.352 723.04)" gradientUnits="userSpaceOnUse">
<stop stop-color="#ff8000" offset="0"/>
<stop stop-color="#fff4e1" offset=".5"/>
<stop stop-color="#fff4e1" offset=".75"/>
<stop stop-color="#ff8400" offset="1"/>
</linearGradient>
<linearGradient id="l" x1="481.49" x2="405.41" y1="417.5" y2="316.79" gradientTransform="matrix(.24573 0 0 .24573 34.352 723.04)" gradientUnits="userSpaceOnUse" xlink:href="#c"/>
<linearGradient id="k" x1="473.09" x2="457.69" y1="499.58" y2="477.6" gradientTransform="translate(-297.23 320.86)" gradientUnits="userSpaceOnUse" xlink:href="#a"/>
<linearGradient id="j" x1="394.34" x2="446.31" y1="501.8" y2="485.38" gradientTransform="translate(-297.23 320.86)" gradientUnits="userSpaceOnUse" xlink:href="#a"/>
<linearGradient id="i" x1="395.81" x2="369.55" y1="590.73" y2="572.17" gradientTransform="translate(-297.23 320.86)" gradientUnits="userSpaceOnUse" xlink:href="#a"/>
<linearGradient id="h" x1="297.05" x2="310.46" y1="667.16" y2="713.87" gradientTransform="matrix(.24573 0 0 .24573 34.352 723.04)" gradientUnits="userSpaceOnUse" xlink:href="#b"/>
<linearGradient id="b">
<stop stop-color="#212a3a" offset="0"/>
<stop stop-color="#404e67" stop-opacity="0" offset="1"/>
</linearGradient>
<linearGradient id="g" x1="246.3" x2="366.88" y1="690.03" y2="632.16" gradientTransform="matrix(.09308 0 0 .18605 131.94 665.87)" gradientUnits="userSpaceOnUse" xlink:href="#b"/>
<linearGradient id="f" x1="301.05" x2="367.95" y1="645.9" y2="654.72" gradientTransform="matrix(-.092813 -.0070392 .01407 -.18552 186.2 929.71)" gradientUnits="userSpaceOnUse" xlink:href="#b"/>
<linearGradient id="e" x1="279.82" x2="386.79" y1="688.32" y2="667.64" gradientTransform="matrix(.24573 0 0 .24573 98.31 642.64)" gradientUnits="userSpaceOnUse" xlink:href="#b"/>
<linearGradient id="d" x1="338.14" x2="266.22" y1="668.3" y2="702.89" gradientTransform="matrix(.24573 0 0 .24573 25.551 660.77)" gradientUnits="userSpaceOnUse" xlink:href="#b"/>
</defs>
<metadata>
<rdf:RDF>
<cc:Work rdf:about="">
<dc:format>image/svg+xml</dc:format>
<dc:type rdf:resource="http://purl.org/dc/dcmitype/StillImage"/>
<dc:title/>
</cc:Work>
</rdf:RDF>
</metadata>
<g transform="matrix(4.2071 0 0 4.2071 -152.93 -3059.7)">
<path d="m52.514 963.96c-0.59762-1.3142-1.0866-2.4978-1.0866-2.6303 0-0.13252-2.0806-11.075-2.3177-13.887-1.0351-12.277-2.6675-13.453-2.2118-24.399 0.2761-6.6306-0.64392-8.8924 1.3134-14.315 4.031-11.167 6.9866-15.561 12.225-18.174 4.2497-2.12 8.237-1.8321 11.979 0.86518 0.98634 0.71092 4.2958 2.9505 7.3543 4.9768 3.0585 2.0263 6.691 4.483 8.0723 5.4592 1.3812 0.97628 3.6851 2.385 5.1197 3.1305 2.5306 1.3151 2.6241 1.3351 3.1373 0.67104 1.1276-1.4591 3.8495-5.554 5.3212-7.5085 7.3721-9.7905 0.42914-8.7022-1.3059-9.2129-2.7278-0.80294-3.8768-1.9794-6.4264-4.9676-5.9216-6.9404-8.728-14.662-9.1426-24.203-0.48154-11.08 0.63266-20.015 5.4979-25.101 2.0853-2.1797 6.4995-5.3452 10.535-7.555 3.4177-1.8714 24.379-5.7823 26.218-4.9698 0.91898 0.40593-3.638-11.639-1.0155-27.299 0.52096-3.111 4.0593-12.738 4.4332-13.393 0.92313-1.6174 16.135-6.824 20.462-9.3652 4.8349-2.8394 15.291-9.6788 16.078-14.766 1.731-11.179 2.0382-15.956 2.7598-16.375 1.0739-0.62465 8.2525 14.176 3.3935 28.131-0.95893 2.7541-5.5321 9.1486-7.5798 11.823-1.4745 1.926 1.7278 2.8262 3.5698 5.6068 1.6753 2.5288 2.7768 8.7109 2.9918 11.914 0.21959 3.271-0.81543 9.9824-1.7425 11.299-0.37549 0.53325-0.52929 1.0571-0.34387 1.1714 0.18449 0.11368 1.4342-0.0352 2.7771-0.33076 1.3429-0.29559 4.2537-0.7663 6.4684-1.046 3.9426-0.49787 4.0838-0.49095 6.7595 0.33213 4.0139 1.2348 23.538 5.9518 11.079 60.507-4.1275 18.075-23.389 41.925-25.811 40.078l-5.9641-4.5474-6.8732 10.19c-3.508 3.6029-7.2906 7.0803-9.5217 8.7531-3.5205 2.6397-10.565 6.798-11.516 6.798-0.24492 0-1.6325 0.56931-3.0835 1.2652-4.1951 2.0118-10.479 3.6608-17.134 4.098-25.771 1.6696-15.94-1.4419-37.279-11.775-1.6832-0.81506-5.5575 3.2968-10.227 7.5457-4.9852 4.5361-7.6023 7.9885-9.58 12.638-0.66947 1.5739-1.7117 3.9884-2.316 5.3655-1.6444 3.7473-2.9972 8.9323-3.1982 12.258-0.0983 1.6268-0.31514 3.0419-0.48187 3.1447-0.16673 0.10272-0.7921-0.88841-1.3897-2.2025zm28.332-45.909c3.3031-0.83536 3.6648-1.0197 7.2176-3.6782 2.5458-1.905 4.1232-5.3446 4.8004-5.6451 4.4324-1.9667-3.3083-3.7369-6.2023-5.6889-2.894-1.952-6.6572-3.3951-9.2209-5.3521-2.5637-1.957-4.7836-3.4828-4.9331-3.3907-0.14952 0.0921-0.27471 1.4055-0.27821 2.9186-0.01023 4.4132-0.6021 8.8416-1.4294 10.694-0.42105 0.94301-0.84611 2.7609-0.94461 4.0397-0.22816 2.9622 0.46109 4.3868 2.9127 6.0204 2.066 1.3766 2.9238 1.3853 8.0776 0.0819zm119.71-83.585c-1.0756-7.2247-0.18498-17.161-5.8144-20.777-12.988-8.3442-14.414-0.0696-15.21 1.759-1.3107 3.0083-2.1175 5.4689-1.1227 8.7761 3.0564 10.161 6.9664 19.158 8.8226 26.38 2.1302 8.2886 4.478 13.531 4.7129 20.03 0.16678 4.6138 0.12302 5.0989-0.55601 6.1647-0.9655 1.5154-15.552 5.2275-22.898 7.3918-2.5221 0.74311-0.28804 6.1218-0.57696 7.8924-0.28892 1.7706-4.237 11.667-2.9673 13.657 12.529 19.634 40.235-40.206 35.61-71.274zm-26.988 48.272c1.9598-0.47131 3.7922-1.0463 4.0719-1.2777 0.27971-0.23143 0.99066-0.38419 1.5799-0.33941 1.0543 0.0801 5.1822-1.2195 5.4995-1.7315 0.0894-0.14415 3.7722-2.0656 3.0355-2.5536-0.73674-0.48803-15.132-11.07-17.196-12.146-23.77-12.394-36.265-13.247-44.114-11.666-13.445 2.7087-25.057 9.526-26.453 11.208-0.42178 0.50774 21.049-6.661 36.29 0.87085 2.8159 1.3916 8.6296 3.783 13.001 8.4627 3.9927 4.2747 7.6333 8.7978 10.499 9.5617 3.107 0.82834 9.4734 0.64882 13.788-0.38877zm-28.657-51.097c7.5262-1.317 19.186-16.952 18.279-18.416-0.12276-0.19808 2.2553-4.1446 1.869-4.2216-14.084-2.8083-13.745-16.832-13.948-16.958-0.20308-0.12514-20.765 9.7102-25.504 11.759-4.0209 1.7382 0.57503 12.102 2.9993 18.534 1.0786 2.8617 7.0174 6.6778 9.4077 8.2336 2.8277 1.8406 6.2538 1.181 6.8968 1.0685zm16.22-47.717c4.064-3.2029 14.888-19.234 13.74-25.74-4.6787-26.505-6.6957-10.096-6.996-7.7309-0.12436 0.97963-0.47868 3.1494-0.7874 4.8216-0.30868 1.6723-0.70224 4.0868-0.87456 5.3656-0.1723 1.2788-0.64865 3.5323-1.0586 5.0078-0.4099 1.4755-1.0572 3.9283-1.4386 5.4507-0.38128 1.5223-1.6649 5.2724-2.8523 8.3334-1.1875 3.061-2.1591 5.6385-2.1591 5.7276 0 0.447 0.82393 0.0274 2.4269-1.2359z" fill="url(#u)"/>
<path d="m53.579 963.12c6.3531-26.32 12.101-29.27 27.228-39.026-3.3278-1.8908-11.517-8.1594-11.496-11.496 0.05726-9.742 1.6676-26.722-9.0758-19.664-20.385 13.392-13.009 55.968-6.6556 70.186z" fill="url(#t)" fill-rule="evenodd"/>
<path d="m75.933 920.72c8.9817 6.7862 16.92 12.786 22.554 15.968 54.941 2.7776 68.66-27.594 69.658-52.493-4.8901 0.22454-13.223-0.97302-17.714-7.7405-11.214 3.6809-45.166 14.003-45.757 16.323-3.0647 12.035-12.175 21.756-28.742 27.943z" fill="url(#s)" fill-rule="evenodd"/>
<path d="m171.28 910.58c33.185-24.7 28.914-74.159 29.45-76.692 1.363-6.4387-6.6496-28.252-16.274-24.249-16.024 6.6634 11.277 44.445 7.6141 65.166-0.76342 4.3191-13.989 7.5029-22.98 8.8986-1.0369 0.16096-0.1163 14.096-4.6267 20.509-0.64571 0.91818 6.2102 6.8185 6.8169 6.367z" fill="url(#r)" fill-rule="evenodd"/>
<path d="m175.9 907.19c42.493-41.749 20.982-116.28 6.1464-94.51 20.377-4.1207 23.619 64.267-6.1464 94.51z" fill="url(#q)" fill-rule="evenodd"/>
<path d="m95.217 907.78c0.78602-1.0606-13.882-6.0828-22.746-14.065-0.98292-0.88501-1.1414 12.912-2.0703 18.666-0.57712 3.5745 5.4925 7.1735 6.8798 7.6218 1.1508 0.37191 14.71-7.8688 17.937-12.223z" fill="url(#p)" fill-rule="evenodd"/>
<path d="m83.585 868.01c-5.099-25.843 4.1793-41.039 41.358-46.378 0.18024 0.56879 41.319-13.256 55.792-13.35-3.9228 6.2332 0.0433 21.624 4.8092 34.276 0 0-34.828 9.0877-101.96 25.452z" fill="url(#o)" fill-rule="evenodd"/>
<path d="m101.66 863.89c4.4118-1.5807 17.007-5.3904 32.054-0.1519 10.306 3.5878 16.22 12.633 20.668 16.112 10.479 8.1946 29.823-0.90843 33.322-0.85341 1.4375 0.0226-25.967-24.602-46.628-25.848-27.775-1.6748-45.111 12.782-39.416 10.741z" fill="url(#n)" fill-rule="evenodd"/>
<path d="m169.43 741.44c-0.1528 8.404-2.7967 28.463-11.307 42.173-3.8927 6.2707 14.52-8.2766 16.502-20.781 1.0903-6.8775-5.0688-28.09-5.1952-21.392z" fill="url(#m)" fill-rule="evenodd"/>
<path d="m141.79 833.11c9.2393-4.7178 17.657-10.922 22.991-22.443 0.9032-1.9505-4.3997-0.0586-8.4756-5.8443-4.0357-5.7287-3.0834-11.543-6.54-11.078-10.8 1.4531-25.201 11.638-25.201 11.638s0.82824 11.144 3.7475 15.674c6.019 9.3393 13.478 12.054 13.478 12.054z" fill="url(#l)" fill-rule="evenodd"/>
<path d="m156.09 803.78c2.7258 9.8888 17.873 8.0967 14.707-11.153-1.3653 1.9962-4.7761 12.957-14.707 11.153z" fill="url(#k)" fill-rule="evenodd" opacity=".55224"/>
<path d="m140.49 832.28c-5.101-3.4689-9.5042-7.7844-12.325-12.35-2.8208-4.5652-4.0593-27.847 0.68685-33.634 2.6083-6.3637 11.841-12.514 22.097-15.231-19.495 22.605-13.178 56.867 4.0736 53.535 0.86206-0.16648-12.826 7.7303-14.533 7.679z" fill="url(#j)" fill-rule="evenodd"/>
<path d="m72.322 893.03c3.8089 2.8188 20.239 15.536 23.86 13.523-8.4102 20.559-30.553 3.1424-23.86-13.523z" fill="url(#i)" fill-rule="evenodd"/>
<path d="m140.06 777.56c-3.9473 2.3006-8.693 4.8737-9.6353 7.2002-3.1622 6.6434-4.3474 18.566-3.3846 17.881 9.384-6.6728 20.249-8.5228 24.202-12.097 11.715-10.59 16.263-32.484 13.801-29.238-7.9692 10.506-20.911 13.881-24.983 16.254zm-61.408 147.01s-11.081-7.6644-10.877-10.123c1.697-20.433-1.9294-21.625-3.7571-21.408-2.208 0.26184-13.682 7.5055-15.921 27.958-1.6243 14.841 4.2401 38.03 5.1335 39.284 4.6228-12.424 2.8192-22.423 25.421-35.711zm121.06-90.522c-0.55133-15.318-9.7738-25.85-16.037-23.383-2.6574 1.0464-4.4415 8.1789-3.5085 12.601 0.82755 3.9226 6.4663 19.102 6.8718 20.385 0.95868 3.0342 7.4309 21.63 6.2804 30.565-1.0085 7.8316-23.71 10.541-23.71 10.541s-0.38149 6.3745-1.1641 10.682c-0.96202 5.2949-2.8693 9.4503-2.8693 9.4503s4.9425 4.6043 5.1422 4.5992c0.19973-5e-3 31.108-16.713 28.995-75.44zm-23.697 47.45c1.5978-0.44722 11.032-2.9418 10.526-3.2734-3.501-2.2964-7.485-5.1871-14.158-10.377-37.046-28.812-70.695-4.545-70.032-4.7655 6.1515-2.0459 12.648-3.2021 21.672-2.5993 7.2692 0.48555 18.696 4.1703 28.706 16.102 3.7233 4.4383 7.948 7.4497 23.285 4.9127zm-16.525-62.541c1.1208-0.96962 5.0166-8.3134 4.315-8.484-9.8308-2.3907-10.788-6.7403-11.75-11.473-0.90123-4.4325-0.76219-5.0646-2.6245-4.4495-15.047 4.97-19.209 7.7013-21.512 9.6121-3.6067 2.9933-1.0768 11.036 0.33349 14.233 1.9656 4.4554 9.1923 12.518 12.554 13.167 4.9039 0.94697 16.493-9.0997 18.684-12.606zm10.936-27.141c-0.81548-3.3352-3.4354-7.6307-4.1335-7.6307-0.65744 0-7.6188 5.3867-9.4168 7.2635-4.0809 4.2597-2.0921 11.979 2.4348 14.627 7.6621 4.4815 13.289-5.3711 11.115-14.26zm-5.777-12.756c3.3522-3.3486 7.8084-8.8453 8.9934-17.198 0.46443-3.2738 0.73411-6.1536-1.302-12.627-0.47191-1.5002-1.9064-5.8148-1.96-5.2464-1.0591 11.224-2.6108 23.687-9.9363 36.932-2.2993 4.1574-1.0629 3.4017 4.2049-1.8604zm-78.619 66.848c-3.9935 16.751 6.5893 38.751 15.162 40.005 8.2871 1.2121 32.045-5.9609 44.505-9.4257 3.2646-0.90778 5.0207-0.43427-2.2013-6.4846-11.323-7.6976-20.461-8.6887-29.578-7.6539-10.056 1.1414-17.591 4.1177-16.886 3.5274 4.6105-3.8606 12.822-10.764 28.688-13.89 6.8958-1.3588 17.538-1.4781 30.386 3.54 15.937 6.2244 24.237 15.455 30.975 18.584 2.3994 1.114 3.2564 0.59604 4.2045-2.1882 1.5883-4.6645-8.0666-33.789-11.565-42.282-5.338-12.961 0.89004-19.156-0.47125-18.856-6.6027 1.4554-12.425 5.6993-17.306 10.069-11.931 10.682-19.203 12.958-20.282 12.866-3.4073-0.28972-9.7825-6.3202-12.099-9.3824-1.478-1.9539-27.929 3.1518-35.73 9.9283-0.17845 0.15503-6.197 4.015-7.8038 11.644zm-8.4751 72.929c8.7244-3.6605 17.266-11.439 16.527-11.568-4.5294-0.78772-21.234-12.234-21.222-12.115 0.57378 5.907-0.71357 11.215-1.3009 17.069-0.24494 2.4416 3.0098 6.2243 5.9961 6.6136zm28.152-25.605c-1.669 3.7206-3.4116 18.351-27.53 27.74-0.69864 0.27195 20.212 14.57 21.35 14.62 69.054 3.0314 68.469-49.554 67.553-50.88-0.13265-0.19188-6.0389 0.0138-10.614-2.1569-0.34887-0.1655-3.452-1.765-5.3023-4.1742-0.62757-0.81715-0.72524-1.2612-3.0507-0.58541-10.763 3.1278-42.895 14.657-42.406 15.436zm-21.512-25.649c-12.331-43.086 30.943-45.085 37.805-46.744 5.3059-1.283 4.1498-1.7819 3.0309-6.8003-1.571-7.0463-1.0816-13.188 0.26513-19.772 1.2735-6.2258 1.9304-9.3739 4.62-12.496 2.1679-2.5162 14.384-8.2705 17.412-9.723 12.905-6.1897 17.836-12.993 19.274-18.345 1.014-3.7726 2.4978-13.071 1.8308-19.717-0.16416-1.6359 0.89135 0.92745 6.142 17.242 2.6829 8.3359 1.3618 18.345-7.0999 27.382-1.1492 1.2273-0.59185 1.4703 0.95354 4.0239 3.2108 5.3055 4.9857 11.94 4.4857 16.767-0.40972 3.9543-2.1001 7.6934 0.31754 7.4029 0.34951-0.042 11.028-1.6588 18.338 2.9876 4.9505 3.1465 12.003 9.1781 10.172 34.373-4.0084 55.172-30.965 67.179-31.154 67.185-0.4563 0.0156-5.4996-5.2207-5.7981-4.6041-15.457 31.931-47.351 30.784-65.138 31.12-3.5564 0.0671-18.344-12.385-19.591-11.533-15.743 10.759-20.114 13.446-26.184 40.944-0.23264-0.43595-8.418-14.956-8.0783-44.157 0.27838-23.925 13.349-35.216 19.16-34.565 7.0542 0.79055 10.594 4.4708 20.529 10.998 1.7734 1.1651 8.0388 4.9538 9.4646 4.9193 3.5521-0.0838 5.9753-6.6097 6.5551-10.835 0.58475-4.2617 1.1501-3.2317-2.176-4.3763-4.1934-1.4431-11.427-9.296-15.137-21.676z" fill="#2c3b54"/>
<path d="m106.11 892.83c6.4753-3.5334 43.233-15.025 43.563-15.747 0.24089-0.52655-43.116 17.309-52.935 10.697-0.59185-0.39849 2.2934 1.7213 4.9022 2.2565 0.18326 0.0376 0.17092 6.8921-2.3007 10.77-0.6931 1.0876 5.2673-7.1572 6.7707-7.9775z" fill="url(#h)" fill-rule="evenodd"/>
<path d="m166.01 784.19c-4.0293 2.8126-9.5846 6.7426-10.721 9.7733-0.66996 1.7874-1.1225-4.9915 3.4518-9.0301 2.5772-2.2753 8.0932-1.3187 7.2688-0.74324z" fill="url(#g)" fill-rule="evenodd"/>
<path d="m160.59 806.83c4.5701 1.3627 8.1-1.4285 10.035-7.4422 0.22874-0.71087-0.56553 5.2666-3.4056 7.4886-2.7077 2.1184-7.5929-0.33365-6.6294-0.0464z" fill="url(#f)" fill-rule="evenodd"/>
<path d="m172.19 813.04c6.4753-3.5334 13.105-2.9926 18.756-2.738 3.751 0.16896-7.0659-4.2053-19.355-3.5215-1.3125 1.1176-5.2128 7.636-10.71 14.237-0.82526 0.99104 9.8052-7.1572 11.309-7.9775z" fill="url(#e)" fill-rule="evenodd"/>
<path d="m110.56 827.01c3.802-0.78266 8.5707-2.0748 11.727-2.393 2.6317-0.26532 5.9292-1.7474 8.4626 0.97744-1.4105-1.9336-4.1082-5.8388-4.9487-8.3967 0.76528 3.0055-2.6549 3.4293-3.505 3.5644-19.117 3.0204-30.617 8.1685-36.42 17.742 10.99-8.5026 23.966-11.347 24.684-11.494z" fill="url(#d)" fill-rule="evenodd"/>
</g>
</svg>
