<svg xmlns="http://www.w3.org/2000/svg" xmlns:xlink="http://www.w3.org/1999/xlink" viewBox="0 0 212.49 244.32"><style><![CDATA[.B{fill:none}.C{stroke:#000}.D{stroke-linecap:square}.E{stroke-miterlimit:10}.F{fill:#fff}.G{stroke-width:.525}.H{stroke-width:.46}.I{stroke-width:.331}.J{stroke-width:.47}.K{stroke-width:.403}.L{stroke-width:1.493}.M{stroke-width:1.075}.N{fill:#e6e6e6}.O{stroke-width:1.525}.P{stroke-width:1.307}.Q{stroke-width:1.705}]]></style><use xlink:href="#B"/><use xlink:href="#C"/><use xlink:href="#D"/><use xlink:href="#E"/><g class="F"><use xlink:href="#B"/><use xlink:href="#C"/><use xlink:href="#D"/><use xlink:href="#E"/></g><use xlink:href="#B" fill="#2b0000"/><path d="M85.522 196.706V32.183L17.32 55.357C15.36 56.02.762 59.5.762 61.602v165.354l84.757-30.248" class="B C D E L"/><path d="M6.282 62.228c26.135-8.237 52.88-16.318 78.3-26.46 0 3.956 1.7 12.832-2.32 13.985l-30.57 8.514c-9.735 2.67-19.444 5.502-29.295 7.74-6.507 1.476-13.283 3.77-16.107-3.78" class="F"/><path d="M6.294 62.245C32.43 54.01 59.176 45.927 84.607 35.783c0 3.955 1.7 12.833-2.32 13.986l-30.57 8.513c-9.737 2.67-19.445 5.502-29.296 7.74-6.5 1.476-13.284 3.77-16.108-3.78" class="B C D E H"/><path d="M12.74 62.228c26.133-8.236 52.884-16.315 78.3-26.46 0 3.955 1.7 12.832-2.32 13.985l-30.57 8.514c-9.736 2.67-19.445 5.502-29.296 7.74-6.52 1.476-13.295 3.77-16.12-3.78" class="F"/><path d="M12.75 62.245C38.884 54.01 65.637 45.93 91.064 35.783c0 3.955 1.7 12.833-2.32 13.986l-30.57 8.513c-9.738 2.67-19.448 5.502-29.3 7.74-6.52 1.476-13.295 3.77-16.118-3.78" class="B C D E H"/><use xlink:href="#C" class="F"/><path d="M18.28 62.245C44.414 54.01 71.164 45.93 96.59 35.783c0 3.955 1.7 12.833-2.32 13.986L63.7 58.283c-9.738 2.67-19.448 5.502-29.3 7.74-6.508 1.476-13.295 3.77-16.118-3.78" class="B C D E H"/><use xlink:href="#D" class="F"/><path d="M23.81 62.96c26.12-8.233 52.902-16.316 78.313-26.462 0 4.034 1.718 12.55-2.32 13.94-9.944 3.426-20.42 5.776-30.57 8.56-9.856 2.713-40.34 16.678-45.41 3.962" class="B C D E H"/><path fill="#500" d="M.753 61.688v168.8c0 .28 21.65 1.18 23.954 1.3V63.258c0-.534-21.617-1.28-23.952-1.564"/><path d="M24.72 231.798V62.994c0-.28-21.65-1.178-23.954-1.3v167.18c0 .533 21.617 2.635 23.952 2.92" class="B C D E L"/><path fill="#410000" d="M115.008 200.816V36.466L44.404 57.16c-1.75.513-19.683 4.536-19.683 6.114v168.504l46.217-15.756c14.213-4.847 30.856-8.503 44.07-15.202"/><path d="M115.023 200.835V36.484L44.417 57.176c-1.748.514-19.684 4.535-19.684 6.114v168.508l90.288-30.78" class="B C D E L"/><path d="M1.86 95.716c-.06 3.75-2.412 11.376 2.116 11.67l19.81 1.29c0-5.75 2.656-11.348-3.878-11.774L1.86 95.72M1.86 112.81c-2.645 7.115 17.024 5.08 21.926 5.4 2.325-7.2-17.676-5.075-21.93-5.405m.004 8.28c-2.538 6.82 17.146 5.05 21.926 5.4 2.36-7.232-17.827-5.813-21.93-5.405"/><use xlink:href="#F"/><use xlink:href="#G"/><use xlink:href="#H"/><use xlink:href="#I"/><g class="F"><use xlink:href="#F"/><use xlink:href="#G"/><use xlink:href="#H"/><use xlink:href="#I"/></g><use xlink:href="#F" fill="#694848"/><path d="M73.257 203.513V57.857L38.21 78.373c-1.006.588-8.51 3.668-8.51 5.53v146.393l43.555-26.78" class="B C D E M"/><path d="M32.542 84.47c13.43-7.29 27.175-14.446 40.244-23.427 0 3.503.873 11.362-1.193 12.383l-15.7 7.538c-5.003 2.363-9.992 4.87-15.054 6.852-3.345 1.306-6.827 3.337-8.278-3.348" class="F"/><path d="M32.543 84.47c13.43-7.292 27.175-14.446 40.244-23.427 0 3.502.873 11.36-1.192 12.382l-15.7 7.537c-5.004 2.363-9.992 4.872-15.055 6.852-3.345 1.307-6.827 3.338-8.278-3.347" class="B C D E I"/><path d="M35.86 84.47c13.43-7.3 27.177-14.443 40.244-23.427 0 3.502.873 11.362-1.192 12.383l-15.7 7.538c-5.004 2.363-9.994 4.87-15.056 6.852-3.35 1.306-6.832 3.337-8.283-3.348" class="F"/><path d="M35.86 84.47c13.43-7.292 27.177-14.445 40.244-23.427 0 3.502.873 11.36-1.192 12.382l-15.7 7.537c-5.004 2.363-9.994 4.872-15.056 6.852-3.35 1.307-6.832 3.338-8.283-3.347" class="B C D E I"/><use xlink:href="#G" class="F"/><path d="M38.703 84.47c13.43-7.292 27.176-14.445 40.243-23.427 0 3.502.873 11.36-1.192 12.382l-15.7 7.537c-5.004 2.363-9.994 4.872-15.056 6.852-3.345 1.307-6.832 3.338-8.283-3.347" class="B C D E I"/><use xlink:href="#H" class="F"/><path d="M41.544 85.103c13.423-7.29 27.185-14.445 40.244-23.427 0 3.57.883 11.1-1.192 12.342-5.1 3.033-10.494 5.114-15.7 7.58C59.82 84 44.155 96.363 41.55 85.105" class="B C D E I"/><path fill="#9e7272" d="M42 234.58V85.134c0-.247-11.126-1.043-12.3-1.15v148.01c0 .472 11.1 2.332 12.3 2.583"/><path d="M42.01 234.58V85.134c0-.247-11.126-1.043-12.3-1.15v148.01c0 .472 11.11 2.332 12.31 2.584" class="B C D E M"/><path fill="#895e5e" d="M88.416 207.17V61.663l-36.283 18.32c-.9.454-10.115 4.015-10.115 5.412V234.58l23.75-13.95c7.305-4.29 15.857-7.528 22.648-13.458"/><path d="M88.417 207.17V61.664l-36.283 18.32C51.236 80.44 42.02 84 42.02 85.397V234.58l46.398-27.25" class="B C D E M"/><path d="M41.442 204.454c.03-3.32 1.24-10.07-1.088-10.332l-10.18-1.14c0 5.1-1.365 10.046 1.992 10.423l9.275 1.045m.001 13.903c.03-3.32 1.24-10.07-1.088-10.332l-10.18-1.14c0 5.1-1.365 10.046 1.992 10.423l9.275 1.045"/><use xlink:href="#J"/><use xlink:href="#K"/><use xlink:href="#L"/><g class="F"><use xlink:href="#J"/><use xlink:href="#K"/><use xlink:href="#L"/></g><path fill="#9a755a" d="M139.85 196.765V1.25L65.16 28.8c-2.144.79-18.132 4.923-18.132 7.422v196.5l92.82-35.943"/><path d="M139.838 196.746V1.234L65.15 28.773c-2.145.79-18.132 4.924-18.132 7.42v196.5l92.816-35.946" class="B C D E Q"/><path d="M53.674 35.98c28.62-9.788 57.91-19.392 85.76-31.447 0 4.702 1.86 15.25-2.54 16.62l-33.48 10.118c-10.66 3.172-21.294 6.538-32.08 9.198-7.128 1.754-14.548 4.48-17.64-4.493" class="F"/><path d="M53.663 35.964c28.62-9.788 57.9-19.39 85.76-31.446 0 4.7 1.86 15.25-2.54 16.62l-33.478 10.117c-10.663 3.172-21.294 6.54-32.08 9.198-7.13 1.754-14.547 4.48-17.64-4.493" class="B C D E G"/><path d="M56.252 35.98c28.62-9.788 57.912-19.392 85.76-31.447 0 4.702 1.862 15.25-2.54 16.62l-33.48 10.118C95.332 34.444 84.7 37.8 73.91 40.47c-7.127 1.754-14.548 4.48-17.64-4.493" class="F"/><path d="M56.24 35.964c28.62-9.788 57.9-19.39 85.76-31.446 0 4.7 1.86 15.25-2.54 16.62L105.98 31.256c-10.663 3.172-21.294 6.54-32.08 9.198-7.13 1.754-14.547 4.48-17.64-4.493" class="B C D E G"/><path d="M59.963 35.897c28.62-9.788 57.912-19.392 85.76-31.446 0 4.702 1.86 15.25-2.542 16.62L109.704 31.19C99.042 34.36 88.4 37.727 77.622 40.387c-7.127 1.754-14.547 4.48-17.64-4.493" class="F"/><path d="M59.952 35.88c28.62-9.788 57.9-19.39 85.76-31.446 0 4.7 1.86 15.25-2.54 16.62l-33.478 10.117C99.03 34.345 88.4 37.712 77.61 40.37c-7.13 1.754-14.547 4.48-17.64-4.493" class="B C D E G"/><path d="M63.498 36.104C92.12 26.316 121.4 16.712 149.26 4.658c0 4.702 1.86 15.25-2.54 16.62l-33.48 10.118c-10.66 3.172-21.294 6.54-32.082 9.198-7.127 1.754-14.547 4.48-17.64-4.493" class="F"/><path d="M63.488 36.09c28.62-9.788 57.9-19.39 85.76-31.446 0 4.7 1.86 15.25-2.54 16.62L113.228 31.38c-10.663 3.172-21.294 6.54-32.08 9.198-7.13 1.754-14.547 4.48-17.64-4.493" class="B C D E G"/><path d="M67.327 36.54c28.62-9.788 57.915-19.4 85.76-31.448 0 4.7 1.86 15.25-2.54 16.62L117.07 31.83c-10.663 3.172-21.296 6.538-32.084 9.198-7.14 1.754-14.56 4.48-17.653-4.493" class="F"/><path d="M67.316 36.523c28.618-9.788 57.914-19.39 85.76-31.446 0 4.7 1.86 15.25-2.54 16.62l-33.478 10.117c-10.664 3.172-21.298 6.54-32.085 9.198-7.14 1.754-14.56 4.48-17.65-4.493" class="B C D E G"/><path d="M69.925 36.725c28.618-9.787 57.915-19.388 85.76-31.446 0 4.7 1.86 15.25-2.54 16.62l-33.478 10.118c-10.663 3.172-21.297 6.54-32.084 9.198-7.14 1.754-14.56 4.48-17.653-4.493" class="F"/><path d="M69.914 36.7c28.618-9.788 57.914-19.39 85.76-31.446 0 4.7 1.86 15.25-2.54 16.62L119.656 32C108.99 35.173 98.358 38.54 87.57 41.2c-7.14 1.754-14.56 4.48-17.65-4.493" class="B C D E G"/><use xlink:href="#J" class="F"/><path d="M74.836 36.958c28.618-9.788 57.912-19.39 85.757-31.446 0 4.7 1.86 15.25-2.54 16.62L124.576 32.25c-10.664 3.172-21.298 6.54-32.085 9.198-7.127 1.754-14.56 4.48-17.65-4.493" class="B C D E G"/><use xlink:href="#K" class="F"/><path d="M80.89 37.807c28.605-9.784 57.932-19.39 85.76-31.446 0 4.793 1.88 14.912-2.54 16.567-10.89 4.07-22.362 6.864-33.478 10.173-10.793 3.224-44.177 19.82-49.727 4.71" class="B C D E G"/><path fill="#d5aa8d" d="M81.78 238.343V37.997c0-.332-31.435-1.4-34.777-1.543v198.42c0 .634 31.385 3.127 34.778 3.463"/><path d="M81.77 238.324V37.98c0-.33-31.435-1.398-34.777-1.543v198.417c0 .634 31.384 3.127 34.777 3.462" stroke-width="1.962" class="B C D E"/><path fill="#aa8364" d="M180.8 201.672V6.36l-77.32 24.6c-1.916.6-21.556 5.4-21.556 7.266v200.25l50.614-18.724c15.565-5.76 33.79-10.105 48.263-18.066"/><path d="M180.777 201.654V6.344l-77.32 24.6c-1.914.61-21.556 5.4-21.556 7.266v200.248l98.873-36.577" class="B C D E Q"/><path d="M80.18 233.353c.085-4.45 3.5-13.502-3.074-13.85l-28.765-1.53c0 6.825-3.856 13.468 5.63 13.974l26.206 1.4M80.18 57.37c.085-4.45 3.5-13.502-3.074-13.85L48.34 41.99c0 6.825-3.856 13.468 5.63 13.974l26.206 1.4"/><use xlink:href="#M"/><use xlink:href="#N"/><use xlink:href="#O"/><use xlink:href="#P"/><g class="F"><use xlink:href="#M"/><use xlink:href="#N"/><use xlink:href="#O"/><use xlink:href="#P"/></g><use xlink:href="#M" class="N"/><use xlink:href="#M" class="B C D E O"/><use xlink:href="#Q" class="F"/><use xlink:href="#Q" class="B C D E J"/><use xlink:href="#R" class="F"/><use xlink:href="#R" class="B C D E J"/><use xlink:href="#N" class="F"/><use xlink:href="#N" class="B C D E J"/><use xlink:href="#O" class="F"/><use xlink:href="#O" class="B C D E J"/><path d="M84.925 65.46v174.45c0 .29 21.86 1.218 24.183 1.343V68.482c0-.552-21.824-2.723-24.18-3.016" class="N"/><path d="M109.108 241.242V66.792c0-.29-21.858-1.218-24.183-1.344V238.22c0 .55 21.825 2.722 24.182 3.015" class="B C D E O"/><path d="M200.277 209.243V39.395L128.995 60.78c-1.766.53-19.872 4.688-19.872 6.32V241.24l46.66-16.283c14.35-5 31.153-8.788 44.494-15.7" class="N"/><path d="M200.277 209.243V39.395L128.995 60.78c-1.766.53-19.872 4.688-19.872 6.32V241.24l91.152-31.81" class="B C D E O"/><path d="M86.042 118.29c-2.67 7.354 17.188 5.25 22.137 5.58 2.347-7.438-17.846-5.244-22.14-5.584m.003-7.108c-2.67 7.353 17.188 5.25 22.137 5.58 2.347-7.44-17.846-5.245-22.14-5.585m.003-7.108c-2.67 7.353 17.188 5.25 22.137 5.58 2.347-7.44-17.846-5.244-22.14-5.585"/><use xlink:href="#S"/><use xlink:href="#T"/><use xlink:href="#U"/><use xlink:href="#V"/><g class="F"><use xlink:href="#S"/><use xlink:href="#T"/><use xlink:href="#U"/><use xlink:href="#V"/></g><use xlink:href="#S" fill="#504416"/><use xlink:href="#S" class="B C D E P"/><use xlink:href="#W" class="F"/><use xlink:href="#W" class="B C D E K"/><use xlink:href="#X" class="F"/><use xlink:href="#X" class="B C D E K"/><use xlink:href="#T" class="F"/><use xlink:href="#T" class="B C D E K"/><use xlink:href="#U" class="F"/><use xlink:href="#U" class="B C D E K"/><use xlink:href="#Y" fill="#786721"/><use xlink:href="#Y" class="B C D E P"/><path fill="#62541b" d="M211.67 216.02V70.516l-61.066 18.32c-1.513.454-17.024 4.015-17.024 5.413v149.184l39.973-13.95c12.293-4.29 26.687-7.528 38.116-13.458"/><path d="M211.67 216.02V70.516l-61.066 18.32c-1.513.454-17.024 4.015-17.024 5.413v149.184l78.088-27.25" class="B C D E P"/><path d="M132.61 213.306c.05-3.32 2.086-10.072-1.83-10.332l-17.135-1.14c0 5.1-2.297 10.046 3.354 10.423l15.6 1.046m.001-15.13c2.287-6.3-14.724-4.498-18.965-4.78-2 6.372 15.29 4.492 18.968 4.784m-.003-7.332c2.194-6.038-14.83-4.47-18.965-4.78-2.04 6.403 15.42 5.146 18.968 4.784"/><defs ><path id="B" d="M85.508 196.686V32.166l-68.2 23.174C15.348 56.004.75 59.483.75 61.586v165.348l84.755-30.247"/><path id="C" d="M18.268 62.228C44.4 54 71.15 45.913 96.577 35.767c0 3.955 1.7 12.832-2.32 13.985l-30.57 8.514c-9.737 2.67-19.446 5.502-29.297 7.74-6.508 1.476-13.295 3.77-16.12-3.78"/><path id="D" d="M23.797 62.942c26.12-8.233 52.9-16.315 78.3-26.46 0 4.034 1.718 12.55-2.32 13.94-9.94 3.426-20.417 5.777-30.57 8.56-9.855 2.714-40.338 16.68-45.405 3.963"/><path id="E" d="M24.707 231.778v-168.8c0-.28-21.65-1.178-23.954-1.3v167.177c0 .533 21.617 2.634 23.952 2.917m90.303-30.955V36.466L44.404 57.16c-1.75.513-19.683 4.536-19.683 6.114v168.504l46.217-15.756c14.213-4.847 30.856-8.503 44.07-15.202"/><path id="F" d="M73.256 203.513V57.856l-35.05 20.517c-1.006.588-8.508 3.668-8.508 5.53v146.4l43.555-26.78"/><path id="G" d="M38.7 84.47c13.43-7.29 27.177-14.443 40.243-23.427 0 3.502.873 11.362-1.192 12.383l-15.7 7.538c-5.003 2.363-9.993 4.87-15.055 6.852-3.345 1.306-6.833 3.337-8.284-3.348"/><path id="H" d="M41.543 85.103c13.423-7.29 27.185-14.445 40.244-23.427 0 3.57.882 11.1-1.193 12.342-5.11 3.033-10.492 5.114-15.7 7.58-5.064 2.4-20.73 14.765-23.333 3.507"/><path id="I" d="M42 234.58V85.134c0-.247-11.126-1.043-12.3-1.15v148.01c0 .472 11.1 2.332 12.3 2.583m46.406-27.406V61.663l-36.283 18.32c-.9.454-10.115 4.015-10.115 5.412V234.58l23.75-13.95c7.305-4.29 15.857-7.528 22.648-13.458"/><path id="J" d="M74.847 36.974c28.62-9.79 57.913-19.388 85.76-31.447 0 4.7 1.86 15.25-2.54 16.62l-33.48 10.118c-10.662 3.172-21.295 6.538-32.083 9.197-7.127 1.754-14.56 4.48-17.653-4.492"/><path id="K" d="M80.902 37.823c28.605-9.785 57.933-19.4 85.76-31.447 0 4.794 1.882 14.913-2.54 16.567-10.888 4.07-22.36 6.865-33.478 10.173-10.793 3.225-44.177 19.82-49.726 4.7"/><path id="L" d="M81.898 238.467V37.864c0-.332-23.7-1.4-26.232-1.545v198.673c0 .635 23.673 3.13 26.23 3.468m98.894-36.788V6.36l-77.32 24.6c-1.916.6-21.556 5.4-21.556 7.266v200.25l50.614-18.724c15.565-5.76 33.79-10.105 48.263-18.066"/><path id="M" d="M170.494 204.976V34.95L101.637 58.9c-1.976.686-16.716 4.28-16.716 6.454v170.882l85.568-31.26"/><path id="N" d="M102.608 66.018c26.384-8.513 53.4-16.86 79.06-27.347 0 4.088 1.716 13.262-2.34 14.454l-30.864 8.798c-9.83 2.76-19.633 5.686-29.578 8-6.57 1.525-13.423 3.895-16.274-3.907"/><path id="O" d="M108.2 66.756c26.37-8.51 53.408-16.862 79.062-27.347 0 4.17 1.735 12.97-2.34 14.407-10.038 3.54-20.615 5.97-30.864 8.847-9.95 2.804-40.726 17.236-45.842 4.095"/><path id="P" d="M109.108 241.242V66.792c0-.29-21.858-1.218-24.183-1.344V238.22c0 .55 21.825 2.722 24.182 3.015m91.17-31.992V39.395L128.995 60.78c-1.766.53-19.872 4.688-19.872 6.32V241.24l46.66-16.283c14.35-5 31.153-8.788 44.494-15.7"/><path id="Q" d="M90.508 66.018c26.385-8.513 53.388-16.864 79.062-27.347 0 4.09 1.715 13.262-2.343 14.454l-30.864 8.798c-9.83 2.76-19.63 5.686-29.576 8-6.57 1.525-13.41 3.895-16.262-3.907"/><path id="R" d="M97.026 66.018c26.383-8.512 53.392-16.86 79.062-27.347 0 4.088 1.716 13.262-2.342 14.454l-30.863 8.798c-9.83 2.76-19.633 5.686-29.578 8-6.583 1.525-13.423 3.895-16.274-3.907"/><path id="S" d="M186.155 212.365V66.708l-58.988 20.516c-1.693.588-14.32 3.668-14.32 5.53v146.4l73.304-26.78"/><path id="T" d="M128 93.322c22.602-7.292 45.738-14.444 67.73-23.427 0 3.502 1.47 11.36-2.007 12.382l-26.44 7.538c-8.42 2.363-16.82 4.87-25.34 6.852-5.63 1.307-11.5 3.337-13.942-3.347"/><path id="U" d="M132.78 93.955c22.592-7.3 45.754-14.445 67.732-23.428 0 3.57 1.485 11.1-2.007 12.343-8.6 3.032-17.66 5.114-26.44 7.578-8.523 2.403-34.89 14.766-39.27 3.508"/><path id="V" d="M133.568 243.433V93.986c0-.248-18.726-1.044-20.718-1.15v148.01c0 .472 18.697 2.332 20.716 2.583m78.104-27.407V70.516l-61.066 18.32c-1.513.454-17.024 4.015-17.024 5.413v149.184l39.973-13.95c12.293-4.29 26.687-7.528 38.116-13.458"/><path id="W" d="M117.633 93.322c22.603-7.292 45.736-14.447 67.73-23.427 0 3.503 1.47 11.36-2.007 12.382l-26.44 7.538c-8.42 2.363-16.817 4.87-25.337 6.852-5.63 1.307-11.5 3.337-13.932-3.347"/><path id="X" d="M123.217 93.322c22.602-7.29 45.74-14.444 67.73-23.427 0 3.502 1.47 11.36-2.006 12.382l-26.44 7.538c-8.42 2.363-16.82 4.87-25.34 6.852-5.64 1.307-11.5 3.337-13.94-3.347"/><path id="Y" d="M133.568 243.433V93.986c0-.248-18.726-1.044-20.718-1.15v148.01c0 .472 18.697 2.332 20.716 2.583"/></defs></svg>
