<svg xmlns="http://www.w3.org/2000/svg" width="497.608" height="384.199"><defs><radialGradient id="A" gradientTransform="matrix(-7.2244231,7.2244502,-7.2148432,-7.214843,5889.8349,216.70132)" cx="245.802" cy="466.282" fx="245.802" fy="466.282" r="34.492" gradientUnits="userSpaceOnUse"><stop offset="0" stop-color="#61a6ed"/><stop offset="1" stop-color="#257edb"/></radialGradient></defs><path d="M540.344-1422.08c-12.294.344-23.17 4.108-30.187 12.156-21.94 25.16 2.21 48.56 10.594 80.375 11.193 42.452-1.536 87.624 32.438 117.344 11.7 10.233 25.83 12.93 39.406 14.188-17.848 21.03-28.61 50.192-22.75 80.156 10.256 52.447 62.098 87.364 113.5 78.594 29.32-5.005 52.913-22.97 65.75-47.5a1.15 1.15 0 0 1 2.031 0c12.838 24.525 36.434 42.496 65.75 47.5 51.402 8.77 103.026-26.146 113.28-78.594 5.86-29.964-4.683-59.127-22.53-80.156 13.576-1.258 27.486-3.954 39.188-14.187 33.974-29.72 21.244-74.892 32.438-117.344 8.383-31.814 32.503-55.214 10.563-80.375-7.02-8.048-17.643-11.812-29.937-12.156-27.05-.763-55.23 10.1-83.78 23.625s-60.055 36.775-79.875 61.656l73.156 42.5-115.72 67.188-10.125 127.47-2.625-133.344-13.687-7.937-10.062 126.313-2.625-133.687-13.72-7.97-10.03 126.72-2.687-134.094-13.625-7.906-10.094 127.03-2.656-134.47-13.594-7.875L638-1159.455l-2.656-134.844 70.063-40.687c-20.056-25.717-52.77-49.936-81.28-63.47s-56.212-24.23-83.78-23.625z" fill="url(#A)" transform="translate(-501.184 1422.119)"/></svg>
