<svg xmlns="http://www.w3.org/2000/svg" xmlns:xlink="http://www.w3.org/1999/xlink" width="512" height="512"><defs><linearGradient x1="50%" y1="100%" x2="50%" y2="0%" id="A"><stop stop-color="#420c5d" offset="0%"/><stop stop-color="#951ad1" offset="100%"/></linearGradient><path d="M25 29c127.578 0 231 102.975 231 230S152.578 489 25 489V29z" id="B"/><filter x="-18.2%" y="-7.4%" width="129.4%" height="114.8%" id="C"><feOffset dx="-8" in="SourceAlpha"/><feGaussianBlur stdDeviation="10"/><feColorMatrix values="0 0 0 0 0.250980392 0 0 0 0 0.250980392 0 0 0 0 0.250980392 0 0 0 0.2 0"/></filter></defs><g fill="none" fill-rule="evenodd"><circle fill="#f2e4ff" fill-rule="nonzero" cx="256" cy="256" r="246"/><path d="M256.525 465.44v-31.033c98.3-.284 177.896-80.042 177.896-178.414 0-98.365-79.595-178.123-177.896-178.407V46.553c115.44.29 208.922 93.937 208.922 209.44 0 115.5-93.483 209.163-208.922 209.447zm0-108.62c55.445-.29 100.324-45.304 100.324-100.827 0-55.516-44.878-100.53-100.324-100.82v-31.026c72.6.284 131.357 59.192 131.357 131.846 0 72.66-58.766 131.57-131.357 131.853V356.82zm0-155.102c29.742.284 53.777 24.462 53.777 54.274 0 29.82-24.036 53.997-53.777 54.28V201.72zM0 255.993C0 397.384 114.61 512 256 512c141.384 0 256-114.616 256-256.007C512 114.61 397.384 0 256 0 114.61 0 0 114.61 0 255.993z" fill="url(#A)"/><g transform="matrix(-1 0 0 1 281 0)"><use fill="#000" filter="url(#C)" xlink:href="#B"/><use fill="url(#A)" xlink:href="#B"/></g></g></svg>
