<svg xmlns="http://www.w3.org/2000/svg" width="128" height="128" viewBox="0 0 33.867 33.867"><path fill="#0097ff" d="M0-.001h28.012V28H0z"/><path d="M28-.001v33.867h5.854V5.852z" fill="#045e9b"/><path d="M0 28.012l5.854 5.854h28.013l-5.854-5.854z" fill="#034377"/><path d="M6.006 20.38l2.165-4.348c1.734 1.673 7.897 4.062 8.17 1.924.3-2.368-9.164-.737-9.164-7.022 0-7.33 11.146-6.652 15.224-3.62l-2.143 4.363c-1.255-.715-6.74-3.146-7.085-1.454-.53 2.593 9.715.487 9.022 8.032-.62 6.744-12.3 5.578-16.187 2.126z" fill="#fff"/></svg>
