<svg xmlns="http://www.w3.org/2000/svg" width="48" height="48"><defs><filter id="A"><feGaussianBlur stdDeviation=".205"/></filter></defs><path fill="#e9b96e" stroke="#573a0d" d="M3.464 22v12L24.5 46.145l21-12.414V22.27L24.25 10 3.464 22z"/><g stroke="#2e3436"><path fill="#2e3436" d="M8.5 30.907l-2-1.154v6L17.32 42v-2l-1.732-1v-2L13.5 35.794v-4l-5-2.887v2z"/><path fill="#555753" d="M6.928 36l3.464-2 5.108 2.95v2l2 1.155v2L6.928 36z"/></g><g stroke-linejoin="round"><path fill="#fce94f" stroke="#625802" d="M25.98 19l5.52 3.187v2L38.094 28l7.406-4.27v2.54-4L32.91 15l-6.928 4z"/><path fill="#e9b96e" stroke="#573a0d" stroke-dashoffset=".5" d="M24.84 18.34l8.66-5v2l-8.66 5v-2z"/><path fill="#73d216" stroke="#325b09" d="M25.98 9L3.465 22 17.5 30.104l14-7.917-6.66-3.846 8.66-5L25.98 9z"/></g><path fill="#729fcf" stroke="#19314b" d="M17.5 32.104v2l1.553.896v2l5.447 3.145 12-7.072v-2.146l2-1.155v-1.544l-7-4.04-14 7.917z"/><path fill="#2e3436" d="M13.856 20l6.93 4-6.93 4-6.928-4 6.928-4z" filter="url(#A)" opacity=".25"/><path fill="#c17d11" stroke="#8f5902" d="M12.124 23l1.732 1 1.732-1v-6l-1.732-1-1.732 1v6z"/><path fill="#4e9a06" stroke="#316004" d="M6.5 15.753L13.856 20l6.644-3.836V7.836L13.856 4 6.5 8.247v7.506z"/><path fill="#2e3436" d="M13.856 20l5.197 3-5.197 3-5.196-3 5.196-3z" filter="url(#A)" opacity=".25" transform="translate(24.249)"/><path fill="#4e9a06" stroke="#316004" d="M36.5 23.073l1.605.927 1.395-.805v-8.4L38.105 14 36.5 15.073v8z"/><path fill="none" stroke="#ef2929" stroke-dasharray=".5 .5" stroke-dashoffset=".25" stroke-width=".5" d="M12.124 33l-.866-.5"/><path fill="#888a85" stroke="#2e3436" stroke-dashoffset=".5" d="M45.5 26.73l-4 2.3v1l-2 1.155v2l-2 1.154v4l8-4.618v-7z"/></svg>
