<svg xmlns="http://www.w3.org/2000/svg" id="Layer_1" x="0" y="0" version="1.1" viewBox="0 0 256 305" xml:space="preserve"><style>.st1{fill:#fff}</style><path fill="#1f95c9" d="M256.1 193c0-66-40.6-102-72.5-131.6C160.8 40.1 149 27.7 128.1.3 107.2 27.7 95.3 40 72.6 61.4 39.4 92.5.1 126.9.1 193c4.3 67.9 60.6 112.5 127.7 112.7h.6c67.1-.2 123.4-44.8 127.7-112.7z"/><path d="M58 111.4h140.2v16.4H58zM58 141.2h140.2v16.4H58zM58 171.1h140.2v57.3H58z" class="st1"/><path fill="#fbb000" d="M58 241.9h51.2v19H58z"/></svg>
