<?xml version="1.0" encoding="utf-8"?>
<!-- Generator: Adobe Illustrator 23.0.1, SVG Export Plug-In . SVG Version: 6.00 Build 0)  -->
<svg version="1.1" id="Layer_1" xmlns="http://www.w3.org/2000/svg" xmlns:xlink="http://www.w3.org/1999/xlink" x="0px" y="0px"
	 viewBox="0 0 256 305" style="enable-background:new 0 0 256 305;" xml:space="preserve">
<style type="text/css">
	.st0{fill:#1F95C9;}
	.st1{fill:#FFFFFF;}
	.st2{fill:#FBB000;}
</style>
<title>Asset 201x</title>
<g>
	<g>
		<path class="st0" d="M256.1,193c0-66-40.6-102-72.5-131.6C160.8,40.1,149,27.7,128.1,0.3c0,0,0,0,0,0c0,0,0,0,0,0c0,0,0,0,0,0
			c0,0,0,0,0,0C107.2,27.7,95.3,40,72.6,61.4C39.4,92.5,0.1,126.9,0.1,193c4.3,67.9,60.6,112.5,127.7,112.7v0c0.1,0,0.2,0,0.3,0
			c0.1,0,0.2,0,0.3,0v0C195.5,305.5,251.8,260.9,256.1,193z"/>
		<g>
			<rect x="58" y="111.4" class="st1" width="140.2" height="16.4"/>
			<rect x="58" y="141.2" class="st1" width="140.2" height="16.4"/>
			<rect x="58" y="171.1" class="st1" width="140.2" height="57.3"/>
			<rect x="58" y="241.9" class="st2" width="51.2" height="19"/>
		</g>
	</g>
</g>
</svg>
