<?xml version="1.0" encoding="UTF-8" standalone="no"?>
<svg
   xmlns:dc="http://purl.org/dc/elements/1.1/"
   xmlns:cc="http://creativecommons.org/ns#"
   xmlns:rdf="http://www.w3.org/1999/02/22-rdf-syntax-ns#"
   xmlns:svg="http://www.w3.org/2000/svg"
   xmlns="http://www.w3.org/2000/svg"
   id="svg865"
   version="1.1"
   viewBox="0 0 169.33333 169.33333"
   height="640"
   width="640">
  <defs
     id="defs859" />
  <metadata
     id="metadata862">
    <rdf:RDF>
      <cc:Work
         rdf:about="">
        <dc:format>image/svg+xml</dc:format>
        <dc:type
           rdf:resource="http://purl.org/dc/dcmitype/StillImage" />
        <dc:title></dc:title>
      </cc:Work>
    </rdf:RDF>
  </metadata>
  <g
     transform="translate(98.398986,50.916197)"
     style="display:inline;opacity:1"
     id="layer2">
    <g
       transform="matrix(0.48510875,0,0,0.4815159,-50.692059,-26.363153)"
       id="g1537">
      <path
         d="M -54.388159,210.843 A 155.99074,157.19916 0 0 1 -63.065177,53.837757 155.99074,157.19916 0 0 1 67.5526,-32.189837 155.99074,157.19916 0 0 1 206.76529,38.841892"
         id="path1442"
         style="opacity:1;fill:none;stroke:#0067b9;stroke-width:37.0417;stroke-linecap:butt;stroke-linejoin:round;stroke-miterlimit:4;stroke-dasharray:none;stroke-dashoffset:9.07087;stroke-opacity:1;paint-order:markers stroke fill" />
      <path
         style="opacity:1;fill:none;stroke:#69b3e7;stroke-width:37.0417;stroke-linecap:butt;stroke-linejoin:round;stroke-miterlimit:4;stroke-dasharray:none;stroke-dashoffset:9.07087;stroke-opacity:1;paint-order:markers stroke fill"
         id="path1442-7"
         d="m -206.76529,-38.841888 a 155.99074,157.19916 0 0 1 -8.67702,-157.005242 155.99074,157.19916 0 0 1 130.617781,-86.0276 155.99074,157.19916 0 0 1 139.21269,71.03173"
         transform="scale(-1)" />
      <path
         id="path1501"
         d="M -7.2015651,180.79431 H 153.77775 c 2.96837,-0.66751 4.81365,-2.22739 5.07011,-5.04968 V 70.443187 Z"
         style="opacity:1;fill:#333e48;fill-opacity:1;stroke:none;stroke-width:0.264583px;stroke-linecap:butt;stroke-linejoin:miter;stroke-opacity:1" />
      <path
         id="path1499"
         d="M -7.2015651,69.951218 V 180.79431 L 76.195722,125.35813 Z"
         style="display:inline;opacity:1;fill:#ffc107;fill-opacity:1;stroke:none;stroke-width:0.264583px;stroke-linecap:butt;stroke-linejoin:miter;stroke-opacity:1" />
    </g>
  </g>
</svg>
