<?xml version="1.0" encoding="UTF-8" standalone="no"?>
<svg xmlns:dc="http://purl.org/dc/elements/1.1/" xmlns:cc="http://creativecommons.org/ns#" xmlns:rdf="http://www.w3.org/1999/02/22-rdf-syntax-ns#" xmlns:svg="http://www.w3.org/2000/svg" xmlns="http://www.w3.org/2000/svg" height="112" width="112" version="1.1" viewBox="0 0 111.99999 112" data-name="Calque 1" id="Calque_1">
  <metadata id="metadata36">
    <rdf:RDF>
      <cc:Work rdf:about="">
        <dc:format>image/svg+xml</dc:format>
        <dc:type rdf:resource="http://purl.org/dc/dcmitype/StillImage" />
      </cc:Work>
    </rdf:RDF>
  </metadata>
  <defs id="defs7">
    <linearGradient gradientUnits="userSpaceOnUse" gradientTransform="matrix(1,0,0,-1,-35.180724,183.06356)" y2="152.43639" x2="116.50566" y1="152.43639" x1="36.40448" id="Dégradé_sans_nom_2">
      <stop id="stop2" stop-color="#ffda12" offset="0" />
      <stop id="stop4" stop-color="#efe333" offset="1" />
    </linearGradient>
  </defs>
  <path id="path21" fill="#4ba2ea" d="m 88.318466,106.48222 c 0.50469,1.04542 1.00937,2.59554 2.09085,3.20837 a 5.00538,5.00538 0 0 0 2.52344,0.32444 h 15.645324 a 2.56645,2.56645 0 0 0 2.27109,-3.74911 c -0.97333,-1.87456 -1.9827,-3.71306 -2.956,-5.58762 l -6.02021,-11.355481 a 5.7487,5.7487 0 0 1 -0.757,-1.65826 c 0,0 -0.2163,-0.36049 0.0721,-1.33382 0.28839,-0.721 3.92935,-7.89476 4.14565,-8.61574 1.478,-4.57824 19.46653,-47.94535 -31.579004,-52.3794 a 11.55993,11.55993 0 0 1 1.11753,0.68493 36.33607,36.33607 0 0 1 10.88684,10.85079 35.71276,35.71276 0 0 1 2.73974,33.2373 34.71632,34.71632 0 0 1 -2.70369,5.119 35.35483,35.35483 0 0 1 -6.41674,7.49822 3.7504,3.7504 0 0 0 -1.33382,1.65826 2.49392,2.49392 0 0 0 0.10814,1.83851 z" />
  <path id="path23" fill="#ff3b4a" d="m 1.2237556,49.812969 c 8.2192,-5.58762 16.5105104,-5.94811 19.1060004,1.76641 a 1.61653,1.61653 0 0 0 -0.03605,0.39654 35.63007,35.63007 0 0 0 30.67787,39.47379 35.20365,35.20365 0 0 0 9.73327,-0.03605 c 0.79309,-0.10814 1.55011,-0.25235 2.34319,-0.39654 a 4.70253,4.70253 0 0 1 1.73035,-0.14419 c 0.90123,11.031001 -33.70594,13.915001 -55.1191304,-12.473 -5.29923,-6.52489 -7.85871,-19.68283 -8.4355,-28.587" />
  <path id="path25" fill="#65cee7" d="m 108.10946,72.127379 a 52.19685,52.19685 0 0 1 -3.28047,8.039 c -0.28839,0.54074 -0.54074,1.04542 -0.82913,1.58616 -0.39654,0.721 -0.82913,1.478 -1.26172,2.199 a 13.08267,13.08267 0 0 0 -1.55011,2.55949 l 0.036,-0.14419 a 22.579,22.579 0 0 0 0.757,-2.199 47.41378,47.41378 0 0 0 -28.226484,-58.79615 c -0.18025,-0.10815 -0.32444,-0.18025 -0.50469,-0.28839 v 0 c 1.36986,0.721 -6.48884,-19.069999 9.84141,-16.510499 0.68493,0.36049 1.36986,0.757 2.05481,1.15357 a 51.87766,51.87766 0 0 1 12.473,10.454249 52.39944,52.39944 0 0 1 9.228584,15.17668 55.053,55.053 0 0 1 3.677,18.96185 55.07978,55.07978 0 0 1 -2.41525,17.80823 z" />
  <path id="path27" fill="#87c966" d="m 87.453276,16.611719 a 9.822,9.822 0 0 1 -0.68493,3.56887 9.65588,9.65588 0 0 1 -8.94018,6.05626 9.79667,9.79667 0 0 1 -4.57824,-1.15357 v 0 a 36.226,36.226 0 0 0 -14.41965,-4.47011 35.036,35.036 0 0 0 -18.349,3.28047 34.67684,34.67684 0 0 0 -7.71451,4.93873 35.883,35.883 0 0 0 -5.876,6.27255 36.25969,36.25969 0 0 0 -6.38071,15.10464 C 2.9541156,28.724229 39.003276,-5.88294 79.450386,7.13079 v 0 c 0.68493,0.18025 1.40591,0.39654 2.09085,0.61284 0.50469,0.25234 1.04542,0.50469 1.55011,0.79308 h 0.0361 a 9.68163,9.68163 0 0 1 4.32588,8.075009 z" />
  <path style="fill:url(#D%C3%A9grad%C3%A9_sans_nom_2)" id="path29" fill="url(#Dégradé_sans_nom_2)" d="m 81.324936,7.63548 a 11.06021,11.06021 0 0 0 -1.87456,-0.50469 v 0 a 47.12859,47.12859 0 0 0 -9.37278,-1.55011 c -0.93728,-0.0721 -1.87456,-0.0721 -2.84788,-0.0721 a 46.9904,46.9904 0 0 0 -46.71968,44.700929 2.82766,2.82766 0 0 0 -0.0721,0.50469 v 0 c -0.03605,0.28839 -0.0721,0.57679 -0.10815,0.82913 v 0 a 9.64055,9.64055 0 0 1 -9.48092,7.85871 h -0.28839 a 9.61243,9.61243 0 0 1 -9.3367204,-9.62512 c 0,-0.43259 0.03605,-0.82913 0.0721,-1.22567 v 0 a 53.396,53.396 0 0 1 4.83058,-16.40236 51.57675,51.57675 0 0 1 10.9228404,-15.14063 55.4146,55.4146 0 0 1 15.429,-10.418199 54.74409,54.74409 0 0 1 18.20489,-4.54219 64.16007,64.16007 0 0 1 10.85079,0.0721 53.68473,53.68473 0 0 1 7.53427,1.18959 55.08808,55.08808 0 0 1 12.25671,4.32592 z" />
  <path id="path31" fill="#af27cc" d="m 72.709196,106.41012 c -0.50469,1.442 -1.9827,1.69431 -3.31652,2.01875 -1.58616,0.39654 -3.17232,0.68493 -4.79453,0.93728 -2.92,0.43259 -5.876,0.61284 -8.796,0.757 a 49.04025,49.04025 0 0 1 -9.19253,-0.57679 61.17333,61.17333 0 0 1 -9.48092,-2.16295 52.00631,52.00631 0 0 1 -20.00727,-11.824091 51.12209,51.12209 0 0 1 -7.8587104,-9.517 52.86178,52.86178 0 0 1 -7.06563,-16.97915 61.76468,61.76468 0 0 1 -1.00938,-19.106 v -0.14419 a 46.624,46.624 0 0 0 43.1508204,43.8718 c 1.26172,0.10814 2.52344,0.14419 3.82121,0.14419 a 46.82746,46.82746 0 0 0 16.5826,-2.99207 0.917,0.917 0 0 1 0.25235,0.0721 2.49428,2.49428 0 0 1 1.55011,1.40591 c 1.18962,2.34319 2.37925,4.68639 3.53281,7.06563 0.0361,0.0721 0.0721,0.18025 0.10814,0.25235 0.61284,1.189621 1.18962,2.415301 1.80246,3.604911 0.54075,1.00937 1.15359,1.9827 0.72099,3.17232 z" />
</svg>
