<svg xmlns="http://www.w3.org/2000/svg" width="1024" height="1024"><g stroke-width="28" stroke-linejoin="round"><path d="M167.04 244.72a137.48 137.48 0 0 0-2.838.022c-4.315.078-8.59.36-12.812.846-33.785 3.89-64.216 21.864-82.87 53.273-18.28 30.777-22.777 64.666-13.46 96.068s31.885 59.932 65.297 82.533c.202.136.407.267.615.393 28.654 17.278 57.182 28.932 87.742 34.955-.746 12.613-.725 25.572.082 38.844 2.44 40.11 16.607 77.037 38.096 109.672l-77.008 31.438c-8.306 3.26-12.342 12.682-8.97 20.943s12.85 12.168 21.063 8.684l84.697-34.576c15.707 18.727 33.753 35.683 53.12 50.57l2.234 1.686-49.61 65.69c-5.454 7.047-4.1 17.193 3.01 22.563s17.24 3.896 22.526-3.278l50.387-66.72c27.686 17.535 57.075 31.204 86.072 40.252 14.882 27.28 43.97 44.646 77.588 44.646 33.938 0 63.043-18.687 77.8-45.437 28.707-9.213 57.753-22.932 85.148-40.402l51.098 67.66c5.286 7.175 15.414 8.65 22.526 3.278s8.465-15.516 3.01-22.563l-50.36-66.686 1.006-.756c19.138-14.65 37.026-31.286 52.703-49.635l82.563 33.705c8.214 3.484 17.69-.423 21.063-8.684s-.664-17.684-8.97-20.943l-74.54-30.428c22.172-32.83 37.038-70.034 40.143-110.46 1.025-13.353 1.23-26.425.64-39.176 30.356-6.054 58.716-17.668 87.2-34.844a14.02 14.02 0 0 0 .615-.393c33.412-22.6 55.98-51.13 65.297-82.533s4.82-65.29-13.46-96.068c-18.655-31.4-49.086-49.382-82.87-53.273a132.89 132.89 0 0 0-12.812-.846c-30.208-.544-62.44 8.824-93.432 26.715-22.798 13.16-43.352 33.314-59.437 55.305-44.997-25.75-103.544-40.25-175.48-41.44a598.87 598.87 0 0 0-19.68.002c-80.19 1.31-144.383 16.51-192.87 43.992a14 14 0 0 0-.371-.564c-16.3-22.764-37.41-43.737-60.896-57.295-30.022-17.33-61.21-26.665-90.594-26.736z" fill="none" stroke="#fff"/><g fill="#fff" stroke="#000"><path d="M716.856 336.898c15.29-21.368 35.362-41.11 56.5-53.317 66.664-38.484 137.026-33.222 170.08 22.43 33.095 55.72 14.987 117.49-47.644 159.855-31.956 19.268-62.933 30.923-97.23 35.545m-491.43-164.513c-15.29-21.368-35.362-41.11-56.5-53.317-66.664-38.484-137.026-33.222-170.08 22.43-33.095 55.72-14.987 117.49 47.644 159.855 31.956 19.268 62.933 30.923 97.23 35.545" stroke-linecap="round"/><path d="M801.232 550.803c11.503-149.8-80.648-254.887-289.232-251.48s-298.286 102.643-289.232 251.48c8.643 142.08 176.802 246.404 288.12 246.404s279.45-104.545 290.344-246.404z"/></g></g><path d="M610.5 618.222c0 23.112 18.706 41.848 41.78 41.848s41.78-18.736 41.78-41.848-18.706-41.848-41.78-41.848-41.78 18.736-41.78 41.848zm-280.56 0c0 23.325 18.878 42.234 42.166 42.234s42.166-18.91 42.166-42.234-18.878-42.234-42.166-42.234-42.166 18.91-42.166 42.234z"/><g stroke="#000"><path d="M339.73 743.18l-54.544 72.225M684.27 743.18l54.544 72.225m-475.132-143.65l-87.756 35.824m579.858-35.824l87.756 35.824" fill="none" stroke-width="32" stroke-linecap="round"/><path d="M512 687.023c-45.864 0-75.13 31.845-74.142 71.1 1.07 42.513 32.47 71.103 74.142 71.103s74.05-32.996 74.142-71.103c.093-39.268-28.277-71.1-74.142-71.1z" fill="#fff" stroke-width="28" stroke-linejoin="round"/></g></svg>