<svg xmlns="http://www.w3.org/2000/svg" viewBox="0 0 127 127"><circle cx="63.3" cy="63.3" r="60" fill="#de5833"/><path d="M114.1 41.8a55.13 55.13 0 0 0-11.8-17.5c-5.1-5.1-11-9-17.5-11.8-6.8-2.9-14-4.3-21.5-4.3s-14.7 1.5-21.5 4.3a55.13 55.13 0 0 0-17.5 11.8c-5.1 5.1-9 11-11.8 17.5-2.9 6.8-4.3 14-4.3 21.5 0 7.4 1.5 14.7 4.3 21.5a55.13 55.13 0 0 0 11.8 17.5c5.1 5.1 11 9 17.5 11.8 6.8 2.9 14 4.3 21.5 4.3s14.7-1.5 21.5-4.3a55.13 55.13 0 0 0 17.5-11.8c5.1-5.1 9-11 11.8-17.5 2.9-6.8 4.3-14 4.3-21.5s-1.4-14.7-4.3-21.5zm-38.8 71c-3.2-5.4-11.6-20.5-11.6-31.7 0-25.8 17.3-3.7 17.3-24.3 0-4.9-2.4-22.1-17.4-25.7-3.7-4.9-12.4-9.6-26.2-7.7 0 0 2.3.7 4.9 2 0 0-5 .7-5.2 4.1 0 0 9.9-.5 15.5 1.3-12.9 1.7-19.6 8.4-18.4 20.8 1.7 17.5 9.1 48.7 11.7 59.6-19.6-7.1-33.7-25.9-33.7-48 0-28.1 22.8-51 51-51s51 22.8 51 51c0 24.1-16.6 44.2-38.9 49.6z" fill="#fff"/><path d="M60.5 71.6c0-6.6 9-8.7 12.4-8.7 9.2 0 22.2-5.9 25.4-5.8 3.3.1 5.4 1.4 5.4 2.9 0 2.2-18.4 10.5-25.5 9.8-6.8-.6-8.4.1-8.4 2.9 0 2.4 4.9 4.6 10.3 4.6 8.1 0 16-3.6 18.4-1.9 2.1 1.5-5.5 6.9-14.2 6.9s-23.8-4.1-23.8-10.7z" fill-rule="evenodd" fill="#fed30a"/><path d="M76.5 43.6c-2.4-3.1-6.7-3.2-8.2.4 2.3-1.8 5.1-2.2 8.2-.4zm-26.8.1c-3.3-2-8.8-2.2-8.5 4.1 1.7-3.9 3.9-4.6 8.5-4.1zm24.8 5.8a3.33 3.33 0 0 0-3.3 3.3 3.33 3.33 0 0 0 3.3 3.3 3.33 3.33 0 0 0 3.3-3.3 3.33 3.33 0 0 0-3.3-3.3zm1.2 3c-.5 0-1-.4-1-1 0-.5.4-1 1-1a.94.94 0 0 1 1 1c-.1.6-.5 1-1 1zm-26.8-1.2a3.8 3.8 0 1 0 0 7.6 3.8 3.8 0 1 0 0-7.6zm1.4 3.5a1.11 1.11 0 0 1-1.1-1.1 1.11 1.11 0 0 1 1.1-1.1 1.11 1.11 0 0 1 1.1 1.1 1.11 1.11 0 0 1-1.1 1.1z" fill="#2d4f8d"/><path d="M40.6 35.1c-4.8 3.5-7 8.9-6.3 16.5 1.7 17.5 9.1 48.8 11.7 59.7l2.7.9c-1.6-6.6-9.3-38.8-12.7-63.5-.9-6.6 1.6-10.5 4.6-13.6zm11.9-4.3c.4 0 .7-.1.7-.1-5.2-2.5-13.4-2.6-15.6-2.6-.2.4-.4.9-.4 1.4-.1.1 9.6-.5 15.3 1.3zm-9.4-5.4a31.01 31.01 0 0 0-3.7-2.2l-2 .2s2.3.7 4.9 2h-.2 1z" fill="#d5d7d8"/><path d="M83.4 91.9c-1.7-.4-8.3 4.3-10.8 6.1-.1-.5-.2-.9-.3-1.1-.3-1-6.7-.4-8.2 1.2-4-1.9-12-5.6-12.1-3.3-.3 3 0 15.5 1.6 16.4 1.2.7 8-3 11.4-4.9h.1c2.1.5 6 0 7.4-.9.2-.1.3-.3.4-.5 3.1 1.2 9.8 3.6 11.2 3.1 1.8-.5 1.4-15.6-.7-16.1z" fill="#67bd47"/><path d="M65.1 106.3c-2.1-.4-1.4-2.5-1.4-7.4-.5.3-.9.7-.9 1.1 0 4.9-.8 7.1 1.4 7.4 2.1.5 6 0 7.6-.9.3-.2.4-.5.5-1-1.5.9-5.2 1.3-7.2.8z" fill="#43a347"/><g fill="#4c4c4c"><path d="M110.5 106.4c-.9 0-1.7.7-1.7 1.6s.7 1.7 1.7 1.7c.9 0 1.7-.7 1.7-1.7 0-.8-.7-1.6-1.7-1.6zm.1 3c-.7 0-1.3-.6-1.3-1.3s.5-1.3 1.3-1.3c.7 0 1.3.6 1.3 1.3-.1.7-.6 1.3-1.3 1.3z"/><path d="M110.6 107.4c.2 0 .3.1.4.3l.3-.2c-.1-.2-.4-.5-.7-.5-.5 0-1 .4-1 1a.94.94 0 0 0 1 1c.4 0 .6-.2.7-.5l-.3-.2c-.1.2-.2.3-.4.3a.65.65 0 0 1-.6-.6c.1-.3.3-.6.6-.6z"/></g></svg>
