<svg xmlns="http://www.w3.org/2000/svg" width="202.274" height="151.784"><g transform="matrix(1.121324 0 0 1.121324 -1073.529248 1764.621175)"><path d="M1024.2-1553.827v7.536h10.358v-7.536zm-8.2 12.113v7.536h18.546v-7.536zm-21.772 12.114v7.536h40.32v-7.536zm-22.214 12.114v7.536h62.533v-7.536zm-14.657 12.116v7.536h77.2v-7.536zm24.423 12.112v7.536h52.777v-7.536zm21.458 12.113v7.536h31.3v-7.536zm-8.482 12.115v7.536h39.8v-7.536zm20.564 11.567v7.536h19.227v-7.536z" fill="#83b9f5" fill-rule="evenodd"/><g fill="#f38577"><path d="M1065.91-1573.694h-32.592l16.296 24.938z"/><path d="M1051.7-1569.103v130.77h-4.193v-130.77z" fill-rule="evenodd"/></g><path d="M1067.15-1553.878a2.72 2.72 0 0 0-2.795 2.718v98.692c.001 2.22 2.52 3.502 4.315 2.197l67.972-49.344a2.72 2.72 0 0 0 0-4.4l-67.972-49.345a2.72 2.72 0 0 0-1.521-.517z" fill="#527eb2"/></g></svg>
