<svg xmlns="http://www.w3.org/2000/svg" fill="none" stroke-linecap="round" stroke-width="7.318" viewBox="0 0 238 293"><path fill="#a2ddef" d="M87.61 85.367v41.254l41.958-.043 1.503-.045c11.032-.726 19.655-9.757 19.655-20.56 0-11.365-9.47-20.606-21.116-20.606zm-41.496 203.76c-22.916 0-41.496-18.13-41.496-40.494v-77.176c-.15-1.4-.23-2.823-.23-4.263a39.67 39.67 0 01.231-4.342V44.873c0-22.365 18.58-40.497 41.496-40.497h83.496c57.407 0 104.11 45.576 104.11 101.597 0 53.263-42.63 97.785-97.052 101.36a105.75 105.75 0 01-7.059.235l-42 .04v41.024c0 22.365-18.578 40.494-41.496 40.494z"/><g stroke="#368bd6"><path d="M87.61 85.367v41.254l41.958-.043 1.503-.045c11.032-.726 19.655-9.757 19.655-20.56 0-11.365-9.47-20.606-21.116-20.606zM4.616 248.633V44.873c0-22.365 18.58-40.497 41.496-40.497h83.496c57.407 0 104.11 45.576 104.11 101.597 0 53.263-42.63 97.785-97.052 101.36a105.75 105.75 0 01-7.059.235l-42 .04v41.024c0 22.365-18.578 40.494-41.496 40.494s-41.496-18.13-41.496-40.494z"/><path d="M46.113 248.632V44.872h83.496c34.58 0 62.613 27.356 62.613 61.1 0 32.345-25.755 58.82-58.34 60.96a64.76 64.76 0 01-4.272.141l-83.727.082"/></g><path fill="#368bd6" d="M80.306 21.648c6.362 8.858 8.805 19.607 6.88 30.253-1.927 10.653-7.992 19.933-17.077 26.137-18.757 12.807-44.703 8.348-57.837-9.94C5.9 59.238 3.467 48.49 5.395 37.84s8-19.933 17.077-26.134c18.757-12.807 44.7-8.348 57.835 9.94zm112.257 267.456c-13.077 0-25.944-6.014-34.02-17.26L99.896 190.17c-13.15-18.316-8.596-43.568 10.17-56.4 18.767-12.84 44.644-8.394 57.795 9.922l58.647 81.674c13.154 18.316 8.6 43.568-10.168 56.4-7.248 4.958-15.555 7.337-23.778 7.337z"/></svg>
