<svg xmlns="http://www.w3.org/2000/svg" width="24" height="24"><path fill="#292929" d="M23.104 13.133a12.9 12.9 0 0 1-1.321 2.627 10.472 10.472 0 0 1-1.828 2.12 8.438 8.438 0 0 1-2.243 1.429 6.433 6.433 0 0 1-2.535.507c-.37 0-.748-.056-1.137-.17a2.694 2.694 0 0 1-1.045-.599c-.307-.297-.558-.69-.753-1.183-.195-.502-.292-1.132-.292-1.89a9.64 9.64 0 0 1 .046-.906h-.06a8.07 8.07 0 0 1-.891 1.782 7.708 7.708 0 0 1-1.275 1.521c-.466.43-.994.787-1.567 1.06a3.982 3.982 0 0 1-1.69.384c-.614 0-1.132-.108-1.552-.323a2.763 2.763 0 0 1-.999-.876 3.84 3.84 0 0 1-.553-1.306 7.28 7.28 0 0 1-.169-1.598l.123-2.596.292-2.61.277-2.32.138-1.75a4.62 4.62 0 0 0-.031-.553 1.28 1.28 0 0 0-.108-.476.799.799 0 0 0-.261-.323c-.113-.082-.266-.123-.46-.123-.174 0-.358.056-.553.17-.195.102-.39.276-.584.522a5.016 5.016 0 0 0-.553.937c-.184.39-.353.86-.507 1.413l-.876-.184c.072-.37.2-.804.384-1.306a6.892 6.892 0 0 1 .768-1.459A4.65 4.65 0 0 1 2.47 3.87c.47-.328 1.024-.492 1.66-.492.83 0 1.46.26 1.89.783.44.522.66 1.28.66 2.273L6.618 8l-.17 1.797a137.37 137.37 0 0 1-.415 3.733 82.232 82.232 0 0 0-.154 1.567l-.06 1.152c0 .236.02.466.06.69a1.82 1.82 0 0 0 .215.599c.102.174.24.318.415.43s.394.17.66.17c.676 0 1.342-.246 1.997-.737s1.24-1.203 1.75-2.135c.522-.932.942-2.074 1.26-3.426.328-1.362.492-2.908.492-4.64l-.046-1.674-.17-1.797h2.688c.02.092.036.205.046.338a4.47 4.47 0 0 1 .061.783l.015.292c0 1.055-.056 2.07-.17 3.042l-.353 2.765-.37 2.504a18.02 18.02 0 0 0-.154 2.274 6.62 6.62 0 0 0 .061.906c.05.297.138.558.26.783.133.225.312.4.538.553.236.133.538.2.906.2a3.942 3.942 0 0 0 1.536-.323 5.95 5.95 0 0 0 1.49-.937 8.017 8.017 0 0 0 1.306-1.429 9.66 9.66 0 0 0 1.06-1.828c.307-.676.543-1.393.707-2.15.174-.768.26-1.562.26-2.38a8.73 8.73 0 0 0-.077-1.167 5.493 5.493 0 0 0-.246-1.06 2.524 2.524 0 0 0-.476-.845 1.826 1.826 0 0 0-.722-.553c-.123.276-.302.476-.538.6s-.486.184-.753.184a1.41 1.41 0 0 1-.445-.077 1.28 1.28 0 0 1-.43-.246 1.409 1.409 0 0 1-.307-.415 1.426 1.426 0 0 1-.123-.614c0-.174.03-.353.092-.538a1.42 1.42 0 0 1 .323-.492c.143-.154.333-.277.568-.37.246-.102.548-.154.906-.154.635 0 1.188.148 1.66.445s.86.696 1.167 1.198.538 1.086.69 1.75.23 1.372.23 2.12c0 .696-.067 1.408-.2 2.135a11.14 11.14 0 0 1-.562 2.109z"/></svg>
