<?xml version="1.0" encoding="utf-8"?>
<svg version="1.1" id="Ebene_1" xmlns="http://www.w3.org/2000/svg" xmlns:xlink="http://www.w3.org/1999/xlink" x="0px" y="0px"
	 viewBox="0 0 566.9 566.9" style="enable-background:new 0 0 566.9 566.9;" xml:space="preserve">
<style type="text/css">
	.st0{fill:#75b824;}
</style>
<g>
	<path class="st0" d="M398.9,344.2v31c0,0.7,0.3,1,1,1h5.8c0.7,0,1-0.3,1-1v-26.8c1.3-0.5,3.5-0.9,5.9-0.9c1.8,0,3.8,0,5.5,0.3
		c0.7,0.1,1.1-0.2,1.1-0.8v-4.8c0-0.5-0.3-0.9-0.9-1c-2.6-0.4-4.8-0.5-6.9-0.5c-4.1,0-8.3,0.9-11.8,2.6
		C399.1,343.3,398.9,343.7,398.9,344.2 M368.8,354.4c0-4.4,2.6-6.9,7.5-6.9c4.8,0,7.5,2.4,7.5,6.9v9c0,4.3-2.7,6.6-7.5,6.6
		c-4.8,0-7.5-2.3-7.5-6.6V354.4z M360.9,354.4v9c0,8.3,6.1,13.6,15.4,13.6c9.3,0,15.4-5.3,15.4-13.6v-9c0-8.5-6.1-13.9-15.4-13.9
		C367,340.5,360.9,345.9,360.9,354.4 M348,369.3v5.8c0,0,0,1,1,1h5.8c0,0,1,0,1-1v-5.8c0,0,0-1-1-1H349
		C349,368.3,348,368.3,348,369.3 M311.4,375c-0.4,0.7-0.1,1.2,0.7,1.2h7.1c0.5,0,0.9-0.2,1.2-0.7l6.7-11.4l6.7,11.4
		c0.3,0.5,0.7,0.7,1.2,0.7h7.1c0.7,0,1-0.5,0.6-1.2L332,358.7l10.2-16.2c0.4-0.6,0.1-1.1-0.7-1.1h-6.8c-0.5,0-0.9,0.3-1.2,0.7
		l-6.4,11.2l-6.4-11.2c-0.3-0.4-0.7-0.7-1.2-0.7h-6.8c-0.7,0-1.1,0.5-0.7,1.1l10.2,16.2L311.4,375z M223.5,329v46.2c0,0.7,0.4,1,1,1
		h5.9c0.6,0,0.9-0.3,0.9-1V329c0-0.6-0.3-0.9-0.9-0.9h-5.9C223.9,328,223.5,328.4,223.5,329 M205.2,342.3v32.9c0,0.7,0.4,1,1,1h5.9
		c0.6,0,0.9-0.3,0.9-1v-32.9c0-0.6-0.3-0.9-0.9-0.9h-5.9C205.6,341.3,205.2,341.6,205.2,342.3 M205.2,329v5.8c0,0,0,1,1,1h5.8
		c0,0,1,0,1-1V329c0,0,0-1-1-1h-5.8C206.2,328,205.2,328,205.2,329 M175.7,365.7c0-2.8,2-4.4,7.1-4.4c2.1,0,4.7,0.3,6.5,0.5v7.6
		c-1.7,0.4-4.2,0.8-6.5,0.8C178.7,370.2,175.7,368.8,175.7,365.7 M167.8,365.8c0,8.4,7.2,11.2,15,11.2c5,0,10-0.9,13.5-2
		c0.5-0.2,0.7-0.6,0.7-1.1v-19.7c0-9.5-5.7-13.7-14-13.7c-5.5,0-10,1.3-13.2,3.6c-0.3,0.3-0.3,0.6,0,1.1l2.7,4.1
		c0.3,0.5,0.9,0.6,1.3,0.3c2.2-1.3,5.3-2.2,8.6-2.2c5,0,6.7,2,6.7,6.8v1.3c-2-0.3-4.5-0.5-6.7-0.5
		C173.9,355,167.8,358.4,167.8,365.8 M114.6,344.3v30.8c0,0.7,0.3,1,1,1h5.8c0.7,0,1-0.3,1-1v-26.9c1.3-0.4,3.1-0.7,5.4-0.7
		c4.4,0,6.7,2.2,6.7,7.1v20.6c0,0.7,0.4,1,1,1h5.8c0.7,0,1-0.3,1-1v-20.5c0-2-0.3-3.8-0.9-5.5c1.8-1.1,3.7-1.7,5.9-1.7
		c4.8,0,6.9,2.6,6.9,7v20.6c0,0.7,0.3,1,0.9,1h5.9c0.6,0,0.9-0.3,0.9-1v-20.3c0-9.4-6.1-14.3-14.5-14.3c-3.9,0-6.8,1-10.2,3.1
		c-2.5-2-5.8-3.1-9.8-3.1c-4.2,0-8.5,1-12.2,2.6C114.8,343.4,114.6,343.8,114.6,344.3 M201.9,250.6l54.4-37.2v-36H127.8
		c0,0-13.1,0-13.1,13.1v0.4L201.9,250.6z M127.8,305.3h128.5v-72.9l-50.9,34.7c-3.6,2.5-7.2,0-7.2,0l-83.5-57.4v82.4
		C114.6,292.1,114.6,305.3,127.8,305.3 M263.7,362.3c0,5.7-2.9,7.7-7.7,7.7c-2.3,0-4.7-0.3-6.3-0.9v-19.9c1.7-1.1,3.9-1.8,6.5-1.8
		c4.8,0,7.6,2.2,7.6,7.3V362.3z M271.6,362.2v-7.4c0-8.8-6.3-14.3-14.7-14.3c-2.7,0-5.2,0.6-7.3,1.5v-12.9c0-0.7-0.3-1-1-1h-5.8
		c-0.7,0-1,0.3-1,1v44.4c0,0.6,0.2,0.9,0.8,1.1c4,1.5,9.2,2.4,13.5,2.4C265,377,271.6,372.4,271.6,362.2 M293.1,347.5
		c4.8,0,7.5,2.4,7.5,6.9v9c0,4.3-2.7,6.6-7.5,6.6c-4.8,0-7.5-2.3-7.5-6.6v-9C285.6,349.9,288.3,347.5,293.1,347.5 M293.1,340.5
		c-9.3,0-15.4,5.4-15.4,13.9v9c0,8.3,6.1,13.6,15.4,13.6c9.3,0,15.4-5.3,15.4-13.6v-9C308.5,345.9,302.4,340.5,293.1,340.5
		 M422.7,305.3h29.6v-82.2c0-35.2-18.6-45.8-46.5-45.8c-14.6,0-27,3.2-36.2,6.9c-4.7-2.9-12-6.9-29.4-6.9
		c-15.4,0-39.7,5.2-47.9,11.5v116.5h29.3V205.1c6.8-1.7,11.5-2.9,19-2.9c11.8,0.1,16.7,5.2,17,21.7v81.4h29.2l-0.2-83.2
		c0-11.7-2.3-17-2.3-17c6-2,11.8-2.9,20.3-2.9c13.3,0,17.6,5.5,18.1,22L422.7,305.3z M444.5,366.6c-1.3,1.1-4.1,1.7-6.7,1.7
		c-4.1,0-7.4-1.8-7.4-7.1v-6.3c0-5.8,3.2-7.4,7.8-7.4c2,0,4.8,0.3,6.3,0.7V366.6z M452.3,374v-29.7c0-0.5-0.2-0.9-0.7-1.1
		c-3.6-1.5-8.5-2.6-13.5-2.6c-8.6,0-15.6,3.8-15.6,14.4v6.3c0,9.5,6.6,13.9,14.5,13.9c2.4,0,5.3-0.5,7.5-1.5c0.2,6.8-2.2,9-7.3,9
		c-3.5,0-6.6-1.2-9.1-3c-0.5-0.4-1-0.3-1.3,0.3l-2.8,4.2c-0.3,0.6-0.3,1,0.2,1.3c3.6,2.8,7.6,4.2,13.1,4.2
		C448,389.7,452.3,383.9,452.3,374"/>
</g>
</svg>
