<svg xmlns="http://www.w3.org/2000/svg" xmlns:xlink="http://www.w3.org/1999/xlink" width="45.313" height="59.518"><defs><path id="A" d="M0 .28V59.8h45.313V.28z"/></defs><g transform="translate(0 -.281)" fill-rule="evenodd"><mask fill="#fff" id="B"><use xlink:href="#A"/></mask><path mask="url(#B)" d="M14.617 19.198c-.164.153-.168.408-.01.567L16.832 22a.4.4 0 0 0 .542.012c1.395-1.268 3.248-2.042 5.282-2.042s3.887.773 5.282 2.042a.4.4 0 0 0 .542-.012l2.224-2.225c.16-.16.155-.414-.01-.567-2.108-1.968-4.935-3.174-8.04-3.174s-5.93 1.206-8.04 3.174zm29.913-7.765L29.137 26.826c-3.565 3.565-9.398 3.565-12.962 0L.782 11.433a.46.46 0 0 0-.782.324V39.05c0 1.044.604 2.502 1.342 3.24l14.833 14.833c3.565 3.565 9.397 3.565 12.962 0L43.97 42.292c.738-.738 1.343-2.197 1.343-3.24V11.757a.46.46 0 0 0-.783-.324zm-10.486 4.992L36.27 14.2c.157-.157.153-.4-.008-.565-3.535-3.393-8.332-5.482-13.607-5.482S12.584 10.24 9.05 13.635c-.16.154-.165.407-.008.565l2.226 2.226c.15.148.396.153.547.008 2.823-2.69 6.643-4.345 10.84-4.345a15.67 15.67 0 0 1 10.842 4.345c.15.144.4.14.547-.008zM5.703 10.86c.15.15.398.154.55.007 4.25-4.114 10.036-6.65 16.404-6.65s12.155 2.535 16.404 6.65c.152.147.4.143.55-.007l2.225-2.225c.154-.154.155-.407-.002-.56A27.44 27.44 0 0 0 22.656.281 27.44 27.44 0 0 0 3.479 8.076c-.157.152-.157.405-.002.56z" fill="#4cbebc"/></g></svg>
