<?xml version="1.0" encoding="UTF-8" standalone="no"?>
<svg
   xmlns:dc="http://purl.org/dc/elements/1.1/"
   xmlns:cc="http://creativecommons.org/ns#"
   xmlns:rdf="http://www.w3.org/1999/02/22-rdf-syntax-ns#"
   xmlns:svg="http://www.w3.org/2000/svg"
   xmlns="http://www.w3.org/2000/svg"
   xmlns:xlink="http://www.w3.org/1999/xlink"
   xmlns:sodipodi="http://sodipodi.sourceforge.net/DTD/sodipodi-0.dtd"
   xmlns:inkscape="http://www.inkscape.org/namespaces/inkscape"
   width="45.312946"
   height="59.517529"
   viewBox="0 0 45.312946 59.517529"
   version="1.1"
   id="svg48"
   sodipodi:docname="icon.svg"
   inkscape:version="0.92.4 (unknown)">
  <metadata
     id="metadata52">
    <rdf:RDF>
      <cc:Work
         rdf:about="">
        <dc:format>image/svg+xml</dc:format>
        <dc:type
           rdf:resource="http://purl.org/dc/dcmitype/StillImage" />
        <dc:title>Artboard</dc:title>
      </cc:Work>
    </rdf:RDF>
  </metadata>
  <sodipodi:namedview
     pagecolor="#ffffff"
     bordercolor="#666666"
     borderopacity="1"
     objecttolerance="10"
     gridtolerance="10"
     guidetolerance="10"
     inkscape:pageopacity="0"
     inkscape:pageshadow="2"
     inkscape:window-width="1422"
     inkscape:window-height="750"
     id="namedview50"
     showgrid="false"
     fit-margin-top="0"
     fit-margin-left="0"
     fit-margin-right="0"
     fit-margin-bottom="0"
     inkscape:zoom="1.57"
     inkscape:cx="139.99986"
     inkscape:cy="21.983233"
     inkscape:window-x="71"
     inkscape:window-y="182"
     inkscape:window-maximized="0"
     inkscape:current-layer="svg48" />
  <!-- Generator: Sketch 47.1 (45422) - http://www.bohemiancoding.com/sketch -->
  <title
     id="title2">Artboard</title>
  <desc
     id="desc4">Created with Sketch.</desc>
  <defs
     id="defs10">
    <polygon
       id="path-1"
       points="78.735441,35.769511 0.1968386,35.769511 0.1968386,0.12518469 78.735441,0.12518469 " />
    <polygon
       id="path-3"
       points="0.00013976706,0.28139767 0.00013976706,59.79874 45.313085,59.79874 45.313085,0.28139767 " />
    <polygon
       id="path-5"
       points="0.17270549,15.840266 0.17270549,0.16450582 11.924319,0.16450582 11.924319,15.840266 " />
    <polygon
       id="path-7"
       points="279.53411,75.658702 279.53411,0.46589018 0,0.46589018 0,75.658702 " />
    <mask
       fill="white"
       id="mask-8">
      <use
         height="100%"
         width="100%"
         y="0"
         x="0"
         id="use33"
         xlink:href="#path-7" />
    </mask>
  </defs>
  <g
     style="fill:none;fill-rule:evenodd;stroke:none;stroke-width:1"
     transform="translate(-1.3976705e-4,-0.28121131)"
     id="Group-8">
    <mask
       fill="white"
       id="mask-4">
      <use
         height="100%"
         width="100%"
         y="0"
         x="0"
         id="use19"
         xlink:href="#path-3" />
    </mask>
    <g
       id="Clip-7" />
    <path
       style="fill:#4cbebc"
       inkscape:connector-curvature="0"
       mask="url(#mask-4)"
       id="Fill-6"
       d="m 14.616978,19.198216 c -0.163993,0.153278 -0.168186,0.40812 -0.0098,0.566989 l 2.224625,2.224625 c 0.145824,0.145824 0.38995,0.150949 0.542296,0.01211 1.394876,-1.268153 3.248187,-2.04153 5.281797,-2.04153 2.034077,0 3.887388,0.773377 5.282263,2.04153 0.152346,0.138836 0.396007,0.133711 0.542296,-0.01211 l 2.22416,-2.224625 c 0.158869,-0.158869 0.154676,-0.413711 -0.0093,-0.566989 -2.107687,-1.96792 -4.935174,-3.173644 -8.039401,-3.173644 -3.10376,0 -5.931247,1.205724 -8.038935,3.173644 z M 44.530389,11.432759 29.137378,26.82577 c -3.564992,3.564992 -9.397937,3.564992 -12.962463,0 L 0.78236938,11.432759 C 0.49351747,11.143907 1.3976705e-4,11.348433 1.3976705e-4,11.757018 v 27.294177 c 0,1.04406 0.60379367295,2.502296 1.34222963295,3.240732 L 16.174915,57.124938 c 3.564526,3.564992 9.397471,3.564992 12.962463,4.66e-4 L 43.970389,42.291927 c 0.738436,-0.738436 1.342696,-2.196672 1.342696,-3.240732 V 11.757018 c 0,-0.408585 -0.493844,-0.613111 -0.782696,-0.324259 z m -10.48579,4.992479 2.226023,-2.226023 c 0.157471,-0.157471 0.152812,-0.41045 -0.0079,-0.564659 -3.534709,-3.393078 -8.331514,-5.4816641 -13.606789,-5.4816641 -5.275274,0 -10.071613,2.0885861 -13.6063223,5.4816641 -0.1607321,0.154209 -0.165391,0.407188 -0.00792,0.564659 l 2.2255573,2.226023 c 0.148619,0.148153 0.395541,0.152812 0.547421,0.0084 2.823294,-2.690982 6.642662,-4.344892 10.841264,-4.344892 4.198603,0 8.018436,1.65391 10.841731,4.344892 0.151414,0.144426 0.398802,0.139767 0.546955,-0.0084 z M 5.7026356,10.86018 c 0.1495508,0.14955 0.3978702,0.153744 0.5497504,0.0065 4.249384,-4.114276 10.03574,-6.6496504 16.403527,-6.6496504 6.367787,0 12.154609,2.5353744 16.403994,6.6496504 0.15188,0.147222 0.4002,0.143028 0.54975,-0.0065 L 41.834749,8.6350882 C 41.988958,8.4808785 41.989424,8.2283661 41.832885,8.07602 36.871621,3.2545225 30.104566,0.28121131 22.655913,0.28121131 15.207727,0.28121131 8.4406722,3.2545225 3.4794077,8.07602 3.3228686,8.2279002 3.3228686,8.4808785 3.4775441,8.6350882 Z" />
  </g>
  <g
     style="fill:none;fill-rule:evenodd;stroke:none;stroke-width:1"
     id="Clip-17"
     transform="translate(-1.3976705e-4,-0.46570431)" />
</svg>
