<svg xmlns="http://www.w3.org/2000/svg" viewBox="0 0 246.96 242.808"><linearGradient id="A" x1="199.533" x2="39.679" y1="201.907" y2="42.053" gradientUnits="userSpaceOnUse"><stop offset="0" stop-color="#130036"/><stop offset=".23" stop-color="#18023b"/><stop offset=".512" stop-color="#26094a"/><stop offset=".821" stop-color="#3d1563"/><stop offset="1" stop-color="#4e1d75"/></linearGradient><path fill="url(#A)" d="M188.887 35.492c-14.5-9.472-33.046-12.538-43.28-13.61-10.954-1.145-20.468-.943-28.836.285l-2.127-.037c-.544 0-1.08.023-1.627.03.225-.275.38-.445.38-.445s-.44.07-1.304.46c-2.717.044-5.42.138-8.085.32 3.71-4.068 6.75-6.2 6.75-6.2s-3.608.528-10.192 6.496c-3.132.288-6.22.67-9.258 1.145 6.918-9.362 14.155-13.304 14.155-13.304s-8.772-1.786-22.507 12.016a60.522 60.522 0 0 0-3.246 3.572c-40.03 9.687-68.68 35.538-68.68 65.92 0 5.958-1.83 12.51.143 19.054-.788 10.453.9 38.975.9 38.975s10.837 58.65 52.5 68.846c.662.158-8.707-14.62-12.85-32.442 8.07 8.208 17.685 14.7 28.478 15.824 1.325.137-6.165-8.64-12.725-19.234l94.698 31.906c49.53-21.274 43.763-19.357 54.397-30.875 23.428-25.36 26.708-39.75 20.806-82.235-3.993-28.68-25.16-57.083-48.49-66.466z"/><path fill="#fbfbfb" d="M22.687 62.276L8.546 142.68l7.84 24.294 156.524 52.04L201.94 95.59z"/><path d="M23.128 65c.785 1.69.554 2.09.065 2.09-.22 0-.492-.08-.747-.16s-.494-.16-.648-.16c-.433 0-.19.64 2.263 3.72 3.468 4.406 54.4 81.293 57.182 81.293a.125.125 0 0 0 .04-.006l124.543-43.058-10.316-15.03L23.128 65" fill="#999"/><path fill="#f8f8f8" d="M24.607 63.12s.76 3.932 4.28 8.284c3.5 4.392 50.5 75.57 52.87 74.944 30.795-8.176 142.525-51.674 142.525-51.674L24.607 63.12z"/><path d="M167.32 217.16L18.568 167.703l.526 3.475 149.882 49.834z" fill="#999"/><linearGradient id="B" x1="10.243" x2="57.704" y1="95.311" y2="95.311" gradientUnits="userSpaceOnUse"><stop offset="0" stop-color="#3156a8"/><stop offset=".247" stop-color="#3351a4"/><stop offset=".536" stop-color="#3b4397"/><stop offset=".845" stop-color="#472c82"/><stop offset="1" stop-color="#4e1d75"/></linearGradient><path fill="url(#B)" d="M57.704 59.795s-54.122 15.85-29.288 71.033c0 0-11.387-10.426-18.167-23.757-.305-.597 11.3-41.83 11.3-41.83l36.154-5.447z"/><radialGradient id="C" cx="59.073" cy="113.923" r="85.247" gradientTransform="matrix(1 0 0 1.45 0 -51.265)" gradientUnits="userSpaceOnUse"><stop offset=".165" stop-color="#14cdda"/><stop offset=".548" stop-color="#2061bd"/><stop offset=".655" stop-color="#2658ac"/><stop offset=".864" stop-color="#373f81"/><stop offset="1" stop-color="#432d62"/></radialGradient><path fill="url(#C)" d="M28.416 130.828c-4.707-.08-12.27-3.964-14.722-8.665-3.066 51.098 17.782 80.94 50.88 96.853C53.76 217.776 0 189.407 0 121.14 0 63.093 46.06 11.208 118.142 8.83c.442 3.254-35.736 11.414-36.893 15.25-1.796 5.972-5.924 12.473-9.406 17.684-4.718 7.06 6.557 13.1-1.73 15-12.468 2.86-29.098 1.277-41.36 17.22-18.434 23.965-6.133 51.38-.337 56.842z"/><linearGradient id="D" x1="44.539" x2="191.515" y1="57.898" y2="57.898" gradientUnits="userSpaceOnUse"><stop offset="0" stop-color="#2061bd"/><stop offset=".185" stop-color="#2b51ac"/><stop offset=".683" stop-color="#442c84"/><stop offset=".941" stop-color="#4e1d75"/></linearGradient><path fill="url(#D)" d="M137.048 10.7C90.366 7.117 66.34 25.796 50.918 47.516c-5.617 7.906-5.002 15.166-3.068 23.937.83 3.744 1.67 5.538.66 9.355-.558 2.106-.465 4.072-1.158 5.314-.96 1.717-2.18 3.594-2.59 6.677-1.022 7.7 1.703 10.15 3.406 12.74 2.426-2.41 7.165-8.08 15.7-11.466s14.167-8.477 24.876-13.94c14.632-7.463 31.782 3.86 64.3-6.796 10.006-3.28 33.002-37.344 38.46-38.652-15.203-16.812-41.067-22.96-54.467-23.986z"/><path fill="#3f6499" d="M106.207.032s-8.335 4.026-11.965 11.3c8.38-4.225 13.246-6.533 15.546-6.808 0 0-2.203 1.067-4.935 6.87 4.83-1.547 6.493-2.522 7.82-2.537 0 0-.385.6-.737 6.402-7.417-2.404-21.693.397-29.287 5.153-2.576-13.735 23.56-20.38 23.56-20.38z"/><linearGradient id="E" x1="66.174" x2="167.264" y1="23.206" y2="111.082" gradientUnits="userSpaceOnUse"><stop offset=".02" stop-color="#48a8e0"/><stop offset=".388" stop-color="#2061bd"/><stop offset=".497" stop-color="#2b51ac"/><stop offset=".789" stop-color="#442c84"/><stop offset=".941" stop-color="#4e1d75"/></linearGradient><path fill="url(#E)" d="M139.38 8.63c-14.31-1.854-26.27-1.49-36.44.47 3.198-3.065 6.898-4.575 6.898-4.575-4.795.424-10.78 3.554-15.917 6.868a71.737 71.737 0 0 0-7.39 2.799c1.43-1.885 3.094-3.9 4.72-5.445C97.3 3.004 106.257.032 106.257.032 98.603-.53 72.99 6.027 57.576 37.245c-2.526 3.077-4.883 6.235-7.13 9.398-5.798 8.164-5.162 15.658-3.162 24.715.852 3.867 1.01 10.04.168 14.03-.168.8-2.363 2.863-2.926 8.428-.602 5.905 1.505 8.804 3.582 11.203 7.38-10.792 14.66-12.93 14.66-12.93 10.33-4.232 14.63-8.752 25.688-14.393 15.108-7.71 67.94 17.45 101.512 6.448 10.332-3.384-3.977-47.36 1.663-48.71-15.7-17.36-38.494-25.02-52.254-26.803z"/><linearGradient id="F" x1="19.676" x2="217.835" y1="337.414" y2="43.631" gradientUnits="userSpaceOnUse"><stop offset=".379" stop-color="#3156a8"/><stop offset="1" stop-color="#4e1d75"/></linearGradient><path fill="url(#F)" d="M244.176 103.288C235.9 60.05 196.08 20.716 164.06 18.536c-14.21-.968-9.847 6.32-18.74 9.094-38.32 11.96-38.906 18.94-38.906 18.94 81.252 3.82 82.484 84.064 60.724 104.366 6.123-1.428 12.762-8.914 18.86-20.666-.732 4.93-1.36 10.98-2.274 17.73-2.788 20.595.823 63.614-58.356 92.405 0 0 32.372-2.646 48.425-20.717-6.528 15.012-24.44 23.12-24.44 23.12 13.182-1.928 47.8-12.146 69.868-39.732 24.966-31.225 32.474-60.52 24.957-99.79z"/><linearGradient id="G" x1="96.745" x2="206.317" y1="278.646" y2="32.542" gradientUnits="userSpaceOnUse"><stop offset="0" stop-color="#29abe2"/><stop offset=".773" stop-color="#385aa6"/><stop offset=".858" stop-color="#414293"/><stop offset="1" stop-color="#4e1d75"/></linearGradient><path fill="url(#G)" d="M164.993 182.22s26.396-7.38 34.903-21.633c-1.032 16.62-16.107 33.662-16.107 33.662s22.038-4.46 31.436-19.968c-1.224 13.994-18.19 32.907-18.19 32.907 17.346-3.113 60.93-30.645 47.143-103.9-8.142-43.262-48.096-82.572-80.117-84.752-14.21-.968-9.847 6.32-18.74 9.094-38.32 11.96-38.906 18.94-38.906 18.94 81.252 3.82 102.844 46.344 60.724 103.23 6.123-1.43 8.578-4.794 13.178-10.3-.002 0 2.084 21.78-15.324 42.72z"/><linearGradient id="H" x1="48.269" x2="54.241" y1="92.034" y2="95.468" gradientUnits="userSpaceOnUse"><stop offset="0" stop-color="#b0dcd6"/><stop offset="1" stop-color="#53ace0"/></linearGradient><path fill="url(#H)" d="M60.61 85.567s-4.72 3.3-8.136 2.46c-4.045-.993-4.73-4.913-4.73-4.913l-.34 2.273c-.168.8-2.363 2.863-2.926 8.428-.602 5.905 1.615 9.325 3.692 11.724C55.55 94.747 62.72 92.087 62.72 92.087c-2.81-.982-2.11-6.52-2.11-6.52z"/><defs><filter id="I" width="14.927" height="6.629" x="162.68" y="18.355" filterUnits="userSpaceOnUse"><feColorMatrix values="1 0 0 0 0 0 1 0 0 0 0 0 1 0 0 0 0 0 1 0"/></filter></defs><mask id="J" width="14.927" height="6.629" x="162.68" y="18.355" maskUnits="userSpaceOnUse"><g filter="url(#I)"><radialGradient id="K" cx="154.384" cy="67.999" r="51.968" gradientUnits="userSpaceOnUse"><stop offset=".868" stop-color="#fff"/><stop offset="1"/></radialGradient><path fill="url(#K)" d="M91.295-7.218H191.3v93.34H91.295z"/></g></mask><g mask="url(#J)" opacity=".6"><g opacity=".2"><linearGradient id="L" x1="176.214" x2="164.24" y1="23.085" y2="20.555" gradientUnits="userSpaceOnUse"><stop offset="0" stop-color="#3092b9"/><stop offset=".22" stop-color="#258db6"/><stop offset=".656" stop-color="#1685b1"/><stop offset="1" stop-color="#1082af"/></linearGradient><path fill="url(#L)" d="M163.513 18.434c1.106-.287 5.62.204 8.584 1.533s8.073 3.68 3.986 4.7-6.438-.613-8.482-2.35-6.847-3.168-4.088-3.883z"/></g></g><linearGradient id="M" x1="80.784" x2="90.637" y1="38.025" y2="77.544" gradientUnits="userSpaceOnUse"><stop offset=".007" stop-color="#1398d1" stop-opacity="0"/><stop offset=".248" stop-color="#1187c2" stop-opacity=".62"/><stop offset=".642" stop-color="#3f6499" stop-opacity=".7"/><stop offset="1" stop-color="#2f4282" stop-opacity=".5"/></linearGradient><path fill="url(#M)" d="M61.05 84.92S86.94 42.26 110.343 30.746c2.173-1.093-32.405 9.19-46.32 24.55-8.27 9.13-3.89 27.002-2.972 29.625z"/><path fill="#f2f2f2" d="M61.05 84.92l.075-.045C67.82 80.74 79.292 78.358 83 70.86c14.237-28.87 27.354-40.115 27.354-40.115C86.94 42.26 61.05 84.92 61.05 84.92z" opacity=".1"/><path fill="#2f4282" d="M63.512 77.118s-4.666-7.16 2.053-13.687c3.546-3.44 8.92-1.53 9.54-.9 2.644 2.622.982 8.156-1.398 11.288-1.345 1.764-5.26 4.5-10.195 3.31z"/><linearGradient id="N" x1="72.609" x2="67.18" y1="72.747" y2="69.487" gradientUnits="userSpaceOnUse"><stop offset="0" stop-color="#f9c21b"/><stop offset=".148" stop-color="#f3ba1b"/><stop offset=".379" stop-color="#e3a41b"/><stop offset=".663" stop-color="#c9801c"/><stop offset=".988" stop-color="#a44e1c"/><stop offset="1" stop-color="#a34c1c"/></linearGradient><path fill="url(#N)" d="M66.187 76.674s-3.224-4.95 1.422-9.46c2.446-2.376 6.16-1.056 6.592-.63 1.826 1.812.676 5.637-.968 7.8-.93 1.223-3.635 3.12-7.046 2.29z"/><path d="M72.623 71.393c-.072 1.978-1.746 3.522-3.738 3.454s-3.558-1.726-3.487-3.704 1.744-3.52 3.74-3.453 3.553 1.727 3.484 3.703z"/><circle cx="66.725" cy="70.287" r="1.136" fill="#fff"/><linearGradient id="O" x1="206.211" x2="169.43" y1="130.139" y2="47.526" gradientUnits="userSpaceOnUse"><stop offset="0" stop-color="#409ec3"/><stop offset=".62" stop-color="#2061bd"/></linearGradient><path fill="url(#O)" d="M228.505 65c-17.72-26.976-31.76-33.83-31.76-33.83s.645 19.65 10.484 29.128c1.124 1.083-11.774-8.432-11.774-8.432s-2.758 9.076 3.562 19.5c-1.836-2.44-3.05-3.363-3.05-3.363s-11.908 5.49-15.423 13.11c-1.815-3.426-3.176-5.444-3.176-5.444s-8.236 16.437-7.2 35.495c1.684 30.988-5.803 42.404-5.803 42.404s20.057-7.695 29.676-32.468c3.974 10.533-.12 21.62-.12 21.62s16.206-12.11 19.69-34.18c3.863 6.23 2.727 18.664 2.727 18.664s10.344-14.402 10.596-30.086c4.794 3.343 5.235 16.4 5.235 16.4s15.336-19.606-3.66-48.524z"/><linearGradient id="P" x1="176.76" x2="150.407" y1="103.061" y2="21.954" gradientUnits="userSpaceOnUse"><stop offset="0" stop-color="#14b2da"/><stop offset=".403" stop-color="#297ccc"/><stop offset=".508" stop-color="#256fc5"/><stop offset=".649" stop-color="#2164bf"/><stop offset=".816" stop-color="#2061bd"/><stop offset=".984" stop-color="#2061bd"/></linearGradient><path fill="url(#P)" d="M211.282 46.158c-4.63-8.63-12.803-14.13-19.986-18.582C173.387 16.47 161.87 14.91 161.87 14.91s-16.528 3.074-13.69 7.672c.146.236.487.535.968.877-14.498-6.678-22.722 8.677-22.722 8.677-8.284-.503-18.37 3.575-21.312 14.5-.305 1.134 3.71.496 5.777.945 12.08 2.626 23.45 8.32 28.675 11.134 12.154 6.548 19.365 17.45 23.528 25.63 5.037 9.894 7.094 27.304 7.094 27.304s13.253-18.205 10.086-27.552c5.25 3.26 6.285 14.89 6.285 14.89s8.835-13.838 6.223-25.89c6.815 4.153 7.042 12.6 7.042 12.6s6.94-9.63 3.803-25.427c6.858 5.453 8.293 12.517 8.293 12.517s5.606-14.993-.638-26.63z"/></svg>