<svg xmlns="http://www.w3.org/2000/svg" width="283.464" height="283.463"><path d="M283.464 141.728c0 78.28-63.45 141.735-141.73 141.735S0 220.007 0 141.728 63.457 0 141.735 0s141.73 63.453 141.73 141.728z" fill="#e95420"/><path d="M68.176 141.728a18.23 18.23 0 0 1-18.23 18.225c-10.06 0-18.218-8.16-18.218-18.225s8.16-18.22 18.218-18.22c10.07 0 18.23 8.16 18.23 18.22zm103.674 88.606c5.033 8.71 16.173 11.696 24.89 6.67a18.23 18.23 0 0 0 6.669-24.895 18.22 18.22 0 1 0-31.558 18.225zm31.557-158.982c5.032-8.717 2.052-19.86-6.67-24.887-8.7-5.032-19.855-2.046-24.89 6.667s-2.046 19.857 6.67 24.89a18.22 18.22 0 0 0 24.888-6.669zm-61.672 18.413c27.153 0 49.434 20.814 51.76 47.364l26.372-.416c-1.252-19.727-9.81-37.47-22.995-50.55-6.98 2.693-15.08 2.327-22.066-1.7-6.992-4.037-11.36-10.87-12.514-18.275-6.554-1.78-13.448-2.733-20.558-2.733-12.47 0-24.26 2.916-34.727 8.103L119.84 94.6c6.65-3.1 14.077-4.825 21.895-4.825zm-51.97 51.963c0-17.577 8.734-33.12 22.097-42.52l-13.54-22.634c-15.684 10.474-27.367 26.45-32.296 45.183 5.833 4.697 9.57 11.897 9.57 19.972s-3.738 15.28-9.57 19.978c4.93 18.73 16.612 34.708 32.296 45.188l13.54-22.634c-13.363-9.406-22.097-24.944-22.097-42.533zm51.97 51.973c-7.817 0-15.244-1.734-21.895-4.83l-12.832 23.043c10.468 5.19 22.255 8.104 34.727 8.104 7.11 0 14.004-.946 20.558-2.73 1.154-7.41 5.52-14.243 12.514-18.273 6.987-4.037 15.086-4.404 22.066-1.71 13.187-13.088 21.743-30.83 22.995-50.557l-26.372-.41c-2.328 26.543-24.608 47.362-51.76 47.362z" fill="#fff"/></svg>
