<svg xmlns="http://www.w3.org/2000/svg" xmlns:xlink="http://www.w3.org/1999/xlink" height="64" width="65"><defs><linearGradient id="A" x1="46.37" y1="4.29" x2="15.42" y2="57.89" xlink:href="#G"><stop offset="0" stop-color="#ff980e"/><stop offset=".21" stop-color="#ff7139"/><stop offset=".36" stop-color="#ff5854"/><stop offset=".46" stop-color="#ff4f5e"/><stop offset=".69" stop-color="#ff3750"/><stop offset=".86" stop-color="#f92261"/><stop offset="1" stop-color="#f5156c"/></linearGradient><linearGradient id="B" x1="46.37" y1="4.29" x2="15.42" y2="57.89" xlink:href="#G"><stop offset="0" stop-color="#fff44f" stop-opacity=".8"/><stop offset=".09" stop-color="#fff44f" stop-opacity=".7"/><stop offset=".75" stop-color="#fff44f" stop-opacity="0"/></linearGradient><linearGradient id="C" x1="40.19" y1="37.92" x2="54.32" y2="13.45" xlink:href="#G"><stop offset="0" stop-color="#3a8ee6"/><stop offset=".24" stop-color="#5c79f0"/><stop offset=".63" stop-color="#9059ff"/><stop offset="1" stop-color="#c139e6"/></linearGradient><linearGradient id="D" x1="54.32" y1="13.42" x2="48.39" y2="23.69" xlink:href="#G"><stop offset="0" stop-color="#6e008b" stop-opacity=".5"/><stop offset=".5" stop-color="#c846cb" stop-opacity="0"/></linearGradient><linearGradient id="E" x1="56.96" y1="41.5" x2="41.98" y2="26.54" xlink:href="#G"><stop offset=".14" stop-color="#6a2bea" stop-opacity="0"/><stop offset=".34" stop-color="#642de4" stop-opacity=".03"/><stop offset=".55" stop-color="#5131d3" stop-opacity=".12"/><stop offset=".76" stop-color="#3139b7" stop-opacity=".27"/><stop offset=".98" stop-color="#054490" stop-opacity=".48"/><stop offset="1" stop-color="#00458b" stop-opacity=".5"/></linearGradient><path id="F" d="M32.56 0C14.6 0 0 14.33 0 31.94a3.42 3.42 0 0 0 3.42 3.42h25.72V52.3l-8-8a3.42 3.42 0 1 0-4.84 4.84L30.14 63a2.73 2.73 0 0 0 .25.23l.23.17h.05l.24.14.27.13.28.1.3.07.25.16h1.27l.3-.07.3-.1.27-.13.24-.14.24-.17.4-.4 13.8-13.82a3.43 3.43 0 0 0-4.8-4.84l-8 8v-17h25.7a3.42 3.42 0 0 0 3.42-3.42h0C65.12 14.33 50.5 0 32.56 0zM7.1 28.5A25.54 25.54 0 0 1 32.56 6.85 25.55 25.55 0 0 1 58 28.51z"/><linearGradient id="G" gradientUnits="userSpaceOnUse"/></defs><use xlink:href="#F" fill="url(#A)"/><use xlink:href="#F" fill="url(#B)"/><path d="M36 7.08a25.45 25.45 0 0 1 22 21.43H42.85A6.85 6.85 0 0 0 36 35.36h25.7a3.43 3.43 0 0 0 3.42-3.43c0-12.2-8.63-18.13-16-21.6A35.75 35.75 0 0 0 36 7.08z" fill="url(#C)"/><path d="M57.9 27.76l6.9 5.6a3.27 3.27 0 0 0 .33-1.44c0-12.2-8.63-18.13-16-21.6A35.75 35.75 0 0 0 36 7.08a25.47 25.47 0 0 1 21.89 20.68z" fill="url(#D)"/><path d="M57.5 28.5H42.85A6.85 6.85 0 0 0 36 35.36h25.7a3.36 3.36 0 0 0 2.64-1.28L57.5 28.5z" opacity=".9" fill="url(#E)"/></svg>