<svg xmlns="http://www.w3.org/2000/svg" xmlns:xlink="http://www.w3.org/1999/xlink" viewBox="0 0 64.468 64.468"><style><![CDATA[.B{filter:url(#e)}]]></style><defs><linearGradient id="A" xlink:href="#f"><stop offset="0" stop-color="#38c102"/><stop offset="1" stop-color="#bced02"/></linearGradient><linearGradient id="B" xlink:href="#f"><stop offset="0" stop-color="#009a01"/><stop offset="1" stop-color="#01d901"/></linearGradient><linearGradient id="C" xlink:href="#f"><stop offset="0" stop-color="#5a1898"/><stop offset="1" stop-color="#971ec6"/></linearGradient><linearGradient id="D" xlink:href="#f"><stop offset="0" stop-color="#053980"/><stop offset="1" stop-color="#0293e4"/></linearGradient><linearGradient id="E" xlink:href="#f"><stop offset="0" stop-color="#151b92"/><stop offset="1" stop-color="#1526c3"/></linearGradient><linearGradient id="F" xlink:href="#f"><stop offset="0" stop-color="#f18e01"/><stop offset="1" stop-color="#ffd02b"/></linearGradient><linearGradient id="G" xlink:href="#f"><stop offset="0" stop-color="#d91566"/><stop offset="1" stop-color="#fc12aa"/></linearGradient><linearGradient id="H" xlink:href="#f"><stop offset="0" stop-color="#f8bc00"/><stop offset="1" stop-color="#ffe309"/></linearGradient><linearGradient id="I" xlink:href="#f"><stop offset="0" stop-color="#0193be"/><stop offset="1" stop-color="#01d4ed"/></linearGradient><linearGradient id="J" xlink:href="#f"><stop offset="0" stop-color="#fd4c0b"/><stop offset="1" stop-color="#feab27"/></linearGradient><linearGradient id="K" x1="605.35" x2="533.405" y1="464.812" y2="467.17" xlink:href="#F" /><linearGradient id="L" x1="603.741" x2="543.992" y1="499.988" y2="501.206" xlink:href="#H" /><linearGradient id="M" x1="549.513" x2="522.689" y1="584.118" y2="537.433" xlink:href="#A" /><linearGradient id="N" x1="520.794" x2="497.406" y1="606.182" y2="542.635" xlink:href="#B" /><linearGradient id="O" x1="448.89" x2="490.715" y1="586.619" y2="537.564" xlink:href="#I" /><linearGradient id="P" x1="415.838" x2="466.186" y1="549.536" y2="519.066" xlink:href="#D" /><linearGradient id="Q" x1="106.698" x2="120.295" y1="165.086" y2="164.504" xlink:href="#E" /><linearGradient id="R" x1="421.28" x2="458.232" y1="445.272" y2="481.242" xlink:href="#C" /><linearGradient id="S" x1="449.883" x2="476.445" y1="416.172" y2="461.113" xlink:href="#G" /><linearGradient id="T" x1="548.577" x2="515.673" y1="415.315" y2="462.361" xlink:href="#J" /><linearGradient id="U" x1="567.669" x2="597.991" y1="421.707" y2="477.351" xlink:href="#F" /><linearGradient id="V" x1="598.253" x2="599.423" y1="464.368" y2="530.275" xlink:href="#H" /><linearGradient id="W" x1="517.669" x2="575.068" y1="595.86" y2="566.707" xlink:href="#A" /><linearGradient id="X" x1="464.161" x2="538.253" y1="601.384" y2="601.969" xlink:href="#B" /><linearGradient id="Y" x1="422.406" x2="483.253" y1="564.63" y2="602.876" xlink:href="#I" /><linearGradient id="Z" x1="402.669" x2="436.822" y1="513.198" y2="579.952" xlink:href="#D" /><linearGradient id="a" x1="407.669" x2="404.745" y1="535.537" y2="467.876" xlink:href="#E" /><linearGradient id="b" x1="402.084" x2="434.161" y1="482.614" y2="423.461" xlink:href="#C" /><linearGradient id="c" x1="481.237" x2="420.652" y1="400.537" y2="435.537" xlink:href="#G" /><linearGradient id="d" x1="516.499" x2="581.177" y1="397.614" y2="434.368" xlink:href="#J" /><filter id="e" width="2" height="2" x="-.5" y="-.5" color-interpolation-filters="sRGB"><feFlood flood-color="#fff" flood-opacity="0"/><feBlend in2="SourceGraphic"/><feComposite in2="SourceGraphic" k2="1.2" k4=".2" operator="arithmetic"/><feComposite in2="SourceGraphic" operator="in"/></filter><linearGradient id="f" gradientUnits="userSpaceOnUse"/></defs><g transform="matrix(.27202 0 0 .27202 -103.8 -103.772)"><path fill="url(#K)" d="M543.25 487.635l48.3-12.946-.023-.1-2.994-9.012a95 95 0 0 0-8.604-16.904l-5.523-7.725-6.268-7.134-1.697-1.583-35.334 35.334 1.164 1.084 2.97 3.38 2.617 3.658a45 45 0 0 1 2.237 3.902l1.837 4.105 1.31 3.942z"/><path fill="url(#L)" d="M543.54 511.148l48.24 12.926 1.325-5.2a95 95 0 0 0 1.42-9.39L595 500l-.238-6.72a95 95 0 0 0-1.145-9.426l-2.056-9.165-48.31 12.946.1.328a45 45 0 0 1 1.526 8.853L545 500a45 45 0 0 1-.896 8.939l-.565 2.2z"/></g><path fill="#fffb00" d="M40.907 40.84l9.612 9.61a25.842 25.842 0 0 0 1.457-1.564 25.842 25.842 0 0 0 2.913-4.259 25.842 25.842 0 0 0 2.01-4.752 25.842 25.842 0 0 0 .278-1.088L44.054 35.27a12.24 12.24 0 0 1-.15.585 12.24 12.24 0 0 1-.951 2.251 12.24 12.24 0 0 1-1.38 2.017 12.24 12.24 0 0 1-.666.715z"/><g transform="matrix(.27202 0 0 .27202 -103.8 -103.772)"><path fill="url(#M)" d="M511.707 543.434l12.936 48.275.77-.172 9-2.994 8.67-3.88a95 95 0 0 0 15.961-10.248l7.134-6.268 1.118-1.197-35.334-35.334-.62.664-3.378 2.97-3.66 2.615-3.902 2.24a45 45 0 0 1-8.375 3.255l-.33.075z"/><path fill="url(#N)" d="M488.367 543.416l-12.926 48.238 5.686 1.45A95 95 0 0 0 500 595l6.72-.238a95 95 0 0 0 9.426-1.145l8.497-1.908-12.936-48.275-4.06.912-4.464.54L500 545l-4.492-.225-4.447-.67-2.694-.688z"/><path fill="url(#O)" d="M468.25 531.846l-35.334 35.334 5.883 5.48 7.56 5.746 8.096 4.965 8.55 4.13a95 95 0 0 0 8.92 3.258l3.516.896 12.926-48.238L486.7 543a45 45 0 0 1-4.224-1.543l-4.05-1.957-3.834-2.35-3.582-2.722-2.76-2.572z"/><path fill="url(#P)" d="M456.607 511.887l-48.277 12.935.133.6a95 95 0 0 0 6.873 17.68 95 95 0 0 0 10.248 15.961 95 95 0 0 0 6.268 7.134l1.064.993 35.334-35.334-.53-.494a45 45 0 0 1-5.584-7.038l-2.24-3.902-1.837-4.105a45 45 0 0 1-1.418-4.27l-.034-.15z"/></g><path fill="url(#Q)" d="M120.552 161.66l-12.764-3.42-.35 1.376c-.62 3.053-.665 6.195-.136 9.265.136.773.326 1.576.534 2.333l12.797-3.43-.295-1.152a11.9 11.9 0 0 1 .064-4.389l.15-.584z" transform="matrix(1.0281 0 0 1.0281 -103.62 -137.028)"/><g transform="matrix(.27202 0 0 .27202 -103.8 -103.772)"><path fill="url(#R)" d="M467.7 468.75l-35.335-35.334-5.015 5.383-5.746 7.56-4.965 8.096a95 95 0 0 0-7.387 17.47l-1.02 4 48.24 12.927.55-2.15 1.543-4.225a45 45 0 0 1 4.307-7.885l2.722-3.582 2.107-2.26z"/><path fill="url(#S)" d="M487.46 456.81l-12.945-48.32-8.938 2.968-8.668 3.88-8.236 4.725a95 95 0 0 0-14.859 11.791l-1.458 1.564 35.334 35.334.96-1.03a45 45 0 0 1 3.378-2.969l3.66-2.615 3.902-2.24 4.105-1.837 3.766-1.25z"/></g><path fill="#ff0b0d" d="M38.628 7.24a25.842 25.842 0 0 0-1.283-.328 25.842 25.842 0 0 0-5.134-.516 25.842 25.842 0 0 0-4.392.377 25.842 25.842 0 0 0-2.52.565 25.842 25.842 0 0 0-.021.007L28.8 20.49a12.24 12.24 0 0 1 .137-.045 12.24 12.24 0 0 1 2.409-.416 12.24 12.24 0 0 1 .866-.03 12.24 12.24 0 0 1 2.432.243 12.24 12.24 0 0 1 .469.12z"/><g transform="matrix(.27202 0 0 .27202 -103.8 -103.772)"><path fill="url(#T)" d="M523.6 408.098l-12.926 48.24 2.635.672 4.224 1.543 4.05 1.955a45 45 0 0 1 7.416 5.074l2.127 1.982 35.334-35.334-5.25-4.9-7.56-5.746a95 95 0 0 0-16.646-9.094l-8.92-3.258-4.485-1.144z"/><path fill="url(#U)" d="M591.56 474.7l9.557-2.56a105 105 0 0 0-27.553-47.012l-7.113 7.113 1.697 1.583a95 95 0 0 1 11.791 14.859 95 95 0 0 1 8.604 16.904 95 95 0 0 1 2.994 9.012l.024.1z" class="B"/><path fill="url(#V)" d="M591.78 524.074l9.7 2.602A105 105 0 0 0 605 500a105 105 0 0 0-3.883-27.871l-9.556 2.56a95 95 0 0 1 3.201 18.59 95 95 0 0 1-.237 16.205 95 95 0 0 1-1.42 9.39 95 95 0 0 1-1.326 5.2z" class="B"/><path fill="#fffb00" d="M567.305 566.95l7.078 7.078a105 105 0 0 0 27.107-47.353l-9.7-2.602a95 95 0 0 1-1.022 4 95 95 0 0 1-7.387 17.47 95 95 0 0 1-10.711 15.657 95 95 0 0 1-5.355 5.75z" class="B"/><path fill="url(#W)" d="M524.643 591.71l2.566 9.576a105 105 0 0 0 47.174-27.256l-7.078-7.078-1.118 1.197a95 95 0 0 1-14.859 11.791 95 95 0 0 1-16.904 8.604 95 95 0 0 1-9.012 2.994l-.77.172z" class="B"/><path fill="url(#X)" d="M475.44 591.654l-2.605 9.727A105 105 0 0 0 500 605a105 105 0 0 0 27.209-3.715l-2.566-9.576a95 95 0 0 1-17.922 3.053 95 95 0 0 1-16.205-.237 95 95 0 0 1-9.39-1.42 95 95 0 0 1-5.685-1.45z" class="B"/><path fill="url(#Y)" d="M432.916 567.18l-7.07 7.07a105 105 0 0 0 46.99 27.13l2.605-9.726a95 95 0 0 1-3.515-.896 95 95 0 0 1-17.47-7.387 95 95 0 0 1-15.657-10.711 95 95 0 0 1-5.883-5.48z" class="B"/><path fill="url(#Z)" d="M408.33 524.822l-9.57 2.565a105 105 0 0 0 27.086 46.863l7.07-7.07-1.064-.992a95 95 0 0 1-11.791-14.86 95 95 0 0 1-8.604-16.904 95 95 0 0 1-2.994-9.012l-.133-.6z" class="B"/><path fill="url(#a)" d="M408.22 475.926l-9.7-2.602A105 105 0 0 0 395 500a105 105 0 0 0 3.76 27.387l9.57-2.565a95 95 0 0 1-3.092-18.101 95 95 0 0 1 .237-16.205 95 95 0 0 1 1.42-9.39 95 95 0 0 1 1.326-5.2z" class="B"/><path fill="url(#b)" d="M432.355 433.416l-7.103-7.103a105 105 0 0 0-26.742 47.011l9.7 2.602a95 95 0 0 1 1.022-4 95 95 0 0 1 7.387-17.47 95 95 0 0 1 10.711-15.657 95 95 0 0 1 5.015-5.383z" class="B"/><path fill="url(#c)" d="M474.514 408.488l-2.563-9.56a105 105 0 0 0-46.7 27.384l7.104 7.104 1.457-1.564a95 95 0 0 1 14.86-11.791 95 95 0 0 1 16.904-8.604 95 95 0 0 1 8.938-2.969z" class="B"/><path fill="#ff0b0d" d="M526.188 398.4A105 105 0 0 0 500 395a105 105 0 0 0-28.049 3.928l2.563 9.56.074-.025a95 95 0 0 1 18.691-3.225 95 95 0 0 1 16.205.237 95 95 0 0 1 9.39 1.42 95 95 0 0 1 4.716 1.203z" class="B"/><path fill="url(#d)" d="M526.188 398.4l-2.598 9.698 4.484 1.144 8.92 3.258 8.55 4.13a95 95 0 0 1 15.657 10.711l5.25 4.9 7.113-7.113a105 105 0 0 0-47.376-26.717z" class="B"/></g><g fill="none" stroke="#000" stroke-width=".264"><path d="M32.1 3.72c-15.808 0-28.623 12.815-28.623 28.624S16.293 60.968 32.1 60.968s28.624-12.815 28.624-28.623S47.9 3.72 32.1 3.72z" opacity=".7"/><path stroke-opacity=".932" d="M32.16 20.09c-6.717 0-12.164 5.446-12.164 12.164a12.17 12.17 0 0 0 12.165 12.165 12.17 12.17 0 0 0 12.165-12.165c0-6.718-5.447-12.164-12.165-12.164z" opacity=".7"/></g></svg>
