<svg xmlns="http://www.w3.org/2000/svg" viewBox="0 0 416.185 635.433" height="677.794" width="443.932"><g transform="matrix(4.161429 0 0 4.161429 56.89552 17.71664)"><path fill="#333" d="M81.112 104.35c0 22.97-22.022 31.07-41.758 30.56-21.918-.56-41.092-11.95-38.2-36.133 2.5-20.824 18.88-44.7 42.18-43.32 23.758 1.407 37.78 27.432 37.78 48.893"/><path d="M41.482 56.278c-22.668 0-37.95 23.9-39.64 44.332-1.95 23.64 18.663 33.43 39.47 33.43-18.877 0-39.17-8.46-38.22-30.27.9-20.892 17.266-37.366 38.374-37.366 20.104 0 35.56 14.75 37.217 34.666 1.9 22.88-16.798 32.97-37.34 32.97 20.093 0 39.72-9.34 38.83-32C79.355 81.142 64.8 56.288 41.48 56.288"/><path d="M12.218 70.282c-12.674 15.872-19.63 44.858.2 58.088 16.13 10.76 45.612 10.98 60.43-2.43 15.634-14.15 9.06-41.158-2.367-55.806-15.706-20.128-42.4-19.683-58.263.148M1.533 105.06c0-22.32 16.523-50.33 41.712-48.867C65.933 57.5 79.553 81.635 80.33 102.18c.823 21.82-17.098 31.45-36.808 31.97-18.83.5-41.988-6.56-41.988-29.1"/><path d="M41.482 55.84c21.28 0 35.308 21.513 37.542 40.673 2.584 22.156-12.88 34.196-33.755 35.336-18.738 1-42.75-5.85-42.75-28.48 0-20.73 14.254-45.895 36.962-47.47C16.736 57.44 2.1 82.076 1.273 102.88.32 126.56 23.13 135 43.327 134.47c20.956-.54 38.928-11.42 37.188-34.37-1.558-20.53-16.2-44.26-39.033-44.26"/><path fill="#f4f4f4" d="M57.242 59.462c-10.053-7.07-23.142-5.917-33.4.395 2.92 4.55 6.257 8.847 10.004 12.748 2.182 2.27 6.107 7.137 9.4 7.8 7.42 1.483 13.308-16.05 14.007-20.934"/><path fill="#fff" d="M33.73 74.7c0-2.667 19.45.125 21.36.54 2.826.618 4.326.97 3.703 4.046-.863 4.262-2.514 8.442-4.23 12.42-1.072 2.486-2.68 7.614-5.36 8.915-1.754.85-4.552-4.48-5.178-5.478-2.52-4.006-4.752-8.202-6.856-12.438-1.057-2.13-3.44-5.518-3.44-8.005"/><path d="M50.306 80.083c1.025 2.654 4.164 8.347 3.134 11.172-1.02 2.792-3.354 11.485-6.845 7.53-4.05-4.6-4.4-7.113-2.9-12.747 1.473-5.453 1.02-5.538 6.6-5.956"/><path d="M42.163 76.226c.972-.757 3.157-3.26 4.333-3.37.666-.063 4.45 1.736 4.52 2.338.805 6.936-6.652 6.4-8.852 1.033"/><path fill="#333" d="M45.896 72.08c-.843.658-5.12 3.253-4.773 4.154 1.115 2.9 3.563 5.877 7.026 5.354 7.033-1.066 3.92-10.754-2.253-9.508m.732 1.908l3.447 1.578c.1 1.628-.157 3.786-2.22 4.088-1.65.254-2.975-.854-3.853-2.102-1.198-1.702 1.3-2.52 2.625-3.564"/><path fill="#fff" d="M53.317 64.2a33.1 33.1 0 0 1-11.866 2.194c-4.66 0-8.498-2-12.785-.148 2.87 5.048 5.976 9.966 9.083 14.87 1.63-1.888 6.117-7.502 8.946-7.766 2.743-.256 8.024 4.145 9.965 5.62a72.39 72.39 0 0 0 1.716-8.896c.468-3.64-2.208-4.042-5.06-5.874"/><path fill="#ccc" d="M45.104 57.795l-21.838 9.472c4.505 5.992 8.5 12.17 12.502 18.506 2.708-4.196 8.405-12.517 13.745-9.804 1.9.964 9.105 7.367 10.564 6.923 2.576-.793 3.386-7.814 3.84-9.926 1.025-4.785-3.376-5.56-7.26-8.054-3.342-2.148-7.805-6.243-11.554-7.117m.182 1.26l17.68 11.35c.78.503-1.822 10.323-3.192 11.26-2.293-2.257-9.366-8.7-13.08-8.305-3.65.395-9.02 7.624-10.88 10.212C32.4 78.16 29 72.887 25.175 67.767l20.1-8.713"/><path d="M26.16 63.675c6.3 12.5 14.626 24.167 22.325 35.825 5.254-7.044 8.396-15.868 10.073-24.4.752-3.822 1.194-7.703 1.338-11.597.02-.556 3.85 2.53 4.052 2.727 1.376 1.342 3.988 3.792 3.633 5.985-.356 2.184-5.213 2.658-5.213 4.306 0 2.016 7.43.88 5.748 4.48-1.812 3.873-4.862 7.383-7.648 10.573-3.15 3.6-9.47 12.146-14.17 9.426-5.917-3.434-11.75-7.193-16.956-11.65-.94-.802-5.203-3.792-4.025-5.433.88-1.227 8.026-5.6 4.3-6.47-2.94-.687-9.074-.06-8.876-4.505.154-3.5 3.064-6.863 5.4-9.257"/><path fill="#4d4d4d" d="M25.48 62.978c-2.604 2.552-5.714 6.318-5.714 10.156 0 5.27 6.525 4.285 10.002 5.364-4.3 5.584-7.897 5.598-1.545 11.182 2.894 2.546 6.04 4.8 9.235 6.952 2.125 1.428 8.785 7.158 11.255 6.858 2.02-.25 5.28-3.983 6.715-5.313 3.395-3.138 6.506-6.597 9.314-10.268 4.098-5.354 6.995-8.8-.77-11.52 5.012-3 5.754-5.466 1.575-9.95-1.213-1.302-3.464-3.907-5.397-4.068-2.053-.17-1.658 6.894-1.846 8.275-1.295 9.48-4.398 19.144-9.8 27.126-7.632-11.58-16.056-23.216-22.08-35.736l-.953.942m3.077 19.262c5.292-4.338 2.814-5.52-2.76-6.4-6.87-1.065-3.045-6.94.138-10.508 6.614 12.334 14.61 24.05 22.364 35.688-6.03-3.428-11.94-7.184-17.313-11.58-3.3-2.693-6.337-4-2.432-7.2M49.24 100.1c7.674-9.5 10.9-23.438 11.55-35.298 2.443 1.75 8.326 6.3 4.105 8.817-8.143 4.878 1.146 2.842 2.563 6.443-.484 3.23-4.614 7.163-6.588 9.508-3.466 4.118-7.692 9.055-12.402 11.53l.773-1"/><path fill="#fcd095" d="M72.6 35.625c0 16.82-14.704 29.945-31.16 29.945S10.3 52.445 10.3 35.625s14.695-29.96 31.16-29.96S72.6 18.8 72.6 35.625"/><path fill="#ffe2ae" d="M20.552 24.38c7.105-8.318 19.498-10.375 29.683-7.564 11.167 3.082 16.838 12.1 18.526 23.097C71.243 23.574 57.6 9.406 41.45 9.406c-16.17 0-29.785 14.18-27.3 30.52.843-5.476 2.77-11.272 6.4-15.547"/><path fill="#fabb78" d="M71.5 32.017C69.76 45.32 62.46 55.493 48.56 57.92c-17 2.973-34.852-7.9-37.146-25.9C8.908 50.48 25.44 65.816 43.44 64.688c16.633-1.042 30.213-15.796 28.05-32.67"/><path fill="#c48e53" d="M63.622 10c5.32 5.408 8.267 10.125 8.58 18.137-.016-.474-6-5.62-6.912-6.364-2.24-1.828-4.825 2.076-7.013 3.194-5.53 2.83-13.938 4.986-20.032 2.97-3.257-1.076-7.037-3.26-10.565-2.187-2.042.622-3.348 2.404-4.157 4.288-.822 1.9-.94 9.577-2.182 10.387-.472.305-4.476-8.778-5-9.587-6.5-9.828-6.333 7.344-5.56 7.15-4.173 1.04-.913-16.605-.296-18 2.93-6.58 8.27-11.66 14.725-14.747C36.876-.337 54.107.256 63.622 10"/><path fill="url(#linearGradient24614)" d="M8.384 30.3c.077 1.786 1.136 3.766 1.136 5.424-.226-.53 1 2.457 1.264 2.265.4-2.72-1.855-5.035-2.4-7.7m55.033-12.057c-.72 0-3.177 2.7-3.924 3.174-2.185 1.352-4.615 2.295-7.086 2.98-6.548 1.815-11.752 1.105-18.23.036-3.76-.618-7.025-2.87-9.78.793-1.062 1.4-3.777 12.553-3.482 12.553-1.4 0-4.004-8.16-4.756-9.373-.9-1.438-3.605-3.6-5.32-2.227-1.774 1.408-.872 5.2-.6 7.035-.75-3.993 1.7-5.624 5.02-3.552 1.3 1.246 4.823 10.945 6.02 10.797.4-.095 1.97-10.1 2.8-11.573 1.166-2.063 3.036-3.384 5.443-3.384 4.122.14 7.688 3.068 11.764 3.068 5.175 0 10.48-.783 15.27-2.802 1.598-.674 5.926-4.838 7.173-4.838 3.266-.635 5.4 7.404 8.34 7.404.46 0-.302-4.38-.354-4.673.413.763.42 1.427.02 1.993-3.103-.001-4.854-7.4-8.337-7.4"/><path fill="#f3c58a" d="M14.7 29.317c-.822 3.042-.695 1.28 1.447 2.943.562-1.506-.133-2.217-1.447-2.943m49.053-8.397c-.658 0-1.923 1.753-2.408 2.128a20.58 20.58 0 0 1 1.631 1.8c1.647-1.48 1.63-1.84 3.483-.2-.425-.862-1.468-3.727-2.706-3.727"/><path fill="url(#linearGradient24618)" d="M10.784 37.98c-.028.01-.028.01 0 0M9.52 35.714c0 .522.903 1.986 1.17 2.232a10.1 10.1 0 0 1-1.169-2.232m.955-.484c0-.994.416 2.67.3 2.75.02-.927-.084-1.845-.3-2.75m5.202-5.232c1.042 1.348 4.165 10.455 5.57 10.455-2.73-2.806-2.78-7.6-5.57-10.455m-4.5-1.128c-1.133.904-1.116 3.223-.903 4.45-.102-1.3-.288-3.5.903-4.45m61.035-.734c-.056.217-.056.217 0 0m-2.7-2.164c.464.572 1.776 2.352 2.585 2.352a10.05 10.05 0 0 1-2.585-2.352m-40.144-.48c-2.335.055-4.134 1.387-5.264 3.384-.84 1.482-2.4 11.478-2.8 11.573.375-.197.495-.58.362-1.144.335-4.752 1.26-13.662 7.713-13.813m.18 0c.38-.004.76.023 1.14.075l-1.14-.075m33.973-4.506c-4.37 2.914-7.434 5.437-12.866 6.6-7.437 1.608-11.796-.243-18.807-1.822 6.264 1.415 9.976 3.3 16.602 2.233 6.354-1 10.007-3.647 15.07-7.02m.236-.066c1.894.753 3.253 2.438 4.65 3.875-.898-.924-3.058-3.875-4.65-3.875"/><path fill="url(#radialGradient24620)" d="M9.2 32.92c0-18.706 18.42-31.275 36-29.248 19.193 2.213 34.03 21.76 25.532 40.562C82.32 23.43 62.9 0 41.124 0S.132 23.502 11.663 44.238C10.06 40.7 9.2 36.82 9.2 32.92"/><g transform="rotate(347.949 17.867 542.375)"><g fill-rule="evenodd" transform="matrix(.285887 0 0 .285887 78.365719 77.533475)"><path d="M23.13 243.784c-.52-10.24 14.104-23.736 35.913-23.736H190.21l-.26-172.8H59.044c-22.638 0-37.52 14.6-35.77 24.96"/><g stroke="#000" fill="#fff" stroke-width="1.565"><path d="M44.285 86.942c-11.214 0-17.875-4.517-18.315-9.57-.913-10.484 12.088-24.054 33.95-23.688h124.487l-.676 2.647-2.322 1.298.066 2.292.523 2.647-2.477 1.5-.325 2.718-2.673 1.225.066 2.292-.977 2.08.523 2.647-2.477 1.5.523 2.647-.977 2.08-3.52 1.298 1.566 2.86-2.477 1.5z"/><path d="M184.406 217.647l-.78 2.647-2.216 1.298.066 2.292.523 2.647-2.477 1.5-.325 2.718-2.673 1.225.066 2.292-.977 2.08.523 2.647-2.477 1.5.523 2.647-.977 2.08-3.52 1.298 1.566 2.86-2.477 1.5V86.943l2.477-1.5-1.566-2.86 3.52-1.298.977-2.08-.523-2.647 2.22-1.534-.266-2.624.977-2.08-.066-2.292 2.673-1.225.325-2.718 2.477-1.5-.523-2.647-.066-2.292 2.347-1.298.65-2.647z"/></g><path fill="#005" d="M42.57 255.092h131.168v-172.8H42.57c-12.334-.08-18.3-4.438-19.297-10.06l-.144 171.515c.295 6.228 6.18 11.263 19.442 11.344z"/></g><g stroke="#f9ff01" fill="#f9ff01" transform="matrix(.051483 0 0 .051483 89.940097 102.72276)"><path d="M117.94 126.47c-5.112.1-10.14 1.016-14.938 2.656-6.397 2.187-12.35 5.677-17.406 10.25a53.82 53.82 0 0 0-15.844 26.062 52.52 52.52 0 0 0-1.594 9.5c-.55 7.86.622 15.76 3.406 23.094 2.73 7.14 6.875 13.594 12.03 19 5.33 5.6 11.672 10.017 18.562 13.125s14.336 4.893 21.875 5.188a43.35 43.35 0 0 0 15.312-2.281c4.717-1.62 8.884-3.758 12.594-6.062 65.1-36.745 122.34-64.696 205.25-68.125 82.908 3.43 140.12 31.38 205.22 68.125 3.7 2.305 7.908 4.443 12.625 6.063a43.35 43.35 0 0 0 15.312 2.281c7.54-.294 14.954-2.08 21.844-5.187s13.233-7.535 18.562-13.125c5.156-5.406 9.302-11.86 12.03-19a54.42 54.42 0 0 0 3.406-23.094c-.24-3.232-.777-6.405-1.594-9.5-2.614-9.906-8.1-19.062-15.844-26.062-5.055-4.573-10.977-8.063-17.375-10.25s-13.25-3.064-20.094-2.47a46.12 46.12 0 0 0-16.75 5c-5.12 2.67-9.663 6.258-13.406 10.562-3.938 4.53-6.832 9.783-8.53 15.312s-2.215 11.322-1.53 17c.663 4.986 2.28 9.658 4.625 13.78a37.78 37.78 0 0 0 8.938 10.594 33.66 33.66 0 0 0 13 6.563c4.6 1.163 9.293 1.352 13.75.563 3.918-.746 7.46-2.264 10.5-4.25s5.592-4.438 7.563-7.156a24.39 24.39 0 0 0 4.375-10.562c.56-3.56.288-7.005-.625-10.062a19.02 19.02 0 0 0-3.906-6.906c-1.604-1.816-3.395-3.14-5.156-4.062a14.2 14.2 0 0 0-3.531-1.312c-1.136-.26-2.214-.35-3.187-.312a9.41 9.41 0 0 0-2.687.5c-.75.262-1.348.58-1.812.906-.93.653-1.306 1.3-1.312 1.75s.368.712 1.03.906 1.62.318 2.75.688a9.11 9.11 0 0 1 1.375.563c1 .476 2.118 1.288 3.22 2.406a13.33 13.33 0 0 1 2.25 3.156c.624 1.225 1.086 2.624 1.188 4.03.204 1.632-.014 3.424-.656 5.25s-1.7 3.666-3.125 5.156c-1.264 1.33-2.85 2.52-4.625 3.406s-3.768 1.48-5.75 1.625c-2.3.25-4.778-.1-7.22-.97s-4.83-2.288-6.78-4.125c-1.834-1.722-3.42-3.887-4.594-6.28s-1.954-5.016-2.125-7.656c-.28-3.008.208-6.247 1.344-9.344s2.92-6.08 5.22-8.53c2.214-2.364 4.984-4.37 8.03-5.844s6.383-2.4 9.72-2.594c3.762-.3 7.746.3 11.53 1.72s7.372 3.618 10.344 6.406a33.12 33.12 0 0 1 7.188 9.844c1.784 3.734 2.877 7.815 3.094 11.875a33.97 33.97 0 0 1-2.187 14.125c-1.653 4.36-4.275 8.462-7.562 11.97-6.63 7.067-16.336 11.7-25.938 12.188-2.595.173-5.38-.2-8.094-1.03-2.77-.82-5.642-2.246-8.656-3.937-6.394-3.632-13.022-8.734-20.97-13.25-8.536-4.778-16.918-10.672-25.875-16.188-49.717-31.113-82.735-61.25-168.53-61.25s-118.85 30.137-168.56 61.25c-8.957 5.516-17.34 11.4-25.875 16.188-7.947 4.516-14.574 9.618-20.97 13.25-3.014 1.7-5.887 3.12-8.656 3.938-2.713.82-5.467 1.204-8.062 1.03-9.6-.478-19.34-5.12-25.97-12.188-3.287-3.506-5.9-7.6-7.562-11.97-1.722-4.488-2.48-9.386-2.187-14.125.217-4.06 1.34-8.14 3.125-11.875s4.23-7.102 7.156-9.844c2.972-2.8 6.6-4.998 10.375-6.406s7.738-2.028 11.5-1.72c3.336.194 6.67 1.12 9.72 2.594s5.817 3.48 8.03 5.844c2.3 2.45 4.083 5.434 5.22 8.53s1.625 6.335 1.344 9.344c-.17 2.64-.95 5.262-2.125 7.656s-2.76 4.56-4.594 6.28a19.66 19.66 0 0 1-6.75 4.125c-2.44.88-4.95 1.22-7.25.97-1.982-.145-3.974-.74-5.75-1.625a16.63 16.63 0 0 1-4.594-3.406c-1.424-1.5-2.514-3.33-3.156-5.156s-.86-3.618-.656-5.25c.102-1.407.563-2.806 1.188-4.03a13.33 13.33 0 0 1 2.25-3.156c1.1-1.12 2.208-1.93 3.22-2.406a9.11 9.11 0 0 1 1.375-.562c1.13-.37 2.118-.493 2.78-.687s1.038-.456 1.03-.906-.414-1.097-1.344-1.75c-.465-.327-1.062-.644-1.812-.906a9.41 9.41 0 0 0-2.687-.5c-.974-.037-2.05.054-3.187.313s-2.348.68-3.53 1.313c-1.76.922-3.552 2.246-5.156 4.063s-3.002 4.12-3.875 6.906c-.913 3.058-1.215 6.503-.656 10.062s1.96 7.25 4.375 10.562c1.97 2.72 4.522 5.17 7.563 7.156s6.582 3.505 10.5 4.25c4.457.8 9.16.6 13.75-.562s9.07-3.35 13-6.562c3.536-2.885 6.594-6.47 8.938-10.594s3.962-8.795 4.625-13.78a41.14 41.14 0 0 0-1.531-17c-1.7-5.53-4.562-10.784-8.5-15.312-3.743-4.304-8.317-7.893-13.438-10.562a46.15 46.15 0 0 0-16.75-5 48.02 48.02 0 0 0-5.125-.187zm-78.112 420.8c22.04 27.13 55.665 44.438 93.344 44.438s71.304-17.308 93.344-44.438h-186.7z"/><path stroke-width="5.4" d="M133.172 551.14V288.5m88.64 260.64l-88-260.64M44.528 549.14l88.004-260.64"/><path d="M130.772 261.78c-5.376 0-9.736 6.33-9.736 14.14s4.36 14.164 9.736 14.164c.827 0 1.618-.18 2.384-.46-4.207-1.562-7.302-7.104-7.302-13.703s3.096-12.118 7.302-13.68c-.766-.282-1.557-.46-2.384-.46zm2.384.46c4.218 1.55 7.328 7.07 7.328 13.68s-3.1 12.152-7.328 13.703c.773.287 1.6.46 2.434.46 5.376 0 9.7-6.352 9.7-14.164s-4.335-14.14-9.7-14.14c-.834 0-1.66.174-2.434.46z"/><path d="M131.472 231.62c-2.664 1.166-2.506 9.795-.7 14.322 1.977 4.93 10.132 12.177.268 16.68-9.052 1.402-8.857-14-10.885-5.904-1.5 5.937 5.42 13.152 12.116 13.152s11.513-4.872 11.513-12.14c0-4.334-3.023-8.42-6.982-12.883-4.442-5.006-3.948-13.837-5.34-13.228zm543.04 315.66c-22.04 27.13-55.665 44.438-93.344 44.438s-71.304-17.308-93.344-44.438h186.7z"/><path stroke-width="5.4" d="M581.172 551.14V288.5m-88.64 260.64l88-260.64m89.28 260.64l-88-260.64"/><path d="M583.572 261.78c5.376 0 9.736 6.33 9.736 14.14s-4.36 14.164-9.736 14.164c-.827 0-1.618-.18-2.384-.46 4.207-1.562 7.302-7.104 7.302-13.703s-3.096-12.118-7.302-13.68c.766-.282 1.557-.46 2.384-.46zm-2.384.46c-4.217 1.55-7.327 7.07-7.327 13.68s3.1 12.152 7.327 13.703c-.773.287-1.6.46-2.434.46-5.376 0-9.7-6.352-9.7-14.164s4.336-14.14 9.7-14.14c.834 0 1.66.174 2.434.46z"/><path d="M582.872 231.62c2.664 1.166 2.506 9.795.7 14.322-1.978 4.93-10.132 12.177-.268 16.68 9.052 1.402 8.857-14 10.885-5.904 1.5 5.937-5.42 13.152-12.116 13.152S570.55 265 570.55 257.732c0-4.334 3.023-8.42 6.982-12.883 4.442-5.006 3.948-13.837 5.34-13.228zM357.16 26.938c-6.57 17.143-30 53.43-30 70s13.43 26 30 26 30-9.43 30-26-23.43-52.857-30-70z"/><rect ry="14.286" height="50" width="32.857" y="140.93" x="340.73"/><circle r="17.857" cy="203.291" cx="357.156"/><path d="M355 216.93h4.286c7.914 0 14.286 6.37 14.286 14.286v331.43c0 7.914-6.37 14.286-14.286 14.286H355c-7.914 0-14.286-6.37-14.286-14.286v-331.43c0-7.914 6.37-14.286 14.286-14.286z"/><circle r="17.857" cy="589.651" cx="357.156"/><path d="M357.16 585.94c-35.982 37.738-70.028 82.55-163.66 88.844-4.04 6 0 22.188 0 22.188h327.3s4.04-16.2 0-22.188c-93.63-6.294-127.67-51.106-163.66-88.844z"/></g></g></g></svg>
