<svg xmlns="http://www.w3.org/2000/svg" xmlns:xlink="http://www.w3.org/1999/xlink" viewBox="0 0 178.22 248.62"><style><![CDATA[.B{color-interpolation-filters:sRGB}]]></style><defs><filter id="A" class="B"><feGaussianBlur stdDeviation="1.626"/></filter><filter y="-.3" x="-.053" height="1.601" width="1.106" id="B" class="B"><feGaussianBlur stdDeviation="7.662"/></filter><filter y="-.331" x="-.018" height="1.662" width="1.037" id="C" class="B"><feGaussianBlur stdDeviation="2.169"/></filter><linearGradient y2="695.36" y1="240.36" x2="241.82" x1="404" id="D" xlink:href="#O"><stop stop-color="#d99a24" offset="0"/><stop stop-color="#e68322" offset=".122"/><stop stop-color="#f4ae20" offset=".706"/><stop stop-color="#ee9822" offset=".903"/><stop stop-color="#df5226" offset="1"/></linearGradient><linearGradient y2="408" y1="569.22" x2="517.86" x1="181.2" id="E" xlink:href="#O"><stop stop-color="#ff6200" offset="0"/><stop stop-opacity="0" stop-color="#fbf69a" offset="1"/></linearGradient><linearGradient y2="196.65" y1="196.65" x2="509.77" x1="223.09" id="F" xlink:href="#O"><stop stop-color="#afa5a3" offset="0"/><stop stop-color="#624a32" offset=".26"/><stop stop-color="#5f472f" offset=".787"/><stop stop-color="#bbb2ad" offset="1"/></linearGradient><linearGradient y2="81.232" y1="81.232" x2="520.575" x1="211.806" id="G" xlink:href="#O"><stop stop-color="#86755e" offset="0"/><stop stop-color="#5e462e" offset=".206"/><stop stop-color="#c7b694" offset=".305"/><stop stop-color="#c7b694" offset=".418"/><stop stop-color="#d1c3a1" offset=".798"/><stop stop-color="#d2c3a3" offset=".831"/><stop stop-color="#231b1b" offset=".987"/><stop stop-color="#dbd8da" offset="1"/></linearGradient><linearGradient y2="22.567" y1="22.567" x2="511.06" x1="220.34" id="H" xlink:href="#O"><stop stop-color="#c7b694" offset="0"/><stop stop-color="#d2c3a3" offset=".101"/><stop stop-color="#644d34" offset=".223"/><stop stop-color="#827064" offset=".935"/><stop stop-color="#a09494" offset="1"/></linearGradient><linearGradient y2="196.65" y1="196.65" x2="507.14" x1="193.52" id="I" xlink:href="#O"><stop stop-color="#fff" offset="0"/><stop stop-color="#c9c9c9" offset="1"/></linearGradient><linearGradient y2="584.242" y1="584.242" x2="602.852" x1="449.312" id="J" xlink:href="#O"><stop stop-color="#fff" offset="0"/><stop stop-color="#cacaca" offset="1"/></linearGradient><linearGradient y2="762.99" y1="762.99" x2="699.07" x1="351.5" id="K" xlink:href="#O"><stop stop-color="#797a7b" offset="0"/><stop stop-color="#ccc" offset="1"/></linearGradient><linearGradient y2="657.72" y1="657.72" x2="606.122" x1="444.905" id="L" xlink:href="#O"><stop stop-color="#797a7b" offset="0"/><stop stop-color="#ccc" offset="1"/></linearGradient><linearGradient y2="531.72" y1="467.14" x2="791.88" x1="800.88" id="M" xlink:href="#O"><stop stop-color="#ffc62a" offset="0"/><stop stop-opacity="0" stop-color="#ffc62a" offset="1"/></linearGradient><path id="N" d="M507.14 196.65c0 8.68-63 15.714-140.7 15.714s-140.7-7.035-140.7-15.714 63-15.714 140.7-15.714 140.7 7.035 140.7 15.714z"/><linearGradient id="O" gradientUnits="userSpaceOnUse"/></defs><g fill-rule="evenodd"><path transform="translate(-436.61 -442.34)" opacity=".597" d="M525.72 465.16c-28.408 0-52.662 1.97-62.358 4.754h-2.913v1.073c-1.047.524-1.6 1.065-1.6 1.623s.56 1.114 1.6 1.638v8.118c-9.202 4.417-14.61 9.804-14.61 15.626 0 2.074.686 4.09 1.985 6.03v141.5c-1.746 3.607-2.68 7.398-2.68 11.306 0 6.415 2.52 12.505 7.03 18.003 2.898 4.245 34.716 7.595 73.548 7.595s70.664-3.35 73.563-7.595c4.506-5.497 7.015-11.6 7.015-18.003 0-3.908-.935-7.7-2.68-11.306v-141.53c1.287-1.933 1.97-3.937 1.97-6 0-5.82-5.396-11.208-14.597-15.626v-8.132c1.04-.522 1.6-1.066 1.6-1.623s-.57-1.1-1.6-1.624v-1.072h-2.913c-9.692-2.785-33.945-4.755-62.358-4.755z" fill="url(#L)"/><path transform="matrix(.46384 0 0 .46384 -80.524 -77.47)" filter="url(#A)" d="M366.5 225.1c-60.748 0-113.63 4.658-131.9 9.875.034.28.055.562.063.844v17.5c.003 3.413-1.954 6.525-5.032 8-9.262 4.447-16.3 9.274-20.625 13.812s-5.844 8.345-5.844 11.875c0 2.517.755 5.036 2.782 8.062.98 1.46 1.5 3.18 1.5 4.938v305.06c-.005 1.344-.315 2.67-.907 3.875-3.244 6.7-4.875 13.5-4.875 20.5 0 11.51 4.413 22.564 13.125 33.188.166.2.323.4.47.625-1.195-1.75-.74-.66 1.187.125s5.078 1.74 9.094 2.656c8.03 1.83 19.585 3.58 33.562 5.03 27.954 2.904 65.8 4.688 107.4 4.688s79.475-1.784 107.44-4.688c13.98-1.452 25.497-3.2 33.53-5.03 4.017-.915 7.198-1.872 9.125-2.656s2.384-1.877 1.188-.125c.147-.215.304-.424.47-.625 8.7-10.613 13.094-21.673 13.094-33.188 0-7-1.63-13.8-4.875-20.5-.592-1.206-.902-2.53-.906-3.875v-305.12c.005-1.747.527-3.454 1.5-4.906 2-3.02 2.75-5.538 2.75-8.032 0-3.536-1.528-7.338-5.844-11.875s-11.334-9.366-20.594-13.812c-3.077-1.476-5.034-4.587-5.03-8v-17.53c.008-.272.03-.543.062-.813-18.263-5.218-71.148-9.875-131.9-9.875z" stroke-width="2" stroke="url(#E)" fill="url(#D)"/><use xlink:href="#N" transform="matrix(.50605 0 0 .50605 -96.336 -87.598)" fill="url(#F)"/><g transform="matrix(.46384 0 0 .46384 -80.53 -15.16)"><path d="M211.96 59.01v26.56c-.083.23-.157.456-.157.7 0 9.5 68.9 17.195 153.88 17.195s153.88-7.705 153.88-17.196c0-.222-.05-.437-.125-.658V59.04c-3.275 9.167-70.834 16.474-153.73 16.474-82.993 0-150.63-7.323-153.76-16.507z" fill="url(#G)"/><path d="M225.34 46.426l-4.47 6.25-.125.156-.03.032c-.24.368-.375.75-.375 1.125 0 8.678 65.096 15.72 145.38 15.72 80.28 0 145.34-7.04 145.34-15.72 0-.373-.106-.757-.344-1.125l-.062-.093c-.008-.01-.023-.02-.03-.032l-4.532-6.312c.23.367.344.75.344 1.125 0 8.68-63.004 15.72-140.72 15.72-77.7 0-140.7-7.04-140.7-15.72 0-.374.114-.758.344-1.125z" fill="url(#H)"/></g><use xlink:href="#N" transform="matrix(.46384 0 0 .46384 -80.861 -83.929)" fill="url(#I)"/><path transform="translate(-436.61 -442.34)" d="M448.18 506.34v137.5c-.005.034-.014.064-.014.098 0 4.628 34.883 8.377 77.9 8.377s77.912-3.75 77.912-8.377c0-.034-.01-.064-.015-.098v-137.5c-.54 4.58-35.205 8.28-77.897 8.28s-77.358-3.7-77.897-8.28z" fill="url(#J)"/><path d="M787.22 493.923c-3.695-6.373-8.51-14.313-11.785-20.912-.238-.48.333-1.176.6-1.64 3.67-6.387 8.14-14.528 12.218-20.662.297-.447 1.185-.3 1.72-.3 7.367-.014 16.652-.214 24.003.25.535.034.852.876 1.12 1.34 3.695 6.372 8.5 14.312 11.785 20.91.238.48-.333 1.176-.6 1.64-3.67 6.387-8.14 14.528-12.218 20.662-.297.447-1.185.3-1.72.3-7.367.014-16.652.214-24.003-.25-.535-.034-.852-.876-1.12-1.34zm0 48.08c-3.695-6.373-8.51-14.313-11.785-20.912-.238-.48.333-1.176.6-1.64 3.67-6.387 8.14-14.528 12.218-20.662.297-.447 1.185-.3 1.72-.3 7.367-.014 16.652-.214 24.003.25.535.034.852.876 1.12 1.34 3.695 6.372 8.5 14.312 11.785 20.91.238.48-.333 1.176-.6 1.64-3.67 6.387-8.14 14.528-12.218 20.662-.297.447-1.185.3-1.72.3-7.367.014-16.652.214-24.003-.25-.535-.034-.852-.876-1.12-1.34zm41.7-24.04c-3.695-6.373-8.51-14.313-11.785-20.912-.238-.48.333-1.176.6-1.64 3.67-6.387 8.14-14.528 12.218-20.662.297-.447 1.185-.3 1.72-.3 7.367-.014 16.652-.214 24.003.25.535.034.852.876 1.12 1.34 3.695 6.372 8.5 14.312 11.785 20.91.238.48-.333 1.176-.6 1.64-3.67 6.387-8.14 14.528-12.218 20.662-.297.447-1.185.3-1.72.3-7.367.014-16.652.214-24.003-.25-.535-.034-.852-.876-1.12-1.34zm0 48.08c-3.695-6.373-8.51-14.313-11.785-20.912-.238-.48.333-1.176.6-1.64 3.67-6.387 8.14-14.528 12.218-20.662.297-.447 1.185-.3 1.72-.3 7.367-.014 16.652-.214 24.003.25.535.034.852.876 1.12 1.34 3.695 6.372 8.5 14.312 11.785 20.91.238.48-.333 1.176-.6 1.64-3.67 6.387-8.14 14.528-12.218 20.662-.297.447-1.185.3-1.72.3-7.367.014-16.652.214-24.003-.25-.535-.034-.852-.876-1.12-1.34zm0 48.1c-3.695-6.373-8.51-14.313-11.785-20.912-.238-.48.333-1.176.6-1.64 3.67-6.387 8.14-14.528 12.218-20.662.297-.447 1.185-.3 1.72-.3 7.367-.014 16.652-.214 24.003.25.535.034.852.876 1.12 1.34 3.695 6.372 8.5 14.312 11.785 20.91.238.48-.333 1.176-.6 1.64-3.67 6.387-8.14 14.528-12.218 20.662-.297.447-1.185.3-1.72.3-7.367.014-16.652.214-24.003-.25-.535-.034-.852-.876-1.12-1.34zm41.7-24.04c-3.695-6.373-8.51-14.313-11.785-20.912-.238-.48.333-1.176.6-1.64 3.67-6.387 8.14-14.528 12.218-20.662.297-.447 1.185-.3 1.72-.3 7.367-.014 16.652-.214 24.003.25.535.034.852.876 1.12 1.34 3.695 6.372 8.5 14.312 11.785 20.91.238.48-.333 1.176-.6 1.64-3.67 6.387-8.14 14.528-12.218 20.662-.297.447-1.185.3-1.72.3-7.367.014-16.652.214-24.003-.25-.535-.034-.852-.876-1.12-1.34zm0-96.17c-3.695-6.373-8.51-14.313-11.785-20.912-.238-.48.333-1.176.6-1.64 3.67-6.387 8.14-14.528 12.218-20.662.297-.447 1.185-.3 1.72-.3 7.367-.014 16.652-.214 24.003.25.535.034.852.876 1.12 1.34 3.695 6.372 8.5 14.312 11.785 20.91.238.48-.333 1.176-.6 1.64-3.67 6.387-8.14 14.528-12.218 20.662-.297.447-1.185.3-1.72.3-7.367.014-16.652.214-24.003-.25-.535-.034-.852-.876-1.12-1.34zm0 48.08c-3.695-6.373-8.51-14.313-11.785-20.912-.238-.48.333-1.176.6-1.64 3.67-6.387 8.14-14.528 12.218-20.662.297-.447 1.185-.3 1.72-.3 7.367-.014 16.652-.214 24.003.25.535.034.852.876 1.12 1.34 3.695 6.372 8.5 14.312 11.785 20.91.238.48-.333 1.176-.6 1.64-3.67 6.387-8.14 14.528-12.218 20.662-.297.447-1.185.3-1.72.3-7.367.014-16.652.214-24.003-.25-.535-.034-.852-.876-1.12-1.34zm41.8 24.04c-3.695-6.373-8.51-14.313-11.785-20.912-.238-.48.333-1.176.6-1.64 3.67-6.387 8.14-14.528 12.218-20.662.297-.447 1.185-.3 1.72-.3 7.367-.014 16.652-.214 24.003.25.535.034.852.876 1.12 1.34 3.695 6.372 8.5 14.312 11.785 20.91.238.48-.333 1.176-.6 1.64-3.67 6.387-8.14 14.528-12.218 20.662-.297.447-1.185.3-1.72.3-7.367.014-16.652.214-24.003-.25-.535-.034-.852-.876-1.12-1.34zm-.2-48.04c-3.695-6.373-8.51-14.313-11.785-20.912-.238-.48.333-1.176.6-1.64 3.67-6.387 8.14-14.528 12.218-20.662.297-.447 1.185-.3 1.72-.3 7.367-.014 16.652-.214 24.003.25.535.034.852.876 1.12 1.34 3.695 6.372 8.5 14.312 11.785 20.91.238.48-.333 1.176-.6 1.64-3.67 6.387-8.14 14.528-12.218 20.662-.297.447-1.185.3-1.72.3-7.367.014-16.652.214-24.003-.25-.535-.034-.852-.876-1.12-1.34z" transform="matrix(.458323 .181629 -.181629 .458323 -184.548991 -237.119682)" stroke-width="2" stroke="#df9935" fill="url(#M)"/><path transform="matrix(.46384 0 0 .46384 -154.75 -138.53)" opacity=".653" filter="url(#B)" d="M352.34 755.03c-.23 2.002-.344 4.016-.344 6.03 0 13.83 5.436 26.96 15.156 38.812 6.25 9.152 74.843 16.375 158.56 16.375s152.35-7.223 158.6-16.375c9.715-11.85 15.125-24.986 15.125-38.812 0-2.028-.114-4.035-.343-6.03-1.317 11.593-6.44 22.62-14.688 32.72-.033.04-.06.085-.094.125-1.636 2.636-3.442 5.162-5.407 7.563a6.99 6.99 0 0 0-.375.5c.778-1.14.046-.064-2.03.78s-5.297 1.82-9.376 2.75c-8.158 1.86-19.754 3.606-33.78 5.063-28.056 2.914-65.966 4.72-107.62 4.72s-79.578-1.806-107.62-4.72c-14.024-1.457-25.595-3.204-33.75-5.062-4.077-.93-7.3-1.905-9.375-2.75s-2.808-1.92-2.03-.78a6.99 6.99 0 0 0-.375-.5 71.47 71.47 0 0 1-5.406-7.563c-.033-.04-.06-.085-.094-.125-8.253-10.1-13.397-21.125-14.72-32.72z" fill="url(#K)"/></g><path transform="matrix(.47531 0 0 .47433 -85.06 -62.95)" opacity=".653" filter="url(#C)" d="M507.14 196.65c0 8.68-63 15.714-140.7 15.714s-140.7-7.035-140.7-15.714" stroke-width="2.931" stroke="#a8a8a8" fill="none"/></svg>