<svg xmlns="http://www.w3.org/2000/svg" xmlns:xlink="http://www.w3.org/1999/xlink" viewBox="0 0 72.458 13.123" height="49.599" width="273.857"><g fill="#3b4351" stroke="#3b4351" stroke-width=".132"><path d="M.577 9.604q-.02.085-.095.148-.074.063-.17.063-.074 0-.127-.053Q.132 9.7.132 9.626v-.032l.127-.857q.032-.16.053-.296.01-.148.032-.265L.587 6.28q.01-.074.02-.138.01-.074.01-.148l.02-.17.02-.138.2-1.598.085-.72q.01-.085.085-.148.085-.064.17-.064.085 0 .127.053.053.042.053.127v.032q-.17 1.45-.275 2.307l-.02.127-.02.18q0 .074-.01.148-.01.074-.02.148-.106.92-.275 2.17zm1.08-7.525q-.042.116-.127.2-.085.074-.18.074h-.042q-.16 0-.243-.127-.042-.127-.042-.16v-.032l.01-.042q.02-.095.042-.138.127-.18.328-.18.138 0 .222.064.085.053.085.17 0 .053-.01.085-.032.032-.042.074zm2.37 7.515q-.02.085-.095.16-.074.063-.16.063-.074 0-.127-.053-.053-.053-.053-.138v-.032l.042-.328.02-.085.02-.16q.042-.254.053-.286.095-.614.233-1.513.222-1.6.222-2.54 0-.508-.053-.74-.063-.328-.18-.36h-.02q-.042 0-.127.053-.074.042-.18.16l-.17.16q-.37.423-.7 1.556-.34 1.132-.53 2.487-.138.942-.138 1.535l-.01.02q-.01.085-.063.148-.063.063-.138.063h-.02q-.053.032-.116.032-.074 0-.127-.053-.063-.064-.063-.127v-.02L1.6 8.95q.106-.7.434-2.455l.064-.34q.36-1.8.434-2.402l.053-.444V3.3q.01-.085.085-.148.085-.064.16-.064.085 0 .138.064.063.053.063.127v.02q.01.032-.032.307-.042.296-.063.37.17-.233.2-.265.487-.57.857-.57.444 0 .57.656.064.328.064.847 0 1.037-.233 2.667-.02.222-.116.762l-.106.677q-.032.095-.063.286l-.02.2q-.02.02-.02.053l-.042.317zM6.83 9.53q-.148.2-.38.286-.222.106-.487.116l-.2-.02q-.212-.02-.38-.138-.042.042-.148.042-.085 0-.127-.053-.053-.053-.053-.127v-.032l.042-.36.01-.106q0-.042.02-.053l.148-1.122q.7-4.94 1.017-7.587.02-.085.085-.148.074-.074.16-.085.085 0 .138.064.053.053.053.138v.032q-.106.942-.466 3.704.2-.17.36-.212.148-.064.286-.064.243 0 .38.2.17.2.254.624.095.423.095.995 0 .646-.116 1.46-.085.57-.148.847-.254 1.217-.54 1.6zm-1.3-.317q0 .275.455.275.36 0 .487-.2.148-.212.317-.815.17-.614.275-1.365.127-.857.127-1.556 0-.93-.254-1.25-.074-.063-.148-.063-.2 0-.635.476l-.032.254-.423 2.984zm4.5-.455q-.497 1.1-1.016 1.1-.434 0-.646-.497-.212-.508-.212-1.355 0-.656.116-1.44.2-1.376.614-2.36.423-.995 1.005-1.154h.042q.01 0 .095.02.328.01.53.317.2.296.265.857.02.34.02.55 0 .53-.095 1.25-.106.73-.296 1.45-.2.7-.423 1.26zm-1.217.434q.116.222.254.233h.01q.095 0 .2-.148.2-.275.36-.635.222-.497.402-1.175.18-.688.286-1.408.085-.56.085-1.196 0-.624-.116-.984-.116-.37-.35-.37h-.032q-.35.138-.667.942-.36.9-.54 2.085-.095.677-.095 1.25 0 .392.053.794.074.455.16.614zm4.465.73q-.01.01-.063.01-.16 0-.17-.17-.116-.783-.444-2.603-.963 1.958-1.25 2.603-.085.16-.222.16-.02 0-.063-.02-.148-.053-.148-.2 0-.032.02-.074.476-1.037 1.535-3.143-.444-2.286-.55-3.1-.01-.02 0-.063.01-.074.064-.138.063-.063.138-.074l.042-.01q.074 0 .127.053.053.042.074.116.085.878.434 2.55l1.228-2.49q.01-.064.085-.106.074-.042.148-.042.074 0 .127.053.053.053.053.127 0 .053-.032.106-.243.53-.466.974l-.942 1.884q-.02.074-.074.16l.02.127q.392 1.884.53 3.037l-.01.032q-.01.074-.064.138-.053.074-.127.095zm8.148.27q-.68.53-1.375.757-.7.232-1.5.232-1.085 0-1.915-.458-.825-.453-1.278-1.283-.45-.83-.45-1.88 0-1.37.603-2.48.608-1.1 1.674-1.732 1.07-.622 2.373-.622 1.62 0 2.508.777Q23 4.28 23 5.68q0 .916-.468 1.727-.468.805-1.264 1.293-.796.487-1.66.487-.314 0-.314-.246 0-.24.04-.603-.42.42-.825.637-.405.212-.728.212-.347 0-.54-.26-.188-.265-.188-.704 0-.574.145-1.12.15-.55.415-.974.27-.424.67-.72.405-.3.8-.405.386-.1 1.013-.1h.174q.183 0 .415.03l-.55 2.556q-.04.17-.077.444-.034.275-.034.395 0 .178.087.24.092.058.27.058.56 0 1.023-.4.463-.395.733-1.095.27-.7.27-1.442 0-1.215-.752-1.9-.752-.675-2.074-.675-1.124 0-2.026.55-.897.545-1.418 1.582-.516 1.032-.516 2.3 0 .94.37 1.674.376.733 1.085 1.143.7.415 1.674.415.714 0 1.312-.188.603-.183 1.244-.64zm-1.54-4.78l-.236-.02q-.627 0-1.05.217-.42.212-.675.85-.25.637-.25 1.355 0 .72.386.72.27 0 .622-.15.357-.15.65-.4zm5.007 4.14q-.296.265-.667.265-.243 0-.444-.116-.212-.127-.34-.35-.148-.265-.148-.582 0-.106.042-.38.01-.074.095-.138.085-.063.17-.063.074.01.127.074.042.053.042.127v.042q-.032.138-.032.265 0 .296.148.487.16.2.392.2.18 0 .35-.138.254-.222.35-.688.01-.042.053-.36.053-.37.053-.582 0-.307-.085-.53-.042-.148-.138-.222-.085-.085-.328-.222-.38-.233-.54-.466-.148-.233-.17-.656-.01-.064-.01-.2 0-.116.02-.328.074-.497.317-.92.254-.434.603-.688.307-.222.57-.222.296 0 .476.275.18.275.18.773v.032q-.01.085-.074.148-.063.053-.138.053h-.032q-.074 0-.138-.042-.053-.053-.053-.116v-.02q0-.53-.2-.624-.042-.02-.095-.02-.116 0-.286.116-.265.2-.455.54-.2.35-.243.74-.02.212-.02.328 0 .402.138.582.116.16.402.34.286.17.423.296.138.127.2.34.116.296.116.688 0 .254-.042.497-.064.476-.233.9-.16.402-.37.593zm3.672.148q-.032.02-.17.074h-.053q-.085 0-.148-.032-.064-.042-.064-.095v-.01l.01-.074q-.042-.857-.042-2.16 0-.804.01-1.228-.01-.01-.01-.138l.01-.677V4.8l-.286.963-.233.762-.01.01-.074.254q-.54 1.683-.836 2.9 0 .02-.074.053-.064.02-.127.02-.085 0-.148-.032-.064-.02-.064-.042l.01-.042q.127-1.408.265-3.694l.032-.413.053-1.027q0-.064.01-.222.01-.16.032-.328l.02-.656q.032-.053.222-.095h.02q.042 0 .127.02.053.032.053.053l-.01.01q-.032.392-.074 1.206l-.085 1.44-.01.328-.064 1.06q-.01.053-.01.138 0 .053.01.064l.243-.783-.01.01q.085-.212.085-.265v.02q.688-2.138.9-3.143l.01-.053q0-.01.063-.042l.106-.042v.01h.032q.095 0 .17.032.053.053.042.074v2.656l-.01.222-.01 1.62h.032l.423-1.757.042-.16q0-.02.01-.032h.01l.01-.116q.402-1.513.603-2.476.01-.032.064-.053.053-.032.116-.032.222 0 .222.106v.01-.02l-.074.34-.52 2.138v.01l-.01.042q-.01.01-.02.042-.01.032-.01.042l-.032.17q-.508 2-.804 3.503l.032.106q-.01-.01-.01-.042l-.042-.042.032.074z"/><use xlink:href="#B"/><path d="M33.718 9.065q-.074.34-.38.57-.307.233-.667.233-.307 0-.497-.2-.18-.2-.18-.52 0-.127.01-.2l.54-3.65.243-1.736q-.317 0-.466.02-.074 0-.127-.064-.053-.063-.053-.148v-.02l.01-.01q.01-.074.074-.138.074-.063.16-.063.074-.01.455-.01l.286-1.905q.01-.085.085-.148.074-.063.16-.063.074 0 .127.063.063.053.063.138v.02q-.074.487-.127.9l-.16 1.005.75-.02q.085 0 .138.053.063.053.063.138v.02q-.02.095-.085.16-.064.064-.16.064l-.762.02-.243 1.736-.54 3.725-.01.095q0 .307.286.307.106 0 .212-.042.116-.042.18-.095.148-.116.18-.286.02-.085.095-.138.074-.063.148-.063.085 0 .138.063.053.053.053.138v.042zm2.52-.245q-.064.444-.307.74-.233.286-.55.286-.773 0-.773-1.587 0-.624.127-1.577.466-3.25 1.767-3.556.064-.02.127-.02.127 0 .212.095.095.095.127.265 0 .265-.042.476-.02.085-.095.148-.064.053-.138.053h-.02q-.074 0-.127-.053-.053-.064-.053-.148v-.02l.02-.116.02-.233q-.02-.02-.02-.02-.466.148-.825 1.005-.35.847-.508 2.032-.127.9-.127 1.672.053.688.148.9.095.254.307.233.053-.01.106-.074.16-.243.2-.497.01-.085.085-.148.085-.064.17-.064.085 0 .127.053.053.042.053.127v.032zm2.625 1.05q-.074 0-.127-.053-.053-.053-.053-.127v-.032q.17-.963.275-1.736.243-1.714.392-3.6.02-.2-.138-.36-.16-.17-.402-.212-.02-.01-.138-.01-.18 0-.307.095-.127.095-.16.265-.116.466-.254 1.333l-.148 1.164-.074.57q-.243 1.863-.328 2.476-.01.085-.085.16-.074.064-.16.064-.16 0-.2-.138-.032-.032-.032-.095v-.042l.16-1.228q.01-.095.02-.2.01-.116.032-.233l.148-1.122q.095-.7.222-1.376l.275-2.286q.01-.042.01-.095l.3-2.497q.01-.085.085-.148.074-.074.16-.074.085 0 .138.053.053.042.053.116v.042q-.032.2-.032.34l-.275 2.17-.01.17-.042.233.063-.032q.233-.116.476-.116.243 0 .466.095.233.095.392.265.222.275.212.635-.138 1.8-.402 3.598-.106.815-.275 1.778-.02.085-.085.148-.053.064-.127.064z"/><use xlink:href="#B" x="10.202"/><path d="M44.227 9.594q-.02.085-.095.16-.074.063-.16.063-.074 0-.127-.053-.053-.053-.053-.138v-.032l.042-.328.02-.085.02-.16q.042-.254.053-.286.095-.614.233-1.513.222-1.6.222-2.54 0-.508-.053-.74-.063-.328-.18-.36h-.02q-.042 0-.127.053-.074.042-.18.16l-.17.16q-.37.423-.7 1.556-.34 1.132-.53 2.487-.138.942-.138 1.535l-.01.02q-.01.085-.064.148-.064.063-.138.063h-.02q-.053.032-.116.032-.074 0-.127-.053-.064-.064-.064-.127v-.02l.064-.646q.106-.7.434-2.455l.064-.34q.36-1.8.434-2.402l.053-.444V3.3q.01-.085.085-.148.085-.064.16-.064.085 0 .138.064.064.053.064.127v.02q.01.032-.032.307-.042.296-.063.37.17-.233.2-.265.487-.57.857-.57.444 0 .57.656.064.328.064.847 0 1.037-.233 2.667-.02.222-.116.762l-.106.677q-.032.095-.063.286l-.02.2q-.02.02-.02.053l-.042.317zm1.8 3.323q-.148.074-.34.074-.286 0-.508-.17-.233-.16-.286-.413-.053-.2-.053-.413 0-.34.095-.804l.02-.116.042-.18.106-.582q.01-.095.085-.16.074-.053.16-.053.085 0 .138.042.053.053.053.127v.042q-.01.16-.116.603l-.064.296q-.074.36-.074.688 0 .212.032.37.02.116.148.2.127.085.286.085.085 0 .16-.032.17-.095.296-.317l.01-.085.064-.296q.085-.34.18-.995l.106-.646.265-1.62-.116.127q-.286.296-.582.296-.275 0-.476-.17-.2-.17-.233-.402-.02-.148-.02-.265 0-.095.02-.35.01-.36.148-1.333.317-2.18.57-2.7.2-.36.466-.56.275-.2.56-.2.307 0 .52.2.053-.042.127-.042.064 0 .116.053.063.053.063.127v.032q0 .212-.18 1.482-.064.582-.085.7-.042.423-.2 1.058-.106.836-.2 1.3-.222 1.503-.455 2.932l-.17 1.005q-.095.466-.243.688-.148.233-.455.38zm-.138-4.53q.148.138.286.138.127 0 .254-.127.222-.233.37-.646.148-.423.317-1.154.127-.857.243-1.725 0-.042.02-.2l.032-.36.032-.18.063-.413-.032-.042q-.18-.254-.37-.254-.307 0-.57.487-.085.17-.243.9-.148.72-.254 1.46l-.064.413q-.085.614-.106 1.058-.02.254-.02.328l.01.18q.02.116.032.127zm2.89 1.006q-.085.17-.18.265-.095.085-.254.085-.127 0-.243-.106-.116-.116-.116-.296 0-.222.17-.392.16-.17.38-.17.18 0 .243.17.085.085.085.2v.053q0 .053-.02.095l-.064.106zm2.455.16q-.296.265-.667.265-.243 0-.444-.116-.212-.127-.34-.35-.148-.265-.148-.582 0-.106.042-.38.01-.074.095-.138.085-.063.17-.063.074.01.127.074.042.053.042.127v.042q-.032.138-.032.265 0 .296.148.487.16.2.392.2.18 0 .35-.138.254-.222.35-.688.01-.042.053-.36.053-.37.053-.582 0-.307-.085-.53-.042-.148-.138-.222-.085-.085-.328-.222-.38-.233-.54-.466-.148-.233-.17-.656-.01-.064-.01-.2 0-.116.02-.328.074-.497.317-.92.254-.434.603-.688.307-.222.57-.222.296 0 .476.275.18.275.18.773v.032q-.01.085-.074.148-.064.053-.138.053h-.032q-.074 0-.138-.042-.053-.053-.053-.116v-.02q0-.53-.2-.624-.042-.02-.095-.02-.116 0-.286.116-.265.2-.455.54-.2.35-.243.74-.02.212-.02.328 0 .402.138.582.116.16.402.34.286.17.423.296.138.127.2.34.116.296.116.688 0 .254-.042.497-.064.476-.233.9-.16.402-.37.593zm3.144-.794q-.497 1.1-1.016 1.1-.434 0-.646-.497-.212-.508-.212-1.355 0-.656.116-1.44.2-1.376.614-2.36.423-.995 1.005-1.154h.042q.01 0 .095.02.328.01.53.317.2.296.265.857.02.34.02.55 0 .53-.095 1.25-.106.73-.296 1.45-.2.7-.423 1.26zm-1.217.434q.116.222.254.233h.01q.095 0 .2-.148.2-.275.36-.635.222-.497.402-1.175.18-.688.286-1.408.085-.56.085-1.196 0-.624-.116-.984-.116-.37-.35-.37h-.032q-.35.138-.667.942-.36.9-.54 2.085-.095.677-.095 1.25 0 .392.053.794.074.455.16.614zm2.878.412q-.01.085-.095.16-.074.074-.148.074-.074 0-.138-.053-.053-.064-.053-.148v-.032q.2-1.43.296-2.38l.095-.677.392-2.974q-.413 0-.444.01-.085 0-.148-.053-.053-.053-.053-.138v-.02l.01-.02q.01-.085.074-.138.074-.064.148-.064.042-.01.466-.01l.138-.847.074-.52q.18-1.164.7-1.524.17-.116.34-.116.233 0 .423.222.2.212.317.603.01.01.01.064-.032.148-.17.222l-.095.02q-.116 0-.18-.127-.095-.38-.286-.53-.064-.064-.148 0-.138.085-.286.423-.138.34-.212.75-.138 1.005-.2 1.355h.17l.328-.01q.085 0 .138.053.053.042.053.116v.042q-.02.095-.085.16-.064.063-.16.063l-.328.01h-.17l-.38 2.974-.16 1.122-.243 1.937zm3.652-.54q-.074.34-.38.57-.307.233-.667.233-.307 0-.497-.2-.18-.2-.18-.52 0-.127.01-.2l.54-3.65.243-1.736q-.317 0-.466.02-.074 0-.127-.064-.053-.063-.053-.148v-.02l.01-.01q.01-.074.074-.138.074-.063.16-.063.074-.01.455-.01l.286-1.905q.01-.085.085-.148.074-.063.16-.063.074 0 .127.063.064.053.064.138v.02q-.074.487-.127.9l-.16 1.005.75-.02q.085 0 .138.053.063.053.063.138v.02q-.02.095-.085.16-.063.064-.16.064l-.762.02-.243 1.736-.54 3.725-.01.095q0 .307.286.307.106 0 .212-.042.116-.042.18-.095.148-.116.18-.286.02-.085.095-.138.074-.063.148-.063.085 0 .138.063.053.053.053.138v.042zm3.217.635q-.032.02-.17.074h-.053q-.085 0-.148-.032-.064-.042-.064-.095v-.01l.01-.074q-.042-.857-.042-2.16 0-.804.01-1.228-.01-.01-.01-.138l.01-.677V4.8l-.286.963-.233.762-.01.01-.074.254q-.54 1.683-.836 2.9 0 .02-.074.053-.064.02-.127.02-.085 0-.148-.032-.064-.02-.064-.042v-.042q.127-1.408.265-3.694l.032-.413.053-1.027q0-.064.01-.222.01-.16.032-.328v-.656q.032-.053.222-.095h.02q.042 0 .127.02.053.032.053.053l-.01.01q-.032.392-.074 1.206l-.085 1.44-.01.328-.064 1.06q-.01.053-.01.138 0 .053.01.064l.243-.783-.01.01q.085-.212.085-.265v.02q.688-2.138.9-3.143l.01-.053q0-.01.064-.042l.106-.042v.01h.032q.095 0 .17.032.053.053.042.074v2.656l-.01.222-.01 1.62h.032l.423-1.757.042-.16q0-.02.01-.032h.01l.01-.116q.402-1.513.603-2.476.01-.032.063-.053.053-.032.116-.032.222 0 .222.106v.01-.02l-.074.34-.52 2.138v.01l-.01.042q-.01.01-.02.042-.01.032-.01.042l-.032.17q-.508 2-.804 3.503l.032.106q-.01-.01-.01-.042l-.042-.042.032.074zm3.196.2q-.01.01-.063.01-.074 0-.127-.042-.053-.042-.064-.106-.02-.063-.042-.392-.2.212-.434.328-.233.116-.455.116-.296 0-.476-.212-.265-.265-.265-.9 0-.254.032-.508.095-.677.392-1.312.286-.646.656-.963.307-.243.582-.243.2 0 .413.127.127-.847.17-1.27.042-.434.042-.677 0-.2-.042-.286-.032-.085-.116-.116 0-.02-.032-.02-.106 0-.275.148-.148.106-.487.487-.064.085-.18.085-.053 0-.127-.053-.064-.053-.064-.138v-.02q0-.063.064-.138Q65.902 3 66.336 3q.265 0 .413.222.16.222.16.624 0 .413-.148 1.418L66.6 6.44l-.032.2-.074.55q-.17 1.228-.2 1.598-.02.212-.02.54 0 .212.01.286.01.01.01.064-.02.074-.074.138-.042.064-.106.085zM64.62 8.65q0 .783.423.72.222-.053.413-.222.2-.18.392-.508l.032-.16q.01-.233.148-1.164l.095-.677.042-.286q-.212-.243-.38-.243-.138 0-.286.138-.275.222-.52.783-.243.56-.328 1.175-.032.222-.032.444zm2.73 1.198q-.02.01-.064 0h-.02q-.074 0-.116-.053-.053-.063-.074-.148.053-.34.053-.434L67.15 9l.064-.54.095-.614.106-.794.16-1.1q.2-1.44.317-2.603.01-.085.074-.148.074-.074.17-.085.085 0 .138.053.053.053.053.127v.032l-.064.52-.116 1.037q.508-1.175 1.058-1.556.328-.243.72-.233.074.01.116.074.042.053.042.138v.032q-.02.085-.106.148-.074.064-.16.053-.402-.042-.826.603-.38.582-.7 1.566-.328.984-.54 2.138-.053.455-.18 1.333v.402l-.01.042q-.01.085-.064.148-.053.053-.138.064zm3.683-.128q-.296.116-.487.116-.56 0-.783-.57-.233-.57-.233-1.408 0-.635.085-1.196.17-1.206.56-2.17.392-.974.952-1.228.254-.085.392-.085.392 0 .593.36.212.36.212.952 0 .296-.042.55-.01.106-.085.487-.02.085-.095.148-.074.053-.148.053h-.265q-.17 0-.254.01l-.92.01q-.106.02-.2.02h-.106q-.148.688-.18.942-.074.508-.074 1.048 0 .74.18 1.196.18.444.497.444.085 0 .116-.01l.042-.02q0 0 .02-.02.34-.106.455-.286.042-.148.042-.265l.02-.16q.01-.085.085-.148.085-.063.17-.063.074.01.127.063.053.053.053.138v.032l-.01.095q-.02.328-.148.54-.127.212-.508.392zm-.54-4.88q-.053.106-.106.275-.053.17-.064.212h.042q.148 0 .212-.01l.9-.01q.085-.01.265-.01h.064q.074-.38.074-.74 0-.34-.085-.614-.127-.317-.34-.317-.116 0-.212.042-.392.18-.75 1.175z"/></g><defs ><path id="B" d="M30.575 9.604q-.02.085-.095.148-.074.063-.17.063-.074 0-.127-.053-.053-.053-.053-.138v-.032l.127-.857q.032-.16.053-.296.01-.148.032-.265l.243-1.894q.01-.074.02-.138.01-.074.01-.148l.02-.17.02-.138.2-1.598.085-.72q.01-.085.085-.148.085-.064.17-.064.085 0 .127.053.053.042.053.127v.032q-.17 1.45-.275 2.307l-.02.127-.02.18q0 .074-.01.148-.01.074-.02.148-.106.92-.275 2.17zm1.08-7.525q-.042.116-.127.2-.085.074-.18.074h-.042q-.16 0-.243-.127-.042-.127-.042-.16v-.032l.01-.042q.02-.095.042-.138.127-.18.328-.18.138 0 .222.064.085.053.085.17 0 .053-.01.085-.032.032-.042.074z"/></defs></svg>