<svg xmlns="http://www.w3.org/2000/svg" viewBox="0 0 1853.955 1665.281"><style><![CDATA[.B{fill:#fff}.C{stroke:#fff}.D{stroke-width:.5}.E{fill:#ccc}.F{stroke:#ccc}.G{fill:#0c242c}.H{stroke:#0c242c}.I{fill:#acacac}.J{stroke:#acacac}.K{fill:#e0e0e0}.L{stroke:#e0e0e0}]]></style><g class="D"><path d="M747.617 250.393l179.366-103.52 48.315 27.842c-2.948 3.586-7.106 5.717-11.124 7.83L766.024 296.97c-7.622 4.478-15.582 8.44-22.707 13.724-14.362-11.31-29.306-21.88-44.58-31.934l48.88-28.368z" class="G H"/><path fill="#12333b" stroke="#12333b" d="M975.298 174.715l98.17 56.857 304.72 175.93c14.325 8.476 29.006 16.38 43.124 25.195L977.317 689.253c-1.145-6.974-.582-14.043-.657-21.064l-.122-149.957-137.547-79.367c-.873-7.04-1.952-14.118-4.543-20.745-6.026-15.902-15.564-30.19-26.002-43.5-18.98-23.88-41.415-44.813-65.127-63.925 7.125-5.285 15.085-9.246 22.707-13.724l198.15-114.427c4.016-2.113 8.174-4.244 11.122-7.83z"/><path d="M446.886 311.024c4.44-1.887 8.683-4.44 13.348-5.707 11.856 6.364 23.364 13.442 35.107 20.05 3.05 1.84 6.702 3.23 8.505 6.533l12.08 18.85c1.4 1.962 1.183 4.44 1.22 6.73l-.16 14.24c-10.147-4-20.06-8.552-30.18-12.597-.122-4.628-.122-9.256-.084-13.883-3.652-2.215-7.36-4.346-11.095-6.4.47 4.468-1.577 10.016 2.197 13.452l36.92 41.875c1.117 1.305 2.412 2.722 2.197 4.6v39.576c-4.984 2.3-10.025 4.496-15.113 6.57l-38.9-22.388c-2.713-1.342-4.055-4.158-5.613-6.58-3.633-6.017-7.557-11.865-11.2-17.882-1.324-2.018-1.05-4.487-1.098-6.768l.15-18.154c10.175 3.952 20.126 8.486 30.226 12.635l.075 18.54c3.614 2.14 7.247 4.27 11.002 6.167.02-4.487.263-8.983-.028-13.452-.075-1.408-1.286-2.366-2.046-3.426l-36.543-41.35c-1.192-1.502-2.976-2.93-2.77-5.05l-.066-31.024c.157-1.804-.5-4.554 1.846-5.136zm73.8 29.193l65.83 37.876-.103 27.954c-6.148-3.004-11.856-6.806-17.873-10.035l-.084 87.3-29.935-17.17-.038-77.677c-.113-3.314.385-6.72-.45-9.96-5.604-3.633-11.546-6.73-17.328-10.072l-.02-28.206zm69.53 55.14c4.994-1.915 9.734-4.468 14.803-6.167 2.32.563 4.28 2.028 6.355 3.163l32.76 18.915c2.675 1.37 4.074 4.13 5.613 6.57l10.504 16.718c1.117 1.615 1.37 3.576 1.333 5.5l-.038 79.864c.526 2.44-2.206 3.032-3.858 3.84-3.792 1.408-7.36 3.473-11.302 4.412-11.546-6.102-22.65-13.057-34.065-19.422-3.023-1.887-6.73-3.182-8.57-6.45l-12.372-19.525c-1.286-1.755-1.258-3.97-1.25-6.026l.086-81.384m30.047 27.776l.02 64.498c3.65 2.046 7.247 4.196 10.964 6.14l.085-59.344c-.085-1.718.113-3.5-.498-5.135-3.35-2.328-7.068-4.065-10.57-6.158zm50.653 3.7l51.74 29.747c2.516 1.436 5.304 2.807 6.796 5.435l10.955 17.253c1.277 2.075 2.92 4.177 2.816 6.76l-.02 26.368-12.325 5.66 10.908 17c1.54 2.13 1.202 4.862 1.277 7.34l-.13 41.566c-10.12-5.5-19.966-11.462-29.963-17.17l-.094-46.72-11.78-6.712-.14 46.287C690.76 554.2 680.83 548.25 670.86 542.39l.065-115.553m30.114 41.603l.056 20.116 11.8 6.824c.084-6.76.225-13.527-.113-20.285-3.98-2.112-7.847-4.43-11.752-6.655zm-391.382 4.846l23.843-40.87 49.178 28.433-98.62 171.162c-11.33-5.867-22.163-12.635-33.267-18.896-5.37-3.36-11.48-5.7-15.986-10.28l74.852-129.55zm442.878.647l62.46 35.943c.178 9.293.047 18.586.075 27.9l-32.366-18.643.103 15.282c9.903 5.426 19.544 11.33 29.438 16.793.282 9.293.113 18.605.094 27.917l-29.57-17c.047 4.947-.17 9.894.02 14.85-.16 1.248 1.23 1.793 2.056 2.422l29.898 17.32-.122 28.583c-20.84-11.48-41.18-23.87-61.982-35.445l-.105-115.92zm-375.376 111l55.167-95.4 49.282 28.405-98.544 171.087c-7.5-3.436-14.37-8.035-21.6-12.006-9.387-5.257-18.502-11.02-28.048-15.977l43.733-76.1zm144.466-21.693c3.267-5.52 6.186-11.255 9.903-16.493l49.188 28.424-98.742 171.143c-10.833-5.66-21.205-12.147-31.86-18.126-5.8-3.642-12.325-6.26-17.413-10.973l88.923-153.975z" class="B C"/><path d="M1336.893 652.935l183.9-106.054.02 299.66.216 43.5-.272 114.042c-13.864 7.52-27.363 15.705-41.077 23.496L926.993 1346.8l-.732-.507c1.324-8.833.47-17.77.695-26.65l-.075-315.6-.206-56.754c.638-19.187.113-38.402.282-57.608l409.936-236.738m84.812 7.828v.788c-1.53.657-3.032 1.333-4.468 2.122l-242.625 139.95c-3.22 2.018-6.515 3.896-9.8 5.792l-188.2 108.654c-.48 16.82-.075 33.67-.207 50.502v88.238c.207 10.823-.44 21.674.357 32.48l.798-.46c-2.178 3.483-.76 8.14-1.117 12.1l.225 45.283c3.182-1.492 6.26-3.2 9.255-5.03l237.95-137.425.01-.657c5.435-1.784 10.006-5.322 15-7.988l212.465-122.64c6.44-4 13.48-7.068 19.394-11.846l.6.33.01-158.968-.197-69.473-49.45 28.252zm-1187.47-56.376l.573-1.55c4.506 4.6 10.617 6.918 15.986 10.28 11.105 6.26 21.937 13.03 33.267 18.896l-.216 1.38-.113 56.33c-6.008-2.788-11.565-6.44-17.338-9.66l-29.747-17.13c-.826-.676-2.16-1.014-2.422-2.16l.01-56.388z" class="E F"/><path d="M623.146 615.95c2.356-4.102 4.44-8.43 7.66-11.95 16.024 9.584 32.216 18.905 48.503 28.04-2.253 5.49-5.595 10.43-8.505 15.582L580.85 803.623 547.75 784.54c-5.454-3.257-11.302-5.923-16.174-10.053l91.57-158.536z" class="B C"/><path d="M1421.705 660.763c16.7-9.05 32.873-19.01 49.45-28.255.45 23.148.066 46.315.197 69.473l-.01 158.968-.59-.33-49-28.18-.047-171.677z" class="I J"/><path d="M332.854 660.782l.573.263c9.547 4.956 18.66 10.72 28.048 15.977 7.22 3.97 14.08 8.57 21.6 12.006-.93 5.52-.413 11.142-.507 16.71l-.15 41.32-50.08-28.753.13-.713c.948-4.515.798-9.152.75-13.733-.254-14.362.412-28.743-.357-43.077z" class="E F"/><path d="M714.67 685.94c5.03-8.242 9.218-17.028 14.897-24.857l48.634 28.03c-2.994 7.33-7.622 13.836-11.377 20.773l-62.19 107.725-24.847 43.434-.48-.33c-16.164-9.678-32.526-19.056-48.953-28.292 4.337-8.6 9.584-16.7 14.25-25.12L714.67 685.94z" class="B C"/><path d="M432.27 718.906l.432-1.7c5.088 4.712 11.602 7.33 17.413 10.973 10.654 5.98 21.027 12.466 31.86 18.126l-.207 1.446.056 56.322-48.906-28.32-.864-.535c.395-18.763-.055-37.547.217-56.32z" class="E F"/><path d="M333.135 718.756l49.272 28.302.038 56.388c-6.74-3.032-12.888-7.162-19.31-10.767l-29.147-16.86c-.78-13.77.573-27.598-.742-41.34-.45-5.23-.27-10.486-.112-15.724z" class="K L"/><path d="M822.703 727.29c1.737-3.173 3.5-6.43 6.186-8.927 16.014 9.593 32.216 18.896 48.502 28.04-7.52 14.156-15.948 27.814-23.824 41.772l-74.805 129.784-49.113-28.386.047-.873 93.007-161.41z" class="B C"/><path fill="#ececec" stroke="#ececec" d="M333.248 734.48c1.314 13.743-.038 27.57.742 41.34l29.147 16.86c6.42 3.605 12.57 7.735 19.31 10.767l.01.854-.01 107.988c.038 1.737.122 3.5.3 5.257l.582.44 234.383 135.482c3.774 2.253 7.603 4.402 11.565 6.336.62-18.7-.338-37.426.48-56.106.685-18.924.066-37.867.33-56.79 14.72 7.66 28.78 16.53 43.246 24.67 1.906 1.014 3.867 1.915 5.84 2.826.507 21.205.094 42.42.225 63.634l-.066 165.2c-6.15-2.797-11.818-6.458-17.685-9.772l-328.12-189.307c-.347 19.074-.094 38.158-.13 57.232-.563-22.172-.075-44.363-.207-66.535l.01-91.992c-.028-4.3.13-8.58-.3-12.84l-.32-128.902c.307-8.88-.725-17.825.664-26.64z"/><path fill="#c2c2c2" stroke="#c2c2c2" d="M382.407 747.058l.788.094 48.86 28.076a40.49 40.49 0 0 0 .864.535c-.544 3.22-.826 6.486-.798 9.762l.122 46.813-33.83-19.525c-5.163-3.117-10.335-6.28-15.958-8.514l-.01-.854-.037-56.387z"/><path d="M531.125 775.547l.45-1.06c4.872 4.13 10.72 6.796 16.174 10.053l33.098 19.084-.16.742c-.357 18.85.188 37.717-.263 56.566l-50.08-28.865c.516-2.657.826-5.35.826-8.054l-.046-48.465z" class="E F"/><path d="M1174.61 803.624l49.075-28.236.197 228.366-49.422-28.518-.056-144.653c.066-8.983-.207-17.976.206-26.96z" class="I J"/><path d="M382.454 804.3c5.623 2.234 10.795 5.397 15.958 8.514l33.83 19.525-.028 57.3-48.878 28.358-.582-.44c-.188-1.755-.272-3.52-.3-5.257l.01-107.988zm247.9 28.123l48.953 28.292c.78 19.3-.422 38.674.62 57.974.94 18.962-.047 37.98.47 56.97 16.315 9.124 32.207 19.027 48.756 27.73l-.038 172.195c-9.8 4.9-19.027 10.823-28.583 16.155-6.975 4.234-14.38 7.8-21 12.588l-.197-1.1.066-165.2-.225-63.634-.244-56.115c-16.4-9.03-32.3-18.962-48.803-27.823l-.272-.78c.882-19.066-.16-38.188.497-57.262z" class="E F"/><path d="M1226.456 945.226l195.296-112.784 49 28.18c-5.914 4.778-12.954 7.857-19.394 11.846l-212.465 122.64c-4.994 2.666-9.565 6.205-15 7.988l.056-53.356c-.234-1.97.723-3.67 2.507-4.515z" class="B C"/><path fill="#c2c2c2" stroke="#c2c2c2" d="M729.143 890.02l.554-1.324-.047.873-.01 57.092c-1.033 18.887-.113 37.82-.488 56.725-16.55-8.702-32.44-18.605-48.756-27.73-.516-19 .47-38.008-.47-56.97 16.624 8.692 32.44 18.85 48.962 27.73l.253-56.396z"/><path d="M383.337 917.985l48.878-28.358 197.55 114.07c-.817 18.68.14 37.407-.48 56.106-3.96-1.934-7.79-4.083-11.565-6.336L383.337 917.985z" class="B C"/><path d="M729.65 889.57l49.113 28.386-.113.788-.178 56.547c-16.446-8.927-32.282-18.943-48.812-27.7l-.02-.92.01-57.09z" class="E F"/><path fill="#12333b" stroke="#12333b" d="M313.225 901.145c6.57-3.68 12.935-7.744 19.675-11.124.432 4.262.272 8.552.3 12.84l-.01 91.992.207 66.535 91.43 52.567 250.538 144.672a35.93 35.93 0 0 0 4.693 2.103l48.484-27.748 1.943.103c6.12 2.43 11.574 6.158 17.29 9.378l101.2 58.396c9.556 5.257 18.66 11.35 28.536 16.014l-.02 1.577.028 57.016c16.652 9.105 32.78 19.15 49.46 28.208l83.694-48.174 510.08-294.413v-57.017l.272-114.042c14.916 7.96 29.344 16.85 44.08 25.176l252.5 145.78-2.243 1.67c-6.092 4.177-12.597 7.68-18.98 11.35l-861.123 497.18c-2.12 1.127-4.3 2.13-6.42 3.257-5.96-1.83-11.18-5.266-16.484-8.43l-875.4-505.263 276.278-159.606z"/><path d="M630.13 890.463c16.493 8.86 32.394 18.793 48.803 27.823.582 18.69.047 37.407.244 56.115-1.97-.91-3.933-1.812-5.84-2.826-14.465-8.138-28.527-17.01-43.246-24.67l.038-56.443z" class="K L"/></g><path d="M1417.237 663.673c1.436-.8 2.938-1.464 4.468-2.122l.047 170.9-195.296 112.784c-1.784.845-2.74 2.544-2.506 4.515l-.065 54.013-.197-228.366 193.55-111.714zM1164.82 809.415l9.8-5.792c-.413 8.983-.14 17.976-.207 26.96l.056 144.653-197.7 114.052c-.798-10.804-.15-21.656-.357-32.48V968.57l.207-50.502 188.2-108.653zm-732.577 23.768c5.914 2.262 11.142 5.857 16.652 8.918l131.502 75.96 48.906 27.926c.6-18.718-.507-37.492.535-56.18l.02-.122.272.78-.038 56.444c-.263 18.924.357 37.867-.33 56.8l-197.55-114.07.03-56.444zm296.9 170.205c.375-18.905-.544-37.84.488-56.725l.02.92c.732 19.055-.197 38.15.47 57.204 13.827 7.294 27.1 15.564 40.74 23.167l49.338 28.62c3.182 1.746 6.927 5.172 10.664 2.732l30.376-17.507c5.304-3.06 10.513-6.336 16.193-8.683l.038 227.653-148.183-85.224c-.347 17.694.066 35.408-.206 53.1.038 1.558-.216 3.5 1.4 4.43l-1.943-.103c1.07-10.495.272-21.083.516-31.615l.056-25.786.037-172.196z" fill="#f95" stroke="#5df" class="D"/><path d="M432.12 785.526a55.65 55.65 0 0 1 .798-9.762c16.155 9.697 32.535 19 48.906 28.32l98.6 56.848 49.14 28.105.272.77c-1.042 18.7.066 37.463-.535 56.18-16.52-8.9-32.535-18.727-48.906-27.926L448.893 842.1c-5.5-3.06-10.74-6.655-16.652-8.918v-.845l-.123-46.815zm297.54 162.056c16.53 8.767 32.366 18.783 48.812 27.7l48.962 28.02.713.366 48.916-28.048c.845 9.2.33 18.445.46 27.663l-.085 29.822c-5.68 2.347-10.9 5.623-16.193 8.683l-30.376 17.507c-3.736 2.44-7.48-.986-10.664-2.732l-49.338-28.62c-13.65-7.603-26.912-15.873-40.74-23.167-.665-19.054.264-38.147-.468-57.203z" fill="#ff8d40" stroke="#51d2f2" class="D"/><g class="D"><path d="M907.768 957.823c6.308-3.5 12.344-7.52 18.905-10.542.563 18.905.225 37.84.206 56.754-16.427 8.73-32.075 18.887-48.568 27.494-.432-18.858-.197-37.736-.103-56.594l29.56-17.112z" class="K L"/><path fill="#ececec" stroke="#ececec" d="M877.063 975.63l1.145-.695.103 56.594c16.493-8.608 32.14-18.765 48.568-27.494l.075 315.61c-.225 8.88.63 17.816-.695 26.65l-28.93-16.756c-6.618-3.69-12.992-7.83-19.835-11.086l.02-1.577.01-313.58c-.13-9.22.387-18.465-.458-27.664z"/><path d="M977.57 1088.828l196.892-113.592 49.422 28.518-237.95 137.425c-2.994 1.83-6.073 3.54-9.255 5.03-.507-15.094-.056-30.198-.225-45.283.355-3.96-1.062-8.616 1.116-12.1z" class="B C"/><path d="M1477.22 514.45l43.584-24.94-.01 57.373-593.838 342.793.13-57.75L1477.22 514.45z" class="I J"/></g><path d="M661.35 243.07L926.955 89.876l.028 56.998L698.74 278.76c15.273 10.053 30.217 20.623 44.58 31.934 23.7 19.112 46.146 40.045 65.127 63.925 10.438 13.3 19.975 27.598 26.002 43.5 2.6 6.627 3.67 13.705 4.543 20.745L976.54 518.23l.122 149.957c.075 7.02-.488 14.1.657 21.064-9.97 6.167-20.238 11.8-30.357 17.713-6.665 3.698-13.03 7.923-19.93 11.2l-.085-149.47c-.028-7.388.197-14.766-.206-22.144l-112.625-64.92-24.847-14.465c-.713-16.446-8.4-31.484-16.906-45.208-14.587-22.65-33.117-42.495-52.858-60.715-25.645-23.43-53.73-44.184-83.582-61.954-28.17-16.718-57.965-31.25-89.664-39.904-8.448-2.47-17.178-3.67-25.824-5.2.207-7.33 2.694-14.916 8.373-19.835 7.923-7.03 19-8.805 29.23-9.04 10.016-.103 19.957 1.464 29.747 3.436 19.44 4.656 38.3 11.565 56.34 20.135 1.643.6 3.464 1.727 5.247.93 4.253-1.744 7.96-4.55 11.98-6.738zm-279.928-66.918c1.126-1.098 2.47-.197 3.586.394L489.1 236.848c9.622 5.726 19.562 10.945 28.987 17-13.207-.066-28.142-.253-38.684 9.002-6.045 4.984-7.94 12.916-8.73 20.36l-44.644-25.617-48.596-28.34-43.865-25.373 47.854-27.738zm826.148 437.47l362.647-209.46-.056 55.665c.17 1.67-1.765 2.197-2.825 2.985l-46.53 26.697c-14.72 7.96-29.034 16.67-43.584 24.94L927.087 831.926l-.13 57.75-.282 57.608c-6.56 3.023-12.597 7.04-18.905 10.542l-29.56 17.112c-.3.17-.864.526-1.145.695l-48.916 28.048-.084-45.433c.075-4.834-.732-10.072 1.793-14.456l60.518-104.72 27.7-48.324c3.22-5.247 5.613-11.067 9.753-15.695l279.74-161.43zm272.1 413.948l41.077-23.496v57.017l-593.773 342.587.01-56.876 552.687-319.232z" fill="#003380" stroke="#782121" class="D"/><g class="D"><path fill="#26414c" stroke="#26414c" d="M36.404 1060.45l.544.3 47.02 26.997 828.39 478.266c5.304 3.163 10.523 6.6 16.484 8.43-2.31 2.01-1.943 5.247-2 8.016l.113 28.18c.047 7.087-.422 14.212.526 21.28l.084.704-891.17-514.35v-57.822z"/><path d="M1815.366 1062.657l2.13-1.342.028 56.585c-9.715 6.27-20.032 11.65-29.963 17.59L927.5 1631.92c-.948-7.068-.48-14.193-.526-21.28l-.113-28.18c.047-2.77-.32-6.008 2-8.016 2.12-1.126 4.3-2.13 6.42-3.257l861.123-497.18c6.384-3.67 12.89-7.173 18.98-11.35z" class="G H"/><path d="M619.823 209.935l307.142-177.3 643.252 371.536L927.83 775.05c-17.047-9.124-33.427-19.46-50.436-28.65l-48.502-28.04c-13.104-7.96-26.537-15.348-39.735-23.148-3.605-2.12-7.237-4.196-10.955-6.102l-48.634-28.03c-10.307-6.45-21.008-12.23-31.465-18.417-6.26-3.558-12.4-7.322-18.793-10.626L630.806 604l-99.278-57.25c-13.5-8.364-27.476-15.892-41.106-24.02-2.9-1.7-5.84-3.267-8.814-4.787l-49.282-28.405c-16.324-9.94-32.9-19.46-49.648-28.687L333.5 432.416c-16.117-9.93-32.826-18.868-49-28.696 16.033-9.622 32.3-18.85 48.55-28.114 13.508 7.06 26.453 15.122 39.735 22.594L562.09 507.38l364.94 210.775c6.9-3.267 13.264-7.5 19.93-11.2l30.357-17.713L1421.3 432.698c9.32-5.163 18.492-10.607 27.738-15.92 7.2-4.337 14.83-7.97 21.618-12.973-14.747-9.04-29.935-17.347-44.86-26.105L926.954 89.876 661.35 243.07c-4.018 2.187-7.725 4.994-11.978 6.74-1.784.798-3.605-.338-5.247-.93-18.042-8.57-36.9-15.48-56.34-20.135 10.402-6.712 21.394-12.485 32.04-18.812zM184.737 632.35l.084-57.054c6.167 4.553 13.038 8.007 19.628 11.893l29.785 17.197-.01 56.388c-7.012-3.5-13.64-7.735-20.482-11.565l-29.006-16.86zm99.107 1.04c10.297 5.182 20.06 11.368 30.104 17.028 6.3 3.454 12.26 7.566 18.905 10.363.77 14.334.103 28.715.357 43.077.047 4.58.197 9.218-.75 13.733-16.4-9.04-32.366-18.793-48.728-27.87l.113-56.33zm99.418 57.196c8.627 4.478 16.897 9.603 25.335 14.4 7.866 4.684 16.014 8.88 23.674 13.92l-.216 56.322-48.86-28.076.066-56.567zm98.506 57.176c5.426 2.328 10.4 5.5 15.507 8.458l33.85 19.328.047 48.465c0 2.703-.3 5.398-.826 8.054l-48.52-27.983c-.318-18.765-.234-37.558-.056-56.322zm98.92 56.603L629.5 832.63c.45 18.793.244 37.604.066 56.406-16.568-9.012-32.695-18.85-49.14-28.105.45-18.848-.093-37.716.263-56.565zm98.62 56.35l.48.33 6.75 4.45 42.607 24.528c-.432 18.783.103 37.595-.253 56.397-16.52-8.88-32.338-19.037-48.962-27.73-1.043-19.3.16-38.665-.62-57.974zm99.342 58.03l48.474 27.767c.497 18.924-.16 37.876.3 56.8-16.484-9.05-32.573-18.802-48.962-28.02l.178-56.548zm-78.118 272.992c9.556-5.332 18.793-11.246 28.583-16.155l-.056 25.786c-.244 10.532.554 21.12-.516 31.615-16.38 8.843-32.3 18.567-48.484 27.748.404-12.278.085-24.566.178-36.834-.113-6.533.563-13.123-.704-19.572 6.618-4.796 14.024-8.354 21-12.588z" fill="#0055d4" stroke="#c83737"/><path d="M729.294 1175.545l148.183 85.224.038 56.106c-9.875-4.665-18.98-10.757-28.536-16.014l-101.2-58.396c-5.717-3.22-11.17-6.946-17.29-9.378-1.615-.93-1.36-2.872-1.4-4.43l.206-53.11z" class="G H"/><path d="M926.955 89.876l4.956 2.657 538.756 311.272c-6.787 5.003-14.428 8.636-21.618 12.973l-27.738 15.92c-14.118-8.814-28.8-16.718-43.124-25.195l-451.204-260.63-.028-56.997zM333.098 203.608l.47.282 43.865 25.373c16.033 9.734 32.423 18.85 48.596 28.34l44.644 25.617c.8-7.444 2.685-15.376 8.73-20.36 10.542-9.256 25.476-9.068 38.684-9.002a22.63 22.63 0 0 1 2.347.329c8.645 1.52 17.375 2.722 25.824 5.2 31.7 8.655 61.494 23.186 89.664 39.904 29.85 17.77 57.936 38.524 83.582 61.954 19.74 18.22 38.27 38.064 52.858 60.715 8.505 13.724 16.193 28.762 16.906 45.208 8.148 5.04 16.606 9.575 24.847 14.465l112.625 64.92c.404 7.378.178 14.756.206 22.144l.085 149.47L372.777 398.2c-13.283-7.472-26.227-15.535-39.735-22.594l.056-171.998m113.788 107.416c-2.347.582-1.7 3.332-1.85 5.135l.066 31.024c-.207 2.12 1.577 3.548 2.77 5.05l36.543 41.35c.76 1.06 1.97 2.018 2.046 3.426.3 4.468.047 8.965.028 13.452-3.755-1.896-7.388-4.027-11.002-6.167l-.075-18.54-30.226-12.635c-.207 6.045-.075 12.1-.15 18.154.047 2.28-.225 4.75 1.098 6.768 3.633 6.017 7.557 11.865 11.2 17.882 1.558 2.422 2.9 5.238 5.613 6.58l38.9 22.388a364.01 364.01 0 0 0 15.113-6.571v-39.576c.216-1.868-1.08-3.285-2.197-4.6l-36.92-41.875c-3.774-3.436-1.727-8.983-2.197-13.452 3.736 2.065 7.444 4.196 11.095 6.4l.084 13.883c10.12 4.046 20.032 8.608 30.18 12.597.17-4.75.122-9.5.16-14.24-.037-2.3.178-4.77-1.22-6.73l-12.08-18.85c-1.802-3.304-5.454-4.693-8.505-6.533l-35.107-20.05c-4.662 1.268-8.904 3.82-13.345 5.708m73.8 29.193l.02 28.208c5.782 3.342 11.724 6.44 17.328 10.072.835 3.238.338 6.646.45 9.96l.038 77.677 29.935 17.17.084-87.3c6.017 3.23 11.724 7.03 17.873 10.035.263-9.32.094-18.643.103-27.954l-65.83-37.878m69.53 55.14l-.085 81.385c-.01 2.056-.037 4.27 1.25 6.026l12.372 19.525c1.84 3.267 5.548 4.562 8.57 6.45 11.414 6.364 22.52 13.32 34.065 19.422 3.943-.94 7.5-3.004 11.302-4.412 1.652-.807 4.384-1.4 3.858-3.84l.038-79.864c.037-1.915-.216-3.877-1.333-5.5l-10.504-16.718c-1.54-2.44-2.938-5.2-5.613-6.57l-32.76-18.915c-2.075-1.136-4.036-2.6-6.355-3.163-5.07 1.698-9.8 4.25-14.804 6.166m80.7 31.484l-.066 115.554c9.97 5.857 19.9 11.818 30.104 17.263.32-15.423.056-30.855.14-46.287l11.78 6.712.094 46.72 29.963 17.17.13-41.566c-.075-2.478.263-5.2-1.277-7.34l-10.908-17 12.325-5.66.02-26.368c.103-2.58-1.54-4.684-2.816-6.76-3.745-5.7-7.294-11.508-10.955-17.253-1.493-2.628-4.28-4-6.796-5.435l-51.74-29.748m81.6 47.094l.103 115.92 61.98 35.453c.282-9.528.066-19.056.122-28.583-9.885-5.923-19.938-11.546-29.898-17.32-.826-.63-2.215-1.173-2.056-2.422-.188-4.956.028-9.903-.02-14.85l29.57 17-.094-27.917-29.438-16.793-.103-15.282 32.366 18.643-.075-27.9-62.46-35.943zM283.966 403.4l.526.32c16.183 9.828 32.892 18.765 49 28.696-8.3 13.414-15.826 27.288-23.843 40.87l-74.852 129.55-.573 1.55-29.785-17.197c-6.6-3.886-13.46-7.34-19.628-11.893L283.966 403.4zm336.307 19.732c3.5 2.093 7.22 3.83 10.57 6.158.6 1.633.413 3.417.498 5.135l-.085 59.344c-3.717-1.943-7.312-4.093-10.964-6.14l-.02-64.498zM382.68 460.85c16.737 9.227 33.324 18.746 49.648 28.687l-55.167 95.4-43.734 76.1-.573-.263c-6.646-2.797-12.607-6.9-18.905-10.363-10.044-5.66-19.807-11.846-30.104-17.028.047-.338.16-1.033.216-1.38l98.62-171.163zm318.36 7.593l11.752 6.655c.338 6.76.197 13.527.113 20.285l-11.8-6.824-.056-20.116zM481.6 517.94c2.976 1.52 5.923 3.088 8.814 4.787l41.106 24.02c-3.717 5.238-6.637 10.973-9.903 16.493l-88.923 153.974-.432 1.7c-7.66-5.04-15.808-9.237-23.674-13.92-8.44-4.797-16.7-9.922-25.335-14.4l-.066 56.566-.788-.094c.32-13.77.075-27.55.15-41.32.094-5.566-.422-11.2.507-16.7l47.6-82.502 50.943-88.584zm99.107 57.233c16.887 9.274 33.52 19 50.1 28.827-3.22 3.52-5.304 7.848-7.66 11.95l-91.57 158.537-.45 1.06c-11.443-6.158-22.53-12.954-33.85-19.328-5.097-2.948-10.082-6.13-15.507-8.458l.207-1.446 98.74-171.143zm98.59 56.867c6.393 3.304 12.532 7.068 18.793 10.626 10.457 6.186 21.158 11.968 31.465 18.417-5.68 7.83-9.866 16.615-14.897 24.857l-70.064 121.364c-4.665 8.42-9.913 16.52-14.25 25.12-.657 19.074.385 38.196-.497 57.26l-.02.122-.272-.77-.066-56.406-48.812-28.264.16-.742 89.955-156.002c2.908-5.154 6.25-10.1 8.503-15.583zm98.892 57.072c3.717 1.906 7.35 3.98 10.955 6.102l39.735 23.148c-2.685 2.497-4.45 5.754-6.186 8.927l-93.006 161.4-.554 1.324-42.607-24.528c-2.328-1.37-4.543-2.92-6.75-4.45 7.94-14.672 16.606-28.93 24.847-43.434l62.2-107.725c3.753-6.938 8.38-13.443 11.376-20.774zm99.192 57.288c17 9.2 33.4 19.525 50.436 28.65-4.14 4.628-6.533 10.448-9.753 15.695l-27.7 48.324-60.518 104.72c-2.525 4.384-1.718 9.622-1.793 14.456l.084 45.433-.713-.366c-.47-18.924.188-37.876-.3-56.8l-48.474-27.767.113-.788 74.805-129.784c7.875-13.96 16.305-27.617 23.824-41.772zM333.53 1004.158l328.12 189.307c5.867 3.314 11.537 6.974 17.685 9.772l.197 1.1c1.267 6.45.6 13.04.704 19.572l-.178 36.834c-1.624-.6-3.192-1.295-4.693-2.103L333.398 1061.4l.13-57.232zm543.965 314.294c6.843 3.257 13.217 7.397 19.835 11.086l28.93 16.756c.188.122.544.375.732.507l-.01 56.876c-16.68-9.058-32.807-19.103-49.46-28.208l-.03-57.017z" stroke="#d35f5f" fill="#2a7fff"/></g></svg>
