<svg xmlns="http://www.w3.org/2000/svg" width="24" height="24"><path fill="#f6c915" d="M1 1h22v22H1z"/><path fill="#1a171b" d="M9.06 17.44c-.828 0-1.477-.107-1.95-.323s-.8-.5-1.015-.883-.302-.8-.297-1.285.073-1 .202-1.55l2.22-9.283 2.7-.42-2.43 10.07a3.26 3.26 0 0 0-.08.576c-.005.176.027.33.097.464s.2.242.36.324.404.134.707.158L9.06 17.44zm9.792-5.786c0 .852-.14 1.63-.42 2.336s-.666 1.314-1.16 1.827-1.1.912-1.783 1.198-1.45.428-2.265.428a6.95 6.95 0 0 1-1.19-.104l-.784 3.16h-2.6l2.902-12.1a15.33 15.33 0 0 1 1.6-.375c.6-.11 1.252-.166 1.95-.166.653 0 1.216.1 1.7.298s.858.47 1.162.814.527.746.673 1.206a4.89 4.89 0 0 1 .218 1.478m-6.348 3.584c.198.047.443.07.734.07.455 0 .87-.084 1.242-.253s.7-.405.953-.708a3.27 3.27 0 0 0 .612-1.093c.145-.425.22-.894.22-1.408 0-.502-.112-.928-.332-1.278s-.607-.526-1.155-.526a5.01 5.01 0 0 0-1.05.106l-1.223 5.088"/></svg>
