<svg xmlns="http://www.w3.org/2000/svg" width="640" height="350" viewBox="0 0 169.333 92.604"><path d="M0 0h169.333v92.604H0z" fill="#fff" paint-order="markers stroke fill"/><path d="M0 46.3V0h169.333v92.604H0zm125.883 20.564c.552-.386.588-.604.588-3.562 0-2.607.068-3.15.392-3.15.415 0 .423.025 1.068 3.276.455 2.293.495 2.393 1.27 3.255.633.7 1.3.758 1.895.165.513-.512.42-1.8-.414-5.8-.302-1.45-.3-1.697.12-2.32.264-.402.4-.917.294-1.214s-.042-.516.118-.516c.433 0 .336-.823-.16-1.37-.34-.375-.37-.56-.132-.798.17-.17.3-.713.3-1.204 0-.75-.127-.94-.793-1.193-.563-.212-.752-.427-.652-.742.22-.688-1.005-1.46-2.82-1.78-1.686-.296-2.165-.187-2.917.665-.37.42-.443 1.566-.526 8.386l-.097 7.9.66.185c1.012.283 1.16.27 1.793-.173zm1.183-9.8c-.225-.1-.33-.798-.33-2.222 0-1.99.028-2.09.595-2.092a5.38 5.38 0 0 0 1.124-.146c.48-.13.525-.024.48 1.125l-.066 2.388c-.016 1.047-.064 1.12-.744 1.1-.4-.012-.876-.08-1.058-.154zm-17.05 8.875c1.956-1.017 2.95-2.87 2.03-3.787-.787-.785-1.615-.535-2.304.693-.532.95-.745 1.113-1.4 1.065-1.27-.094-1.566-.638-1.72-3.18-.1-1.506-.03-2.533.175-2.965.192-.405.24-1.017.12-1.582-.704-3.362 1.485-6.232 2.912-3.82.78 1.316 1.4 1.593 2.072.922.667-.665.668-.972.007-2.054a3.93 3.919 0 0 0-3.441-1.9c-1.775.012-3.562 1.213-3.982 2.674-.342 1.19-.322 11.078.024 11.986.15.397.696 1.117 1.2 1.6.767.72 1.143.877 2.098.877a5.56 5.56 0 0 0 2.19-.532zm4.925.12c.243-.242.418-.873.422-1.516.01-1.742.56-2.197 2.905-2.395l1.984-.17.01 1.127c.01 1.25.542 2.51 1.244 2.946.684.424 1.788-.7 1.336-1.36-.173-.252-.57-.962-.88-1.58s-.746-1.12-.967-1.12c-.257 0-.344-.15-.24-.42.088-.23.16-.54.16-.692 0-.186.1-.184.34.007.207.172.488.2.72.047.314-.193.28-.32-.198-.733-.427-.37-.5-.576-.28-.795.4-.39-.243-1.194-.78-.987-.308.118-.353-.1-.236-1.11.08-.7.001-1.79-.173-2.443-.287-1.073-.394-1.187-1.1-1.187-.794 0-.794 0-.745 1.486.057 1.735.674 3.396 1.26 3.396s.5.344-.26 1.173c-.4.44-.83.66-1.08.566-.225-.086-.802-.157-1.282-.157-.74 0-.896-.1-1.02-.726-.107-.535-.001-.838.405-1.152.537-.416.767-1.795.815-4.923.01-.59.1-.778.285-.593.15.15.486.27.748.27.8 0 .57-1.127-.405-2.068-1.076-1.04-1.66-.9-1.85.437-.22 1.57-.594 3.04-.927 3.657a3.07 3.061 0 0 0-.311 1.219c0 .874-.952 4.617-1.275 5.01-.442.538-.7 4.35-.312 4.803.426.512 1.175.503 1.7-.02zm-32.375-6.454c.56-.3.687-1.17.2-1.464-.165-.102-.97-.183-1.786-.182s-1.56-.113-1.65-.254-.117-2.234-.06-4.647c.134-5.514.1-5.634-1.174-5.527l-.983.082.07 5.803c.06 5.08.124 5.845.514 6.134.542.402 4.133.444 4.86.057zM53.314 52.6V47.55l.66-.542c.585-.48.616-.585.265-.922-.567-.543-3.996-.798-4.616-.357-.7.504-.324 1.393.655 1.588l.786.157v4.476c0 5.258.154 5.897 1.4 5.778l.86-.083zm10.3 4.587c.548-.868-.108-1.37-1.982-1.516l-1.693-.132-.158-3.316 1.365.075c1.066.06 1.43-.026 1.665-.387.52-.803-.104-1.386-1.485-1.386H60.12l-.145-1.403c-.08-.772-.27-1.556-.424-1.74-.448-.538-.1-.618 1.465-.35 1.68.3 2.75-.024 2.75-.805 0-.834-.574-1.114-2.28-1.114-2.033 0-3.163.568-3.398 1.707-.1.44-.232 2.892-.315 5.446l-.15 4.647.624.44c.898.63 4.933.503 5.357-.17zm5.006-.99c.126-.653.308-1.26.404-1.352s.8-.243 1.564-.34l1.4-.174v.784c0 1.78 1.008 2.755 1.828 1.77.237-.284.172-.596-.287-1.386-.325-.56-.716-1.1-.868-1.22-.18-.132-.104-.334.2-.574.525-.4.424-1.24-.242-2a1.48 1.476 0 0 1-.319-.923c.1-1.673-.663-3.074-1.435-2.598-.448.276-.098 2.924.47 3.548.496.546.496.56-.006.927-.28.204-.904.372-1.386.372-.98 0-1.155-.532-.47-1.436.214-.28.388-.9.388-1.352 0-1.44.308-2.53.676-2.388.625.24.68-.69.08-1.33-.792-.84-1.454-.798-1.63.107-.077.4-.275 1.2-.44 1.78s-.474 1.887-.688 2.892-.504 2.05-.645 2.3-.336 1.122-.432 1.938c-.188 1.598.06 2.03 1.087 1.898.4-.05.58-.366.75-1.254zm-23.864.556c.558-.45.623-.733.668-2.916l.05-2.416-1.37-.604c-1.936-.854-2.6-2.543-1.542-3.86.413-.5.564-.548 1.07-.277a2.12 2.12 0 0 1 .836.957c.275.72 1.24.884 1.484.252.208-.54-.72-2.044-1.505-2.44-1.2-.6-2.338-.416-3.33.572-.887.884-.907.953-.833 2.8.07 1.717.142 1.94.795 2.403.396.28 1.23.598 1.852.703l1.132.19.078 1.47c.056 1.05-.034 1.56-.314 1.793-.52.43-1.34-.003-1.8-.947-.594-1.217-1.4-1.03-1.694.38-.14.698-.035.965.637 1.635.656.654 1.022.802 1.986.802.765 0 1.4-.176 1.8-.5zm46.7-1.76c.222-1.18.633-1.47 2.15-1.523 1.24-.043 1.27-.025 1.35.786.044.457.295 1.023.557 1.26.508.46 1.346.315 1.346-.23 0-.552-.804-1.97-1.275-2.248-.396-.233-.378-.28.157-.432.464-.13.565-.3.44-.73a2.56 2.56 0 0 0-.603-.957c-.274-.247-.45-.838-.467-1.568-.02-.887-.164-1.263-.595-1.55-.313-.207-.572-.568-.577-.806-.01-.542-1.224-1.444-1.7-1.262-.196.075-.442.648-.546 1.276s-.338 1.436-.518 1.8-.403 1.23-.495 1.93-.347 1.526-.566 1.84c-.232.33-.4 1.145-.4 1.94 0 1.093.094 1.394.463 1.476.783.174 1.103-.078 1.277-1.003zm.64-3.493c0-.26.117-.592.26-.735.252-.25.48-1.44.515-2.704.035-1.195.68-.43.687.816.005.803.173 1.394.5 1.755.657.724.165 1.344-1.068 1.344-.684 0-.894-.112-.894-.475zm27.544-.13c-.34-.34-.684-.077-.433.33.097.158.298.21.446.12.18-.112.176-.26-.014-.45zm-47.918-4.675c0-.146-.12-.264-.265-.264s-.265.12-.265.264.12.264.265.264.265-.12.265-.264zm23.02-.264c0-.146-.12-.264-.265-.264s-.265.12-.265.264.12.264.265.264.265-.12.265-.264zm39.536-6.22c.516-.515.564-1.994.266-8.085-.123-2.5-.112-2.573.54-2.998 1.07-.698.87-1.372-.458-1.542-2.923-.374-3.824-.287-4.04.39-.208.654.234 1.246 1.015 1.356.564.08.58.2.708 5.253.098 3.837.226 5.283.495 5.606.456.546.936.553 1.47.02zm-62.364-.39l.14-.538.378.538c.452.644 1.97.738 2.46.15.178-.213.43-1.43.557-2.704a158.73 158.73 0 0 1 .623-5.085c.54-3.854.526-4.135-.23-4.63-.5-.326-.766-.355-1.187-.13-.564.3-.677.622-.947 2.702-.16 1.226-.166 1.234-.676.726-.62-.618-1.006-.643-1.762-.115-.557.4-.575.37-.728-.858-.25-2.014-.493-2.547-1.276-2.822-.594-.21-.826-.16-1.256.27-.512.51-.515.6-.1 2.757.563 3.017 1.166 7.316 1.173 8.366.007 1.097.8 1.913 1.883 1.913.6 0 .856-.143.96-.538zm11.517-.3c1.073-.546 1.256-1.308 1.432-5.933l.17-4.483-1-1.114c-.77-.85-1.17-1.095-1.694-1.034-.864.1-1.065 1.084-.375 1.845.363.4.502 1.037.556 2.55.2 5.592-.007 6.636-1.233 6.247-.45-.143-.56-.39-.563-1.28-.002-.608-.156-1.4-.34-1.763-.277-.542-.27-.793.035-1.408.255-.513.318-1.157.2-2.04-.13-.975-.065-1.456.263-1.954.482-.734.33-1.994-.244-1.994-.447 0-1.64 1.262-1.4 1.492.096.096.027.352-.153.568-.22.263-.335 1.46-.348 3.586-.01 1.755-.1 3.56-.196 4.012-.472 2.206 2.583 3.88 4.912 2.692zm28.528-.027c1.016-.632 1.08-1.493.808-10.67-.03-.957-.145-1.173-.834-1.528-.44-.227-1.578-.486-2.528-.574-1.595-.15-1.738-.12-1.87.39-.08.302-.3.613-.515.69-.512.196-.55 11.29-.04 11.71.72.593 4.02.58 4.98-.018zm-3.064-3.54c-.1-.997-.158-2.508-.108-3.378s.084-2.147.074-2.836c-.018-1.246-.013-1.253.86-1.253.946 0 1.725.84 1.124 1.2-.208.13-.26.935-.165 2.59.076 1.32.063 3.055-.03 3.853-.15 1.32-.23 1.458-.862 1.532-.674.078-.7.026-.895-1.715zM93.16 39.385c.482-.284.768-.67.768-1.04 0-.323.123-.663.273-.756s.265-.842.255-1.665l-.03-4.003c-.023-4.833-.02-4.82-.797-5.03-.383-.103-.832-.103-1 0-.307.19-.514 8.662-.225 9.15.076.128.037.5-.087.826-.248.655-1.387.832-1.736.27-.1-.18-.173-2.495-.138-5.145l.064-4.82-.68-.3c-.554-.252-.756-.235-1.083.1s-.405 1.314-.42 5.52c-.012 3.198.092 5.4.277 5.858.543 1.356 3.057 1.936 4.558 1.053zm10.73.25c.303-.192.448-.686.4-1.316-.02-.224-.558-.33-1.685-.334-.9-.002-1.82-.1-2.02-.235-.35-.22-.396-2.007-.235-9.23.034-1.52-.857-2.28-1.9-1.623-.524.33-.54 11.91-.017 12.54.254.305.907.4 2.75.397 1.328-.002 2.552-.1 2.72-.197zm14.327-.115c.207-.206.317-1.284.317-3.087 0-1.524.095-2.657.2-2.52s.43.963.697 1.835c.768 2.5 1.413 3.77 2.008 3.96 1.166.37 1.318-.167 1.318-4.635 0-2.498-.106-4.238-.265-4.338-.146-.1-.265-.506-.265-.923 0-.843-.426-1.263-.85-.84-.15.15-.418 1.025-.592 1.942l-.317 1.668-.318-1.1c-.175-.6-.425-1.177-.555-1.256s-.434-.738-.676-1.462c-.326-.977-.57-1.316-.953-1.316-.637 0-1.073 1.044-.866 2.074.1.453-.018 1.08-.27 1.57-.327.63-.423 1.638-.423 4.47 0 3.726.138 4.288 1.058 4.288.233 0 .566-.143.74-.317zm-78.14-3.46c.323-.493.36-1.025.192-2.764-.142-1.466-.1-2.43.098-3.017.972-2.732 1.482-4.622 1.676-6.202.247-2.022.18-2.36-.517-2.58-.937-.296-1.5.31-1.982 2.174-.782 2.965-.92 3.073-1.433 1.114-.245-.935-.6-1.964-.765-2.3-.343-.635-1.4-1.032-1.9-.718-.485.3-.132 3.113.522 4.168.305.493.555 1.187.555 1.546s.298 1.38.66 2.273c.535 1.314.66 2.074.66 3.99 0 1.974.077 2.41.463 2.635.75.436 1.35.326 1.778-.325zm8.768.335c.678-.257 1.92-1.372 1.985-1.785.127-.796.326-5.454.33-7.748.005-2.617-.044-2.89-.707-3.887-.72-1.087-1.472-1.463-2.6-1.302-.934.133-.923.947.025 1.922.458.47.818 1.082.8 1.356s-.053 2.234-.08 4.352c-.052 4.22-.24 4.816-1.48 4.672-.622-.072-.698-.212-.834-1.53-.083-.798-.303-1.763-.5-2.144-.3-.592-.274-.795.12-1.396.367-.558.43-1.042.307-2.357-.127-1.358-.065-1.792.35-2.423.483-.734.483-1.78-.001-2.315-.32-.353-1.856 1.127-1.856 1.787 0 .332-.16.736-.356.897-.36.3-.384 2.15-.074 5.64.074.835.036 1.516-.085 1.516s-.297.4-.4.91c-.486 2.593 2.445 4.81 5.036 3.83zm10.707-.76c.425-.424.773-1.01.773-1.303s.104-.596.23-.675.134-.664.007-1.34c-.154-.82-.112-1.633.132-2.578s.277-1.595.102-2.04c-.14-.363-.214-1.838-.165-3.28l.1-2.618-.883-.23c-1.612-.422-1.65-.275-1.513 5.9.067 3.035.055 5.69-.026 5.903-.093.24-.515.384-1.14.384h-1l-.15-1.913c-.082-1.052-.093-3.673-.025-5.826.1-2.777.035-4.02-.186-4.288-.385-.463-1.4-.49-1.78-.044-.38.457-.492 11.73-.125 12.598.3.7 1.28 1.7 1.922 1.924.218.08.972.154 1.674.166 1.074.018 1.4-.102 2.05-.75zm67.895-4.185c.782-.496 1.173-3.084.56-3.697-.447-.446-1.713-.395-1.894.076-.387 1.005-.5 3.05-.172 3.43.357.43 1.002.51 1.506.19zm-5.474-3.62a.4.399 0 0 0-.397-.396.4.399 0 0 0-.397.396.4.399 0 0 0 .397.396.4.399 0 0 0 .397-.396z"/></svg>