<svg xmlns="http://www.w3.org/2000/svg" viewBox="0 0 169.333 92.869" height="351.001" width="639.999"><path d="M0 46.434V0h169.333v92.87H0zm125.883 20.623c.552-.387.588-.606.588-3.572 0-2.614.068-3.16.392-3.16.415 0 .423.025 1.068 3.285.455 2.3.495 2.4 1.27 3.264.633.703 1.3.76 1.895.165.513-.513.42-1.804-.414-5.827-.302-1.455-.3-1.702.12-2.327.264-.403.39-.92.294-1.217-.093-.293-.042-.517.118-.517.433 0 .336-.825-.16-1.374-.34-.376-.37-.563-.132-.8.17-.17.31-.715.31-1.207 0-.753-.127-.944-.793-1.196-.563-.213-.752-.428-.652-.744.22-.69-1.005-1.465-2.82-1.785-1.686-.297-2.165-.188-2.917.667-.37.42-.443 1.57-.526 8.41l-.097 7.924.66.186c1.012.284 1.16.27 1.793-.173zm1.183-9.818c-.225-.09-.33-.8-.33-2.228 0-1.995.028-2.095.595-2.098.327-.002.833-.068 1.124-.146.48-.13.525-.024.48 1.128l-.066 2.395c-.016 1.05-.064 1.123-.744 1.104-.4-.012-.876-.08-1.058-.154zm-17.05 8.9c1.956-1.02 2.95-2.878 2.03-3.798-.787-.787-1.615-.537-2.304.695-.532.952-.745 1.116-1.4 1.068-1.27-.094-1.566-.64-1.72-3.188-.09-1.51-.03-2.54.175-2.974.192-.406.24-1.02.12-1.587-.704-3.372 1.485-6.25 2.912-3.83.78 1.32 1.4 1.598 2.072.925.667-.667.668-.975.007-2.06a3.93 3.93 0 0 0-3.441-1.905c-1.775.012-3.562 1.216-3.982 2.682-.342 1.192-.322 11.11.024 12.02.15.398.696 1.12 1.21 1.605.767.723 1.143.88 2.098.88.653 0 1.614-.235 2.19-.534zm4.925.12c.243-.243.418-.876.422-1.52.01-1.747.56-2.203 2.905-2.402l1.984-.17.01 1.13c.01 1.254.542 2.518 1.244 2.954.684.425 1.788-.703 1.336-1.365-.173-.253-.57-.965-.88-1.584s-.746-1.124-.967-1.124c-.257 0-.344-.15-.24-.42.088-.23.16-.542.16-.694 0-.187.11-.185.34.007.207.172.488.2.72.047.314-.194.28-.32-.198-.735-.427-.37-.5-.578-.28-.797.39-.39-.243-1.197-.78-.99-.308.118-.353-.1-.236-1.112.08-.692.001-1.794-.173-2.45-.287-1.076-.394-1.19-1.11-1.19-.794 0-.794 0-.745 1.49.057 1.74.674 3.406 1.26 3.406s.51.345-.26 1.176c-.41.44-.83.663-1.08.568-.225-.086-.802-.157-1.282-.157-.74 0-.896-.1-1.02-.728-.107-.537-.001-.84.405-1.155.537-.417.767-1.8.815-4.937.01-.593.1-.78.285-.595.15.15.486.27.748.27.8 0 .57-1.13-.405-2.074-1.076-1.042-1.66-.904-1.85.438-.22 1.574-.594 3.05-.927 3.668a3.07 3.07 0 0 0-.311 1.223c0 .877-.952 4.63-1.275 5.025-.442.54-.69 4.362-.312 4.817.426.513 1.175.504 1.7-.02zm-32.375-6.473c.56-.3.687-1.174.21-1.468-.165-.102-.97-.184-1.786-.183s-1.56-.113-1.65-.255-.117-2.24-.06-4.66c.134-5.53.11-5.65-1.174-5.543l-.983.082.07 5.82c.06 5.094.124 5.862.514 6.152.542.403 4.133.445 4.86.057zM53.314 52.75v-5.062l.66-.544c.585-.48.616-.587.265-.925-.567-.545-3.996-.8-4.616-.358-.7.505-.324 1.397.655 1.593l.786.157V52.1c0 5.273.154 5.914 1.39 5.795l.86-.083zm10.29 4.6c.548-.87-.108-1.375-1.982-1.52l-1.693-.132-.158-3.326 1.365.075c1.066.06 1.43-.026 1.665-.388.52-.805-.104-1.39-1.485-1.39H60.12l-.145-1.407c-.08-.774-.27-1.56-.424-1.744-.448-.54-.1-.62 1.465-.35 1.68.3 2.75-.024 2.75-.807 0-.836-.574-1.117-2.28-1.117-2.033 0-3.163.57-3.398 1.712-.09.44-.232 2.9-.315 5.462l-.15 4.66.624.44c.898.633 4.933.504 5.357-.17zm5.006-.992c.126-.655.308-1.265.404-1.356s.8-.244 1.564-.34l1.39-.174v.786c0 1.784 1.008 2.763 1.828 1.775.237-.285.172-.598-.287-1.39-.325-.562-.716-1.113-.868-1.225-.18-.132-.104-.335.21-.576.525-.402.424-1.245-.242-2.006a1.48 1.48 0 0 1-.319-.926c.11-1.678-.663-3.083-1.435-2.605-.448.277-.098 2.932.47 3.558.496.548.496.563-.006.93-.28.205-.904.373-1.386.373-.98 0-1.155-.534-.47-1.44.214-.282.388-.893.388-1.356 0-1.444.308-2.536.676-2.395.625.24.68-.693.08-1.333-.792-.843-1.454-.8-1.63.107-.077.4-.275 1.204-.44 1.786s-.474 1.892-.688 2.9-.504 2.056-.645 2.306-.336 1.125-.432 1.944c-.188 1.603.06 2.036 1.087 1.903.4-.05.58-.367.75-1.258zm-23.864.558c.558-.452.623-.735.668-2.924l.05-2.423-1.37-.606c-1.936-.856-2.61-2.55-1.542-3.87.413-.5.564-.55 1.07-.278.325.174.7.606.836.96.275.723 1.24.887 1.484.253.208-.542-.72-2.05-1.505-2.447-1.21-.612-2.338-.417-3.33.574-.887.887-.907.956-.833 2.807.07 1.722.142 1.946.795 2.41.396.282 1.23.6 1.852.705l1.132.192.078 1.473c.056 1.053-.034 1.565-.314 1.798-.52.43-1.34-.003-1.8-.95-.594-1.22-1.41-1.034-1.694.382-.14.7-.035.968.637 1.64.656.656 1.022.804 1.986.804.765 0 1.4-.177 1.8-.5zm46.69-1.765c.222-1.183.633-1.475 2.15-1.527 1.24-.043 1.27-.025 1.35.788.044.458.295 1.026.557 1.263.508.46 1.346.316 1.346-.23 0-.554-.804-1.975-1.275-2.254-.396-.234-.378-.282.157-.433.464-.13.565-.3.44-.732-.1-.31-.36-.74-.603-.96-.274-.248-.45-.84-.467-1.573-.02-.89-.164-1.267-.595-1.554-.313-.208-.572-.57-.577-.808-.01-.544-1.224-1.448-1.7-1.266-.196.075-.442.65-.546 1.28s-.338 1.44-.518 1.804-.403 1.235-.495 1.936-.347 1.53-.566 1.845c-.232.33-.4 1.148-.4 1.947 0 1.096.094 1.398.463 1.48.783.174 1.103-.078 1.277-1.006zm.64-3.503c0-.262.117-.594.26-.737.252-.252.48-1.443.515-2.712.035-1.198.68-.43.687.818.005.805.173 1.398.5 1.76.657.726.165 1.348-1.068 1.348-.684 0-.894-.112-.894-.476zm27.544-.13c-.34-.34-.684-.077-.433.33.097.158.298.212.446.12.18-.112.176-.26-.014-.45zM71.702 46.83c0-.146-.12-.265-.265-.265s-.265.12-.265.265.12.265.265.265.265-.12.265-.265zm23.02-.265c0-.146-.12-.265-.265-.265s-.265.12-.265.265.12.265.265.265.265-.12.265-.265zm39.536-6.237c.516-.516.564-2 .266-8.108-.123-2.517-.112-2.58.54-3.007 1.07-.7.87-1.376-.458-1.546-2.923-.375-3.824-.288-4.04.39-.208.656.234 1.25 1.015 1.36.564.08.58.2.708 5.268.098 3.848.226 5.298.495 5.622.456.548.936.555 1.47.02zm-62.364-.39l.14-.54.378.54c.452.646 1.97.74 2.46.15.178-.214.43-1.435.557-2.712s.41-3.573.623-5.1c.54-3.865.526-4.147-.23-4.643-.5-.327-.766-.356-1.187-.13-.564.302-.677.624-.947 2.71-.16 1.23-.166 1.238-.676.728-.62-.62-1.006-.645-1.762-.115-.557.4-.575.37-.728-.86-.25-2.02-.493-2.554-1.276-2.83-.594-.21-.826-.16-1.256.27-.512.512-.515.592-.11 2.765.563 3.026 1.166 7.337 1.173 8.39.007 1.1.81 1.918 1.883 1.918.6 0 .856-.143.96-.54zm11.517-.3c1.073-.548 1.256-1.312 1.432-5.95l.17-4.496-1.01-1.117c-.77-.852-1.17-1.098-1.694-1.037-.864.1-1.065 1.087-.375 1.85.363.4.502 1.04.556 2.558.2 5.608-.007 6.655-1.233 6.265-.45-.143-.56-.392-.563-1.284-.002-.61-.156-1.404-.34-1.768-.277-.544-.27-.795.035-1.412.255-.514.318-1.16.2-2.047-.13-.978-.065-1.46.263-1.96.482-.736.33-2-.244-2-.447 0-1.64 1.266-1.41 1.496.096.096.027.353-.153.57-.22.264-.335 1.464-.348 3.596-.01 1.76-.1 3.57-.196 4.024-.472 2.212 2.583 3.89 4.912 2.7zm28.528-.027c1.016-.634 1.08-1.497.808-10.7-.03-.96-.145-1.176-.834-1.532-.44-.228-1.578-.487-2.528-.576-1.595-.15-1.738-.12-1.87.39-.08.303-.31.615-.515.693-.512.197-.55 11.323-.04 11.745.72.595 4.02.583 4.98-.018zm-3.064-3.55c-.1-1-.158-2.515-.108-3.388s.084-2.153.074-2.844c-.018-1.25-.013-1.257.86-1.257.946 0 1.725.842 1.124 1.213-.208.13-.26.938-.165 2.596.076 1.325.063 3.064-.03 3.864-.15 1.324-.23 1.462-.862 1.536-.674.078-.7.026-.895-1.72zM93.16 39.498c.482-.285.768-.673.768-1.043 0-.324.123-.665.273-.758s.265-.844.255-1.67l-.03-4.014c-.023-4.847-.02-4.834-.797-5.043-.383-.103-.832-.103-1 0-.307.19-.514 8.687-.225 9.176.076.128.037.5-.087.828-.248.657-1.387.834-1.736.27-.11-.18-.173-2.502-.138-5.16l.064-4.834-.68-.3c-.554-.253-.756-.236-1.083.09s-.405 1.318-.42 5.537c-.012 3.207.092 5.414.277 5.875.543 1.36 3.057 1.942 4.558 1.056zm10.73.25c.303-.193.448-.688.39-1.32-.02-.225-.558-.332-1.685-.335-.91-.002-1.82-.11-2.02-.236-.35-.222-.396-2.013-.235-9.257.034-1.524-.857-2.288-1.9-1.628-.524.332-.54 11.945-.017 12.576.254.306.907.4 2.75.398 1.328-.002 2.552-.09 2.72-.198zm14.327-.115c.207-.207.317-1.288.317-3.096 0-1.528.095-2.665.2-2.527s.43.966.697 1.84c.768 2.506 1.413 3.78 2.008 3.97 1.166.37 1.318-.167 1.318-4.648 0-2.505-.106-4.25-.265-4.35-.146-.1-.265-.507-.265-.926 0-.845-.426-1.267-.85-.843-.15.15-.418 1.028-.592 1.948l-.317 1.673-.318-1.113c-.175-.612-.425-1.18-.555-1.26s-.434-.74-.676-1.466c-.326-.98-.57-1.32-.953-1.32-.637 0-1.073 1.047-.866 2.08.09.454-.018 1.084-.27 1.574-.327.633-.423 1.643-.423 4.482 0 3.737.138 4.3 1.058 4.3.233 0 .566-.143.74-.318zm-78.14-3.47c.323-.494.36-1.028.192-2.772-.142-1.47-.11-2.437.098-3.026.972-2.74 1.482-4.635 1.676-6.22.247-2.028.18-2.366-.517-2.587-.937-.297-1.49.312-1.982 2.18-.782 2.974-.92 3.082-1.433 1.117-.245-.938-.59-1.97-.765-2.297-.343-.637-1.4-1.035-1.9-.72-.485.3-.132 3.122.522 4.18.305.494.555 1.19.555 1.55s.298 1.383.66 2.28c.535 1.318.66 2.08.66 4 0 1.98.077 2.418.463 2.643.75.437 1.35.327 1.778-.326zm8.768.336c.678-.258 1.92-1.376 1.985-1.79.127-.798.326-5.47.33-7.77.005-2.625-.044-2.897-.707-3.898-.72-1.09-1.472-1.467-2.6-1.306-.934.133-.923.95.025 1.928.458.472.818 1.085.8 1.36s-.053 2.24-.08 4.364c-.052 4.233-.24 4.83-1.48 4.685-.622-.072-.698-.213-.834-1.535-.083-.8-.303-1.768-.49-2.15-.29-.594-.274-.797.12-1.4.367-.56.43-1.045.307-2.364-.127-1.362-.065-1.797.35-2.43.483-.736.483-1.786-.001-2.322-.32-.354-1.856 1.13-1.856 1.792 0 .333-.16.738-.356.9-.36.3-.384 2.156-.074 5.656.074.837.036 1.52-.085 1.52s-.297.4-.39.912c-.486 2.6 2.445 4.825 5.036 3.84zm10.707-.762c.425-.425.773-1.014.773-1.307s.104-.598.23-.677.134-.666.007-1.344c-.154-.822-.112-1.638.132-2.585s.277-1.6.102-2.045c-.14-.364-.214-1.843-.165-3.288l.09-2.626-.883-.232c-1.612-.423-1.65-.276-1.513 5.927.067 3.044.055 5.707-.026 5.92-.093.242-.515.385-1.14.385h-.99l-.15-1.918c-.082-1.055-.093-3.684-.025-5.843.09-2.785.035-4.033-.186-4.3-.385-.464-1.4-.49-1.78-.044-.38.458-.492 11.764-.125 12.634.3.712 1.28 1.695 1.922 1.93.218.08.972.154 1.674.166 1.074.018 1.4-.102 2.05-.753zm67.895-4.197c.782-.497 1.173-3.093.56-3.708-.447-.447-1.713-.396-1.894.076-.387 1.008-.49 3.06-.172 3.44.357.43 1.002.51 1.506.19zm-5.474-3.63a.4.4 0 0 0-.397-.397.4.4 0 0 0-.397.397.4.4 0 0 0 .397.397.4.4 0 0 0 .397-.397z"/></svg>