<svg xmlns="http://www.w3.org/2000/svg" xmlns:xlink="http://www.w3.org/1999/xlink" width="387.783" height="395.678" viewBox="0 0 102.601 104.69"><defs><radialGradient id="A" cx="-30.469" cy="113.879" fx="-30.469" fy="113.879" r="38.979" gradientTransform="matrix(1.1248193,0.12536169,-0.10519153,0.94384067,27.731646,2.5419303)" gradientUnits="userSpaceOnUse"><stop offset="0" stop-color="#9695e7"/><stop offset="1" stop-color="#5755d9"/></radialGradient><path id="B" d="M339.052 223.44c1.42 1.654 4.35 3.448 7.23 3.733l-.142 1.37c-2.407-.548-4.812-1.085-7.465-3.97z"/></defs><path d="M12.757 3.32l68.4-2.193.14 3.473 3.407 2.403L71.95 79.696l-16.23.107z" fill="#fff"/><g transform="translate(72.219 -74.513)"><path d="M-63.777 171.938l-.19-21.545 2.835-64.256c0-2.268 1.323-8.504 1.323-8.504l68.792-2.835c.858 1.184.126 2.898.19 4.347L7.377 78.2 7 76.3l.19-.378-65.295 2.268 1.606 1.7 3.496 2.835 1.04.283 64.54-2.362.945.19.472.756v1.134L11.724 97.76l-2.08 20.6-.567 12.284-13.135.378-.094-1.7-7.56-.094.19 6.615-.945 2.646-.472 2.08-.283.756-1.134.472-.567 1.465-.283 1.56.047 6.284 3.638 2.126 6.52.472 2.362-.756 1.228-.66.378-9.166-.283-1.228-2.08-.756-.094-4.44 12.473-.472-.472 17.387v19.37l-26.458 1.323-29.955 3.213-7.937 1.417z" fill="url(#A)"/><path d="M-10.482 141.51l.425-3.07 4.914-.19.047 3.213z" fill="#5755d9"/><path d="M-12.23 141.983l.236-3.827.19-1.7.047-2.173.142-4.914 7.134-.19.283 1.748H9.55l.094.71.047 1.417v1.087l-.047 1.465c-.047.236-.094.71-.094.71l-12.898.472s-.236.614-.19.803.236 4.347.236 4.347l-.19.378h-1.56v-.945l-.19-3.26-4.914-.047-.19 4.3-.803.142-.66-.094z" fill="#999"/><path d="M-63.644 171.94l-.267-20.446c-.267-4.4 1.336-37.284 1.336-37.284l1.737-31.27.668-4.544s2.94 3.207 4.677 4.81 3.074 1.87 3.074 1.87l-2.138 30.47-1.737 45.17c.267 2.272.4 17.907.4 17.907l-2.673-1.336z" fill="#5755d9"/><path d="M-3.71 131.48s12.228-.167 12.628.1.802.267.802.267l-.434-.702s-12.46-.033-12.796 0-.2.334-.2.334z" fill="#e7e7e7"/><g transform="matrix(1.090318 0 0 1.090318 -433.47639 -92.646554)"><path d="M338.674 242.8c-.583-33.373 1.22-61.548 3.118-86.44l.894 1.394c-2.062 19.498-3.9 55.178-3.162 84.574l7.04 6.426-.52.567z"/><path d="M346.055 249.137c-1.242-28.82 1.118-57.64 2.54-86.462h.935c-1.46 29.063-3.805 57.9-2.586 86.304z"/><path d="M345.654 248.47c21.313-3.094 40.896-4.27 60.088-5.243l.032.518c-19.406.86-39.284 2.57-59.758 5.565zm59.79-95.157l-.033.01-62.03 2.003c-5.53.18 4.12 7.67 5.747 7.617l61.605-2.472-.024-.072.024.005c.078-.565-.372-1.602-1.353-1.57l-1.18.038c-.837-.4-1.496-.786-2.008-1.15l.038-2.996.136-.005c.34-.638-.082-1.188-.923-1.407zm.55.683c.116.186.024.352-.555.4l-60.825 2.127c-.428.065-.47.378-.263.56.86 1.323 1.905 2.612 4.133 3.686.36.326.895.452 1.374.42l59.54-1.893c.228-.007.5.178.673.398l-60.8 2.124c-1.9.066-7.684-5.575-5.145-5.68zm-.234.745l-.04 2.614c-1.55-1.3-1.295-2.28-1.177-2.572zm-2.136.075c-.05.244-.075.538-.01.883l-16.56 1.17 16.725-.647c.1.254.274.523.514.808l-20.498.926 20.893-.514c.277.262.62.533 1.04.812l-22.406.505 22.922-.182a14.37 14.37 0 0 0 .611.341l-56.657 1.838c-.63.002-.882-.016-1.364-.443l-.07-.045 27.896-1.697-28.718 1.162-1.1-.744 22.816-.9-23.06.704a5.71 5.71 0 0 1-.576-.52l26.52-1.083-26.87.66-.047-.07 26.87-1.25-27.093.843-.064-.16c-.525-.407.083-.34.467-.374z"/><path d="M410.122 160.23c-2.444 15.026-3.864 29.856-4.614 44.592l-11.362-.022v-.95l-.276.013.012-.624-7.23.118.07 6.337c-.16.252-.28.532-.337.83-.02.114-.04.342-.058.63l-.004-.332s-.733.355-.945 1.016c-.2.624-.2 2.523-.21 2.77l-.527.034c-.75.214-.6.896-.668 1.37-.923.068-1.35.682-1.37 1.253-.124 3.5-.072 6.477-.072 6.477-.084 1.186.792 2.53 2.034 2.554 2.96.358 6.51.532 8.82.252.39-.107.716-.4.873-.912.657.027 2.115-.48 2.243-.92.21-.728.246-7.467.3-7.918.197-1.616-.87-2.22-2.09-2.268.064-1.25.03-2.63-.138-3.812l10.68-.17c-.44 11.156-.528 22.267-.402 33.377l.802-.267.328-33.117c.412-.234.846-.623.857-.97.045-1.52.16-2.545.1-4.064-.017-.44-.743-.8-.736-.967.636-15.024 1.942-29.538 4.544-44.286zm-16.618 43.41l-.133 5.02c-.285-.162-.606-.266-.943-.29a16.2 16.2 0 0 0-.011-.762c-.142-1.37-.708-1.96-.708-1.96s-.478-.83-1.335-.798c-.057.002-.116.008-.177.018-.97.165-1.18.945-1.18.945-.453 2.037 1.03 2.165-.59 2.622l.003.003c-.413.066-.942.365-1.363.813l.132-5.587zm-3.166 1.465c1.58.494 1.747 2.406 1.772 3.638.03 1.512-.59 2.174-.59 2.174-.27.35-1.225.7-1.287.224 0 0 .634-1.46.165-3.237-.206-.78-.838-1.69-.838-1.69-.236-.92.78-1.11.78-1.11zm15.146.2c.462.086.836.372.82.706l-.107 2.74c-.013.554-.4.51-.895.625l-10.966.352c-.053-.118-.12-.23-.19-.337v-.227l3.44-.292-3.44.116v-.415l4.844-.302-4.844.112v-.376l3.81-.303-3.81.144v-.517l4.5-.28-4.5.087v-.512l4.744-.227-4.744.032v-.36l2.857-.14-2.857-.048v-.534zm-6.277 2.28l-.668.034.334.05zm-6.793 1.26c.704.16 1.362.615 1.61 1.697.397 1.74.267 4.28.248 4.613-.325.104-.884.158-1.146.012-.034-.56.183-2.717-.345-4.275a.92.92 0 0 0-.583-.568c.132-.457.193-.973.217-1.48zm-3.767.003c.044.015.09.03.128.048.316.452.388.765.5 1.25 0 0-.803.213-1.134.874-.196.393-.228 3.6-.234 4.388-.42.31-1.16-.05-1.35-.172 0 0 .084-4 .18-4.487.193-.864.882-1.9 1.9-1.904zm.76 1.74c.104.417.11.762-.025.98l-.92-.05c.017-.134.034-.248.056-.305.14-.366.637-.55.89-.623zm2.584.276c.173.023.392.09.497.34.032.077.06.163.085.25l-1.072.016a1.68 1.68 0 0 0 .49-.605zm-.308 1.268l1.046.062c.102.767.1 1.665.067 2.407l-.867-.002c.017-.214.078-.996.037-1.616-.047-.71-.283-.85-.283-.85zm-2.156.45c.437.002.93.358 1.116.896.155.447.097.9.054 1.117l-2.342-.006.023-1.514c.155-.104.584-.375.966-.47.06-.015.12-.022.183-.022zm-1.174 2.22l4.436.022-.02.64c.528.41 1.934.028 1.9-.083l.035-.53c.007.007.01.01.017.02 1.704.036 2.216 1.606.82 1.503 0 0-8.142.216-9.555.008-.514-.09-1.078.017-1.303-.375-.18-.314-.28-1.04.267-1.052l1.26-.05-.01.45c.184.64 1.812.67 2.163.214v-.016l.001-.752zm-4.3 1.673c.394.35.535.46.87.43.007 2.445-.15 5.216.02 7.335-.37-.188-.975-1.074-.955-1.584zm1.432.466c3.294.317 7.574.068 10.713-.017 0 0 .008 5.426-.234 7.3-.276 1.086-7.808 1.194-10.152.55-.583-.18-.56-1.07-.504-1.538z"/><ellipse ry=".217" rx=".2" cy="204.553" cx="387.916"/><ellipse ry=".217" rx=".2" cy="204.453" cx="392.927"/><path d="M347 159.23l3.496-.236-3.07.425zm19.898 36.975l1.475 2.164s12.604-7.058 22.523.492c-4.146-8.678-16.62-7.5-23.998-2.656zm-3.742-15.765c2.152 1.192 7.535 1.948 11.4-.393-.868 1.286-1.84 2.596-3.836 2.95.075 2.65-3.346 3.173-3.64-.098-1.843-.358-3.303-.822-3.934-2.46zm32.654-.097c-2.152 1.192-7.535 1.948-11.4-.393.868 1.286 1.84 2.596 3.836 2.95-.075 2.65 3.346 3.173 3.64-.098 1.843-.358 3.303-.822 3.934-2.46zm-32.556-6.098s.984-1.87 4.918-2.36 6.196-2.46 6.196-2.46-.885 2.852-1.87 3.54-4.918-1.377-9.245 1.28zm31.572-.197s-.984-1.87-4.918-2.36-6.196-2.46-6.196-2.46.885 2.852 1.87 3.54 4.918-1.377 9.245 1.28zm-19.5-8c.607 1.058 1.776 3.684-.313 5.248.102-.952.845-1.85.313-5.248zm7.684.66c-.607 1.058-1.776 3.684.313 5.248-.102-.952-.845-1.85-.313-5.248zm23.426 41.942l-3.236.07 3.26-.33zm.047-.803l-3.567.283 3.614-.402zm.07-.757l-3.355.213 3.425-.425zm-.094-.707l-3.024.118 3.142-.378zm3.36-26.773s1.058 5.365 2.46 4.672-1.592-3.994-2.46-4.672zm.64 1.034c.422.1 2.63 2.967 1.595 3.02-.718.134-1.595-3.02-1.595-3.02zm-75.648 3.506s-1.925 5.118-3.196 4.204 2.227-3.678 3.196-4.204zm-.8.914c-.434.038-3.082 2.494-2.07 2.716.686.25 2.07-2.716 2.07-2.716zm52.89 34.5l.326-.005q.853 0 1.198.282.073.054.16.18.253.368.253.812 0 .793-.546 1.173-.326.228-.75.232l-.007.007h-.044l-.464-.005q-.316 0-.8.016-.033-.063-.033-.148l.002-.063v-.272l.004-.387v-.638q-.004-.22-.004-.328v-.826q0-.014.2-.023.2-.01.303-.01zm.74.603q-.1-.07-.22-.08-.042-.002-.115-.004-.07-.002-.105-.004-.03.047-.042.07l-.03.065v.098q0 .302.014.818l.01.504q.01.054.07.065.18-.004.277-.024.343-.122.343-.835 0-.528-.202-.67zm2.212-.59l.56-.005q.178 0 .323.007.4.01.6.183.204.173.204.486 0 .218-.127.373-.127.153-.37.27.387.122.47.593.02.103.03.235.012.132.02.178l.017.1q.028.157.05.227l-.007.005q-.296.02-.542.02-.244 0-.432-.01h-.01q-.054 0-.115-.514l-.01-.075q-.007-.192-.068-.258-.06-.066-.207-.066l-.023.002h-.092v.53l.002.056v.32q-.005.017-.026.02-.192.007-.542.007-.35 0-.46.002l-.01-.004h-.004q-.004 0-.01-.005l.004-.157-.002-.052.007-.724v-.127l.002-.13.002-.452v-.06l-.005-.396q0 0 .007-.556 0-.014.1-.014l.112.002h.106.22zm1.773 2.63l-.01.005v-.004q0-.002.01-.002zm-.01.005v.002q-.002 0-.002-.002zm-1.12-2.068q-.105-.045-.28-.045h-.1q-.02.028-.02.295 0 .265.01.356.546-.012.546-.377 0-.155-.155-.228z"/><path d="M392.692 220.69q-.02.493-.02 1.015v.52h-.127l-.044-.002-.62.005q-.06 0-.063.002 0-.002.007-.03v-.01l.002-.007q-.01-.126-.01-.305l.007-1.947-.002-.09v-.087l-.004-.164q0-.017.02-.037h.24l.14-.002q.492 0 .703.014.213.014.305.014.05.3.15.795l.124.624h.06l.223-1.14q.005-.026.024-.152.02-.127.03-.14h.007l1.135-.01.068.002h.195q.016.007.017.065l.017.66q.02.82.03 1.276 0 .352-.01.66-.005.02-.07.024l-.078.004q-.094.004-.14.004h-.09q-.17.002-.5.002-.06-.054-.06-.467l.004-.547v-.14q0-.187-.002-.275l-.066-.012q-.058.21-.22.94l-.016.07q-.012.054-.042.194-.028.138-.045.21-.02.024-.185.024h-.023l-.195-.005-.106.002h-.082-.138-.05q-.08 0-.09-.037l.002.002-.16-.692q-.007-.026-.03-.113-.024-.09-.028-.148l-.13-.565z"/><use xlink:href="#B"/><use xlink:href="#B" y="2.314"/><path d="M338.838 242.723l-4.8.267 4.276.267-2.806.468 3.875.267-2.472.468 3.34.6-2.34.535 3.875.735-2.506.434 3.9.87-2.506.334c1.84.247 4.205 1.028 5.422 1.354zm41.092 2.607c15.182-.777 30.343-.354 45.503-.535l-18.04-.6 14.032-.334-16.103-.267-24.722 1.537c-.535 0-.668.2-.668.2z"/></g><path d="M-11.292 129.443l6.882-.1-.167 5.345V129.6zm5.946.7s-.075.36.067.46.4-.125.4-.125-.242.134-.342.025c-.103-.048-.122-.335-.134-.36zm-5.454.192s-.1.267.05.35.36-.067.36-.067-.26.05-.317-.042-.092-.242-.092-.242zm3.007.77l-.4.16.45-.067-.2.2.342-.042-.16.217.284-.008-.1.234.4.092a2.78 2.78 0 0 0 .618 1.311c.125.777.217.86.217.86s.125-.526-.075-1.07-.735-1.395-.935-1.57-.418-.317-.418-.317z" fill="#e7e7e7"/></g></svg>