<svg xmlns="http://www.w3.org/2000/svg" xmlns:xlink="http://www.w3.org/1999/xlink" id="svg77" width="230.514" height="230.492"><defs id="defs26"><style id="style2">.cls-2{fill:#2d2b70}.cls-8{mix-blend-mode:overlay}</style><linearGradient id="linear-gradient" x1="566.13" y1="409.16" x2="566.13" y2="493.17" gradientUnits="userSpaceOnUse"><stop offset="0" stop-color="#f58020" id="stop4"/><stop offset="1" stop-color="#fdeb01" id="stop6"/></linearGradient><linearGradient id="linear-gradient-2" x1="499.96" y1="368.93" x2="706.74" y2="368.93" gradientUnits="userSpaceOnUse"><stop offset="0" stop-color="#ffc50d" id="stop9"/><stop offset="1" stop-color="#fdeb01" id="stop11"/></linearGradient><linearGradient id="linear-gradient-3" x1="448.32" y1="210.56" x2="448.32" y2="599.59" gradientUnits="userSpaceOnUse"><stop offset="0" stop-color="#3fc6f1" id="stop14"/><stop offset="1" stop-color="#4063ae" id="stop16"/></linearGradient><linearGradient id="linear-gradient-4" x1="692.72" y1="464.03" x2="515.73" y2="367.2" gradientUnits="userSpaceOnUse"><stop offset="0" stop-color="#fff" id="stop19"/><stop offset="1" stop-color="#fff" stop-opacity="0" id="stop21"/></linearGradient><linearGradient id="linear-gradient-5" x1="300.94" y1="599.45" x2="346.32" y2="539.48" xlink:href="#linear-gradient-3"/><linearGradient id="linear-gradient-6" x1="627.42" y1="554.45" x2="351.38" y2="472.28" xlink:href="#linear-gradient-4"/><linearGradient xlink:href="#linear-gradient-3" id="linearGradient914" gradientUnits="userSpaceOnUse" x1="448.32" y1="210.56" x2="448.32" y2="599.59"/><linearGradient xlink:href="#linear-gradient-4" id="linearGradient916" gradientUnits="userSpaceOnUse" x1="692.72" y1="464.03" x2="515.73" y2="367.2"/></defs><g style="isolation:isolate" id="g912" transform="translate(-55.564 2) scale(.54781)"><g id="g1866"><path class="cls-2" d="M679 510.12c0 .09 0 .09-.19.19a.91.91 0 0 0 .09-.48.34.34 0 0 1 .1.29z" transform="translate(-188.17 -200)" id="path46" fill="#2d2b70"/><path class="cls-2" d="M678.89 509.83a.91.91 0 0 1-.09.48c.19-.1.19-.1.19-.19a.34.34 0 0 0-.1-.29z" transform="translate(-188.17 -200)" id="path48" fill="#2d2b70"/><path class="cls-2" d="M679 510.12c0 .09 0 .09-.19.19a.91.91 0 0 0 .09-.48.34.34 0 0 1 .1.29z" transform="translate(-188.17 -200)" id="path50" fill="#2d2b70"/><path class="cls-2" d="M679 510.12c0 .09 0 .09-.19.19a.91.91 0 0 0 .09-.48.34.34 0 0 1 .1.29z" transform="translate(-188.17 -200)" id="path52" fill="#2d2b70"/><path d="M632.3 454.62a206.27 206.27 0 0 1-109.46 46.59A205.25 205.25 0 0 1 500 406.68a205.75 205.75 0 0 1 132.3 47.94z" transform="translate(-188.17 -200)" id="path54" fill="url(#linear-gradient)"/><path d="M699.18 351.28a206.32 206.32 0 0 0-95.78-123.53 206.49 206.49 0 0 0-87 98.17 204.39 204.39 0 0 0-16.4 80.76 207 207 0 0 1 178.89 103.15.34.34 0 0 1 .1.29 206.7 206.7 0 0 0 20.19-158.84z" transform="translate(-188.17 -200)" id="path56" fill="url(#linear-gradient-2)"/><path d="M603.37 585.71A206.76 206.76 0 0 1 321 510.12c-3-5.08-5.65-10.25-8.13-15.6-.77-1.63-1.25-2.68-1.34-3l-.1-.1a204.93 204.93 0 0 1-17.89-74.15 22.26 22.26 0 0 1-.1-2.58v-.1c-.19-2.58-.19-5.26-.19-7.94q0-5.31.29-10.62a203.13 203.13 0 0 1 7.27-44.78C325 264 405 200 499.94 200a204.88 204.88 0 0 1 103.43 27.75 206.47 206.47 0 0 0-87 98.17 206.57 206.57 0 0 0 87 259.79z" transform="translate(-188.17 -200)" id="path58" fill="url(#linearGradient914)"/><circle cx="247.6" cy="106.76" r="46.56" id="circle60" fill="#fff"/><path d="M435.81 277.84a28.92 28.92 0 1 0 28.84 28.92 11.83 11.83 0 0 0-.14-2.22 16.92 16.92 0 0 1-25.3-14.65 16.66 16.66 0 0 1 4.14-11 28.76 28.76 0 0 0-7.54-1.05z" transform="translate(-188.17 -200)" id="path62" fill="#231f20"/><g style="mix-blend-mode:overlay" class="cls-8" id="g66"><path d="M678.89 508.68v1.15A207 207 0 0 0 500 406.68a204.38 204.38 0 0 1 16.45-80.76c63 12.35 115.21 50.71 142.38 102.1a172.75 172.75 0 0 1 20.06 80.66z" transform="translate(-188.17 -200)" id="path64" fill="url(#linearGradient916)"/></g><path d="M303.21 613.45c42.58-37.22 16.36-103.82 9.67-118.93 2.48 5.35 5.16 10.52 8.13 15.6a205 205 0 0 0 63.53 68c-28.89 31.22-81.33 35.33-81.33 35.33z" transform="translate(-188.17 -200)" id="path68" fill="url(#linear-gradient-5)"/><g style="mix-blend-mode:overlay" class="cls-8" id="g72"><path d="M603.4 585.71A206.72 206.72 0 0 1 293.58 417.3a22.26 22.26 0 0 1-.1-2.58v-.1c-.19-2.58-.19-5.26-.19-7.94 0-3.54.09-7.08.29-10.62a203.13 203.13 0 0 1 7.27-44.78 196.79 196.79 0 0 0 13.87 36.26A206.88 206.88 0 0 0 500 502.46a200.23 200.23 0 0 0 22.87-1.25 205.82 205.82 0 0 0 80.53 84.5z" transform="translate(-188.17 -200)" id="path70" fill="url(#linear-gradient-6)"/></g></g></g></svg>