<svg xmlns="http://www.w3.org/2000/svg" xmlns:xlink="http://www.w3.org/1999/xlink" width="48" height="48" version="1.0"><defs><linearGradient id="i"><stop offset="0" stop-color="#5b676b"/><stop offset="1" stop-color="#141718"/></linearGradient><linearGradient id="j"><stop offset="0"/><stop offset="1" stop-opacity="0"/></linearGradient><linearGradient id="h"><stop offset="0" stop-color="#fff"/><stop offset="1" stop-color="#fff" stop-opacity="0"/></linearGradient><linearGradient id="a"><stop offset="0" stop-color="#fff"/><stop offset="1" stop-color="#fff" stop-opacity="0"/></linearGradient><linearGradient id="x" x1="13.236" x2="7.752" y1="37.752" y2="42.282" gradientTransform="rotate(27.621 -26.244 -49.44) scale(.8523)" gradientUnits="userSpaceOnUse" xlink:href="#a"/><linearGradient id="b"><stop offset="0" stop-color="#696969"/><stop offset="1"/></linearGradient><linearGradient id="c"><stop offset="0" stop-color="#bdbdbd"/><stop offset=".333" stop-color="#e2e2e2"/><stop offset=".667" stop-color="#a3a3a3"/><stop offset="1" stop-color="#ddd"/></linearGradient><linearGradient id="v" x1="19.395" x2="23.109" y1="30.001" y2="33.439" gradientTransform="translate(-46.407 -1.803)" gradientUnits="userSpaceOnUse" xlink:href="#c"/><linearGradient id="d"><stop offset="0" stop-color="#6e3d09"/><stop offset=".242" stop-color="#ea8113"/><stop offset=".621" stop-color="#5c3307"/><stop offset="1" stop-color="#e07c12"/></linearGradient><linearGradient id="u" x1="37.018" x2="27.754" y1="19.24" y2="11.182" gradientTransform="translate(-49.305 1.878)" gradientUnits="userSpaceOnUse" xlink:href="#d"/><linearGradient id="l"><stop offset="0" stop-color="#857c63"/><stop offset="1" stop-color="#221f19"/></linearGradient><linearGradient id="g"><stop offset="0"/><stop offset="1" stop-opacity="0"/></linearGradient><linearGradient id="k"><stop offset="0"/><stop offset="1" stop-opacity="0"/></linearGradient><linearGradient id="f"><stop offset="0" stop-color="#fff"/><stop offset="1" stop-color="#b9b9b0"/></linearGradient><linearGradient id="e"><stop offset="0" stop-color="#fff"/><stop offset="1" stop-color="#fff" stop-opacity="0"/></linearGradient><linearGradient id="s" x1="6.305" x2="5.985" y1="23.362" y2="31.57" gradientUnits="userSpaceOnUse" xlink:href="#e"/><linearGradient id="p" x1="14.969" x2="39.525" y1="19.111" y2="46.986" gradientUnits="userSpaceOnUse" xlink:href="#h"/><linearGradient id="y" x1="26.163" x2="24.329" y1="30.543" y2="30.985" gradientUnits="userSpaceOnUse" xlink:href="#j"/><linearGradient id="o" x1="32.35" x2="21.213" y1="28.083" y2="30.293" gradientTransform="translate(-3.837 .346)" gradientUnits="userSpaceOnUse" xlink:href="#k"/><radialGradient id="w" cx="15.415" cy="35.357" r="7.579" fx="15.415" fy="35.357" gradientTransform="matrix(1.5727 0 0 1.53264 -55.367 -21.358)" gradientUnits="userSpaceOnUse" xlink:href="#b"/><radialGradient id="t" cx="69.473" cy="19.598" r="3.515" fx="69.473" fy="19.598" gradientTransform="matrix(1.31849 0 0 1.31849 -22.126 -6.242)" gradientUnits="userSpaceOnUse" xlink:href="#f"/><radialGradient id="m" cx="23" cy="33.938" r="18.25" fx="23" fy="33.938" gradientTransform="matrix(1 0 0 .28425 0 24.29)" gradientUnits="userSpaceOnUse" xlink:href="#g"/><radialGradient id="r" cx="6.024" cy="25.271" r="4.831" fx="6.024" fy="25.271" gradientTransform="matrix(.91616 .09319 -.10877 1.0693 3.254 -3.03)" gradientUnits="userSpaceOnUse" xlink:href="#i"/><radialGradient id="n" cx="18.558" cy="22.3" r="19.229" fx="18.558" fy="22.3" gradientTransform="matrix(1.77275 0 0 1.29668 -16.34 -6.616)" gradientUnits="userSpaceOnUse" xlink:href="#l"/><radialGradient id="q" cx="69.473" cy="19.598" r="3.515" fx="69.473" fy="19.598" gradientTransform="matrix(1.31849 0 0 1.31849 -22.126 -6.242)" gradientUnits="userSpaceOnUse" xlink:href="#f"/></defs><g color="#000"><path fill="url(#m)" fill-rule="evenodd" stroke-miterlimit="10" d="M41.25 33.938a18.25 5.188 0 11-36.5 0 18.25 5.188 0 1136.5 0z" overflow="visible" style="marker:none" transform="matrix(1 0 0 1.53012 .125 -19.991)"/><path fill="url(#n)" fill-rule="evenodd" stroke="#2e3436" stroke-miterlimit="10" d="M10.374 12.468s2.875 5.928 9.6 5.76c14.092-.353 16.563-7.705 16.917-8.765.353-1.061.894-.9 1.02.08 4.596 41.72-31.897 23.82-33.193 16.713 7.247-2.12 5.48-6.187 5.48-6.187l.176-7.601z" overflow="visible" style="marker:none"/><path fill="url(#o)" fill-rule="evenodd" stroke-miterlimit="10" d="M15.738 30.066c6.739 1.348 10.17.098 12.179-1.453-.53-.685-1.436-1.436-1.436-1.436s2.353.654 3.182 1.724c.826 1.066.306 1.723.09 3.088-.481-1.199-1.38-1.648-1.501-2.124-1.807 2.497-6.307 2.393-12.514.201z" overflow="visible" style="marker:none"/><path fill="none" fill-rule="evenodd" stroke="url(#p)" stroke-miterlimit="10" d="M36.969 11.844a12.252 12.252 0 01-2.688 3.094C31.65 17.116 27.231 19.1 20 19.28c-4.224.105-6.953-1.934-8.625-3.75L11.25 20c.136.419.415 1.39-.063 2.719-.514 1.429-2.154 2.891-4.968 4 .25.522.495 1.043 1.25 1.781 1.028 1.005 2.457 2.088 4.156 3.063 3.398 1.948 7.802 3.493 11.906 3.562 4.105.07 7.857-1.235 10.438-5 2.378-3.471 3.682-9.348 3-18.281z" opacity=".185" overflow="visible" style="marker:none"/><path fill="url(#q)" fill-rule="evenodd" stroke="#888a85" stroke-miterlimit="10" stroke-width=".783" d="M72.655 21.837a3.182 3.182 0 11-6.364 0 3.182 3.182 0 116.364 0z" overflow="visible" style="marker:none" transform="matrix(1.27778 0 0 1.27778 -75.127 -6.508)"/><path fill="url(#r)" fill-rule="evenodd" stroke="#000" stroke-miterlimit="10" d="M10.43 27.229a4.331 6.099 0 11-8.662 0 4.331 6.099 0 118.662 0z" overflow="visible" style="marker:none" transform="rotate(-35.808 3.363 26.345)"/><path fill="#2e3436" fill-rule="evenodd" stroke="#000" stroke-miterlimit="10" stroke-width="1.0000719" d="M16.553 21.997a1.958 1.958 0 11-3.915 0 1.958 1.958 0 113.915 0z" overflow="visible" style="marker:none"/><path fill="none" fill-rule="evenodd" stroke="url(#s)" stroke-miterlimit="10" d="M6.094 22.156c-.798 0-1.553.446-2.188 1.344-.634.898-1.094 2.234-1.094 3.719 0 1.484.46 2.82 1.094 3.718.635.898 1.39 1.344 2.188 1.344.798 0 1.577-.476 2.218-1.375.642-.898 1.094-2.206 1.094-3.687 0-1.482-.452-2.79-1.094-3.688-.641-.898-1.42-1.375-2.218-1.375z" opacity=".281" overflow="visible" style="marker:none" transform="rotate(-36.833 3.366 26.6)"/><path fill="#fff" fill-rule="evenodd" stroke-miterlimit="10" d="M5.834 23.251a1.768 2.121 0 11-3.536 0 1.768 2.121 0 113.536 0zM15.198 21.094a1.355 1.355 0 11-2.71 0 1.355 1.355 0 112.71 0z" overflow="visible" style="marker:none"/><path fill="url(#t)" fill-rule="evenodd" stroke="#888a85" stroke-miterlimit="10" stroke-width=".667" d="M72.655 21.837a3.182 3.182 0 11-6.364 0 3.182 3.182 0 116.364 0z" overflow="visible" style="marker:none" transform="matrix(1.5 0 0 1.5 -82.168 -10.919)"/><path fill="#2e3436" fill-rule="evenodd" stroke="#000" stroke-miterlimit="10" d="M25.456 22.544a2.298 2.298 0 11-4.596 0 2.298 2.298 0 114.596 0z" overflow="visible" style="marker:none"/><path fill="#fff" fill-rule="evenodd" stroke-miterlimit="10" d="M23.865 21.483a1.591 1.591 0 11-3.182 0 1.591 1.591 0 113.182 0z" overflow="visible" style="marker:none"/><g stroke-linecap="round"><path fill="url(#u)" stroke="#673907" stroke-width="2.46" d="M-23.364 23.568l3.71 3.47c8.347-6.381 17.094-20.1 17.094-20.1 1.976-2.242-.117-3.75-2.165-2.398 0 0-12.97 10.115-18.64 19.028z" overflow="visible" style="marker:none" transform="rotate(-106.415 23.46 5.603) scale(.40643)"/><path fill="url(#v)" stroke="#888a85" stroke-width="2.46" d="M-30.45 32.814l2.247 1.934 8.492-7.367.275-.706 1.095-.018c-.438-1.562-2.942-4.383-4.817-4.383l.082 1.09-.67.38-6.704 9.07z" overflow="visible" style="marker:none" transform="rotate(-106.415 23.46 5.603) scale(.40643)"/><path fill="none" stroke="#fff" stroke-linejoin="round" stroke-width=".9998178" d="M38.512 35.71l2.554 1.096" overflow="visible" style="marker:none"/><path fill="url(#w)" stroke-width=".2" d="M-45.341 42.77c10.444 0 18.37 1.244 19.87-6.355 1.21-6.123-7.21-9.057-11.382-3.59-4.02 5.265-8.488 9.945-8.488 9.945z" overflow="visible" style="marker:none" transform="rotate(-106.415 23.46 5.603) scale(.40643)"/><path fill="#fff" d="M42.025 35.767a1.052 1.052 26.949 11.595 2.017 1.052 1.052 26.949 11-.595-2.017z" opacity=".528" overflow="visible" style="marker:none"/><path fill="#fff" d="M37.44 34.27a.71.71-69.11 11.401 1.362.71.71-69.11 11-.401-1.361z" overflow="visible" style="marker:none"/><path fill="url(#x)" d="M-38.544 40.91s3.722.094 6.117-1.413c.847-.533 1.516.65.494 1.088-2.208.944-6.61.324-6.61.324z" opacity=".428" overflow="visible" style="marker:none" transform="rotate(-106.415 23.46 5.603) scale(.40643)"/></g><path fill="url(#y)" fill-rule="evenodd" stroke-miterlimit="10" d="M23.003 31.737c1.497.143 2.85-.273 3.412-.475.098-.555.537-1.62 2.046-1.691l-.53-.928s-1.967 1.348-4.066 1.746l-.862 1.348z" overflow="visible" style="marker:none"/></g></svg>
