<svg xmlns="http://www.w3.org/2000/svg" fill-rule="evenodd" height="500" width="500" viewBox="0 0 5.556 5.556"><path fill="#464342" d="M2.778.39a2.38 2.38 0 0 1 1.616.63.39.39 0 0 0-.425.402c-.018.574.686.696.307 1.85l-.314.954-.854-2.515c-.013-.04.002-.06.05-.06h.24c.013 0 .023-.01.023-.024V1.48c0-.013-.01-.024-.023-.024H2.036c-.013-.001-.023.01-.023.024v.143c0 .013.01.024.023.024h.243c.054 0 .07.018.082.053l.35.96-.528 1.594L1.316 1.7c-.01-.032.002-.05.033-.05h.277c.013 0 .023-.01.023-.024v-.143c0-.013-.01-.024-.023-.024l-.853.02C1.2.823 1.937.39 2.777.39h0zm2.1 1.25c.184.338.288.726.288 1.137a2.39 2.39 0 0 1-1.242 2.096l.745-2.1c.115-.327.223-.768.21-1.123h0zm-1.3 3.388a2.38 2.38 0 0 1-.8.137 2.39 2.39 0 0 1-.695-.103l.736-2.11.758 2.074zm-1.822-.092A2.39 2.39 0 0 1 .389 2.778a2.38 2.38 0 0 1 .215-.99l1.152 3.15zM2.778.165C4.22.165 5.4 1.335 5.4 2.778S4.22 5.4 2.778 5.4.165 4.22.165 2.778 1.335.165 2.778.165zm0-.165a2.78 2.78 0 0 1 2.778 2.778 2.78 2.78 0 0 1-2.778 2.778A2.78 2.78 0 0 1 0 2.778 2.78 2.78 0 0 1 2.778 0z"/></svg>
