<svg xmlns="http://www.w3.org/2000/svg" viewBox="0 0 116.3 116.3"><linearGradient id="A" x1="60.947" x2="56.358" y1="59.791" y2="54.437" gradientUnits="userSpaceOnUse"><stop offset="0" stop-color="#2b3b6a"/><stop offset="1" stop-color="#2b3b6a"/></linearGradient><path fill="url(#A)" d="M54.9 55.8l7.1-.2-3.6 6.6z"/><linearGradient id="B" x1="100.449" x2="100.449" y1="62.1" y2="98.899" gradientUnits="userSpaceOnUse"><stop offset="0" stop-color="#2b3b6a"/><stop offset=".07" stop-color="#2d4576"/><stop offset=".217" stop-color="#2e5589"/><stop offset=".361" stop-color="#2b5e97"/><stop offset=".5" stop-color="#29629c"/><stop offset=".639" stop-color="#2b5e97"/><stop offset=".784" stop-color="#2e5589"/><stop offset=".93" stop-color="#2d4576"/><stop offset="1" stop-color="#2b3b6a"/></linearGradient><path fill="url(#B)" d="M85.5 57.5c26.1 4.2 29.8 10.7 29.8 10.7v1.2c0 .2-.1.4-.2.7s-2.7 5.7-19.6 9.3l-10-21.9z"/><linearGradient id="C" x1="18.683" x2="30.624" y1="101.695" y2="80.434" gradientUnits="userSpaceOnUse"><stop offset="0" stop-color="#252b59"/><stop offset=".086" stop-color="#2b3a69"/><stop offset=".227" stop-color="#2e4a7c"/><stop offset=".366" stop-color="#2e5487"/><stop offset=".5" stop-color="#2d578c"/><stop offset=".634" stop-color="#2e5487"/><stop offset=".773" stop-color="#2e4a7c"/><stop offset=".914" stop-color="#2b3a69"/><stop offset="1" stop-color="#252b59"/></linearGradient><path fill="url(#C)" d="M19.8 78.5c-5.9 15.7-2.9 20.6-2.7 21 .1.2.2.4.4.5.4 0 .8-.1 1.2-.2 0 0 10.7-.5 23.2-18.3l-22.1-3z"/><linearGradient id="D" x1="52.766" x2="33.002" y1="29.515" y2="6.457" gradientUnits="userSpaceOnUse"><stop offset="0" stop-color="#181844"/><stop offset=".028" stop-color="#1e1e4c"/><stop offset=".135" stop-color="#283261"/><stop offset=".247" stop-color="#2d4172"/><stop offset=".365" stop-color="#2e4a7c"/><stop offset=".5" stop-color="#2e4d7f"/><stop offset=".618" stop-color="#2d4576"/><stop offset=".813" stop-color="#273160"/><stop offset="1" stop-color="#181844"/></linearGradient><path fill="url(#D)" d="M58.8 18.6C44.5 2.9 37.5 3.8 37.1 3.9c-.2 0-.5.1-.7.2-.5.2-1 1.8-1 1.8s-3 8.7 9.1 31.9l14.3-19.2z"/><linearGradient id="E" x1="91.887" x2="76.618" y1="104.219" y2="55.033" gradientUnits="userSpaceOnUse"><stop offset="0" stop-color="#181844"/><stop offset=".028" stop-color="#1e1e4c"/><stop offset=".135" stop-color="#283261"/><stop offset=".247" stop-color="#2d4172"/><stop offset=".365" stop-color="#2e4a7c"/><stop offset=".5" stop-color="#2e4d7f"/><stop offset=".618" stop-color="#2d4576"/><stop offset=".813" stop-color="#273160"/><stop offset="1" stop-color="#181844"/></linearGradient><path fill="url(#E)" d="M71.2 78.8c19.4 22.2 26.2 21 26.2 21 .4.1.9.2 1.3.2.2-.1.3-.3.4-.5.3-.4 5.8-9.4-12.8-41.8L71.2 78.8z"/><linearGradient id="F" x1="23.559" x2="23.559" y1="62.1" y2="98.898" gradientUnits="userSpaceOnUse"><stop offset="0" stop-color="#2b3b6a"/><stop offset=".07" stop-color="#2d4576"/><stop offset=".217" stop-color="#2e5589"/><stop offset=".361" stop-color="#2b5e97"/><stop offset=".5" stop-color="#29629c"/><stop offset=".639" stop-color="#2b5e97"/><stop offset=".784" stop-color="#2e5589"/><stop offset=".93" stop-color="#2d4576"/><stop offset="1" stop-color="#2b3b6a"/></linearGradient><path fill="url(#F)" d="M46.1 82.2c-40-1.7-44.8-11.6-45-12.1 0-.2-.1-.4-.1-.6.1-.7 1.5-2 1.5-2s10.6-6.5 28.3-10l15.3 24.7z"/><linearGradient id="G" x1="43.805" x2="58.252" y1="25.99" y2="25.99" gradientUnits="userSpaceOnUse"><stop offset="0" stop-color="#2b3b6a"/><stop offset="1" stop-color="#2b3b6a"/></linearGradient><path fill="url(#G)" d="M57.6 17.4c-5 5.4-9.6 11.2-13.8 17.2h1l13.4-16.5-.6-.7z" class="Y" opacity=".4"/><linearGradient id="H" x1="62.886" x2="62.886" y1="41.267" y2="6.558" gradientUnits="userSpaceOnUse"><stop offset="0" stop-color="#252b59"/><stop offset=".5" stop-color="#2d578c"/><stop offset=".693" stop-color="#2d5588"/><stop offset=".804" stop-color="#2e4f80"/><stop offset=".893" stop-color="#2d4474"/><stop offset=".971" stop-color="#283463"/><stop offset="1" stop-color="#252b59"/></linearGradient><path fill="url(#H)" d="M73.8 35.4C84.2 10.7 80.2 5 80.2 5c-.1-.3-.2-.7-.3-1-.2-.1-.4-.1-.7-.2-.5-.1-11.4-1.5-34.4 30.7l29 .9z"/><linearGradient id="I" x1="31.182" x2="94.591" y1="108.632" y2="12.784" gradientUnits="userSpaceOnUse"><stop offset="0" stop-color="#2867a2"/><stop offset=".082" stop-color="#177ebc"/><stop offset=".168" stop-color="#0e91d1"/><stop offset=".253" stop-color="#10a2e1"/><stop offset=".337" stop-color="#18acea"/><stop offset=".42" stop-color="#24b1ed"/><stop offset=".5" stop-color="#28b1ed"/><stop offset=".58" stop-color="#24b1ed"/><stop offset=".663" stop-color="#18acea"/><stop offset=".747" stop-color="#10a2e1"/><stop offset=".833" stop-color="#0e91d1"/><stop offset=".918" stop-color="#177ebc"/><stop offset="1" stop-color="#2867a2"/></linearGradient><path fill="url(#I)" d="M58 97.4c-14.2 15.4-21 14.5-21.4 14.5-.6-.2-1.2-.5-1.7-.8l-17.3-11c7.3-1.6 16.3-10.2 25.7-21.3L58 97.4z"/><linearGradient id="J" x1="25.483" x2="50.598" y1="110.554" y2="88.067" gradientUnits="userSpaceOnUse"><stop offset="0" stop-color="#2c5d95"/><stop offset=".082" stop-color="#246eab"/><stop offset=".181" stop-color="#1b79b9"/><stop offset=".301" stop-color="#1080c2"/><stop offset=".5" stop-color="#0e81c5"/><stop offset=".699" stop-color="#1080c2"/><stop offset=".819" stop-color="#1b79b9"/><stop offset=".918" stop-color="#246eab"/><stop offset="1" stop-color="#2c5d95"/></linearGradient><path fill="url(#J)" d="M58.6 98c-14.2 15.4-21 14.5-21.4 14.5-.6-.2-1.2-.5-1.7-.8L17.6 100c7.3-1.6 16.9-9.6 26.3-20.7L58.6 98z"/><linearGradient id="K" x1="23.236" x2="81.554" y1="12.126" y2="109.323" gradientUnits="userSpaceOnUse"><stop offset="0" stop-color="#2c5d95"/><stop offset=".018" stop-color="#2a6199"/><stop offset=".141" stop-color="#1c79b7"/><stop offset=".263" stop-color="#0a8cca"/><stop offset=".384" stop-color="#0b97d4"/><stop offset=".5" stop-color="#0e9ad8"/><stop offset=".616" stop-color="#0b97d4"/><stop offset=".737" stop-color="#0a8cca"/><stop offset=".859" stop-color="#1c79b7"/><stop offset=".982" stop-color="#2a6199"/><stop offset="1" stop-color="#2c5d95"/></linearGradient><path fill="url(#K)" d="M20.7 38c-6.3-16.2-3.2-21.3-3-21.6.4-.5.9-.9 1.4-1.2l17.3-11c-1.5 7.1 2.3 18 8.2 30.7L20.7 38z"/><linearGradient id="L" x1="86.317" x2="48.818" y1="108.732" y2="61.501" gradientUnits="userSpaceOnUse"><stop offset="0" stop-color="#2c5d95"/><stop offset=".026" stop-color="#2a6199"/><stop offset=".205" stop-color="#1c79b7"/><stop offset=".384" stop-color="#0a8cca"/><stop offset=".56" stop-color="#0b97d4"/><stop offset=".73" stop-color="#0e9ad8"/><stop offset=".793" stop-color="#0b97d4"/><stop offset=".858" stop-color="#0a8cca"/><stop offset=".924" stop-color="#1c79b7"/><stop offset=".991" stop-color="#2a6199"/><stop offset="1" stop-color="#2c5d95"/></linearGradient><path fill="url(#L)" d="M57.2 57.2c-8.7 0-17.4.7-26 1.9l7.2 11.7c27.8 42.8 40.8 41.1 41.4 41 .6-.2 1.2-.5 1.7-.8l17.3-11C87 97.5 70.6 78.2 57.2 57.2z"/><linearGradient id="M" x1="32.132" x2="24.831" y1="35.939" y2="9.655" gradientUnits="userSpaceOnUse"><stop offset="0" stop-color="#2c5d95"/><stop offset=".082" stop-color="#246eab"/><stop offset=".181" stop-color="#1b79b9"/><stop offset=".301" stop-color="#1080c2"/><stop offset=".5" stop-color="#0e81c5"/><stop offset=".699" stop-color="#1080c2"/><stop offset=".819" stop-color="#1b79b9"/><stop offset=".918" stop-color="#246eab"/><stop offset="1" stop-color="#2c5d95"/></linearGradient><path fill="url(#M)" d="M20.1 38.5c-6.3-16.2-3.2-21.3-3-21.6.4-.5.9-.9 1.4-1.2l18-11.6c-1.5 7.1 1.7 18.6 7.6 31.2l-24 3.2z"/><linearGradient id="N" x1="114.817" x2="1.063" y1="53.664" y2="53.664" gradientUnits="userSpaceOnUse"><stop offset="0" stop-color="#2867a2"/><stop offset=".013" stop-color="#256ba7"/><stop offset=".112" stop-color="#0b83c3"/><stop offset=".212" stop-color="#1797d8"/><stop offset=".31" stop-color="#25a3e2"/><stop offset=".407" stop-color="#27abe7"/><stop offset=".5" stop-color="#2aaeea"/><stop offset=".593" stop-color="#27abe7"/><stop offset=".69" stop-color="#25a3e2"/><stop offset=".789" stop-color="#1797d8"/><stop offset=".888" stop-color="#0b83c3"/><stop offset=".987" stop-color="#256ba7"/><stop offset="1" stop-color="#2867a2"/></linearGradient><path fill="url(#N)" d="M85.5 59.6c13.5 1.9 24.7 4.7 29.8 9.8V48.9c0-.6-.1-1.3-.2-1.9-.1-.3-2.7-5.6-19-9.1L85.5 59.6z"/><linearGradient id="O" x1="82.209" x2="114.722" y1="52.003" y2="53.755" gradientUnits="userSpaceOnUse"><stop offset="0" stop-color="#2e5284"/><stop offset=".006" stop-color="#2e5486"/><stop offset=".091" stop-color="#29649d"/><stop offset=".188" stop-color="#236fad"/><stop offset=".305" stop-color="#1d77b6"/><stop offset=".5" stop-color="#1c78b9"/><stop offset=".695" stop-color="#1d77b6"/><stop offset=".812" stop-color="#236fad"/><stop offset=".909" stop-color="#29649d"/><stop offset=".994" stop-color="#2e5486"/><stop offset="1" stop-color="#2e5284"/></linearGradient><path fill="url(#O)" d="M85.5 58.8c13.5 1.9 24.7 5.5 29.8 10.6V48.1c0-.6-.1-1.3-.2-1.9-.1-.3-2.7-5.6-19-9.1L85.5 58.8z"/><linearGradient id="P" x1=".972" x2="59.633" y1="52.058" y2="52.058" gradientUnits="userSpaceOnUse"><stop offset="0" stop-color="#2867a2"/><stop offset=".023" stop-color="#256ba7"/><stop offset=".197" stop-color="#0b83c3"/><stop offset=".372" stop-color="#1797d8"/><stop offset=".545" stop-color="#25a3e2"/><stop offset=".715" stop-color="#27abe7"/><stop offset=".879" stop-color="#2aaeea"/><stop offset=".902" stop-color="#27abe7"/><stop offset=".925" stop-color="#25a3e2"/><stop offset=".949" stop-color="#1797d8"/><stop offset=".973" stop-color="#0b83c3"/><stop offset=".997" stop-color="#256ba7"/><stop offset="1" stop-color="#2867a2"/></linearGradient><path fill="url(#P)" d="M73.2 35.1c-3-.1-9.5-.4-15.1-.4-51 0-56.7 11.8-56.9 12.3-.2.6-.2 1.3-.2 1.9v20.6c5-5 15.9-7.7 29.2-9.7 8.6-1.2 17.2-1.9 25.9-2h4.8c-.1 0 15.4-22.6 12.3-22.7z"/><linearGradient id="Q" x1="42.227" x2="20.181" y1="36.878" y2="33.777" gradientUnits="userSpaceOnUse"><stop offset="0" stop-color="#2b3b6a"/><stop offset="1" stop-color="#2b3b6a"/></linearGradient><path fill="url(#Q)" d="M44.1 33.5c-10.7.5-18.4 1.3-24.8 3.1l.3.8c.6-.1 1.3-.3 1.9-.4 7.7-1.2 15.4-2 23.1-2.3l-.5-1.2z" class="Y" opacity=".2"/><linearGradient id="R" x1="64.66" x2="2.358" y1="55.734" y2="46.972" gradientUnits="userSpaceOnUse"><stop offset="0" stop-color="#2867a2"/><stop offset=".038" stop-color="#2174b1"/><stop offset=".118" stop-color="#0b86c4"/><stop offset=".208" stop-color="#0a94d2"/><stop offset=".318" stop-color="#0c9bdb"/><stop offset=".5" stop-color="#109ede"/><stop offset=".682" stop-color="#0c9bdb"/><stop offset=".792" stop-color="#0a94d2"/><stop offset=".882" stop-color="#0b86c4"/><stop offset=".962" stop-color="#2174b1"/><stop offset="1" stop-color="#2867a2"/></linearGradient><path fill="url(#R)" d="M73.2 34.3c-3-.1-9.5-.4-15.1-.4-51.1 0-56.7 11.8-57 12.4-.1.5-.1 1.2-.1 1.8v21.4c5-5 15.9-8.5 29.2-10.5 8.6-1.2 17.2-1.9 25.9-2h4.8c2.3.1 15.4-22.6 12.3-22.7z"/><linearGradient id="S" x1="93.535" x2="63.908" y1="12.6" y2="63.624" gradientUnits="userSpaceOnUse"><stop offset="0" stop-color="#2867a2"/><stop offset=".124" stop-color="#177ebc"/><stop offset=".252" stop-color="#0e91d1"/><stop offset=".38" stop-color="#10a2e1"/><stop offset=".506" stop-color="#18acea"/><stop offset=".631" stop-color="#24b1ed"/><stop offset=".751" stop-color="#28b1ed"/><stop offset=".791" stop-color="#24b1ed"/><stop offset=".832" stop-color="#18acea"/><stop offset=".874" stop-color="#10a2e1"/><stop offset=".917" stop-color="#0e91d1"/><stop offset=".959" stop-color="#177ebc"/><stop offset="1" stop-color="#2867a2"/></linearGradient><path fill="url(#S)" d="M58.2 58.8C72.1 37.9 82.4 16 79.8 4.1l17.3 11c.5.3 1 .7 1.4 1.2.3.5 7.1 11.7-20.7 54.5-2 3.2-3.9 6.9-4.6 7.2-4.1-4-12.6-15.6-14.7-18.5-.2-.4-.3-.7-.3-.7z"/><linearGradient id="T" x1="97.259" x2="86.472" y1="38.265" y2="58.508" gradientUnits="userSpaceOnUse"><stop offset="0" stop-color="#2b3b6a"/><stop offset="1" stop-color="#2b3b6a"/></linearGradient><path fill="url(#T)" d="M96.6 37.2c-3.1 7.8-6.8 15.3-11.1 22.4l1.3.2c5.5-9.5 8.7-16.5 10.9-22.4l-1.1-.2z" class="Y" opacity=".25"/><linearGradient id="U" x1="92.563" x2="62.842" y1="13.72" y2="69.494" gradientUnits="userSpaceOnUse"><stop offset="0" stop-color="#2867a2"/><stop offset=".038" stop-color="#2174b1"/><stop offset=".118" stop-color="#0b86c4"/><stop offset=".208" stop-color="#0a94d2"/><stop offset=".318" stop-color="#0c9bdb"/><stop offset=".5" stop-color="#109ede"/><stop offset=".682" stop-color="#0c9bdb"/><stop offset=".792" stop-color="#0a94d2"/><stop offset=".882" stop-color="#0b86c4"/><stop offset=".962" stop-color="#2174b1"/><stop offset="1" stop-color="#2867a2"/></linearGradient><path fill="url(#U)" d="M78.5 71.4c27.8-42.8 21-54 20.7-54.5-.4-.5-.9-.9-1.4-1.2l-18-11.6c2.5 11.8-7.4 34.6-21.2 55.5 4.6 7.1 9.4 14 14.5 19.9 1-1.2 3.6-5.2 5.4-8.1z"/><linearGradient id="V" x1="94.869" x2="64.886" y1="14.976" y2="71.242" gradientUnits="userSpaceOnUse"><stop offset="0" stop-color="#2867a2"/><stop offset=".038" stop-color="#2174b1"/><stop offset=".118" stop-color="#0b86c4"/><stop offset=".208" stop-color="#0a94d2"/><stop offset=".318" stop-color="#0c9bdb"/><stop offset=".5" stop-color="#109ede"/><stop offset=".682" stop-color="#0c9bdb"/><stop offset=".792" stop-color="#0a94d2"/><stop offset=".882" stop-color="#0b86c4"/><stop offset=".962" stop-color="#2174b1"/><stop offset="1" stop-color="#2867a2"/></linearGradient><path fill="url(#V)" d="M72.6 80.2c.1-.1.2-.1.2-.2-5.3-6.2-10.2-12.8-14.7-19.7-.1.1-.2.2-.2.4 0-.1 9.7 15.2 14.7 19.5z"/><linearGradient id="W" x1="46.478" x2="54.169" y1="78.952" y2="99.786" gradientUnits="userSpaceOnUse"><stop offset="0" stop-color="#2b3b6a"/><stop offset="1" stop-color="#2b3b6a"/></linearGradient><path fill="url(#W)" d="M58.2 98.4c-.3-.3-10.5-12.3-15.1-19.4l-.8.9C46.9 86.6 52 93 57.6 99l.6-.6z" class="Y" opacity=".2"/><linearGradient id="X" x1="61.082" x2="70.136" y1="57.524" y2="113.889" gradientUnits="userSpaceOnUse"><stop offset="0" stop-color="#2e5284"/><stop offset=".024" stop-color="#2c5c92"/><stop offset=".089" stop-color="#2075b1"/><stop offset=".16" stop-color="#0b86c4"/><stop offset=".24" stop-color="#0a94d2"/><stop offset=".338" stop-color="#0e9cda"/><stop offset=".5" stop-color="#109ede"/><stop offset=".672" stop-color="#0c9bdb"/><stop offset=".775" stop-color="#0a94d2"/><stop offset=".86" stop-color="#0b86c4"/><stop offset=".935" stop-color="#2174b1"/><stop offset="1" stop-color="#2c5d95"/></linearGradient><path fill="url(#X)" d="M72.9 79.9c-5.3-6.2-10.2-12.8-14.7-19.7-.5-.8-1.1-1.6-1.6-2.4-8.7 0-17.4.7-26 1.9l7.2 11.7c27.8 42.8 40.8 41.1 41.4 41 .6-.2 1.2-.5 1.7-.8L98.8 100c-7.4-1.6-16.7-9.4-25.9-20.1z"/></svg>
