<?xml version="1.0" encoding="UTF-8" standalone="no"?>
<svg xmlns:dc="http://purl.org/dc/elements/1.1/" xmlns:cc="http://creativecommons.org/ns#" xmlns:rdf="http://www.w3.org/1999/02/22-rdf-syntax-ns#" xmlns:svg="http://www.w3.org/2000/svg" xmlns="http://www.w3.org/2000/svg" xmlns:sodipodi="http://sodipodi.sourceforge.net/DTD/sodipodi-0.dtd" xmlns:inkscape="http://www.inkscape.org/namespaces/inkscape" sodipodi:docname="icon.svg" inkscape:version="1.0beta2 (unknown)" id="svg8" version="1.1" viewBox="0 0 161.3726 180.16379" height="180.16379mm" width="161.3726mm">
  <defs id="defs2" />
  <sodipodi:namedview fit-margin-bottom="0" fit-margin-right="0" fit-margin-left="0" fit-margin-top="0" showgrid="false" inkscape:document-rotation="0" inkscape:current-layer="layer1" inkscape:document-units="mm" inkscape:cy="245.35079" inkscape:cx="245.91654" inkscape:zoom="0.49497475" inkscape:pageshadow="2" inkscape:pageopacity="0.0" borderopacity="1.0" bordercolor="#666666" pagecolor="#ffffff" id="base" />
  <metadata id="metadata5">
    <rdf:RDF>
      <cc:Work rdf:about="">
        <dc:format>image/svg+xml</dc:format>
        <dc:type rdf:resource="http://purl.org/dc/dcmitype/StillImage" />
        <dc:title></dc:title>
      </cc:Work>
    </rdf:RDF>
  </metadata>
  <g transform="translate(-42.3546,-118.84731)" id="layer1" inkscape:groupmode="layer" inkscape:label="Ebene 1">
    <path sodipodi:nodetypes="ccccc" inkscape:connector-curvature="0" id="path847" d="m 123.04004,299.0111 c 36.67561,-21.98962 80.33898,-65.75764 80.68716,-151.19016 -20.88698,-4.00806 -38.47196,-10.71314 -54.15058,-18.9753 -8.75506,-3.87744 -17.11033,-10.1753 -26.53572,-9.99452 z" style="fill:#0098fe;fill-opacity:1;stroke:none;stroke-width:0.264583px;stroke-linecap:butt;stroke-linejoin:miter;stroke-opacity:1" />
    <path style="fill:#00468d;fill-opacity:1;stroke:none;stroke-width:0.264583px;stroke-linecap:butt;stroke-linejoin:miter;stroke-opacity:1" d="M 123.04004,299.0111 C 86.36443,277.02148 42.70278,233.25346 42.3546,147.82094 c 20.88698,-4.00806 38.47196,-10.71314 54.15058,-18.9753 8.75506,-3.87744 17.11033,-10.1753 26.53572,-9.99452 z" id="path847-9" inkscape:connector-curvature="0" sodipodi:nodetypes="ccccc" />
    <path sodipodi:nodetypes="ccccc" inkscape:connector-curvature="0" id="path864" d="m 123.02262,183.45797 v 60.9519 c 15.19709,-6.21976 37.97799,-29.03971 37.62891,-50.13147 -0.22802,-10.27389 -5.95753,-20.67989 -17.78921,-20.86628 -6.67926,-0.0701 -13.30116,2.82978 -19.8397,10.04585 z" style="fill:#ffffff;fill-opacity:1;stroke:none;stroke-width:0.264583px;stroke-linecap:butt;stroke-linejoin:miter;stroke-opacity:1" />
    <path style="fill:#b2bec9;fill-opacity:1;stroke:none;stroke-width:0.264583px;stroke-linecap:butt;stroke-linejoin:miter;stroke-opacity:1" d="m 123.02262,183.45797 v 60.9519 c -15.19709,-6.21976 -37.977983,-29.03971 -37.628902,-50.13147 0.228018,-10.27389 5.957527,-20.67989 17.789202,-20.86628 6.67926,-0.0701 13.30116,2.82978 19.8397,10.04585 z" id="path864-3" inkscape:connector-curvature="0" sodipodi:nodetypes="ccccc" />
  </g>
</svg>
