<svg xmlns="http://www.w3.org/2000/svg" viewBox="0 0 161.373 180.164" height="680.935" width="609.914"><path d="M80.685 180.164c36.676-22 80.34-65.758 80.687-151.2C140.485 24.966 122.9 18.26 107.222 10 98.467 6.12 90.11-.177 80.686.004z" fill="#0098fe"/><path d="M80.685 180.164C44.01 158.174.348 114.406 0 28.974 20.887 24.966 38.472 18.26 54.15 10 62.905 6.12 71.26-.177 80.686.004z" fill="#00468d"/><path d="M80.668 64.61v60.952c15.197-6.22 37.978-29.04 37.63-50.13-.228-10.274-5.958-20.68-17.79-20.866-6.68-.07-13.3 2.83-19.84 10.046z" fill="#fff"/><path d="M80.668 64.61v60.952c-15.197-6.22-37.978-29.04-37.63-50.13.228-10.274 5.958-20.68 17.79-20.866 6.68-.07 13.3 2.83 19.84 10.046z" fill="#b2bec9"/></svg>
