<svg xmlns="http://www.w3.org/2000/svg" width="192" height="192"><defs><filter id="a" color-interpolation-filters="sRGB"><feFlood flood-color="#000" flood-opacity=".498" result="flood"/><feComposite in="flood" in2="SourceGraphic" operator="in" result="composite1"/><feGaussianBlur in="composite1" result="blur" stdDeviation="4"/><feOffset dy="4" result="offset"/><feComposite in="SourceGraphic" in2="offset" result="composite2"/></filter><filter id="b" color-interpolation-filters="sRGB"><feFlood flood-color="#000" flood-opacity=".498" result="flood"/><feComposite in="flood" in2="SourceGraphic" operator="in" result="composite1"/><feGaussianBlur in="composite1" result="blur" stdDeviation="4"/><feOffset dy="4" result="offset"/><feComposite in="SourceGraphic" in2="offset" result="composite2"/></filter></defs><path fill="none" stroke-width="8" d="M0-2h192v192H0z"/><path fill="#ffc107" stroke-width="8" d="M160 67.52V30h-37.52L96 3.52 69.52 30H32v37.52L5.52 94 32 120.48V158h37.52L96 184.48 122.48 158H160v-37.52L186.48 94z" filter="url(#a)"/><ellipse cx="96.041" cy="-74.044" fill="#ffd740" stroke="#ffd740" stroke-linecap="round" stroke-linejoin="round" stroke-width="60.969" rx="16.102" ry="16.103" transform="translate(0 168)"/><path fill="#448aff" stroke-width="5.82" d="M96-120.53v-17.45l-23.295 23.266L96-91.447v-17.45c19.276 0 34.942 15.647 34.942 34.9 0 5.874-1.456 11.458-4.076 16.286l8.502 8.492c4.543-7.154 7.222-15.646 7.222-24.778 0-25.71-20.85-46.533-46.59-46.533zm0 81.432c-19.277 0-34.942-15.646-34.942-34.9 0-5.874 1.456-11.458 4.076-16.286l-8.502-8.492c-4.543 7.154-7.222 15.646-7.222 24.779 0 25.709 20.85 46.533 46.59 46.533v17.45l23.295-23.267L96-56.548z" filter="url(#b)" transform="translate(0 168)"/><path fill="none" stroke-width="8" d="M0-2h192v192H0z"/></svg>
