<svg xmlns="http://www.w3.org/2000/svg" xmlns:xlink="http://www.w3.org/1999/xlink" height="256" width="256"><style><![CDATA[.B{opacity:.387}.C{stroke:none}.D{fill-opacity:1}.E{fill:#ceeeab}.F{stroke-linejoin:round}.G{fill:none}.H{stroke-linecap:round}.I{font-family:Monospace}.J{font-weight:700}.K{stroke:#6d7f42}.L{fill:#2d3335}]]></style><defs><linearGradient id="A" xlink:href="#Ar"><stop offset="0"/><stop stop-opacity="0" offset="1"/></linearGradient><linearGradient y2="-179.969" x2="9" y1="-94.672" x1="94.25" id="B" xlink:href="#C"/><linearGradient id="C" xlink:href="#Ar"><stop offset="0"/><stop stop-opacity="0" offset="1"/></linearGradient><linearGradient y2="-30.438" x2="35.75" y1="-114.438" x1="50.75" id="D" xlink:href="#C"/><linearGradient y2="-74.625" x2="115.25" y1="-163.125" x1="77.625" id="E" xlink:href="#C"/><linearGradient y2="7.063" x2="125.719" y1="-50.438" x1="56.5" id="F" xlink:href="#C"/><linearGradient y2="-146.797" x2="180.75" y1="-163.297" x1="35" id="G" xlink:href="#C"/><linearGradient y2="-41.609" x2="179" y1="-141.109" x1="57" id="H" xlink:href="#C"/><linearGradient y2="39.75" x2="208.25" y1="-26.5" x1="156" id="I" xlink:href="#C"/><linearGradient y2="-77.297" x2="235" y1="-169.297" x1="142.75" id="J" xlink:href="#C"/><linearGradient y2="-113.719" x2="166.5" y1="-161.359" x1="214.25" id="K" xlink:href="#L"/><linearGradient id="L" xlink:href="#Ar"><stop stop-color="#fff" offset="0"/><stop stop-opacity="0" stop-color="#fff" offset="1"/></linearGradient><linearGradient y2="-62.469" x2="57.656" y1="-126.5" x1="53.25" id="M" xlink:href="#L"/><linearGradient y2="-17.125" x2="75.719" y1="6.625" x1="39.5" id="N" xlink:href="#L"/><linearGradient y2="-121.438" x2="85.313" y1="-162.344" x1="102" id="O" xlink:href="#L"/><linearGradient y2="-14.75" x2="63.5" y1="-78.094" x1="117.75" id="P" xlink:href="#L"/><linearGradient y2="-60.75" x2="133.937" y1="-125.125" x1="180.687" id="Q" xlink:href="#L"/><linearGradient y2="33.375" x2="130.219" y1="-23.5" x1="170.75" id="R" xlink:href="#L"/><linearGradient xlink:href="#L" id="S" x1="213.5" y1="-76" x2="181.75" y2="-5.656"/><linearGradient y2="-223.253" x2="9" y1="62.064" x1="210.172" id="T" xlink:href="#A"/><clipPath id="U"><path d="M9 12.25s7.5 13 11.75 27.75S27 65.5 27 65.5s-5.5 12.75-8.25 24.75-5.75 23-5.75 23 5.75 16 9.25 30S26 167.5 26 167.5s-4 10.25-7.5 24.25-5 30.75-5 30.75 9.25-2 28.5 1.25 32.25 6 32.25 6 12.75-2.75 24-6.25 16.25-6.5 16.25-6.5 5.5.5 22.5 6.25 29.25 8.5 29.25 8.5l26-5.75c13-3 26.5-8 26.5-8s-.75-5 4.25-24.5 8.75-28 8.75-28-.5-4.5-3.75-19.75S218 116 218 116s1.75-10.5 6.75-23.75L235 65.5s-4.75-15.25-7.5-29.75S219.25 10 219.25 10 195 19 187.5 20.5s-21 5.25-21 5.25-9.75-4.25-22-8.5-29.75-5.5-29.75-5.5-3.25 3.5-22 8-27.5 5.75-27.5 5.75-18.5-9-31.5-11.5-24-2-24.75-1.75z" class="C D E"/></clipPath><clipPath id="V"><path d="M9 12.25s7.5 13 11.75 27.75S27 65.5 27 65.5s-5.5 12.75-8.25 24.75-5.75 23-5.75 23 5.75 16 9.25 30S26 167.5 26 167.5s-4 10.25-7.5 24.25-5 30.75-5 30.75 9.25-2 28.5 1.25 32.25 6 32.25 6 12.75-2.75 24-6.25 16.25-6.5 16.25-6.5 5.5.5 22.5 6.25 29.25 8.5 29.25 8.5l26-5.75c13-3 26.5-8 26.5-8s-.75-5 4.25-24.5 8.75-28 8.75-28-.5-4.5-3.75-19.75S218 116 218 116s1.75-10.5 6.75-23.75L235 65.5s-4.75-15.25-7.5-29.75S219.25 10 219.25 10 195 19 187.5 20.5s-21 5.25-21 5.25-9.75-4.25-22-8.5-29.75-5.5-29.75-5.5-3.25 3.5-22 8-27.5 5.75-27.5 5.75-18.5-9-31.5-11.5-24-2-24.75-1.75z" class="C D E"/></clipPath><clipPath id="W"><path d="M9 12.25s7.5 13 11.75 27.75S27 65.5 27 65.5s-5.5 12.75-8.25 24.75-5.75 23-5.75 23 5.75 16 9.25 30S26 167.5 26 167.5s-4 10.25-7.5 24.25-5 30.75-5 30.75 9.25-2 28.5 1.25 32.25 6 32.25 6 12.75-2.75 24-6.25 16.25-6.5 16.25-6.5 5.5.5 22.5 6.25 29.25 8.5 29.25 8.5l26-5.75c13-3 26.5-8 26.5-8s-.75-5 4.25-24.5 8.75-28 8.75-28-.5-4.5-3.75-19.75S218 116 218 116s1.75-10.5 6.75-23.75L235 65.5s-4.75-15.25-7.5-29.75S219.25 10 219.25 10 195 19 187.5 20.5s-21 5.25-21 5.25-9.75-4.25-22-8.5-29.75-5.5-29.75-5.5-3.25 3.5-22 8-27.5 5.75-27.5 5.75-18.5-9-31.5-11.5-24-2-24.75-1.75z" class="C D E"/></clipPath><linearGradient id="X" xlink:href="#Ar"><stop stop-color="#2d3335" offset="0"/><stop stop-color="#4c464a" offset=".5"/><stop stop-color="#384042" offset="1"/></linearGradient><linearGradient y2="258.212" x2="17.287" y1="242.463" x1="1.538" id="Y" xlink:href="#Ar"><stop stop-color="#f9e295" offset="0"/><stop stop-color="#f7dd84" offset=".125"/><stop stop-color="#fff" offset=".206"/><stop stop-color="#f4ce51" offset=".301"/><stop stop-color="#f9e7aa" offset=".341"/><stop stop-color="#efbb0e" offset="1"/></linearGradient><linearGradient y2="167.659" x2="72.406" y1="187.345" x1="92.091" id="Z" xlink:href="#Ar"><stop stop-color="#2d3335" offset="0"/><stop stop-color="#4c464a" offset=".5"/><stop stop-color="#384042" offset="1"/></linearGradient><linearGradient y2="192.266" x2="83.233" y1="176.517" x1="67.484" id="a" xlink:href="#Ar"><stop stop-color="#f9e295" offset="0"/><stop stop-color="#f7dd84" offset=".125"/><stop stop-color="#fff" offset=".206"/><stop stop-color="#f4ce51" offset=".301"/><stop stop-color="#f9e7aa" offset=".341"/><stop stop-color="#efbb0e" offset="1"/></linearGradient><linearGradient y2="143.914" x2="105.994" y1="153.756" x1="115.836" id="b" xlink:href="#X"/><linearGradient y2="144.759" x2="120.651" y1="133.071" x1="126.679" id="c" xlink:href="#X"/><radialGradient r="47" fy="86" fx="128" cy="86" cx="128" gradientTransform="scale(1.42159 -1.42159) rotate(-45 -51.091 19.464)" id="d" xlink:href="#Ar"><stop stop-opacity="0" stop-color="#d0e9f2" offset="0"/><stop stop-opacity="0" stop-color="#d0e9f2" offset=".839"/><stop stop-opacity=".282" stop-color="#d0e9f2" offset=".943"/><stop stop-color="#d0e9f2" offset="1"/></radialGradient><linearGradient xlink:href="#A" id="e" x1="91.385" y1="285.918" x2="72.406" y2="128.837"/><radialGradient gradientTransform="matrix(1.21248 0 0 .83915 -46.348 24.528)" r="38.417" fy="72.588" fx="159.613" cy="72.588" cx="159.613" id="f" xlink:href="#Ar"><stop stop-color="#fff" offset="0"/><stop stop-opacity=".93" stop-color="#fff" offset=".5"/><stop stop-opacity="0" stop-color="#fff" offset="1"/></radialGradient><radialGradient id="g" gradientTransform="matrix(1.21248 0 0 .83915 -45.92 25.814)" cx="159.613" cy="72.588" fx="159.613" fy="72.588" r="38.417" xlink:href="#Ar"><stop stop-color="#fff" offset="0"/><stop stop-opacity="0" stop-color="#fff" offset="1"/></radialGradient><linearGradient y2="127.196" x2="179.961" y1="19.815" x1="126.643" id="h" xlink:href="#Ar"><stop stop-color="#fff" offset="0"/><stop stop-opacity="0" stop-color="#fff" offset="1"/></linearGradient><linearGradient id="i" x1="218.34" y1="121.814" x2="212.7" y2="113.611" xlink:href="#Ar"><stop stop-color="#fff" offset="0"/><stop stop-opacity="0" stop-color="#fff" offset="1"/></linearGradient><filter id="j"><feGaussianBlur stdDeviation="4.287"/></filter><clipPath id="k"><path d="M9 12.25s7.5 13 11.75 27.75S27 65.5 27 65.5s-5.5 12.75-8.25 24.75-5.75 23-5.75 23 5.75 16 9.25 30S26 167.5 26 167.5s-4 10.25-7.5 24.25-5 30.75-5 30.75 9.25-2 28.5 1.25 32.25 6 32.25 6 12.75-2.75 24-6.25 16.25-6.5 16.25-6.5 5.5.5 22.5 6.25 29.25 8.5 29.25 8.5l26-5.75c13-3 26.5-8 26.5-8s-.75-5 4.25-24.5 8.75-28 8.75-28-.5-4.5-3.75-19.75S218 116 218 116s1.75-10.5 6.75-23.75L235 65.5s-4.75-15.25-7.5-29.75S219.25 10 219.25 10 195 19 187.5 20.5s-21 5.25-21 5.25-9.75-4.25-22-8.5-29.75-5.5-29.75-5.5-3.25 3.5-22 8-27.5 5.75-27.5 5.75-18.5-9-31.5-11.5-24-2-24.75-1.75z" class="C D E"/></clipPath><clipPath id="l"><path d="M9 12.25s7.5 13 11.75 27.75S27 65.5 27 65.5s-5.5 12.75-8.25 24.75-5.75 23-5.75 23 5.75 16 9.25 30S26 167.5 26 167.5s-4 10.25-7.5 24.25-5 30.75-5 30.75 9.25-2 28.5 1.25 32.25 6 32.25 6 12.75-2.75 24-6.25 16.25-6.5 16.25-6.5 5.5.5 22.5 6.25 29.25 8.5 29.25 8.5l26-5.75c13-3 26.5-8 26.5-8s-.75-5 4.25-24.5 8.75-28 8.75-28-.5-4.5-3.75-19.75S218 116 218 116s1.75-10.5 6.75-23.75L235 65.5s-4.75-15.25-7.5-29.75S219.25 10 219.25 10 195 19 187.5 20.5s-21 5.25-21 5.25-9.75-4.25-22-8.5-29.75-5.5-29.75-5.5-3.25 3.5-22 8-27.5 5.75-27.5 5.75-18.5-9-31.5-11.5-24-2-24.75-1.75z" class="C D E"/></clipPath><clipPath id="m"><path d="M9 12.25s7.5 13 11.75 27.75S27 65.5 27 65.5s-5.5 12.75-8.25 24.75-5.75 23-5.75 23 5.75 16 9.25 30S26 167.5 26 167.5s-4 10.25-7.5 24.25-5 30.75-5 30.75 9.25-2 28.5 1.25 32.25 6 32.25 6 12.75-2.75 24-6.25 16.25-6.5 16.25-6.5 5.5.5 22.5 6.25 29.25 8.5 29.25 8.5l26-5.75c13-3 26.5-8 26.5-8s-.75-5 4.25-24.5 8.75-28 8.75-28-.5-4.5-3.75-19.75S218 116 218 116s1.75-10.5 6.75-23.75L235 65.5s-4.75-15.25-7.5-29.75S219.25 10 219.25 10 195 19 187.5 20.5s-21 5.25-21 5.25-9.75-4.25-22-8.5-29.75-5.5-29.75-5.5-3.25 3.5-22 8-27.5 5.75-27.5 5.75-18.5-9-31.5-11.5-24-2-24.75-1.75z" class="C D E"/></clipPath><linearGradient y2="-21.253" x2="9" y1="264.064" x1="210.172" id="n" xlink:href="#Ar"><stop offset="0"/><stop stop-opacity="0" offset="1"/></linearGradient><linearGradient y2="-113.719" x2="166.5" y1="-161.359" x1="214.25" id="o" xlink:href="#p"/><linearGradient id="p" xlink:href="#Ar"><stop stop-color="#fff" offset="0"/><stop stop-opacity="0" stop-color="#fff" offset="1"/></linearGradient><linearGradient y2="-62.469" x2="57.656" y1="-126.5" x1="53.25" id="q" xlink:href="#p"/><linearGradient y2="-17.125" x2="75.719" y1="6.625" x1="39.5" id="r" xlink:href="#p"/><linearGradient y2="-121.438" x2="85.313" y1="-162.344" x1="102" id="s" xlink:href="#p"/><linearGradient y2="-14.75" x2="63.5" y1="-78.094" x1="117.75" id="t" xlink:href="#p"/><linearGradient y2="-60.75" x2="133.937" y1="-125.125" x1="180.687" id="u" xlink:href="#p"/><linearGradient y2="33.375" x2="130.219" y1="-23.5" x1="170.75" id="v" xlink:href="#p"/><linearGradient xlink:href="#p" id="w" x1="213.5" y1="-76" x2="181.75" y2="-5.656"/><linearGradient y2="-179.969" x2="9" y1="-94.672" x1="94.25" id="x" xlink:href="#y"/><linearGradient id="y" xlink:href="#Ar"><stop offset="0"/><stop stop-opacity="0" offset="1"/></linearGradient><linearGradient y2="-30.438" x2="35.75" y1="-114.438" x1="50.75" id="z" xlink:href="#y"/><linearGradient y2="-74.625" x2="115.25" y1="-163.125" x1="77.625" id="AA" xlink:href="#y"/><linearGradient y2="7.063" x2="125.719" y1="-50.438" x1="56.5" id="AB" xlink:href="#y"/><linearGradient y2="-146.797" x2="180.75" y1="-163.297" x1="35" id="AC" xlink:href="#y"/><linearGradient y2="-41.609" x2="179" y1="-141.109" x1="57" id="AD" xlink:href="#y"/><linearGradient y2="39.75" x2="208.25" y1="-26.5" x1="156" id="AE" xlink:href="#y"/><linearGradient y2="-77.297" x2="235" y1="-169.297" x1="142.75" id="AF" xlink:href="#y"/><clipPath id="AG"><path fill="url(#AH)" d="M123.623 141.062c20.832 20.243 54.607 19.29 75.44-2.132s20.832-55.196 0-75.44-54.607-19.288-75.44 2.133-20.83 55.196 0 75.44z" class="C D"/></clipPath><radialGradient r="47" fy="86" fx="128" cy="86" cx="128" gradientTransform="matrix(.80254 .77986 .80254 -.82522 -10.402 73.423)" id="AH" xlink:href="#Ar"><stop stop-opacity="0" stop-color="#d0e9f2" offset="0"/><stop stop-opacity="0" stop-color="#d0e9f2" offset=".839"/><stop stop-opacity=".282" stop-color="#d0e9f2" offset=".943"/><stop stop-color="#d0e9f2" offset="1"/></radialGradient><filter id="AI"><feGaussianBlur stdDeviation="6.311"/></filter><filter id="AJ"><feGaussianBlur stdDeviation="4.457"/></filter><linearGradient y2="4.302" x2="122" y1="245.448" x1="122" id="AK" xlink:href="#Ar"><stop offset="0"/><stop stop-opacity="0" offset="1"/></linearGradient><clipPath id="AL"><path fill="url(#AM)" opacity=".04" d="M9 22.578s7.5 12.394 11.75 26.8S27 74.373 27 74.373 21.5 87.567 18.75 99.8 13 123.255 13 123.255s5.75 15.535 9.25 29.252S26 176.453 26 176.453s-4 10.574-7.5 24.857-5 31.154-5 31.154 9.25-2.748 28.5-1.055 32.25 3.392 32.25 3.392 12.75-3.78 24-8.2 16.25-7.815 16.25-7.815 5.5.055 22.5 4.43 29.25 6.134 29.25 6.134l26-7.852c13-4.052 26.5-10.144 26.5-10.144s-.75-4.94 4.25-24.843 8.75-28.708 8.75-28.708-.514-4.455-3.75-19.447c-1.75-8.108-2.25-4.068-2.25-4.068s16.264-26.155 16.5-40.334C242.5 78.944 235 57.55 235 57.55s-4.75-14.866-7.5-29.143-8.25-25.083-8.25-25.083S195 14.285 187.5 16.392s-21 6.948-21 6.948-9.75-3.46-22-6.72-29.75-3.094-29.75-3.094-3.25 3.762-22 9.78-27.5 7.974-27.5 7.974-18.5-7.504-31.5-8.952-24-.06-24.75.25z" class="C D"/></clipPath><linearGradient y2="-4.38" x2="9" y1="251.576" x1="210.172" id="AM" xlink:href="#Ar"><stop offset="0"/><stop stop-opacity="0" offset="1"/></linearGradient><path id="AN" d="M174.28 35.875c-17.6 0-35.192 6.64-48.72 19.906-.167.164-.334.303-.5.47-22.055 22.056-26.208 55.25-12.468 81.5l-2.28 1.625a72.07 72.07 0 0 0 8.093 12.125l-13.312 13.344c-1.342-.586-2.79-1.034-4.563-1.375l-2.844 2.844c-1.11-.484-2.138-.816-3.062-.875L30.5 229.563c-.037 1.1.226 2.187.656 3.28l-.53.532-1.094 1.094c.716 3.738 2 6.823 5.47 10.28s6.42 4.63 10.28 5.47l1.813-1.813c1.088.463 2.13.786 3.093.844l64.126-64.125c-.243-.975-.62-1.935-1.032-2.906l3-3c-.25-1.732-.676-3.198-1.312-4.594l13.28-13.28a72.07 72.07 0 0 0 12.125 8.094l1.625-2.282c26.25 13.74 59.444 9.587 81.5-12.47.166-.165.305-.332.47-.5 26.694-27.216 26.548-70.92-.47-97.937-13.6-13.6-31.407-20.375-49.22-20.375zm-.5 3.28c.105.002.208-.002.313 0a65.85 65.85 0 0 1 5.719.375l.28.032.282.03c.146.018.292.045.438.063.896.1 1.794.228 2.687.375.62.102 1.227.224 1.844.344l1.03.188a64.65 64.65 0 0 1 2.156.5l.938.218.22.063a66.93 66.93 0 0 1 2.843.812c.073.023.147.04.22.063.947.3 1.907.625 2.844.968.053.02.103.043.156.063a66.88 66.88 0 0 1 2.844 1.125c.05.022.105.04.156.063.942.4 1.885.836 2.813 1.28.042.02.083.043.125.063a66.43 66.43 0 0 1 2.78 1.407c.034.017.06.044.094.062.93.5 1.846 1.02 2.75 1.563.033.02.062.043.094.062a67.38 67.38 0 0 1 2.688 1.719c.55.37 1.084.77 1.625 1.156l1.093.78c.02.014.044.018.063.032.878.655 1.74 1.36 2.594 2.062a70.63 70.63 0 0 1 5.062 4.594 70.62 70.62 0 0 1 4.563 5.031c.01.01.022.02.03.03.708.848 1.396 1.713 2.063 2.594.283.38.54.773.813 1.156l1.094 1.563c.016.024.046.038.062.062.598.9 1.167 1.778 1.72 2.688.02.032.043.06.062.094a67.55 67.55 0 0 1 1.563 2.75c.018.032.045.06.062.093.498.92.954 1.844 1.407 2.78l.062.126c.446.93.88 1.868 1.28 2.812.022.05.04.105.063.156A68.24 68.24 0 0 1 236.5 84c.02.053.043.104.062.156a67.08 67.08 0 0 1 .97 2.844c.022.072.04.147.062.22.294.94.56 1.894.812 2.844l.063.218c.08.3.142.627.218.938l.5 2.156c.072.342.12.688.188 1.03l.344 1.844a67.82 67.82 0 0 1 .375 2.688c.018.145.045.29.062.437l.062.562c.208 1.9.334 3.81.376 5.72v.312c.03 1.98-.034 3.963-.187 5.938l-.032.374c-.074.92-.168 1.835-.28 2.75a65.2 65.2 0 0 1-.438 2.875c-.014.083-.017.168-.03.25l-.063.375c-.36 1.947-.807 3.876-1.343 5.78-.164.587-.35 1.168-.532 1.75l-.53 1.688a63.25 63.25 0 0 1-.938 2.563l-.188.468c-.045.113-.08.232-.125.344a62.9 62.9 0 0 1-2.312 5.031c-.08.158-.168.312-.25.47L232.062 139l-.28.5c-.2.34-.42.664-.626 1-.36.6-.742 1.168-1.125 1.75-.005.007.005.024 0 .03-.495.75-1.005 1.5-1.53 2.22-.457.636-.954 1.25-1.438 1.875-.197.254-.36.53-.562.78l-.406.5-.5.594c-.56.668-1.133 1.324-1.72 1.97-.612.68-1.237 1.346-1.875 2-.16.164-.306.337-.47.5-21.13 21.13-52.258 24.495-77.187 11.156l.125-.188c-3.75-1.913-7.3-4.184-10.625-6.78-.54-.424-1.066-.87-1.594-1.313-.517-.43-1.028-.867-1.53-1.313l-.282-.25a70.64 70.64 0 0 1-2.406-2.312 70.65 70.65 0 0 1-2.312-2.407l-.25-.28c-.446-.504-.883-1.015-1.313-1.532l-1.312-1.594c-2.597-3.315-4.868-6.873-6.782-10.625l-.187.125c-13.34-24.93-9.974-56.057 11.156-77.187.163-.163.336-.308.5-.47a68.23 68.23 0 0 1 2-1.874c.645-.586 1.3-1.16 1.97-1.72l.812-.687c.344-.278.716-.512 1.063-.782.624-.483 1.24-.98 1.875-1.437a65.36 65.36 0 0 1 2.25-1.531l1.75-1.125 1.344-.813c.68-.395 1.37-.757 2.062-1.125l.53-.28a63.59 63.59 0 0 1 2.844-1.406 62.89 62.89 0 0 1 2.594-1.125c.153-.062.316-.096.47-.157A63.44 63.44 0 0 1 152 42.594c.56-.192 1.123-.356 1.687-.532l1.75-.53a63.56 63.56 0 0 1 2.657-.688c.07-.017.147-.015.218-.032l1.25-.28 2.032-.407c.082-.015.167-.017.25-.03.955-.167 1.914-.313 2.875-.438a64.69 64.69 0 0 1 5.906-.469 65.09 65.09 0 0 1 3.156-.03z"/><path id="AO" d="M110.75 5.5l-4.25 7c-.75 9-2.25 13.75-8.5 16.5s-12.25 3.5-11 7.5 13 9.25 14.25 13 8.25 1.75 11 7 2 15.25-3.75 17.25-17.5.5-20.25 9.5-4.75 10.5-9 12.75-7.25 10.5-3.5 16.5 12.25-1.25 15-6.5S98 97.25 98 97.25h23.75l59-1.75 3.25-3.75s3.25 4 2.75 8.75-3.75 14.75.25 17.25 19.5-2 24-7-4.75-28.25-10.5-29.5-18.5-1.75-17-7 11.75 4.5 17.25 3.25 16.75-21 12-25.25-24.25-5.25-25.75-8 21-8 22.25-11-2.5-7.25-6.25-8.5S189 41 182 40.5s-20 5.75-17.25 11.5-6 11-14.5 6.5-24.75-13-21.75-24S150 15.75 150 15.75L110.75 5.5zM97.187 112.72c-1.594.146-4.468 4.687-4.937 7.03-.5 2.5-3.25 6.75-3.5 12.25s4.75 6.75 8.75 6.5 2.75-6.75 2-15c-.25 0-.5-10.25-2-10.75a.79.79 0 0 0-.313-.031zm92.72 51.656c-6.336.295-6.626 7.47-7.407 8.875-1.25 2.25 2.25 13.75 2 18s-4.75 5.25-9.5 9.75.5 16 11.25 31l44.75 1.25-1-35s4.75-4.25-20.75-24.25c-9.563-7.5-15.542-9.802-19.344-9.625zm-149.97 16.53c-4.03-.102-8.28 5.72-9.687 7.594-1.5 2-6.25 5-17 9.5l-14.5 34.25 53 4.25s1.75-11-4.25-15.75S30.25 215 29.25 207.5s9.25-10 13.75-14.25S45 182 40.75 181a4.015 4.015 0 0 0-.813-.094z"/><path id="AP" d="M122.75 62.25c6.25.5 12.25-2.25 10.75-6.5s-12.5-7.25-13.25-3 2 10.5 2.5 9.5z"/><path id="AQ" d="M108.75 46.75c-8.5-5.5-8.5-7.25-7-8s10.25 5 12.75 8-2.25 2-5.75 0z"/><path id="AR" d="M15.75 151.25c33-2.5 38.25-3.5 36.25-10.25s-8.75-23.5-23-22.5-22.75-6.75-22.75-6.75"/><path id="AS" d="M17.5 177.25c18.25-10 28.75-8.5 35-11.5s13.25-5.75 15.75-9.5 5.75-11.5 5.75-18-3.5-36 3.25-43.5 17.25-26 26-23.25 12.25 9.75 22 9.5S147 77 149.5 68.75s-15.75-16-16-23 5.5-14.25 20.25-17 23.5-11.5 23.5-11.5"/><path id="AT" d="M14.5 161c15.25-1.5 22.25 3.5 31.5 1.75s13.25-3 17.75-5.75 6-3.75 6.25-6.5 1-12.5-3-22S54.5 97 58.75 89.75 64 68.25 74.5 65.25 95.5 59 102.25 64s12.75 14.25 20 14.5S134 77 136.75 74s4.5-10.25 1.75-13.75-15.5-5.5-17.25-9.5-10.75-17-.25-26.75 36.25-8.25 36.25-8.25"/><path id="AU" d="M21.25 159c13.75 1 21.5 4.25 33.5-.5s13.5-5.25 13.75-8.75-.25-15.75-3-20-13-13.75-15.75-24.25.25-41 8.5-48.25 32-7.25 37.5-10.5 5.25-16.75 13-24.5 27-12.25 27-12.25"/><path id="AV" d="M9.75 214c19-12.5 36-1.25 49-4s38.25-37.25 46-37 5.5-11.75 8.5-13.25 5.5 6 11.75 8 24.5-2.75 23.5-5.75-7-7.75-5.5-8.5 8.5 5 12.75 3.5 43.75-1 48.5-13.5 21.5-13.5 21.5-13.5"/><path id="AW" d="M77.5 233.5c13.5-11.5 23.25-25 28.5-27s12.75-3.75 15.75-8 2.5-10.75 5.25-12 3.75 5.75 8.75 6 36.75-5 42.75-11.75 32.25-12.5 32.5-14.5-1-4.75.25-5.5 24.75-6 24.75-6"/><path id="AX" d="M168.75 236c9-13.75 20.5-41 29.5-42s10.25-2.5 12.5-4.25 17 2.25 17 2.25"/><path id="AY" d="M57.75 20l-8.5 28.25 18 6.25L75 90.75 54 113l9 10.5L51 135l.5 4.5L71.75 164l14-6.75 20.5 18.5L95.75 204l10.25 8.5-2.75 13"/><path id="AZ" d="M105.75 212.25l12.5-27.75 11-7 27.5 15.75 20.5-3.75-.25-15.75-10.25-6 12.75-26.25 5.75-3.75 38.75-10"/><path id="Aa" d="M219.25-182s-24.25 9-31.75 10.5-21 5.25-21 5.25c4.924-1.358 11.437 45.392 14.25 52.25l-.063.28c11.808-4.074 51.21-4.767 54.313-12.78 0 0-4.75-15.25-7.5-29.75S219.25-182 219.25-182z"/><path id="Ab" d="M27-126.5s-5.5 12.75-8.25 24.75-5.75 23-5.75 23l50.625 16.28 15.78-58.906L27-126.5z"/><path id="Ac" d="M26-24.5S22-14.25 18.5-.25s-5 30.75-5 30.75.147-.045.438-.094c2.033-.338 11.218-1.5 28.062 1.344 19.25 3.25 32.25 6 32.25 6l1.47-52.5-.75.125L26-24.5z"/><path id="Ad" d="M114.75-180.25s-3.25 3.5-22 8-27.5 5.75-27.5 5.75c5.182 14.704 12.03 29.27 14.25 44.75l-.094.313 48.03-3.938 1.126.25c-3.363-13.323-7.797-54.592-13.813-55.125z"/><path id="Ae" d="M117.594-78.094L63.97-62.375l-.344-.094-.125.47 12.25 46.5-.03.75 49.47-8.875.53.188.032-.063-8.25-54.25.094-.344z"/><path id="Af" d="M128.563-125.125l.687 2.375-11.656 44.656.093-.03L169.5-60.75l11.187-52.97-1 .375-51.125-11.78z"/><path id="Ag" d="M125.53-23.5L114.5 25s5.5.5 22.5 6.25l6.125 2.03L148.75 35c10.617 3.2 17.5 4.75 17.5 4.75l12.72-45.406-1.53.562L125.53-23.5z"/><path id="Ah" d="M218-76c-15.666 6.288-31.698 11.15-48.063 15.406l-.437-.156 9.5 55-.03.094c17.84-6.36 35.38-13.387 52.78-20.844 0 0-.5-4.5-3.75-19.75S218-76 218-76z"/><path id="Ai" d="M13.72-179.97a58.605 58.605 0 0 0-2.719.063l-1.156.062c-.03.002-.066-.002-.094 0l-.75.094s7.5 13 11.75 27.75S27-126.5 27-126.5l51.47 5.125.937-.063.094-.312c-2.22-15.48-9.068-30.046-14.25-44.75 0 0-18.5-9-31.5-11.5a104.58 104.58 0 0 0-3-.531l-1.75-.28-.688-.094c-1.306-.182-2.588-.34-3.812-.47-.735-.077-1.395-.128-2.094-.187a114.157 114.157 0 0 0-4.781-.313 96.716 96.716 0 0 0-3.906-.094z"/><path id="Aj" d="M13-78.75s5.75 16 9.25 30S26-24.5 26-24.5l48.97 9.875.75-.125.03-.75L63.5-62l.125-.47L13-78.75z"/><path id="Ak" d="M127.438-125.375l-47.97 4h-.062L63.625-62.47l.344.094 53.625-15.72 11.656-44.656c-.224-.633-.453-1.447-.688-2.375l-1.125-.25z"/><path id="Al" d="M125.188-23.625l-49.47 8.875-1.468 52.5S87 35 98.25 31.5 114.5 25 114.5 25l11.22-48.438-.53-.187z"/><path id="Am" d="M114.75-180.25c6.016.533 10.45 41.802 13.813 55.125l51.125 11.78c.304-.13.643-.252 1-.375l.062-.28c-2.813-6.858-9.326-53.608-14.25-52.25l-1.72-.72a350.283 350.283 0 0 0-20.281-7.781c-12.25-4.25-29.75-5.5-29.75-5.5z"/><path id="An" d="M117.688-78.125l-.094.03-.094.344 8.25 53.25-.22 1 51.907 18.406 1.53-.562.032-.094-9.5-55-51.813-17.375z"/><path id="Ao" d="M231.75-26.5c-17.4 7.457-34.942 14.484-52.78 20.844L166.25 39.75l26-5.75c13-3 26.5-8 26.5-8S218 21 223 1.5s8.75-28 8.75-28z"/><path id="Ap" d="M235-126.5c-3.102 8.014-42.505 8.707-54.313 12.78L169.5-60.75l.438.156C186.302-64.85 202.334-69.712 218-76c0 0 1.75-10.5 6.75-23.75L235-126.5z"/><path id="Aq" d="M9 12.25s7.5 13 11.75 27.75S27 65.5 27 65.5s-5.5 12.75-8.25 24.75-5.75 23-5.75 23 5.75 16 9.25 30S26 167.5 26 167.5s-4 10.25-7.5 24.25-5 30.75-5 30.75 9.25-2 28.5 1.25 32.25 6 32.25 6 12.75-2.75 24-6.25 16.25-6.5 16.25-6.5 5.5.5 22.5 6.25 29.25 8.5 29.25 8.5l26-5.75c13-3 26.5-8 26.5-8s-.75-5 4.25-24.5 8.75-28 8.75-28-.5-4.5-3.75-19.75S218 116 218 116s1.75-10.5 6.75-23.75L235 65.5s-4.75-15.25-7.5-29.75S219.25 10 219.25 10 195 19 187.5 20.5s-21 5.25-21 5.25-9.75-4.25-22-8.5-29.75-5.5-29.75-5.5-3.25 3.5-22 8-27.5 5.75-27.5 5.75-18.5-9-31.5-11.5-24-2-24.75-1.75z"/><linearGradient id="Ar" gradientUnits="userSpaceOnUse"/></defs><g transform="translate(0 -10)"><use xlink:href="#AN" filter="url(#AI)" opacity=".7" transform="matrix(1 .06864 0 .8487 0 36.913)" clip-path="none" class="L"/><path filter="url(#AJ)" fill="url(#AK)" opacity=".5" d="M9 17.25s7.5 11 11.75 25.75S27 68.5 27 68.5s-5.5 12.75-8.25 24.75l-5.75 25s5.75 16 9.25 30S26 170.5 26 170.5s-4 10.25-7.5 24.25-5 30.75-5 30.75 9.25-2 28.5 1.25 32.25 6 32.25 6 12.75-2.75 24-6.25 16.25-6.5 16.25-6.5 5.5.5 22.5 6.25 29.25 8.5 29.25 8.5l26-5.75c13-3 26.5-8 26.5-8s-.75-5 4.25-24.5 8.75-28 8.75-28L228 150.75C224.75 135.5 218 121 218 121s1.75-12.5 6.75-25.75L235 68.5s-4.75-15.25-7.5-29.75S219.25 15 219.25 15 195 24 187.5 25.5s-21 5.25-21 5.25-9.75-4.25-22-8.5-29.75-5.5-29.75-5.5-3.25 3.5-22 8-27.5 5.75-27.5 5.75-18.5-9-31.5-11.5-24-2-24.75-1.75z" transform="matrix(1 0 0 .84657 0 37.66)"/></g><path d="M9 2.25s7.5 13 11.75 27.75S27 55.5 27 55.5s-5.5 12.75-8.25 24.75-5.75 23-5.75 23 5.75 16 9.25 30S26 157.5 26 157.5s-4 10.25-7.5 24.25-5 30.75-5 30.75 9.25-2 28.5 1.25 32.25 6 32.25 6 12.75-2.75 24-6.25 16.25-6.5 16.25-6.5 5.5.5 22.5 6.25 29.25 8.5 29.25 8.5l26-5.75c13-3 26.5-8 26.5-8s-.75-5 4.25-24.5 8.75-28 8.75-28-.5-4.5-3.75-19.75S218 106 218 106s1.75-10.5 6.75-23.75L235 55.5s-4.75-15.25-7.5-29.75S219.25 0 219.25 0 195 9 187.5 10.5s-21 5.25-21 5.25-9.75-4.25-22-8.5-29.75-5.5-29.75-5.5-3.25 3.5-22 8-27.5 5.75-27.5 5.75-18.5-9-31.5-11.5S9.75 2 9 2.25z" class="E"/><g transform="translate(0 -10)" clip-path="url(#W)"><use xlink:href="#AO" fill="#a6dd8b"/></g><path fill="#aac3e7" d="M158.53 75.344c-4.76-.015-9.03.97-11.53 3.156-8 7-35 .75-48.5 7s-13.25 38-14.75 44.5-17.5 20.75-20 23.5-13.25 7.25-19.5 8.5-12.75 7.25-15.5 11c-2.02 2.756-7.406 6.45-10.125 8.22-.046.18-.08.348-.125.53-.134.535-.247 1.083-.375 1.625 4.98-1.605 11.18-8.18 16.625-13.625 6.25-6.25 20-7.75 27.75-11.5S76.75 138.5 89 134.5s21.25 11.75 24.25 18.5 1.75 12.75 3.75 17 11 11.75 11.5 13.5-5 6.5-6.25 8.5-10.5 7-11.75 8.75c-.966 1.352-1.923 6.773-2.313 9.22l1.126-.47c.483-2.53 1.515-7.078 2.937-8.5 2-2 11.25-4.5 12.5-8.5s7-6.5 7-6.5 2.75 4 16 14c8.833 6.667 12.758 15.534 14.406 20.72l2.03.53c-1.22-4.32-4.836-16.24-8.937-20.75-5-5.5-18.5-10.75-22.75-22S108 144.25 115 138.25s16.5-4 28.5 7.5 46.25 5.75 57.75 3.75c9.955-1.73 20.834 14.883 23.906 26.03a303.703 303.703 0 0 1 1.656-5.75c-1.738-1.926-3.697-4.62-5.312-8.28-3.75-8.5-12-13.25-12-13.25s8.75-5 14.75-7.75a18.926 18.926 0 0 0 4.188-2.656L228 135.75l-.094-.438c-4.765 5.563-19.232 9.616-21.656 10.938-2.75 1.5-18.25 3-35.75 4.5s-26.75-7.5-34.25-14.75-13-36-3-38 20 13.75 30 17 21.5-15.75 19.75-27c-1.203-7.734-13.997-12.625-24.47-12.656zm-53.344 13.28c1.276.001 5.86 1.594 6.563 2.375 2.25 2.5 2 7.25 0 8s-12.75 8-10.5 14.25 1.75 18-3.5 18-8 0-10-2.5-2-12 0-19.75 3.5-15 8-18.25c3.094-2.234 6.632-2.128 9.438-2.125zm13.594 73.094c.203.013 1.906 3.515 4.72 7.03 3 3.75 3.25 8.25 3.25 8.25s-4.25-4.75-6-8-2-7.25-2-7.25c0-.03.018-.032.03-.03z"/><g class="F G K"><use xlink:href="#AP" class="B"/><use xlink:href="#AQ" class="B"/></g><g transform="translate(0 -10)" class="G"><g clip-path="url(#U)" class="K"><use xlink:href="#AR" class="B F H"/><use xlink:href="#AS" class="B"/><g class="F H"><use xlink:href="#AT" class="B"/><use xlink:href="#AU" class="B"/><path d="M190 18.5c11.75 5 39 9.75 47.25 40.25" class="B"/><use xlink:href="#AV" class="B"/><use xlink:href="#AW" class="B"/><use xlink:href="#AX" class="B"/></g></g><g stroke="#d38484" clip-path="url(#V)" stroke-width="2" class="H"><use xlink:href="#AY"/><use xlink:href="#AZ"/></g></g><path fill="url(#T)" opacity=".04" d="M9-189.75s7.5 13 11.75 27.75S27-136.5 27-136.5s-5.5 12.75-8.25 24.75-5.75 23-5.75 23 5.75 16 9.25 30S26-34.5 26-34.5s-4 10.25-7.5 24.25-5 30.75-5 30.75 9.25-2 28.5 1.25 32.25 6 32.25 6S87 25 98.25 21.5 114.5 15 114.5 15s5.5.5 22.5 6.25 29.25 8.5 29.25 8.5l26-5.75c13-3 26.5-8 26.5-8S218 11 223-8.5s8.75-28 8.75-28-.5-4.5-3.75-19.75S218-86 218-86s1.75-10.5 6.75-23.75L235-136.5s-4.75-15.25-7.5-29.75-8.25-25.75-8.25-25.75-24.25 9-31.75 10.5-21 5.25-21 5.25-9.75-4.25-22-8.5-29.75-5.5-29.75-5.5-3.25 3.5-22 8-27.5 5.75-27.5 5.75-18.5-9-31.5-11.5-24-2-24.75-1.75z" transform="translate(0 192)"/><g transform="translate(0 182)"><g opacity=".27"><use xlink:href="#Aa" fill="url(#K)"/><use xlink:href="#Ab" fill="url(#M)"/><use xlink:href="#Ac" fill="url(#N)"/><use xlink:href="#Ad" fill="url(#O)"/><use xlink:href="#Ae" fill="url(#P)"/><use xlink:href="#Af" fill="url(#Q)"/><use xlink:href="#Ag" fill="url(#R)"/><use xlink:href="#Ah" fill="url(#S)"/></g><g opacity=".043"><use xlink:href="#Ai" fill="url(#B)"/><use xlink:href="#Aj" fill="url(#D)"/><use xlink:href="#Ak" fill="url(#E)"/><use xlink:href="#Al" fill="url(#F)"/><use xlink:href="#Am" fill="url(#G)"/><use xlink:href="#An" fill="url(#H)"/><use xlink:href="#Ao" fill="url(#I)"/><use xlink:href="#Ap" fill="url(#J)"/></g></g><g clip-path="url(#AG)" transform="matrix(1.25254 .0354 0 1.25254 -27.81 -48.344)"><use xlink:href="#Aq" class="E"/><g clip-path="url(#k)"><use xlink:href="#AO" fill="#a6dd8b"/></g><path fill="#aac3e7" d="M158.53 85.344c-4.76-.015-9.03.97-11.53 3.156-8 7-35 .75-48.5 7s-13.25 38-14.75 44.5-17.5 20.75-20 23.5-13.25 7.25-19.5 8.5-12.75 7.25-15.5 11c-2.02 2.756-7.406 6.45-10.125 8.22-.046.18-.08.348-.125.53-.134.535-.247 1.083-.375 1.625 4.98-1.605 11.18-8.18 16.625-13.625 6.25-6.25 20-7.75 27.75-11.5S76.75 148.5 89 144.5s21.25 11.75 24.25 18.5 1.75 12.75 3.75 17 11 11.75 11.5 13.5-5 6.5-6.25 8.5-10.5 7-11.75 8.75c-.966 1.352-1.923 6.773-2.313 9.22l1.126-.47c.483-2.53 1.515-7.078 2.937-8.5 2-2 11.25-4.5 12.5-8.5s7-6.5 7-6.5 2.75 4 16 14c8.833 6.667 12.758 15.534 14.406 20.72l2.03.53c-1.22-4.32-4.836-16.24-8.937-20.75-5-5.5-18.5-10.75-22.75-22S108 154.25 115 148.25s16.5-4 28.5 7.5 46.25 5.75 57.75 3.75c9.955-1.73 20.834 14.883 23.906 26.03a303.703 303.703 0 0 1 1.656-5.75c-1.738-1.926-3.697-4.62-5.312-8.28-3.75-8.5-12-13.25-12-13.25s8.75-5 14.75-7.75a18.926 18.926 0 0 0 4.188-2.656L228 145.75l-.094-.438c-4.765 5.563-19.232 9.616-21.656 10.938-2.75 1.5-18.25 3-35.75 4.5s-26.75-7.5-34.25-14.75-13-36-3-38 20 13.75 30 17 21.5-15.75 19.75-27c-1.203-7.734-13.997-12.625-24.47-12.656zm-53.344 13.28c1.276.001 5.86 1.594 6.563 2.375 2.25 2.5 2 7.25 0 8s-12.75 8-10.5 14.25 1.75 18-3.5 18-8 0-10-2.5-2-12 0-19.75 3.5-15 8-18.25c3.094-2.234 6.632-2.128 9.438-2.125zm13.594 73.094c.203.013 1.906 3.515 4.72 7.03 3 3.75 3.25 8.25 3.25 8.25s-4.25-4.75-6-8-2-7.25-2-7.25c0-.03.018-.032.03-.03z"/><g class="F G K"><path d="M122.75 72.25c6.25.5 12.25-2.25 10.75-6.5s-12.5-7.25-13.25-3 2 10.5 2.5 9.5zm-14-15.5c-8.5-5.5-8.5-7.25-7-8s10.25 5 12.75 8-2.25 2-5.75 0z" class="B"/></g><g clip-path="url(#l)" class="G K"><use xlink:href="#AR" class="B F H"/><use xlink:href="#AS" class="B"/><g class="F H"><use xlink:href="#AT" class="B"/><use xlink:href="#AU" class="B"/><path d="M190 18.5c11.75 5 39 9.75 47.25 40.25" class="B"/><use xlink:href="#AV" class="B"/><use xlink:href="#AW" class="B"/><use xlink:href="#AX" class="B"/></g></g><g stroke="#d38484" clip-path="url(#m)" stroke-width="2" class="G H"><use xlink:href="#AY"/><use xlink:href="#AZ"/></g><use xlink:href="#Aq" fill="url(#n)" opacity=".04"/><g transform="translate(0 192)"><g opacity=".27"><use xlink:href="#Aa" fill="url(#o)"/><use xlink:href="#Ab" fill="url(#q)"/><use xlink:href="#Ac" fill="url(#r)"/><use xlink:href="#Ad" fill="url(#s)"/><use xlink:href="#Ae" fill="url(#t)"/><use xlink:href="#Af" fill="url(#u)"/><use xlink:href="#Ag" fill="url(#v)"/><use xlink:href="#Ah" fill="url(#w)"/></g><g opacity=".043"><use xlink:href="#Ai" fill="url(#x)"/><use xlink:href="#Aj" fill="url(#z)"/><use xlink:href="#Ak" fill="url(#AA)"/><use xlink:href="#Al" fill="url(#AB)"/><use xlink:href="#Am" fill="url(#AC)"/><use xlink:href="#An" fill="url(#AD)"/><use xlink:href="#Ao" fill="url(#AE)"/><use xlink:href="#Ap" fill="url(#AF)"/></g></g></g><use xlink:href="#AN" filter="url(#j)" clip-path="url(#AL)" transform="matrix(1 .08088 0 1 0 -21.056)" class="L"/><path fill="url(#Y)" d="M48 227.457l-4.807 4.558-15.08-16.133 4.5-4.073c6.83 6.534 8.873 8.53 15.397 15.648z"/><path d="M125.064 134.686c-27.18-27.18-27.18-71.247 0-98.427s71.247-27.18 98.427 0 27.18 71.247 0 98.427-71.247 27.18-98.427 0zm2.953-2.953c26.093 26.093 67.413 27.077 93.506.984s25.108-67.413-.984-93.506-67.414-27.076-93.506-.984-25.11 67.413.984 93.506z" class="L"/><path fill="#9eaaac" d="M125.064 134.686c-27.18-27.18-27.18-71.247 0-98.427l.492-.493c-26.685 27.218-26.522 70.92.492 97.936s70.718 27.177 97.935.492l-.492.492c-27.18 27.18-71.247 27.18-98.427 0zm2.46-96.95l.493-.492c26.093-26.093 67.413-25.11 93.506.984s27.077 67.413.984 93.506l-.492.492c25.587-26.118 24.45-67.086-1.477-93.014s-66.895-27.063-93.013-1.476z"/><path fill-opacity=".476" fill="#d0e9f2" d="M127.033 132.717c26.092 26.093 68.397 26.093 94.5 0s26.093-68.397 0-94.5-68.398-26.092-94.5 0-26.093 68.398 0 94.5z"/><path fill="url(#d)" d="M127.033 132.717c26.092 26.093 68.397 26.093 94.5 0s26.093-68.397 0-94.5-68.398-26.093-94.5 0-26.093 68.398 0 94.5z"/><path fill="url(#c)" d="M116.052 115.277l-5.752 4.09a72.425 72.425 0 0 0 12.796 17.286 72.425 72.425 0 0 0 17.286 12.796l4.1-5.752a65.286 65.286 0 0 1-16.455-11.965 65.287 65.287 0 0 1-11.965-16.456z"/><path fill="url(#b)" d="M124.818 134.932a22.271 22.271 0 0 1 4.122 5.721l-26.206 26.206a22.271 22.271 0 0 1-9.843-9.842l26.206-26.207a22.27 22.27 0 0 1 5.721 4.122z"/><path fill="url(#a)" d="M116.267 159.232L50.2 225.3c-3.984-2.192-5.832-3-9.3-6.46s-4.267-5.306-6.46-9.3l66.068-66.068c5.064 3.748 12.117 10.398 15.75 15.75z"/><path fill="url(#Z)" d="M105.78 154.118c3.458 3.458 7.435 6.666 8.52 11.02l-64.1 64.1c-6.517-5.155-14.555-12.8-19.686-19.686l64.1-64.1c3.49.224 7.66 5.16 11.117 8.618l.05.05z"/><path fill="url(#e)" opacity=".596" d="M105.534 154.363c3.46 3.458 7.68 6.42 8.764 10.774l-64.1 64.1c-7.876-6.908-11.797-10.624-19.685-19.686l64.1-64.1c3.49.224 7.414 5.453 10.872 8.912h.05z"/><path fill="url(#h)" opacity=".604" d="M131.168 37.05c40.66-32.173 78.136-12.728 77.782 5.303s-56.568 70.357-76.367 66.115-25.456-53.387-1.415-71.418z"/><text font-family="Sans" fill="url(#g)" opacity=".46" font-size="19.8" transform="rotate(351.1)" y="69.184" x="99.839" xml:space="preserve"><tspan y="69.184" x="99.839" class="I J">01011001</tspan><tspan y="93.934" x="99.839" class="I J">00110101</tspan><tspan y="118.684" x="99.839" class="I J">10010011</tspan></text><text font-family="Sans" fill="url(#f)" font-size="19.8" transform="rotate(351.1)" y="67.898" x="99.41" xml:space="preserve"><tspan y="67.898" x="99.41" class="I J">01011001</tspan><tspan y="92.648" x="99.41" class="I J">00110101</tspan><tspan y="117.398" x="99.41" class="I J">10010011</tspan></text><path fill="url(#i)" opacity=".765" d="M219.463 129.1c-26.794 21.983-41.808 21.007-38.075 13.138s42.326-41.655 51.448-43.748 2.275 18.04-13.373 30.6z"/></svg>