<svg xmlns="http://www.w3.org/2000/svg" viewBox="0 0 16.649 16.649" height="62.925" width="62.925"><path d="M0 0h16.65v16.65H0z" fill="#fab12d" paint-order="markers stroke fill"/><path d="M8.28 4.925c-2.52.03-4.55 2.46-4.55 5.446 0 3.008 2.057 5.446 4.595 5.446 1.22 0 2.387-.574 3.25-1.595s1.346-2.407 1.346-3.85-.484-2.83-1.346-3.85-2.03-1.595-3.25-1.595c-.015 0-.03 0-.045 0zm.02 1.86h.025c.572 0 1.12.378 1.525 1.05s.632 1.584.632 2.535-.227 1.863-.632 2.535-.953 1.05-1.525 1.05c-1.19 0-2.156-1.605-2.156-3.585 0-1.964.95-3.563 2.13-3.585z" fill="#424056" paint-order="markers stroke fill"/><circle r="1.531" cy="2.363" cx="8.307" fill="#fefefe" paint-order="markers stroke fill"/></svg>