<svg xmlns="http://www.w3.org/2000/svg" xmlns:xlink="http://www.w3.org/1999/xlink" height="855" width="855" xmlns:v="https://vecta.io/nano"><g transform="translate(89.008 -197.36)"><g stroke="#030000"><use xlink:href="#C" fill="#fff" stroke-width="3"/><g fill="none"><path d="M47 207.58v827.94h584.6c23.015 0 41.47-18.54 41.47-41.555v-744.83c0-23.015-18.455-41.555-41.47-41.555H46.98z"/><use xlink:href="#C" x="-4.529" y="6.47"/><use xlink:href="#C" x="-6.825" y="8.47"/><path d="M40.1 213.6v827.94h584.6c23.015 0 41.47-18.54 41.47-41.555v-744.83c0-23.015-18.455-41.555-41.47-41.555H40.09z"/></g><use xlink:href="#C" x="-14.836" y="14.84" fill="green" stroke-width="3" stroke-linejoin="round"/></g><path d="M32.23 255.94c-16.18 0-29.287 7.104-29.287 15.865S16.05 287.67 32.23 287.67c14.178 0 26.014-5.453 28.723-12.698h-6.025c-2.602 5.476-11.777 9.532-22.698 9.532-12.943 0-23.427-5.7-23.427-12.698s10.484-12.682 23.427-12.682h.275v-3.183c-.093 0-.182 0-.275 0z" stroke="#000" stroke-width="5.484" id="A"/><g stroke-width="5.458" stroke="#000"><use width="744.094" height="1052.362" xlink:href="#A" y="25.137"/><use width="744.094" height="1052.362" xlink:href="#A" y="50.275"/><use width="744.094" height="1052.362" xlink:href="#A" y="75.413"/><use width="744.094" height="1052.362" xlink:href="#A" y="100.55"/><use width="744.094" height="1052.362" xlink:href="#A" y="125.69"/><use width="744.094" height="1052.362" xlink:href="#A" y="150.83"/><use width="744.094" height="1052.362" xlink:href="#A" y="175.96"/><use width="744.094" height="1052.362" xlink:href="#A" y="201.1"/><use width="744.094" height="1052.362" xlink:href="#A" y="226.24"/><use width="744.094" height="1052.362" xlink:href="#A" y="251.38"/><use width="744.094" height="1052.362" xlink:href="#A" y="276.51"/><use width="744.094" height="1052.362" xlink:href="#A" y="301.65"/><use width="744.094" height="1052.362" xlink:href="#A" y="326.79"/><use width="744.094" height="1052.362" xlink:href="#A" y="351.93"/><use width="744.094" height="1052.362" xlink:href="#A" y="377.06"/><use width="744.094" height="1052.362" xlink:href="#A" y="402.2"/><use width="744.094" height="1052.362" xlink:href="#A" y="427.34"/><use width="744.094" height="1052.362" xlink:href="#A" y="452.48"/><use width="744.094" height="1052.362" xlink:href="#A" y="477.61"/><use width="744.094" height="1052.362" xlink:href="#A" y="502.75"/><use width="744.094" height="1052.362" xlink:href="#A" y="527.89"/><use width="744.094" height="1052.362" xlink:href="#A" y="553.03"/><use width="744.094" height="1052.362" xlink:href="#A" y="578.16"/><use width="744.094" height="1052.362" xlink:href="#A" y="628.44"/><use width="744.094" height="1052.362" xlink:href="#A" y="653.58"/><use width="744.094" height="1052.362" xlink:href="#A" y="603.3"/><use width="744.094" height="1052.362" xlink:href="#A" y="678.71"/><use width="744.094" height="1052.362" xlink:href="#A" y="703.85"/><use width="744.094" height="1052.362" xlink:href="#A" y="728.99"/><use width="744.094" height="1052.362" xlink:href="#A" y="754.13"/></g><g stroke-width="5.484"><path d="M32.23 230.8c-16.18 0-29.287 7.104-29.287 15.865S16.05 262.53 32.23 262.53c14.178 0 26.014-5.453 28.723-12.698h-6.025c-2.602 5.476-11.777 9.532-22.698 9.532-12.943 0-23.427-5.7-23.427-12.698s10.484-12.682 23.427-12.682h.275V230.8c-.093 0-.182 0-.275 0z" stroke="#000"/><path d="M40.258 212.8c2.695-1.42-5.822-8.806-15.825-7.364s-21.5 11.713-21.5 16.093c0 8.76 13.108 15.865 29.287 15.865 14.178 0 26.014-5.453 28.723-12.698h-6.025c-2.602 5.476-11.777 9.532-22.698 9.532-12.943 0-23.427-5.7-23.427-12.698 0-3.504 10.953-12.27 17.2-12.78s7.784 7.234 14.256 7.234h.138.138V212.8c.075.324-.014.335-.112.26s-.204-.238-.163-.26z" stroke="#000"/></g><rect fill="#fff" stroke-width="9.029" x="212.41" y="431.66" stroke="#030000" width="275.96" height="157.27" ry="41.543" stroke-linejoin="round"/></g><defs ><path id="C" d="M49.223 203.13v827.94h584.6c23.015 0 41.47-18.54 41.47-41.555v-744.83c0-23.015-18.455-41.555-41.47-41.555h-584.6z"/></defs></svg>