<?xml version="1.0" encoding="UTF-8" standalone="no"?>
<svg
   xmlns:dc="http://purl.org/dc/elements/1.1/"
   xmlns:cc="http://creativecommons.org/ns#"
   xmlns:rdf="http://www.w3.org/1999/02/22-rdf-syntax-ns#"
   xmlns:svg="http://www.w3.org/2000/svg"
   xmlns="http://www.w3.org/2000/svg"
   xmlns:sodipodi="http://sodipodi.sourceforge.net/DTD/sodipodi-0.dtd"
   xmlns:inkscape="http://www.inkscape.org/namespaces/inkscape"
   enable-background="new 0 0 595.275 311.111"
   xml:space="preserve"
   height="1024"
   width="1024"
   version="1.1"
   y="0px"
   x="0px"
   viewBox="0 0 1024 1023.9999"
   id="svg2"
   inkscape:version="0.92.4 (unknown)"
   sodipodi:docname="icon.svg"
   inkscape:export-filename="nextcloud-icon-background.png"
   inkscape:export-xdpi="90"
   inkscape:export-ydpi="90"><metadata
     id="metadata12"><rdf:RDF><cc:Work
         rdf:about=""><dc:format>image/svg+xml</dc:format><dc:type
           rdf:resource="http://purl.org/dc/dcmitype/StillImage" /><dc:title></dc:title><cc:license
           rdf:resource="http://creativecommons.org/licenses/by-sa/4.0/" /></cc:Work><cc:License
         rdf:about="http://creativecommons.org/licenses/by-sa/4.0/"><cc:permits
           rdf:resource="http://creativecommons.org/ns#Reproduction" /><cc:permits
           rdf:resource="http://creativecommons.org/ns#Distribution" /><cc:requires
           rdf:resource="http://creativecommons.org/ns#Notice" /><cc:requires
           rdf:resource="http://creativecommons.org/ns#Attribution" /><cc:permits
           rdf:resource="http://creativecommons.org/ns#DerivativeWorks" /><cc:requires
           rdf:resource="http://creativecommons.org/ns#ShareAlike" /></cc:License></rdf:RDF></metadata><defs
     id="defs10" /><sodipodi:namedview
     pagecolor="#ffffff"
     bordercolor="#666666"
     borderopacity="1"
     objecttolerance="10"
     gridtolerance="10"
     guidetolerance="10"
     inkscape:pageopacity="0"
     inkscape:pageshadow="2"
     inkscape:window-width="944"
     inkscape:window-height="477"
     id="namedview8"
     showgrid="false"
     inkscape:zoom="0.45254834"
     inkscape:cx="605.57972"
     inkscape:cy="453.88922"
     inkscape:current-layer="svg2"
     fit-margin-top="0"
     fit-margin-left="0"
     fit-margin-right="0"
     fit-margin-bottom="0"
     inkscape:window-x="759"
     inkscape:window-y="318"
     inkscape:window-maximized="0" /><rect
     height="1024"
     width="1024"
     y="-1.9073486e-06"
     x="0"
     id="rect4"
     style="fill:#0082c9" /><path
     style="color:#000000;text-indent:0;text-decoration:none;text-decoration-line:none;text-decoration-style:solid;text-decoration-color:#000000;text-transform:none;block-progression:tb;white-space:normal;isolation:auto;mix-blend-mode:normal;solid-color:#000000;fill:#ffffff;color-rendering:auto;image-rendering:auto;shape-rendering:auto;enable-background:accumulate"
     d="m 512.68096,296.07009 c -93.35126,0.009 -171.73632,63.92879 -195.6864,149.91791 -20.90398,-45.99328 -66.91627,-78.5879 -120.3776,-78.59385 -72.77312,0.008 -132.607997,59.84889 -132.616957,132.62749 -0.0144,72.79356 59.828907,132.64544 132.616957,132.6544 53.46731,-0.007 99.45003,-32.62151 120.35072,-78.62074 23.94141,86.00403 102.35306,149.93584 195.71626,149.9448 92.84054,0.007 170.84032,-63.22992 195.27724,-148.4992 21.24266,45.14803 66.5489,77.16618 119.39498,77.17216 C 900.15914,632.68596 960.01194,572.82717 960,500.01866 959.993,427.22512 900.14422,367.3792 827.35616,367.39114 774.5071,367.39714 729.17546,399.40935 707.9343,444.5633 683.49738,359.297 605.52448,296.05812 512.68394,296.0641 Z m 0,77.85612 c 70.10602,-0.005 126.10902,55.98698 126.11498,126.09843 0.004,70.12039 -56,126.13127 -126.11498,126.12532 -70.10602,-0.007 -126.09408,-56.01389 -126.0881,-126.12532 0.007,-70.10249 55.99104,-126.08947 126.0881,-126.09843 z m -316.07893,71.32407 c 30.71189,0.004 54.76352,24.05843 54.7665,54.77136 0.005,30.71894 -24.04983,54.79529 -54.7665,54.79827 -30.71787,-0.004 -54.77248,-24.07933 -54.76651,-54.79827 0.004,-30.71293 24.05641,-54.76839 54.76651,-54.77136 z m 630.75413,0 c 30.71786,-0.005 54.7904,24.05155 54.79338,54.77136 0.007,30.7279 -24.06954,54.80425 -54.79338,54.79827 -30.71786,-0.004 -54.77248,-24.07933 -54.7695,-54.79827 0.004,-30.71293 24.05731,-54.76839 54.7695,-54.77136 z"
     id="path6"
     inkscape:connector-curvature="0" /></svg>