<svg xmlns="http://www.w3.org/2000/svg" width="767.133" height="763.541"><path d="M0 0h767.133v763.54H0z" fill="#fff"/><path d="M653.987 512.363c0 63.786-51.08 115.494-114.085 115.494S425.82 576.15 425.82 512.363 476.898 396.87 539.902 396.87s114.085 51.708 114.085 115.494zM239.467 98.98c-161.522 2.36-284.58 180.382-126.805 341.996l42.052 110.935c6.98 25.36-16.705 81.164-6.218 96.746 12.078-23.927 15.12-58.135 31.088-62.078 28.08 19.874 69.62 26.616 93.1 52.242 8.772-24.844-26.8-37.532-56.613-51.76 27.85 4.658 47.12-10.467 67.74 13.867 3.04-12.3-.807-21.723-8.837-29.346l-12.598-17.253c23.3 12.4 81.26 12.314 94.572 34.022 5.152-41.08-43.596-27.05-66.594-39.343 14.923 1.852 29.75-5.586 44.507-3.547-3.954-11.523-10.747-16.508-20.78-15.64-79.13 18.9-84.7-115.03-83.6-153.02 106.22-45.152 213.495 35.845 298.94-41.923 27.978-41.876 143.454 67.494 179.004 160.114 53.157-22.52-98.485-169.624-142.517-209.454 23-61.256-66.62-150.43-147.588-111.097-56.97-54.206-120.418-76.315-178.842-75.46zM196.6 430.012c7.745-.14 14.014 4.065 15.22 12.738L229 524.984c-9.26 2.67-13.287 11.952-11.453 28.7 3.922-4.637 5.535-12.56 14.56-9.997l21.273 27.4c-72.344 5.67-77.918-35.288-90.488-103.034 3.832-25.147 20.8-37.774 33.7-38.054z"/><path d="M511.608 247.567c0 12.054-6.046 23.192-15.862 29.218s-21.908 6.027-31.724 0-15.862-17.165-15.862-29.218 6.046-23.192 15.862-29.218 21.908-6.027 31.724 0 15.862 17.165 15.862 29.218z" fill="#fff"/><path d="M514.674 269.035c0 7.92-3.973 15.24-10.422 19.2a19.77 19.77 0 0 1-20.845 0c-6.45-3.96-10.422-11.28-10.422-19.2s3.973-15.24 10.422-19.2a19.77 19.77 0 0 1 20.845 0c6.45 3.96 10.422 11.28 10.422 19.2z"/></svg>
