<?xml version="1.0" encoding="UTF-8" standalone="no"?>
<!-- Generator: Adobe Illustrator 17.1.0, SVG Export Plug-In . SVG Version: 6.00 Build 0)  -->

<svg
   xmlns:dc="http://purl.org/dc/elements/1.1/"
   xmlns:cc="http://creativecommons.org/ns#"
   xmlns:rdf="http://www.w3.org/1999/02/22-rdf-syntax-ns#"
   xmlns:svg="http://www.w3.org/2000/svg"
   xmlns="http://www.w3.org/2000/svg"
   xmlns:sodipodi="http://sodipodi.sourceforge.net/DTD/sodipodi-0.dtd"
   xmlns:inkscape="http://www.inkscape.org/namespaces/inkscape"
   version="1.1"
   id="Layer_1"
   x="0px"
   y="0px"
   viewBox="0 0 48.799999 50.056728"
   enable-background="new 0 0 292 55"
   xml:space="preserve"
   sodipodi:docname="Humble Store.svg"
   width="48.799999"
   height="50.056728"
   inkscape:version="0.92.4 (unknown)"><metadata
   id="metadata48"><rdf:RDF><cc:Work
       rdf:about=""><dc:format>image/svg+xml</dc:format><dc:type
         rdf:resource="http://purl.org/dc/dcmitype/StillImage" /><dc:title></dc:title></cc:Work></rdf:RDF></metadata><defs
   id="defs46" /><sodipodi:namedview
   pagecolor="#ffffff"
   bordercolor="#666666"
   borderopacity="1"
   objecttolerance="10"
   gridtolerance="10"
   guidetolerance="10"
   inkscape:pageopacity="0"
   inkscape:pageshadow="2"
   inkscape:window-width="1920"
   inkscape:window-height="1016"
   id="namedview44"
   showgrid="false"
   fit-margin-top="0"
   fit-margin-left="0"
   fit-margin-right="0"
   fit-margin-bottom="0"
   inkscape:zoom="1"
   inkscape:cx="-212.85406"
   inkscape:cy="46.999577"
   inkscape:window-x="0"
   inkscape:window-y="27"
   inkscape:window-maximized="1"
   inkscape:current-layer="g39" />
<g
   id="g41"
   transform="translate(-2,-1.0251372)">
	
	<g
   id="g39">
		<linearGradient
   id="SVGID_4_"
   gradientUnits="userSpaceOnUse"
   x1="72.009003"
   y1="51.276798"
   x2="72.009003"
   y2="1.0012">
			<stop
   offset="0"
   style="stop-color:#CB272C"
   id="stop25" />
			<stop
   offset="1"
   style="stop-color:#BC1F24"
   id="stop27" />
		</linearGradient>
		<path
   d="M 48.101546,35.691563 C 46.367885,39.018369 43.893516,41.8 40.5,41.8 33.2,41.8 44.4,2.3 44.4,2.3 H 37 c 0,0 -3.2,8.1 -5.2,18.8 h -6.5 c 0.2,-2.2 0.2,-4.4 0.2,-6.6 C 25.2,-3.1 14.9,0.2 10.2,4.2 5.8,8 2.3,14.9 2,20.2 2.4,20.3 5.5,21 5.5,21 c 0,0 2.3,-10.5 9.5,-10.5 7.2,0 -3.9,39.7 -3.9,39.7 h 7.6 c 0,0 3.8,-9.9 5.8,-22.1 h 6.2 c -0.4,3.2 -0.6,6.4 -0.5,9.6 0.3,17.5 10.6,14.2 15.3,10.2 2.1,-1.8 3.9,-4.2 5.3,-6.8 v 0 z"
   id="path30"
   inkscape:connector-curvature="0"
   style="fill:url(#SVGID_4_)"
   sodipodi:nodetypes="csccccccccsccccccccc" />
		<linearGradient
   id="SVGID_5_"
   gradientUnits="userSpaceOnUse"
   x1="158.3156"
   y1="51.205799"
   x2="158.3156"
   y2="1.6799999">
			<stop
   offset="0"
   style="stop-color:#CB272C"
   id="stop32" />
			<stop
   offset="1"
   style="stop-color:#BC1F24"
   id="stop34" />
		</linearGradient>
		
	</g>
</g>
</svg>