<svg xmlns="http://www.w3.org/2000/svg" width="48.8" height="50.057"><g transform="translate(-2 -1.025)"><linearGradient id="a" x1="72.009" x2="72.009" y1="51.277" y2="1.001" gradientUnits="userSpaceOnUse"><stop offset="0" stop-color="#cb272c"/><stop offset="1" stop-color="#bc1f24"/></linearGradient><path fill="url(#a)" d="M48.102 35.692C46.368 39.018 43.894 41.8 40.5 41.8c-7.3 0 3.9-39.5 3.9-39.5H37s-3.2 8.1-5.2 18.8h-6.5c.2-2.2.2-4.4.2-6.6C25.2-3.1 14.9.2 10.2 4.2 5.8 8 2.3 14.9 2 20.2c.4.1 3.5.8 3.5.8S7.8 10.5 15 10.5s-3.9 39.7-3.9 39.7h7.6s3.8-9.9 5.8-22.1h6.2c-.4 3.2-.6 6.4-.5 9.6.3 17.5 10.6 14.2 15.3 10.2 2.1-1.8 3.9-4.2 5.3-6.8z"/></g></svg>
