<?xml version="1.0" encoding="UTF-8" standalone="no"?>
<svg
   xmlns:dc="http://purl.org/dc/elements/1.1/"
   xmlns:cc="http://creativecommons.org/ns#"
   xmlns:rdf="http://www.w3.org/1999/02/22-rdf-syntax-ns#"
   xmlns:svg="http://www.w3.org/2000/svg"
   xmlns="http://www.w3.org/2000/svg"
   xmlns:sodipodi="http://sodipodi.sourceforge.net/DTD/sodipodi-0.dtd"
   xmlns:inkscape="http://www.inkscape.org/namespaces/inkscape"
   width="346.28952"
   height="379.9938"
   version="1.1"
   viewBox="0 0 91.62469 100.53508"
   id="svg12"
   sodipodi:docname="icon.svg"
   inkscape:version="0.92.4 (unknown)">
  <metadata
     id="metadata18">
    <rdf:RDF>
      <cc:Work
         rdf:about="">
        <dc:format>image/svg+xml</dc:format>
        <dc:type
           rdf:resource="http://purl.org/dc/dcmitype/StillImage" />
        <dc:title></dc:title>
      </cc:Work>
    </rdf:RDF>
  </metadata>
  <defs
     id="defs16" />
  <sodipodi:namedview
     pagecolor="#ffffff"
     bordercolor="#666666"
     borderopacity="1"
     objecttolerance="10"
     gridtolerance="10"
     guidetolerance="10"
     inkscape:pageopacity="0"
     inkscape:pageshadow="2"
     inkscape:window-width="948"
     inkscape:window-height="480"
     id="namedview14"
     showgrid="false"
     fit-margin-top="0"
     fit-margin-left="0"
     fit-margin-right="0"
     fit-margin-bottom="0"
     inkscape:zoom="0.4609375"
     inkscape:cx="173.1495"
     inkscape:cy="194.00272"
     inkscape:window-x="0"
     inkscape:window-y="27"
     inkscape:window-maximized="0"
     inkscape:current-layer="svg12" />
  <path
     d="m 45.8136,-0.00465 c -4.9487,0.2404 -30.48,8.5093 -42.252,14.888 -1.6938,0.91834 -3.5529,4.0714 -3.5616,5.4545 0,12.656 3.0471,31.327 11.656,47.914 l 16.845,-16.837 c -3.2564,-8.2278 -1.3156,-17.604 4.9388,-23.863 3.8053,-3.6203 10.973,-6.2917 17.201,-6.4018 2.8307,-0.05 5.4666,0.42948 7.504,1.5896 1.1926,0.68859 0.6329,1.5773 0.27699,1.9332 l -12.901,12.374 c -1.6303,1.7514 -0.2169,6.2432 0.8351,9.0978 2.8547,1.0521 7.3469,2.4644 9.0984,0.83407 l 12.374,-12.899 c 0.35592,-0.35592 1.2446,-0.91566 1.9332,0.27698 3.7124,6.5201 0.45206,19.17 -4.8138,24.704 -6.2596,6.2544 -15.634,8.1951 -23.862,4.9388 l -19.329,19.325 c 6.2848,7.2811 14.195,13.367 24.054,17.213 35.649,-13.908 45.814,-57.086 45.814,-80.2 -0.01,-1.3832 -1.8677,-4.5367 -3.5616,-5.4545 -11.772,-6.3789 -37.302,-14.647 -42.251,-14.888 z"
     id="path2"
     inkscape:connector-curvature="0"
     style="fill:#3498db;stroke-width:0.86795998" />
  <g
     transform="matrix(1.542,-1.542,1.542,1.542,-206.3114,-121.97365)"
     id="g10"
     style="fill:#ffffff">
    <g
       transform="rotate(90,84.232,171.06)"
       id="g8"
       style="fill:#ffffff">
      <g
         transform="translate(3.5487,90.195)"
         id="g6"
         style="fill:#ffffff">
        <path
           transform="matrix(0.24077,-0.24077,0.24077,0.24077,-195.37,-625.87)"
           d="m -1131,2116.8 c 0.3194,0.6158 0.6375,1.2141 0.9684,1.8254 1.3704,2.5314 2.8391,5.0227 4.4121,7.457 1.5731,2.4344 3.2495,4.8124 5.0352,7.1172 1.0233,1.3208 2.092,2.6283 3.1878,3.8981 l 26.029,-26.025 c 11.08,4.3852 23.705,1.7722 32.135,-6.6504 7.0913,-7.4538 11.482,-24.489 6.4824,-33.27 -0.9273,-1.6061 -2.1242,-0.8523 -2.6035,-0.373 l -16.664,17.371 c -2.3586,2.1955 -8.4077,0.2937 -12.252,-1.1231 -1.4167,-3.8442 -3.3205,-9.8933 -1.125,-12.252 l 17.373,-16.664 c 0.4793,-0.4793 1.233,-1.6762 -0.3731,-2.6035 -2.7438,-1.5623 -6.2935,-2.208 -10.105,-2.1406 -8.3861,0.1483 -18.04,3.7458 -23.164,8.6211 -8.4226,8.4296 -11.036,21.057 -6.6504,32.137 z"
           id="path4"
           inkscape:connector-curvature="0"
           style="fill:#ffffff;stroke-width:0.67821002" />
      </g>
    </g>
  </g>
</svg>
