<svg xmlns="http://www.w3.org/2000/svg" width="346.29" height="379.994" viewBox="0 0 91.625 100.535"><path d="M45.814-.005c-4.95.24-30.48 8.51-42.252 14.888C1.868 15.802.01 18.955 0 20.338c0 12.656 3.047 31.327 11.656 47.914L28.5 51.415c-3.256-8.228-1.316-17.604 4.94-23.863 3.805-3.62 10.973-6.292 17.2-6.402 2.83-.05 5.467.43 7.504 1.6 1.193.69.633 1.577.277 1.933l-12.9 12.374c-1.63 1.75-.217 6.243.835 9.098 2.855 1.052 7.347 2.464 9.098.834l12.374-12.9c.356-.356 1.245-.916 1.933.277 3.712 6.52.452 19.17-4.814 24.704A22.2 22.2 0 0 1 41.086 64l-19.33 19.325c6.285 7.28 14.195 13.367 24.054 17.213 35.65-13.908 45.814-57.086 45.814-80.2-.01-1.383-1.868-4.537-3.562-5.454C76.29 8.504 50.76.236 45.812-.005z" fill="#3498db"/><path d="M11.654 68.253l.72 1.355 3.276 5.537 3.74 5.285 2.367 2.894L41.082 64a22.2 22.2 0 0 0 23.861-4.938c5.266-5.535 8.526-18.184 4.813-24.704-.69-1.193-1.577-.633-1.933-.277L55.45 46.98c-1.75 1.63-6.243.218-9.098-.834-1.052-2.854-2.466-7.346-.835-9.098l12.9-12.374c.356-.356.916-1.245-.277-1.933-2.037-1.16-4.673-1.64-7.503-1.59-6.227.1-13.395 2.78-17.2 6.4-6.254 6.26-8.195 15.636-4.938 23.863z" fill="#fff"/></svg>
