<svg xmlns="http://www.w3.org/2000/svg" xmlns:xlink="http://www.w3.org/1999/xlink" viewBox="0 0 547.19 500.01"><style><![CDATA[.B{stroke-width:2.963}.C{stroke:#000}.D{stroke-linejoin:round}.E{fill-opacity:.314}.F{fill-rule:evenodd}.G{opacity:.057}.H{fill:#784421}.I{stroke-linecap:round}]]></style><defs><linearGradient id="A" gradientUnits="userSpaceOnUse"><stop stop-color="#333" offset="0"/><stop stop-color="#4d4d4d" offset="1"/></linearGradient><linearGradient id="B" gradientUnits="userSpaceOnUse"><stop stop-color="#ffb142" offset="0"/><stop stop-color="#c87600" offset="1"/></linearGradient><linearGradient id="C" y2="546.503" xlink:href="#B" x2="161.978" y1="538.153" x1="161.978"/><linearGradient id="D" y2="546.503" xlink:href="#B" x2="182.431" y1="538.153" x1="182.431"/><linearGradient id="E" y2="546.503" xlink:href="#B" x2="172.355" y1="538.153" x1="172.355"/><linearGradient id="F" y2="546.503" xlink:href="#B" x2="116.355" y1="538.153" x1="116.355"/><linearGradient id="G" y2="546.503" xlink:href="#B" x2="136.787" y1="538.153" x1="136.787"/><linearGradient id="H" y2="546.503" xlink:href="#B" x2="126.731" y1="538.153" x1="126.731"/><linearGradient id="I" y2="433.695" xlink:href="#B" x2="161.85" y1="433.695" x1="156.821"/><linearGradient id="J" y2="45.049" gradientUnits="userSpaceOnUse" x2="-478.367" y1="45.049" x1="-559.925"><stop stop-color="#46474a" offset="0"/><stop stop-color="#2f2f2f" offset="1"/></linearGradient><linearGradient id="K" y2="129.49" xlink:href="#A" x2="-135.25" y1="142.776" x1="-135.25"/><linearGradient id="L" y2="129.587" gradientUnits="userSpaceOnUse" x2="-94.93" y1="141.65" x1="-94.93"><stop stop-color="#333" offset="0"/><stop stop-color="#4d4d4d" offset="1"/></linearGradient><linearGradient id="M" y2="663.96" xlink:href="#A" x2="263.9" y1="674.82" x1="284.61"/><path id="N" d="M156.05 537.24a8.445 13.645 0 0 1-16.891 0 8.445 13.645 0 1 1 16.891 0z"/><path id="O" d="M156.38 398.56a9.712 9.712 0 1 1-19.424 0 9.712 9.712 0 1 1 19.424 0z"/><path id="P" d="M145.68 395.16a2.519 2.519 0 0 1-5.038 0 2.519 2.519 0 1 1 5.038 0z"/><path id="Q" d="M278.8 682.02c0 4.95-4.014 8.965-8.965 8.965s-8.965-4.014-8.965-8.965 4.014-8.965 8.965-8.965 8.965 4.014 8.965 8.965z"/><path id="R" d="M200.83 506.1l-8.705-3.73 4.29-7.857-8.173-3.97 3.988-8.43-8.094-3.702 3.706-7.522-7.818-3.308 3.5-8.554"/></defs><g transform="matrix(2.2822 0 0 2.2822 -107.237 -760.6)"><g class="B C D"><use xlink:href="#N" fill="url(#C)"/><use xlink:href="#N" x="-20.45" fill="url(#D)"/><use xlink:href="#N" x="-10.37" fill="url(#E)"/><use xlink:href="#N" x="45.63" fill="url(#F)"/><use xlink:href="#N" x="25.19" fill="url(#G)"/><use xlink:href="#N" x="35.25" fill="url(#H)"/></g><path d="M127.16 523.6c-3.44 0-6.39 3.337-7.704 8.112 11.243 3.007 23.596 4.76 36.578 5-.177-7.28-3.878-13.112-8.427-13.112-1.956 0-3.754 1.083-5.186 2.89-1.432-1.806-3.23-2.89-5.186-2.89-1.888 0-3.63 1-5.038 2.704-1.407-1.694-3.15-2.704-5.038-2.704zm45.634 0c-4.538 0-8.232 5.802-8.427 13.057 12.968-.417 25.256-2.36 36.41-5.538-1.39-4.454-4.242-7.52-7.538-7.52-1.956 0-3.754 1.083-5.186 2.89-1.432-1.806-3.23-2.89-5.186-2.89-1.888 0-3.63 1-5.038 2.704-1.407-1.694-3.15-2.704-5.038-2.704z" class="E"/><g class="B C"><path d="M257.2 432.88a98.122 98.122 0 0 1-196.24 0 98.122 98.122 0 1 1 196.24 0z" class="H"/><path d="M207.57 481.94c-15.705-2.918-1.332 12.82-3.74 18.5-9.52-4.68-5.893 10.816-10.198 15.12-8.157-.436-9.43 7.79-15.12 10.198-6.876-3.815-11.946 3.74-18.5 3.74s-10.45-7.258-18.5-3.74c-5.7-2.408-6.964-10.337-15.12-10.198-4.305-4.305-3.64-20.69-10.198-15.12-2.408-5.7 8.706-22.613-3.74-18.5 0-6.565 13.185-18.746 3.74-18.5 2.408-5.7 14.486-9.927 10.198-15.12 8.6-8.6 20.502-13.938 33.63-13.938s25.02 5.328 33.63 13.938c-6.363 3.12 7.79 9.43 10.198 15.12-10.63-.532 3.74 11.946 3.74 18.5z" fill="#fff" class="D"/></g><path d="M245.76 386.9a98.42 98.42 0 0 1 1.796 18.724l-.222 6.575c-2.177-.108-4.49.01-6.964.37-20.87 4.444-11.956 30.62-17.39 58.006-12.566 20.23-19.21 22.566-51.438 30.668-7.106 1.637-14.506 2.502-22.106 2.502-18 0-34.867-4.864-49.375-13.335-14.034-32.858 4.786-68.55-19.947-74.71-27.328-4.934-37.912 20.42-20.243 58.413 9.756 20.977 25.913 31.28 37.8 35.28a97.65 97.65 0 0 0 61.395 21.595c27.232 0 51.89-11.106 69.674-29.04 10.344-5.166 21.846-14.576 29.836-30.318 14.942-29.438 12.08-51.607-3.24-57.747a97.47 97.47 0 0 0-9.575-26.984z" class="E F"/><path d="M131.83 357.13c-18.51 0-33.546 17.383-33.546 38.802s15.035 38.802 33.546 38.802c10.88 0 20.532-6 26.66-15.308 6.128 9.305 15.802 15.308 26.686 15.308 18.51 0 33.546-17.383 33.546-38.802s-15.035-38.802-33.546-38.802c-10.882 0-20.558 6.005-26.686 15.308-6.128-9.296-15.783-15.308-26.66-15.308z" fill="#fff" class="B C"/><g class="F"><path d="M159.5 422.87c-5.505 0-11.488 6.12-11.248 9.986s9.813 19.972 11.966 19.972 10.53-15.784 10.29-20.294-7.42-9.986-11.01-9.664z" class="E"/><path d="M158.25 416.58c-5.505 0-11.488 5.515-11.248 9s9.813 17.997 11.966 17.997 10.53-14.224 10.29-18.288-7.42-9-11.01-8.708z" fill="url(#I)" class="B C"/></g><use xlink:href="#O" class="B C"/><path d="M166.7 363.66c7.868-19.06 21.137-21.64 21.137-21.64s-7.38 9.942-.696 7.176c10.35-4.282 43.262 9.138 43.262 9.138s-43.604-10.15-63.703 5.326zm-18.04-1.76c-7.868-19.06-21.137-21.64-21.137-21.64s7.38 9.942.696 7.176c-10.35-4.282-43.262 9.138-43.262 9.138s43.604-10.15 63.703 5.326z" fill="#fff" class="D F B C"/><use xlink:href="#O" x="24.59" class="B C"/><g fill="#fff"><use xlink:href="#P"/><use xlink:href="#P" x="24.59"/></g><path d="M49.408 428.6c-2.046 9.782-.77 22.92 4.612 38.41 14.138 40.7 54.125 46.812 48.43 39.467-2.435-3.14-4.457-6.326-6.112-9.52-11.232-2.7-32.032-14.45-41.43-41.5-3.484-10.03-5.247-19.07-5.5-26.85zm42.245 3.76c-.523 5.06-1.1 10.438-1.352 16.076.59-5.803 1.232-11.226 1.352-16.076z" class="E F"/><g class="C"><g stroke-miterlimit="0"><rect transform="matrix(-.34378 -.93905 .93905 -.34378 0 0)" rx="9.345" ry="8.925" height="113.17" width="81.285" y="-11.535" x="-559.78" fill="url(#J)" class="B"/><path d="M188 516.07l-20.7-56.543 70.014-25.632 20.7 56.543L188 516.07z" stroke-width="2.854" fill="#c9c9c9" class="D"/></g><g transform="matrix(-.24092 -.65808 .65808 -.24092 144.86 402.03)"><g stroke-width="1.3"><rect rx="3.109" ry="3.375" height="6.749" width="42.47" y="133.53" x="-156.48" fill="url(#K)"/><rect rx="3.557" ry="3.46" height="6.92" width="15.875" y="133.44" x="-102.87" fill="url(#L)"/></g><g fill="url(#M)" stroke-width="3.465"><use xlink:href="#Q" transform="matrix(.3752 0 0 .3752 -272.35 -136.85)"/><use xlink:href="#Q" transform="matrix(.3752 0 0 .3752 -263.49 -136.85)"/><use xlink:href="#Q" transform="matrix(.3752 0 0 .3752 -254.4 -136.85)"/><use xlink:href="#Q" transform="matrix(.3752 0 0 .3752 -245.54 -136.85)"/><use xlink:href="#Q" transform="matrix(.3752 0 0 .3752 -200.48 -136.8)"/><use xlink:href="#Q" transform="matrix(.3752 0 0 .3752 -191.62 -136.8)"/><use xlink:href="#Q" transform="matrix(.3752 0 0 .3752 -236.49 -136.85)"/><use xlink:href="#Q" transform="matrix(.3752 0 0 .3752 -227.63 -136.85)"/><use xlink:href="#Q" transform="matrix(.3752 0 0 .3752 -218.53 -136.85)"/><use xlink:href="#Q" transform="matrix(.3752 0 0 .3752 -209.67 -136.85)"/><use xlink:href="#Q" transform="matrix(.3752 0 0 .3752 -272.35 -128.01)"/><use xlink:href="#Q" transform="matrix(.3752 0 0 .3752 -263.49 -128.01)"/><use xlink:href="#Q" transform="matrix(.3752 0 0 .3752 -254.4 -128.01)"/><use xlink:href="#Q" transform="matrix(.3752 0 0 .3752 -245.54 -128.01)"/><use xlink:href="#Q" transform="matrix(.3752 0 0 .3752 -200.48 -127.97)"/><use xlink:href="#Q" transform="matrix(.3752 0 0 .3752 -191.62 -127.97)"/><use xlink:href="#Q" transform="matrix(.3752 0 0 .3752 -236.49 -128.01)"/><use xlink:href="#Q" transform="matrix(.3752 0 0 .3752 -227.63 -128.01)"/><use xlink:href="#Q" transform="matrix(.3752 0 0 .3752 -218.53 -128.01)"/><use xlink:href="#Q" transform="matrix(.3752 0 0 .3752 -209.67 -128.01)"/><use xlink:href="#Q" transform="matrix(.3752 0 0 .3752 -272.3 -118.92)"/><use xlink:href="#Q" transform="matrix(.3752 0 0 .3752 -263.44 -118.92)"/><use xlink:href="#Q" transform="matrix(.3752 0 0 .3752 -209.7 -118.89)"/></g></g></g><g stroke="#2d2d2d" stroke-width="2.58" fill="none" class="D"><use xlink:href="#R" class="G"/><path d="M195.9 453.83l-4.24 8.47 8.35 3.23-3.677 8.31 8.49 3.864-3.79 8.053 7.687 3.35-3.834 7.573 8.195 4.273" class="G"/><use xlink:href="#R" x="24.5" y="-9.14" class="G"/><use xlink:href="#R" x="36.67" y="-13.12" class="G"/><use xlink:href="#R" x="48.13" y="-17.3" class="G"/></g><g class="F"><path d="M222.6 426.15c-2.69 42.048 6.095 38.158 1.327 64.887-6.533 36.62-3.033 25-11.414 25.844 2.72 4.276 5.938 10.43 18.605-29.88 10.04-31.954 5.765-54.814-7.666-61.52l-.852.67z" class="E"/><g class="C H"><g class="B"><path d="M80.032 410.94c28.513 10.253-8.394 55.794 22.414 95.53 5.694 7.345-34.296 1.24-48.433-39.462-13.75-39.58-.67-63.733 26.02-56.07z"/><path d="M90.35 405.57c-7.935-2.732-16.133 4.495-17.7 8.404 8.008-2.046 11.687-2.623 13.76-.818-.893 1.998-10.317 3.996-13.238 17.11 7.366-5.107 13.218-11.01 15.57-8.583-1.708 2.983-3.674 8.592-2.35 14.153 4.232-5.585 8.557-11.485 12.53-11.644" class="D I"/></g><path d="M237.95 411.14c-28.442 11.242 8.373 61.177-22.358 104.75-5.68 8.054 34.2 1.36 48.313-43.27 13.714-43.4.67-69.883-25.955-61.48z" stroke-width="3.099"/><path d="M227.47 405.57c7.935-2.732 16.133 4.495 17.7 8.404-8.008-2.046-11.687-2.623-13.76-.818.893 1.998 10.317 3.996 13.238 17.11-7.366-5.107-13.218-11.01-15.57-8.583 1.708 2.983 3.674 8.592 2.35 14.153-4.232-5.585-8.557-11.485-12.53-11.644" class="B D I"/></g><path d="M247.28 409.52c-.245 0-.493.013-.74.02 9.608 8.56 13.674 28.366 8.76 55.912-6.533 36.62-31.752 52.417-40.134 53.25 2.72 4.276 36.135-5.323 48.8-45.635 12.03-38.285 3.51-63.516-16.687-63.55z" class="E"/></g></g></svg>
