<svg xmlns="http://www.w3.org/2000/svg" viewBox="0 0 128 128"><linearGradient id="b" x1="108.001" x2="20.001" y1="122" y2="6" gradientUnits="userSpaceOnUse"><stop offset="0" stop-color="#e6e6e6"/><stop offset="1" stop-color="#fff"/></linearGradient><linearGradient id="a" x1="122.75" x2="111.75" y1="991.621" y2="977.117" gradientTransform="matrix(7.99974 0 0 7.99778 -873.967 -7808.767)" gradientUnits="userSpaceOnUse"><stop offset="0" stop-color="#535353"/><stop offset="1" stop-color="#7e7e7e"/></linearGradient><path fill="url(#a)" d="M17.253 0c-.25 0-.5.011-.75.035-3.667.7-4.565 2.266-4.5 5.998v115.969c0 4.187 1.812 5.998 6 5.998h91.998c4.189 0 5.998-1.81 5.998-5.998V50.184a8.097 8.097 0 00-2.25-5.748L71.59 2.286a8.101 8.101 0 00-5.75-2.25H18.003c-.249-.025-.5-.036-.75-.036zm70.01.014c-.21 0-.42.017-.627.049-2.662.852-3.558 4.904-1.506 6.81l24.096 24.22c2.226 2.122 6.658.307 6.775-2.775V4.098c0-2.114-1.913-4.035-4.015-4.035H87.892a4.14 4.14 0 00-.629-.05z"/><path fill="url(#b)" d="M18.001 6v116h92V50l-44-44z"/></svg>
