<svg xmlns="http://www.w3.org/2000/svg" width="255.999" height="255.999" viewBox="0 0 67.733 67.733"><circle cx="33.866" cy="33.867" r="33.867" fill="#00acff"/><path d="M30.437 60.78c-4.744-.61-9.282-2.5-13.242-5.52-1.292-.985-3.715-3.424-4.773-4.804C9.46 46.592 7.617 42.206 7 37.57c-.26-1.985-.26-5.633.003-7.447 1.308-9.068 7.015-16.845 15.21-20.73 3.812-1.806 7.3-2.57 11.73-2.57 7.166 0 13.526 2.567 18.68 7.54 2.483 2.396 4.148 4.668 5.574 7.607 1.93 3.975 2.7 7.433 2.7 11.995 0 6.006-1.734 11.244-5.337 16.117-1.07 1.448-3.162 3.647-4.55 4.785-3.807 3.12-8.66 5.232-13.473 5.863-1.664.218-5.593.245-7.12.05zm10.04-4.865c2.898-.914 5.26-2.14 7.54-3.92 1.212-.946 3.308-3.06 4.187-4.227 2.383-3.162 4.005-7.122 4.482-10.946.23-1.842.096-5.738-.254-7.43-.93-4.48-2.932-8.265-6.086-11.503-1.967-2.02-3.757-3.35-6.06-4.505-3.495-1.752-6.5-2.46-10.423-2.464-4.164-.004-7.815.95-11.43 2.988-3.3 1.855-6.69 5.26-8.553 8.563-1.372 2.433-2.376 5.32-2.768 7.96-.257 1.73-.262 5.165-.01 6.82.504 3.315 1.76 6.59 3.584 9.34.995 1.5.964 1.484 1.842.982 1.57-.9 1.98-1.333 2.836-3 1-1.96 2.07-3.673 3.037-4.863 1.116-1.373 1.27-1.618 1.83-2.915.282-.652.787-1.61 1.123-2.13l.61-.943-.8-.777c-1.05-1.032-1.923-2.202-2.087-2.797-.168-.608.03-.947.82-1.402.797-.46 1.368-.593 3.5-.812 1.038-.107 2.164-.302 2.52-.437s1.408-.708 2.344-1.276c2.703-1.64 2.932-1.723 4.552-1.688 1.37.03 1.37.03 2.183-.46 1.7-1.028 4.143-2.883 7.357-5.587.616-.52 1.2-.926 1.32-.905.455.088 1.3 2.136 1.416 3.476.077.812-.08 1.615-.562 2.873-.13.343-.192.67-.135.728.138.137.61-.453.61-.763 0-.394.26-.44.616-.106.258.242.48.312 1 .312.567 0 .707.053.93.348.376.5.464 1.867.176 2.732-.28.842-1.125 1.813-1.892 2.173-.686.323-2.076 1.68-2.726 2.662a31.64 31.64 0 0 0-1.037 1.742c-.32.582-.86 1.462-1.198 1.954-.664.97-1.233 2.322-1.782 4.238-.323 1.125-.35 1.418-.363 3.928-.016 3.032-.173 3.776-.993 4.71-.932 1.06-1.862 3.392-1.94 4.86-.05.928-.192 1.832-.395 2.5-.09.295.078.29 1.072-.022z" fill="#fff"/><path d="M34.955 27.756l1.222-1.565 1.966-.276-1.222 1.565z" fill="#00acff"/></svg>