<svg xmlns="http://www.w3.org/2000/svg" width="190" height="189.125"><style><![CDATA[.B{fill-rule:evenodd}.C{color-interpolation-filters:sRGB}]]></style><defs><filter id="A" class="C"><feGaussianBlur stdDeviation="1.628"/></filter><linearGradient id="B" x1="263.385" y1="356.968" x2="323.405" y2="407.634" gradientUnits="userSpaceOnUse"><stop offset="0" stop-color="#c7f994"/><stop offset="1" stop-color="#87cf3e"/></linearGradient><linearGradient id="C" spreadMethod="pad" x1="70.492" y1="496.389" x2="113.642" y2="455.88" gradientUnits="userSpaceOnUse"><stop offset="0" stop-color="#3d3d3d"/><stop offset="1" stop-opacity=".114"/></linearGradient><filter id="D" class="C"><feGaussianBlur stdDeviation=".401"/></filter><filter id="E" class="C"><feGaussianBlur stdDeviation=".16"/></filter></defs><g transform="matrix(1.519334 0 0 1.519334 -363.932944 -504.00601)"><g class="B"><path transform="matrix(1.04293 0 0 1.04293 -46.853192 -90.016462)" d="M331.8 510.933c-21.3 0-39.766-16.14-39.766-37.41l-.02-21.992v-6.586h-13.498v-36.65l56.92.268 17.806.038C374.543 408.6 393 424.72 393 446v64.923H331.8z" opacity=".26" filter="url(#A)"/><path d="M354.825 425.265V375.82c0-16.52-14.487-29.9-32.36-29.9h-18.552v-.04l-50.175-.22v18.04h7.702c5.376 0 6.326 3.71 6.326 8.848l.04 31.894c0 16.52 14.487 29.9 32.34 29.9h44.082c5.65 0 10.597-3.58 10.597-9.08z" fill="url(#B)"/></g><g transform="matrix(1.0485 0 0 1.0485 200.58 -95.364589)"><path d="M142.938 500.53c-10.752-7.41-18.367-15.92-24.78-27.187-12.644-23.358-9.688-34.953-41-37.687-9.036 0-15.05-2-24.562-2v3.313c0 0 3.76 1.907 7.063 1.907 4.927 0 5.78 3.418 5.78 8.125l.03 29.155c0 15.138 13.295 27.406 29.656 27.406H135.5c2.964 0 5.626-1.168 7.438-3.03z" opacity=".175" fill="url(#C)" filter="url(#D)"/><path d="M105.518 438.54c-3.837 0-7.246 1.424-9.985 4.19s-4.175 6.218-4.175 10.114v19.695h8.933v-19.695c0-1.493.487-2.66 1.554-3.738s2.203-1.57 3.674-1.57c1.502 0 2.618.487 3.7 1.57 1.066 1.077 1.554 2.245 1.554 3.738v19.695h8.933v-19.695c0-1.493.487-2.66 1.554-3.738 1.072-1.083 2.188-1.57 3.7-1.57 1.47 0 2.604.49 3.674 1.57s1.554 2.245 1.554 3.738l.05 23.012c0 4.91-4.675 9.046-10.68 9.046l-28.806-.113c-4.635 0-8.593-4.51-8.593-10.31v-43.335h-8.447v45.002c0 4.775 1.747 8.962 5.146 12.348 2.905 2.868 6.4 4.564 10.325 4.984v.162h32.074c4.93 0 9.26-1.833 12.752-5.39H134c2.97-3.052 4.708-6.7 5.13-10.826l-.032-24.582c0-3.896-1.437-7.35-4.175-10.114s-6.148-4.19-9.985-4.19c-3.766 0-7.06 1.4-9.726 3.965-2.657-2.56-5.93-3.965-9.694-3.965z" fill-opacity=".08" filter="url(#E)" class="B"/></g><path d="M310.468 364.7c-4.023 0-7.597 1.494-10.47 4.395s-4.378 6.52-4.378 10.605v20.65h9.366V379.7c0-1.566.51-2.8 1.63-3.92s2.31-1.646 3.852-1.646c1.575 0 2.745.5 3.87 1.646 1.118 1.13 1.63 2.354 1.63 3.92v20.65h9.366V379.7c0-1.566.51-2.8 1.63-3.92 1.124-1.136 2.294-1.646 3.87-1.646 1.542 0 2.73.513 3.852 1.646s1.63 2.354 1.63 3.92l.05 24.128c0 5.147-4.902 9.485-11.2 9.485l-30.203-.12c-4.86 0-9-4.73-9-10.808V356.94h-8.857v47.185c0 5.006 1.832 9.396 5.396 12.946 3.046 3.007 6.71 4.956 10.825 5.396h33.63c5.168 0 9.708-1.922 13.37-5.65h.017c3.115-3.2 4.936-7.035 5.38-11.35l-.034-25.774c0-4.085-1.507-7.705-4.378-10.605s-6.446-4.395-10.47-4.395c-3.95 0-7.404 1.468-10.198 4.157-2.786-2.684-6.217-4.157-10.164-4.157z" fill="#fff" class="B"/><path d="M304.96 413.216v9.25h22c5.168 0 9.68-1.927 13.344-5.656h.03c3.115-3.2 4.932-7.028 5.375-11.344v-5.25h-9.344v3.594c0 5.147-4.9 9.47-11.188 9.47l-20.22-.062z" opacity=".3" fill="#52a800" class="B"/><path d="M299.853 441.19c-21.3 0-39.766-16.14-39.766-37.41l-.02-25.828v-6.586H246.57V338.55l56.92.268 17.806.038c21.31 0 39.766 16.12 39.766 37.41v64.923h-61.21zm52.536-17.416v-47.508c0-15.872-13.92-28.738-31.093-28.738h-17.825v-.038l-48.21-.21v15.412h5.4c3.666 0 8.078 3.445 8.078 8.502l.038 32.566c0 15.872 13.92 28.738 31.074 28.738h42.355c5.43 0 10.18-3.44 10.18-8.723z" fill="#fff" class="B"/></g></svg>
