<svg xmlns="http://www.w3.org/2000/svg" xmlns:xlink="http://www.w3.org/1999/xlink" width="128" height="128"><style><![CDATA[.B{color-interpolation-filters:sRGB}.C{fill-rule:evenodd}]]></style><defs><linearGradient y2="60.168" x2="58.142" y1="34.938" x1="32.913" xlink:href="#B" id="A"/><linearGradient id="B" xlink:href="#R"><stop offset="0" stop-color="#fff"/><stop offset="1" stop-color="#fff" stop-opacity="0"/></linearGradient><linearGradient y2="50" x2="90" y1="20" x1="60" xlink:href="#B" id="C"/><linearGradient id="D" xlink:href="#R"><stop offset="0" stop-color="#fff"/><stop offset="1" stop-color="#fff" stop-opacity="0"/></linearGradient><linearGradient xlink:href="#D" id="E" x1="231.376" y1="195.621" x2="231.376" y2="200.071"/><linearGradient xlink:href="#D" id="F" x1="231.625" y1="195.188" x2="231.75" y2="201.5"/><linearGradient id="G" x1="55.836" y1="76.728" x2="52.655" y2="84.017" xlink:href="#R"><stop offset="0" stop-color="#eeeeec"/><stop offset="1" stop-color="#eeeeec" stop-opacity="0"/></linearGradient><linearGradient xlink:href="#B" id="H" x1="30.325" y1="79.216" x2="34.781" y2="82.756"/><filter id="I" class="B"><feGaussianBlur stdDeviation=".805"/></filter><filter id="J" x="-.074" width="1.149" y="-.175" height="1.351" class="B"><feGaussianBlur stdDeviation="2.12"/></filter><filter id="K" x="-.085" width="1.171" y="-.278" height="1.556" class="B"><feGaussianBlur stdDeviation=".565"/></filter><filter id="L" class="B"><feGaussianBlur stdDeviation="1.241"/></filter><radialGradient id="M" gradientTransform="matrix(1.57005 0 0 1.05093 -75.5 -22.096)" cx="116.31" cy="250.897" fx="116.31" fy="250.897" r="30.6" xlink:href="#R"><stop offset="0" stop-color="#fff"/><stop offset="1" stop-color="#fff" stop-opacity="0"/></radialGradient><radialGradient id="N" gradientTransform="matrix(1 0 0 .42336 0 97.164)" cx="217.5" cy="182.082" fx="217.5" fy="182.082" r="34.25" xlink:href="#R"><stop offset="0" stop-color="#fff"/><stop offset="1" stop-color="#fff" stop-opacity="0"/></radialGradient><radialGradient id="O" cx="89.875" cy="187.869" fx="89.875" fy="187.869" r="22.75" gradientTransform="matrix(1 0 0 .40708 0 115.76)" xlink:href="#R"><stop offset="0" stop-color="#fff" stop-opacity=".33"/><stop offset="1" stop-color="#fff" stop-opacity="0"/></radialGradient><radialGradient id="P" cx="181.227" cy="214.551" fx="181.227" fy="214.551" r="22.466" gradientTransform="matrix(1.35152 0 0 1.71757 -63.706 -153.956)" xlink:href="#R"><stop offset="0" stop-color="#fff"/><stop offset="1" stop-color="#fff" stop-opacity="0"/></radialGradient><path id="Q" d="M237.875 199.063c0 1.346-3.554 2.437-7.938 2.437S222 200.41 222 199.062s3.554-2.437 7.938-2.437 7.937 1.09 7.937 2.438z"/><linearGradient id="R" gradientUnits="userSpaceOnUse"/></defs><g transform="matrix(.99658 0 0 .99627 .22 -1.598)"><path d="M54.1 12.988l-41.2 42.2c-15.6 15.6 10.1 14.3 19.4 20.2 4.3 2.8-13.8 6.4-10.1 10.1 3.6 3.7 21.7 7.1 25.3 10.7 3.6 3.7-7.3 7.6-3.7 11.3 3.5 3.7 11.9.2 13.4 8.6 1.1 6.2 15.4 3.1 21.8-2.2 4-3.4-6.9-3.4-3.3-7.1 9-9.1 17-4.1 20.3-12.5 1.8-4.5-13.6-7.7-9.5-10.6 9.8-6.9 45.8-10.4 29.2-27L73 12.988c-5.3-5-14-5-18.9 0zm47.3 81.3c0 2.1 16.3 3.3 15.4-.5-1.3-6.4-13.6-5.9-15.4.5zm-69.5 11.1c3.7 3.2 9.3-.7 11.1-5.2-3.6-4.7-16.9.3-11.1 5.2zm67.5-6.7c-4.6 4.2.8 8.6 5.3 5.7 1.2-.8-.1-4.7-5.3-5.7z" filter="url(#I)" transform="translate(0 .488)" opacity=".783"/><path d="M54.1 12.5L12.9 54.7C-2.7 70.3 23 69 32.3 74.9c4.3 2.8-13.8 6.4-10.1 10.1 3.6 3.7 21.7 7.1 25.3 10.7 3.6 3.7-7.3 7.6-3.7 11.3 3.5 3.7 11.9.2 13.4 8.6 1.1 6.2 15.4 3.1 21.8-2.2 4-3.4-6.9-3.4-3.3-7.1 9-9.1 17-4.1 20.3-12.5 1.8-4.5-13.6-7.7-9.5-10.6 9.8-6.9 45.8-10.4 29.2-27L73 12.5c-5.3-5-14-5-18.9 0zm47.3 81.3c0 2.1 16.3 3.3 15.4-.5-1.3-6.4-13.6-5.9-15.4.5zm-69.5 11.1c3.7 3.2 9.3-.7 11.1-5.2-3.6-4.7-16.9.3-11.1 5.2zm67.5-6.7c-4.6 4.2.8 8.6 5.3 5.7 1.2-.8-.1-4.7-5.3-5.7z"/><path d="M16.565 57.04c-11.202 11.1 8.477 7.972 23.615 13.926l31.285-55c-4.743-4.845-10.798-4.44-15.138 0L16.565 57.04z" opacity=".505" fill="url(#A)"/><path d="M70.5 15.5l16.3 16.6c1.5 1.5 1.5 4.6.6 5.5L79.3 31l-1.6 9.7-6.7-3.6L60.1 44l-3.6-14.5-5.8 12.6-14.5-.1c-2.8 0-2.4-2.9.5-5.8 5.7-6.3 16.8-17 20.3-20.7 3.6-3.7 9.9-3.6 13.5 0z" fill="url(#C)"/><g class="C"><path d="M113 203.5s3.34 5.1 3 7.5c-.668 4.71-10.8 7.058-8.563 11.25 2.22 4.14 10.222 1.794 16.938 6.125 6.688 4.313 4.9 13.1 9.75 15.313 9.48 4.312 34.375-7.438 33.125-7.188s-24.57 5.095-29.82.845c-5.986-4.845-7.702-8.23-12.118-11.095-4.137-2.685-9.95-3.78-11.302-5.98s2.7-5.034 3-9.27c.17-2.544-4-7.5-4-7.5z" transform="matrix(.52965 0 0 .52965 -11.722 -13.864)" opacity=".217" fill="url(#M)"/><path transform="matrix(.52965 0 0 .52965 -11.722 -14.791)" d="M183.25 181.75c61.104-21.655 50.774-21.53 61.25-27.75-19.428 7.437-55.734 8.23-68.5 29l7.25-1.25z" opacity=".512" fill="url(#N)" filter="url(#J)"/></g><use xlink:href="#Q" transform="matrix(.71315 0 0 1.14078 -54.578 -134.955)" opacity=".62" fill="url(#E)" filter="url(#K)"/><path transform="matrix(.20425 -.10356 .23952 .4724 5.755 30.287)" d="M236.446 199.063c0 1.702-2.914 3.082-6.51 3.082s-6.508-1.38-6.508-3.083 2.914-3.082 6.51-3.082 6.508 1.38 6.508 3.083z" opacity=".286" fill="url(#F)"/><path d="M68.25 186c0-.62 38.846 11.838 45.5 18.5-5.47-5.338-33.16-17.616-37.375-17.75s-7.625-.5-8.125-.75z" transform="matrix(.52965 0 0 .52965 -11.722 -13.864)" fill="url(#O)" class="C"/><use xlink:href="#Q" transform="matrix(.465568 -.102222 .123848 .368599 -95.518056 49.727931)" opacity=".286" fill="url(#F)"/><g class="C"><path d="M41.742 78.533c2.232 1.64 6.637.65 9.282 1.842 6.35 2.86 14.155 6.045 12.72.404l-1.616 1.342-.03-2.557-3.752.916s-2.907-2.333-4.24-3.102c-.278-.16-1.708 1.293-1.708 1.293l-.257-1.544a47.62 47.62 0 0 0-5.315-.272c-3.88.03-6.5.638-5.083 1.678z" fill="url(#G)"/><path transform="matrix(.4883 0 0 .4883 -5.81 -7.704)" d="M182.75 187.25c-1.76 6.478 21.628 15.28 19.875 19.75-3.86 9.842-24.976 3.138-41.125 23.75-2.313 2.953 3.25 13.5 2.5 12.25s-6.465-9.963-5-14.25c4.594-13.445 49.013-18.457 40.875-24.875-4.68-3.7-21.506-13.887-17.125-16.625z" opacity=".478" fill="url(#P)" filter="url(#L)"/></g><path d="M36.672 76.53c-7.153 4.424-18.274 6.034-6.104 8.972-1.45-3.228 3.14-2.872 6.104-8.972z" opacity=".25" fill="url(#H)"/></g></svg>