<svg xmlns="http://www.w3.org/2000/svg" viewBox="0 0 1000 1000"><style>.A{isolation:isolate}</style><path fill="#ac4142" d="M0 0h1000v1000H0z"/><path fill="#fff" d="M515.57 818.5c-194.52 0-332.65-131.65-332.65-317 0-186.28 140-318.83 336.4-318.83 188.88 0 328.9 135.23 328.9 317.93.01 185.35-138.13 317.9-332.65 317.9zm2.82-606.3c-109.94 0-169.15 103.9-169.15 297.33 0 180.9 58.26 279.42 166.33 279.42s166.33-98.5 166.33-282.1c0-186.28-60.14-294.65-163.5-294.65z"/><path fill="#ac4142" d="M0 327h1000v354H0z"/><path fill="#fff" d="M293 418.15V644.9h-11.37l-180.8-209.43v154.77c0 27.33 7.28 34.65 38.42 38.1V638h-91.8v-9.62C77 624.9 83 619.5 83 597.56v-182.5c-19.4-21.94-26.3-27.72-34.38-27.72v-9.62H134L275.16 542.9V425.47c0-27.33-7.7-35.42-37.62-38.1v-9.62h87v9.63C298.2 391.2 293 396.2 293 418.15zM561.1 638v-9.62c30.33-2.7 36-7.3 36-28.87v-196L495.18 638h-10.92L382.33 409.3v180.95c0 28.5 7.68 35.8 40.85 38.1V638h-94.64v-9.62c31.55-3.08 36.8-7.7 36.8-30.8V414.7c0-20-6.47-25-36-27.33v-9.62h102.33l80.9 181.72 80.9-181.72H695.4v9.63c-29.53 1.92-35.6 7.7-35.6 35.42v170.15c0 27.33 4 31.57 35.6 35.42V638zm378.98-182.9c-6.88-45.8-27.9-63.52-77.66-65.06v202.9c0 29.26 4.45 33.1 39.64 35.42V638h-144.4v-9.62c34.78-2.7 39.23-6.93 39.23-35.42V390c-50.15 1.54-71.2 19.25-78.06 65.06H707.1l1.2-77.38H951l.8 77.38z"/></svg>
