<svg xmlns="http://www.w3.org/2000/svg" xmlns:xlink="http://www.w3.org/1999/xlink" height="50" width="50"><defs><linearGradient id="A" xlink:href="#S"><stop offset="0" stop-color="#ff5c34"/><stop offset="1" stop-color="#eb0256"/></linearGradient><linearGradient id="B" xlink:href="#S"><stop offset="0" stop-color="#ffb000"/><stop offset="1" stop-color="#ff7725"/></linearGradient><filter x="-.266" y="-.189" width="1.532" height="1.472" id="C"><feOffset dy="1" in="SourceAlpha"/><feGaussianBlur stdDeviation="1.5"/><feColorMatrix values="0 0 0 0 0 0 0 0 0 0 0 0 0 0 0 0 0 0 0.298686594 0"/></filter><linearGradient id="D" x1="13.443" y1="30.78" x2="5.546" y2="15.47" xlink:href="#S"><stop stop-color="#21efe3" offset="0%"/><stop stop-color="#2598ff" offset="100%"/></linearGradient><linearGradient x1="45.732" y1="23.023" x2="12.824" y2="25.064" id="E" xlink:href="#S"><stop stop-color="#a63fdb" offset="0%"/><stop stop-color="#ff257e" offset="100%"/></linearGradient><linearGradient xlink:href="#A" id="F" x1="22.898" y1="22.986" x2="5.546" y2="24.011"/><linearGradient xlink:href="#A" id="G" x1="26.027" y1="12.372" x2="11.681" y2="21.618"/><linearGradient xlink:href="#B" id="H" x1="15.383" y1="20.74" x2="28.669" y2="-0.213"/><linearGradient id="I" x1="14.261" y1="23.156" x2="49.448" y2="24.732" xlink:href="#S"><stop stop-color="#9ee85d" offset="0%"/><stop stop-color="#0ed061" offset="100%"/></linearGradient><linearGradient x1="51.126" y1="17.593" x2="24.303" y2="22.098" id="J" xlink:href="#S"><stop stop-color="#17c934" offset="0"/><stop stop-color="#03ff6e" offset="1"/></linearGradient><linearGradient x1="25.623" y1="29.5" x2="38.031" y2="44.105" id="K" xlink:href="#S"><stop stop-color="#00fff0" offset="0"/><stop stop-color="#0087ff" offset="1"/></linearGradient><linearGradient x1="6.527" y1="46.259" x2="30.37" y2="30.142" id="L" xlink:href="#S"><stop stop-color="#a63fdb" offset="0"/><stop stop-color="#ff257e" offset="1"/></linearGradient><linearGradient xlink:href="#A" id="M" x1="19.535" y1="32.039" x2="-.571" y2="16.174"/><linearGradient xlink:href="#B" id="N" x1="15.383" y1="20.74" x2="28.669" y2="-.213"/><path id="O" d="M24.845 25.21c4.095-5.442 2.954-13.22-2.55-17.374S9.008 4.727 4.913 10.17l-.118.156a24.74 24.74 0 0 1 .921-1.167c6.528-7.78 16.895-10.467 26.126-7.656l.535.176c6.537 2.155 10.15 9.17 8.07 15.667s-9.066 10.018-15.604 7.863z"/><path id="P" d="M28.38 9.27l.187-.075c6.393-2.55 13.67.5 16.253 6.814s-.506 13.502-6.9 16.053c-.053-1.007-.228-1.98-.508-2.904 3.43-1.857 5.756-5.456 5.756-9.592 0-6.037-4.954-10.93-11.066-10.93a11.17 11.17 0 0 0-3.722.634z"/><path id="Q" d="M5.546 10.697l.187-.075c6.393-2.55 13.67.5 16.253 6.814s-.506 13.502-6.9 16.053c-.053-1.007-.228-1.98-.508-2.904 3.43-1.857 5.756-5.456 5.756-9.592 0-6.037-4.955-10.93-11.066-10.93a11.17 11.17 0 0 0-3.722.634z"/><path id="R" d="M24.1 55.523h4.545c4.28 0 7.752-3.364 7.752-7.513s-3.47-7.513-7.752-7.513h-6.56c-2.47 0-4.472 1.94-4.472 4.334v16.87z"/><linearGradient id="S" gradientUnits="userSpaceOnUse"/></defs><path d="M24.845 25.21c-4.066-5.563-11.842-6.838-17.367-2.847S.768 34.096 4.834 39.658l.308.42c-6.63-8.673-6.957-20.838-.347-29.753l.118-.156C9.008 4.727 16.8 3.682 22.294 7.835s6.646 11.93 2.55 17.374z" fill="url(#M)"/><path d="M24.845 25.21c-6.473 2.19-9.878 9.222-7.605 15.71s9.363 9.97 15.836 7.78l.43-.145c-8.05 2.88-17.428 1.495-24.513-4.45a25.35 25.35 0 0 1-3.849-4.023l-.308-.42C.768 34.096 1.952 26.35 7.477 22.36s13.3-2.715 17.367 2.847z" fill="url(#L)"/><path d="M24.845 25.21c.042 6.846 5.637 12.43 12.497 12.47s12.388-5.474 12.346-12.32l-.001-.157c.073 5.68-1.798 11.39-5.714 16.056a24.32 24.32 0 0 1-10.468 7.293l-.43.145c-6.473 2.19-13.563-1.294-15.836-7.78s1.132-13.52 7.605-15.71z" fill="url(#K)"/><path d="M24.845 25.21c6.537 2.155 13.523-1.365 15.604-7.863S38.916 3.834 32.378 1.68l-.535-.176c3.15.96 6.167 2.558 8.855 4.813a25.04 25.04 0 0 1 8.989 18.887l.001.157c.042 6.846-5.486 12.36-12.346 12.32s-12.455-5.625-12.497-12.47z" fill="url(#J)"/><use xlink:href="#O" fill="url(#N)"/><use xlink:href="#P" fill="url(#I)" transform="matrix(-.374607 .927184 -.927185 -.374607 68.842244 2.122857)" opacity=".544"/><path d="M49.616 24.963l-.001.2c-.03 6.883-5.584 12.487-12.407 12.517s-12.33-5.527-12.3-12.4c.954.328 1.92.53 2.883.617.437 3.876 2.903 7.38 6.737 8.93 5.597 2.26 11.99-.5 14.28-6.166a11.17 11.17 0 0 0 .807-3.688z" style="mix-blend-mode:overlay" fill="#000" fill-opacity=".5" opacity=".544"/><use xlink:href="#O" opacity=".1" fill="url(#H)"/><path d="M4.824 10.49l.122-.16C9.112 4.85 16.92 3.718 22.387 7.8s6.52 11.834 2.355 17.314c-.564-.836-1.215-1.58-1.932-2.228 1.984-3.358 2.123-7.64-.007-11.186-3.11-5.174-9.876-6.818-15.115-3.67a11.17 11.17 0 0 0-2.864 2.46z" opacity=".18" fill="url(#G)"/><use xlink:href="#Q" fill="url(#F)" transform="matrix(.857169 -.515038 .515039 .857167 -5.27229 4.334214)" opacity=".18"/><path d="M4.99 10.647l.122-.16c4.166-5.48 11.975-6.612 17.44-2.53s6.52 11.834 2.355 17.314c-.564-.836-1.215-1.58-1.932-2.228 1.984-3.358 2.123-7.64-.007-11.186-3.11-5.174-9.876-6.818-15.115-3.67a11.17 11.17 0 0 0-2.864 2.46z" style="mix-blend-mode:multiply" fill="#000" fill-opacity=".773" opacity=".18"/><use xlink:href="#P" x="-17.726" y="14.495" fill="url(#E)" transform="matrix(-.224951 -.97437 .974371 -.224951 -15.913458 55.421439)" opacity=".584"/><path d="M4.846 39.694l-.115-.165C.807 33.874 2.143 26.097 7.714 22.16s13.27-2.545 17.194 3.11c-.97.28-1.877.667-2.716 1.15-2.58-2.924-6.61-4.38-10.64-3.45-5.882 1.358-9.536 7.286-8.16 13.24a11.17 11.17 0 0 0 1.455 3.484z" style="mix-blend-mode:overlay" fill="#000" fill-opacity=".503" opacity=".584"/><use xlink:href="#Q" x="19.589" y="12.035" fill="url(#D)" transform="matrix(-.998631 -.052336 .052336 -.99863 57.15441 72.548735)" opacity=".562"/><path d="M33.243 48.532l-.19.065C26.535 50.8 19.428 47.383 17.18 40.94s1.212-13.457 7.73-15.67c.001 1.008.124 1.99.356 2.927-3.522 1.675-6.033 5.147-6.25 9.278-.316 6.028 4.376 11.175 10.48 11.495a11.17 11.17 0 0 0 3.75-.438z" style="mix-blend-mode:overlay" fill="#000" opacity=".562"/><path d="M32.187 1.616l.19.063c6.537 2.155 10.15 9.17 8.07 15.667s-9.066 10.018-15.604 7.863c.606-.806 1.098-1.663 1.478-2.552 3.82.782 7.916-.48 10.575-3.648 3.88-4.624 3.23-11.558-1.45-15.486a11.17 11.17 0 0 0-3.258-1.907z" style="mix-blend-mode:overlay" fill-opacity=".496"/><use xlink:href="#R" transform="matrix(1.000001 0 0 1 -1.215002 -25)" filter="url(#C)"/><use xlink:href="#R" x="-1.214" y="-25" fill="#fff"/></svg>
