<svg xmlns="http://www.w3.org/2000/svg" width="241.89" height="241.89" viewBox="0 0 64 64"><path d="M64 34.286a17.033 17.033 0 0 1-4.406 11.429 14.857 14.857 0 0 1-10.558 4.571h-2.179v-6.857h2.179a8.004 8.004 0 0 0 5.469-2.31 10.184 10.184 0 0 0 2.638-6.833 11.442 11.442 0 0 0-11.429-11.429c-.377 0-2.313.242-3.49.394a1.136 1.136 0 0 1-1.221-.764l-.465-1.358a14.103 14.103 0 0 0-11.716-9.632 13.666 13.666 0 0 0-14.73 16.779l.488 2.088a1.143 1.143 0 0 1-.782 1.354l-2.054.621a6.794 6.794 0 0 0-4.886 6.518 4.604 4.604 0 0 0 .946 2.808 5.539 5.539 0 0 0 4.089 1.763h5.25v6.857h-5.25a12.236 12.236 0 0 1-9.681-4.652A11.506 11.506 0 0 1 0 38.857a13.573 13.573 0 0 1 6.944-11.884l-.087-1.83A20.563 20.563 0 0 1 45.844 16 18.307 18.307 0 0 1 64 34.286zm-31.077-2.163a1.143 1.143 0 0 0-1.847 0l-8.592 11.775a1.143 1.143 0 0 0 .923 1.817h5.163v12.571a1.143 1.143 0 0 0 1.143 1.143h4.571a1.143 1.143 0 0 0 1.143-1.143V45.714h5.163a1.143 1.143 0 0 0 .923-1.817z" fill="#45a1ff"/></svg>